<svg width="2280" height="1400" xmlns="http://www.w3.org/2000/svg" xmlns:xlink="http://www.w3.org/1999/xlink" xml:space="preserve" overflow="hidden"><defs><clipPath id="clip0"><rect x="1110" y="436" width="2280" height="1400"/></clipPath><clipPath id="clip1"><rect x="1111" y="437" width="2277" height="1397"/></clipPath><clipPath id="clip2"><rect x="1111" y="437" width="2277" height="1397"/></clipPath><clipPath id="clip3"><rect x="1111" y="437" width="2277" height="1397"/></clipPath><clipPath id="clip4"><rect x="1380" y="607" width="1344" height="1027"/></clipPath><clipPath id="clip5"><rect x="1111" y="437" width="2277" height="1397"/></clipPath><clipPath id="clip6"><rect x="1380" y="607" width="1344" height="1027"/></clipPath><clipPath id="clip7"><rect x="1111" y="437" width="2277" height="1397"/></clipPath><clipPath id="clip8"><rect x="1380" y="607" width="1344" height="1027"/></clipPath><clipPath id="clip9"><rect x="1111" y="437" width="2277" height="1397"/></clipPath><clipPath id="clip10"><rect x="1380" y="607" width="1344" height="1027"/></clipPath><clipPath id="clip11"><rect x="1111" y="437" width="2277" height="1397"/></clipPath><clipPath id="clip12"><rect x="1380" y="607" width="1344" height="1027"/></clipPath><clipPath id="clip13"><rect x="1111" y="437" width="2277" height="1397"/></clipPath><clipPath id="clip14"><rect x="1380" y="607" width="1344" height="1027"/></clipPath><clipPath id="clip15"><rect x="1111" y="437" width="2277" height="1397"/></clipPath><clipPath id="clip16"><rect x="1380" y="607" width="1344" height="1027"/></clipPath><clipPath id="clip17"><rect x="1111" y="437" width="2277" height="1397"/></clipPath><clipPath id="clip18"><rect x="1380" y="607" width="1344" height="1027"/></clipPath><clipPath id="clip19"><rect x="1111" y="437" width="2277" height="1397"/></clipPath><clipPath id="clip20"><rect x="1380" y="607" width="1344" height="1027"/></clipPath><clipPath id="clip21"><rect x="1111" y="437" width="2277" height="1397"/></clipPath><clipPath id="clip22"><rect x="1380" y="607" width="1344" height="1027"/></clipPath><clipPath id="clip23"><rect x="1111" y="437" width="2277" height="1397"/></clipPath><clipPath id="clip24"><rect x="1111" y="437" width="2277" height="1397"/></clipPath><clipPath id="clip25"><rect x="1111" y="437" width="2277" height="1397"/></clipPath><clipPath id="clip26"><rect x="1111" y="437" width="2277" height="1397"/></clipPath><clipPath id="clip27"><rect x="1111" y="437" width="2277" height="1397"/></clipPath><clipPath id="clip28"><rect x="1111" y="437" width="2277" height="1397"/></clipPath><clipPath id="clip29"><rect x="1111" y="437" width="2277" height="1397"/></clipPath><clipPath id="clip30"><rect x="1111" y="437" width="2277" height="1397"/></clipPath><clipPath id="clip31"><rect x="1111" y="437" width="2277" height="1397"/></clipPath><clipPath id="clip32"><rect x="1111" y="437" width="2277" height="1397"/></clipPath><clipPath id="clip33"><rect x="1111" y="437" width="2277" height="1397"/></clipPath><clipPath id="clip34"><rect x="1111" y="437" width="2277" height="1397"/></clipPath><clipPath id="clip35"><rect x="1111" y="437" width="2277" height="1397"/></clipPath><clipPath id="clip36"><rect x="1111" y="437" width="2277" height="1397"/></clipPath><clipPath id="clip37"><rect x="1111" y="437" width="2277" height="1397"/></clipPath><clipPath id="clip38"><rect x="1111" y="437" width="2277" height="1397"/></clipPath><clipPath id="clip39"><rect x="1111" y="437" width="2277" height="1397"/></clipPath><clipPath id="clip40"><rect x="1111" y="437" width="2277" height="1397"/></clipPath><clipPath id="clip41"><rect x="1111" y="437" width="2277" height="1397"/></clipPath><clipPath id="clip42"><rect x="1111" y="437" width="2277" height="1397"/></clipPath><clipPath id="clip43"><rect x="1111" y="437" width="2277" height="1397"/></clipPath><clipPath id="clip44"><rect x="1111" y="437" width="2277" height="1397"/></clipPath><clipPath id="clip45"><rect x="1111" y="437" width="2277" height="1397"/></clipPath><clipPath id="clip46"><rect x="1111" y="437" width="2277" height="1397"/></clipPath><clipPath id="clip47"><rect x="1111" y="437" width="2277" height="1397"/></clipPath><clipPath id="clip48"><rect x="1111" y="437" width="2277" height="1397"/></clipPath><clipPath id="clip49"><rect x="1111" y="437" width="2277" height="1397"/></clipPath><clipPath id="clip50"><rect x="1111" y="437" width="2277" height="1397"/></clipPath><clipPath id="clip51"><rect x="1111" y="437" width="2277" height="1397"/></clipPath><clipPath id="clip52"><rect x="1111" y="437" width="2277" height="1397"/></clipPath><clipPath id="clip53"><rect x="1111" y="437" width="2277" height="1397"/></clipPath><clipPath id="clip54"><rect x="1111" y="437" width="2277" height="1397"/></clipPath><clipPath id="clip55"><rect x="1111" y="437" width="2277" height="1397"/></clipPath><clipPath id="clip56"><rect x="1111" y="437" width="2277" height="1397"/></clipPath><clipPath id="clip57"><rect x="1111" y="437" width="2277" height="1397"/></clipPath><clipPath id="clip58"><rect x="1111" y="437" width="2277" height="1397"/></clipPath><clipPath id="clip59"><rect x="1111" y="437" width="2277" height="1397"/></clipPath><clipPath id="clip60"><rect x="1111" y="437" width="2277" height="1397"/></clipPath><clipPath id="clip61"><rect x="1111" y="437" width="2277" height="1397"/></clipPath><clipPath id="clip62"><rect x="1111" y="437" width="2277" height="1397"/></clipPath><clipPath id="clip63"><rect x="1111" y="437" width="2277" height="1397"/></clipPath><clipPath id="clip64"><rect x="1111" y="437" width="2277" height="1397"/></clipPath><clipPath id="clip65"><rect x="1111" y="437" width="2277" height="1397"/></clipPath><clipPath id="clip66"><rect x="1111" y="437" width="2277" height="1397"/></clipPath><clipPath id="clip67"><rect x="1111" y="437" width="2277" height="1397"/></clipPath><clipPath id="clip68"><rect x="1111" y="437" width="2277" height="1397"/></clipPath><clipPath id="clip69"><rect x="1111" y="437" width="2277" height="1397"/></clipPath><clipPath id="clip70"><rect x="1111" y="437" width="2277" height="1397"/></clipPath></defs><g clip-path="url(#clip0)" transform="translate(-1110 -436)"><rect x="1111" y="437" width="2277" height="1397" fill="#FFFFFF"/><g clip-path="url(#clip1)"><path d="M1380.5 1460.55 2721.5 1460.55M1380.5 1289.54 2721.5 1289.54M1380.5 1118.54 2721.5 1118.54M1380.5 948.531 2721.5 948.531M1380.5 777.526 2721.5 777.526M1380.5 607.5 2721.5 607.5" stroke="#D9D9D9" stroke-width="3.4375" stroke-linejoin="round" stroke-miterlimit="10" fill="none"/></g><g clip-path="url(#clip2)"><path d="M0 0 0.000360892 1023" stroke="#BFBFBF" stroke-width="3.4375" stroke-linejoin="round" stroke-miterlimit="10" fill="none" fill-rule="evenodd" transform="matrix(1 0 0 -1 1380.5 1630.5)"/></g><g clip-path="url(#clip3)"><path d="M1380.5 1630.5 2721.5 1630.5" stroke="#BFBFBF" stroke-width="3.4375" stroke-linejoin="round" stroke-miterlimit="10" fill="none" fill-rule="evenodd"/></g><g clip-path="url(#clip4)"><path d="M1492.5 1629.5C1529.72 1627.79 1566.94 1626.94 1604.17 1624.38 1641.39 1621.82 1678.61 1618.58 1715.83 1614.15 1753.06 1609.71 1790.28 1602.09 1827.5 1597.77 1864.72 1593.45 1901.94 1594.42 1939.17 1588.22 1976.39 1582.02 2013.61 1570.51 2050.83 1560.58 2088.06 1550.66 2125.28 1536.62 2162.5 1528.68 2199.72 1520.75 2236.94 1524.31 2274.17 1512.99 2311.39 1501.68 2348.61 1471.08 2385.83 1460.79 2423.06 1450.5 2460.28 1454.42 2497.5 1451.24" stroke="#4472C4" stroke-width="6.875" stroke-linecap="round" stroke-linejoin="round" stroke-miterlimit="10" fill="none"/></g><g clip-path="url(#clip5)"><path d="M1503.5 1629.75C1503.5 1635.82 1498.57 1640.75 1492.5 1640.75 1486.42 1640.75 1481.5 1635.82 1481.5 1629.75 1481.5 1623.67 1486.42 1618.75 1492.5 1618.75 1498.57 1618.75 1503.5 1623.67 1503.5 1629.75Z" stroke="#4472C4" stroke-width="3.4375" stroke-linejoin="round" stroke-miterlimit="10" fill="#4472C4"/><path d="M1615.5 1624.75C1615.5 1630.82 1610.57 1635.75 1604.5 1635.75 1598.42 1635.75 1593.5 1630.82 1593.5 1624.75 1593.5 1618.67 1598.42 1613.75 1604.5 1613.75 1610.57 1613.75 1615.5 1618.67 1615.5 1624.75Z" stroke="#4472C4" stroke-width="3.4375" stroke-linejoin="round" stroke-miterlimit="10" fill="#4472C4"/><path d="M1726.5 1614.75C1726.5 1620.82 1721.57 1625.75 1715.5 1625.75 1709.42 1625.75 1704.5 1620.82 1704.5 1614.75 1704.5 1608.67 1709.42 1603.75 1715.5 1603.75 1721.57 1603.75 1726.5 1608.67 1726.5 1614.75Z" stroke="#4472C4" stroke-width="3.4375" stroke-linejoin="round" stroke-miterlimit="10" fill="#4472C4"/><path d="M1838.5 1597.75C1838.5 1603.82 1833.57 1608.75 1827.5 1608.75 1821.42 1608.75 1816.5 1603.82 1816.5 1597.75 1816.5 1591.67 1821.42 1586.75 1827.5 1586.75 1833.57 1586.75 1838.5 1591.67 1838.5 1597.75Z" stroke="#4472C4" stroke-width="3.4375" stroke-linejoin="round" stroke-miterlimit="10" fill="#4472C4"/><path d="M1950.5 1588.75C1950.5 1594.82 1945.57 1599.75 1939.5 1599.75 1933.42 1599.75 1928.5 1594.82 1928.5 1588.75 1928.5 1582.67 1933.42 1577.75 1939.5 1577.75 1945.57 1577.75 1950.5 1582.67 1950.5 1588.75Z" stroke="#4472C4" stroke-width="3.4375" stroke-linejoin="round" stroke-miterlimit="10" fill="#4472C4"/><path d="M2062.5 1560.75C2062.5 1566.82 2057.57 1571.75 2051.5 1571.75 2045.42 1571.75 2040.5 1566.82 2040.5 1560.75 2040.5 1554.67 2045.42 1549.75 2051.5 1549.75 2057.57 1549.75 2062.5 1554.67 2062.5 1560.75Z" stroke="#4472C4" stroke-width="3.4375" stroke-linejoin="round" stroke-miterlimit="10" fill="#4472C4"/><path d="M2173.5 1528.75C2173.5 1534.82 2168.57 1539.75 2162.5 1539.75 2156.42 1539.75 2151.5 1534.82 2151.5 1528.75 2151.5 1522.68 2156.42 1517.75 2162.5 1517.75 2168.57 1517.75 2173.5 1522.68 2173.5 1528.75Z" stroke="#4472C4" stroke-width="3.4375" stroke-linejoin="round" stroke-miterlimit="10" fill="#4472C4"/><path d="M2285.5 1512.75C2285.5 1518.82 2280.57 1523.75 2274.5 1523.75 2268.42 1523.75 2263.5 1518.82 2263.5 1512.75 2263.5 1506.67 2268.42 1501.75 2274.5 1501.75 2280.57 1501.75 2285.5 1506.67 2285.5 1512.75Z" stroke="#4472C4" stroke-width="3.4375" stroke-linejoin="round" stroke-miterlimit="10" fill="#4472C4"/><path d="M2397.5 1460.75C2397.5 1466.82 2392.57 1471.75 2386.5 1471.75 2380.42 1471.75 2375.5 1466.82 2375.5 1460.75 2375.5 1454.67 2380.42 1449.75 2386.5 1449.75 2392.57 1449.75 2397.5 1454.67 2397.5 1460.75Z" stroke="#4472C4" stroke-width="3.4375" stroke-linejoin="round" stroke-miterlimit="10" fill="#4472C4"/><path d="M2508.5 1451.75C2508.5 1457.82 2503.57 1462.75 2497.5 1462.75 2491.42 1462.75 2486.5 1457.82 2486.5 1451.75 2486.5 1445.68 2491.42 1440.75 2497.5 1440.75 2503.57 1440.75 2508.5 1445.68 2508.5 1451.75Z" stroke="#4472C4" stroke-width="3.4375" stroke-linejoin="round" stroke-miterlimit="10" fill="#4472C4"/></g><g clip-path="url(#clip6)"><path d="M1492.5 1622.5C1529.72 1613.96 1566.94 1608.27 1604.17 1596.89 1641.39 1585.51 1678.61 1571.29 1715.83 1554.22 1753.06 1537.15 1790.28 1517.23 1827.5 1494.47 1864.72 1471.71 1901.94 1446.1 1939.17 1417.65 1976.39 1389.2 2013.61 1357.9 2050.83 1323.76 2088.06 1289.62 2125.28 1252.63 2162.5 1212.8 2199.72 1172.97 2236.94 1130.29 2274.17 1084.77 2311.39 1039.25 2348.61 990.884 2385.83 939.672 2423.06 888.46 2460.28 831.557 2497.5 777.5" stroke="#ED7D31" stroke-width="6.875" stroke-linecap="round" stroke-linejoin="round" stroke-miterlimit="10" fill="none"/></g><g clip-path="url(#clip7)"><path d="M1503.5 1622.75C1503.5 1628.82 1498.57 1633.75 1492.5 1633.75 1486.42 1633.75 1481.5 1628.82 1481.5 1622.75 1481.5 1616.67 1486.42 1611.75 1492.5 1611.75 1498.57 1611.75 1503.5 1616.67 1503.5 1622.75Z" stroke="#ED7D31" stroke-width="3.4375" stroke-linejoin="round" stroke-miterlimit="10" fill="#ED7D31"/><path d="M1615.5 1596.75C1615.5 1602.82 1610.57 1607.75 1604.5 1607.75 1598.42 1607.75 1593.5 1602.82 1593.5 1596.75 1593.5 1590.67 1598.42 1585.75 1604.5 1585.75 1610.57 1585.75 1615.5 1590.67 1615.5 1596.75Z" stroke="#ED7D31" stroke-width="3.4375" stroke-linejoin="round" stroke-miterlimit="10" fill="#ED7D31"/><path d="M1726.5 1554.75C1726.5 1560.82 1721.57 1565.75 1715.5 1565.75 1709.42 1565.75 1704.5 1560.82 1704.5 1554.75 1704.5 1548.67 1709.42 1543.75 1715.5 1543.75 1721.57 1543.75 1726.5 1548.67 1726.5 1554.75Z" stroke="#ED7D31" stroke-width="3.4375" stroke-linejoin="round" stroke-miterlimit="10" fill="#ED7D31"/><path d="M1838.5 1494.75C1838.5 1500.82 1833.57 1505.75 1827.5 1505.75 1821.42 1505.75 1816.5 1500.82 1816.5 1494.75 1816.5 1488.67 1821.42 1483.75 1827.5 1483.75 1833.57 1483.75 1838.5 1488.67 1838.5 1494.75Z" stroke="#ED7D31" stroke-width="3.4375" stroke-linejoin="round" stroke-miterlimit="10" fill="#ED7D31"/><path d="M1950.5 1417.75C1950.5 1423.82 1945.57 1428.75 1939.5 1428.75 1933.42 1428.75 1928.5 1423.82 1928.5 1417.75 1928.5 1411.67 1933.42 1406.75 1939.5 1406.75 1945.57 1406.75 1950.5 1411.67 1950.5 1417.75Z" stroke="#ED7D31" stroke-width="3.4375" stroke-linejoin="round" stroke-miterlimit="10" fill="#ED7D31"/><path d="M2062.5 1323.75C2062.5 1329.82 2057.57 1334.75 2051.5 1334.75 2045.42 1334.75 2040.5 1329.82 2040.5 1323.75 2040.5 1317.67 2045.42 1312.75 2051.5 1312.75 2057.57 1312.75 2062.5 1317.67 2062.5 1323.75Z" stroke="#ED7D31" stroke-width="3.4375" stroke-linejoin="round" stroke-miterlimit="10" fill="#ED7D31"/><path d="M2173.5 1212.75C2173.5 1218.82 2168.57 1223.75 2162.5 1223.75 2156.42 1223.75 2151.5 1218.82 2151.5 1212.75 2151.5 1206.67 2156.42 1201.75 2162.5 1201.75 2168.57 1201.75 2173.5 1206.67 2173.5 1212.75Z" stroke="#ED7D31" stroke-width="3.4375" stroke-linejoin="round" stroke-miterlimit="10" fill="#ED7D31"/><path d="M2285.5 1084.75C2285.5 1090.82 2280.57 1095.75 2274.5 1095.75 2268.42 1095.75 2263.5 1090.82 2263.5 1084.75 2263.5 1078.67 2268.42 1073.75 2274.5 1073.75 2280.57 1073.75 2285.5 1078.67 2285.5 1084.75Z" stroke="#ED7D31" stroke-width="3.4375" stroke-linejoin="round" stroke-miterlimit="10" fill="#ED7D31"/><path d="M2397.5 939.75C2397.5 945.825 2392.57 950.749 2386.5 950.749 2380.42 950.749 2375.5 945.825 2375.5 939.75 2375.5 933.675 2380.42 928.75 2386.5 928.75 2392.57 928.75 2397.5 933.675 2397.5 939.75Z" stroke="#ED7D31" stroke-width="3.4375" stroke-linejoin="round" stroke-miterlimit="10" fill="#ED7D31"/><path d="M2508.5 777.75C2508.5 783.825 2503.57 788.749 2497.5 788.749 2491.42 788.749 2486.5 783.825 2486.5 777.75 2486.5 771.675 2491.42 766.75 2497.5 766.75 2503.57 766.75 2508.5 771.675 2508.5 777.75Z" stroke="#ED7D31" stroke-width="3.4375" stroke-linejoin="round" stroke-miterlimit="10" fill="#ED7D31"/></g><g clip-path="url(#clip8)"><path d="M1492.5 1629.5C1529.72 1628.91 1566.94 1628.31 1604.17 1627.72 1641.39 1627.13 1678.61 1626.54 1715.83 1625.94 1753.06 1625.35 1790.28 1624.76 1827.5 1624.17 1864.72 1623.57 1901.94 1622.98 1939.17 1622.39 1976.39 1621.8 2013.61 1621.2 2050.83 1620.61 2088.06 1620.02 2125.28 1619.43 2162.5 1618.83 2199.72 1618.24 2236.94 1617.65 2274.17 1617.06 2311.39 1616.46 2348.61 1615.87 2385.83 1615.28 2423.06 1614.69 2460.28 1614.09 2497.5 1613.5" stroke="#A5A5A5" stroke-width="6.875" stroke-linecap="round" stroke-linejoin="round" stroke-miterlimit="10" fill="none"/></g><g clip-path="url(#clip9)"><path d="M1503.5 1629.75C1503.5 1635.82 1498.57 1640.75 1492.5 1640.75 1486.42 1640.75 1481.5 1635.82 1481.5 1629.75 1481.5 1623.67 1486.42 1618.75 1492.5 1618.75 1498.57 1618.75 1503.5 1623.67 1503.5 1629.75Z" stroke="#A5A5A5" stroke-width="3.4375" stroke-linejoin="round" stroke-miterlimit="10" fill="#A5A5A5"/><path d="M1615.5 1627.75C1615.5 1633.82 1610.57 1638.75 1604.5 1638.75 1598.42 1638.75 1593.5 1633.82 1593.5 1627.75 1593.5 1621.68 1598.42 1616.75 1604.5 1616.75 1610.57 1616.75 1615.5 1621.68 1615.5 1627.75Z" stroke="#A5A5A5" stroke-width="3.4375" stroke-linejoin="round" stroke-miterlimit="10" fill="#A5A5A5"/><path d="M1726.5 1625.75C1726.5 1631.82 1721.57 1636.75 1715.5 1636.75 1709.42 1636.75 1704.5 1631.82 1704.5 1625.75 1704.5 1619.67 1709.42 1614.75 1715.5 1614.75 1721.57 1614.75 1726.5 1619.67 1726.5 1625.75Z" stroke="#A5A5A5" stroke-width="3.4375" stroke-linejoin="round" stroke-miterlimit="10" fill="#A5A5A5"/><path d="M1838.5 1624.75C1838.5 1630.82 1833.57 1635.75 1827.5 1635.75 1821.42 1635.75 1816.5 1630.82 1816.5 1624.75 1816.5 1618.67 1821.42 1613.75 1827.5 1613.75 1833.57 1613.75 1838.5 1618.67 1838.5 1624.75Z" stroke="#A5A5A5" stroke-width="3.4375" stroke-linejoin="round" stroke-miterlimit="10" fill="#A5A5A5"/><path d="M1950.5 1622.75C1950.5 1628.82 1945.57 1633.75 1939.5 1633.75 1933.42 1633.75 1928.5 1628.82 1928.5 1622.75 1928.5 1616.67 1933.42 1611.75 1939.5 1611.75 1945.57 1611.75 1950.5 1616.67 1950.5 1622.75Z" stroke="#A5A5A5" stroke-width="3.4375" stroke-linejoin="round" stroke-miterlimit="10" fill="#A5A5A5"/><path d="M2062.5 1620.75C2062.5 1626.82 2057.57 1631.75 2051.5 1631.75 2045.42 1631.75 2040.5 1626.82 2040.5 1620.75 2040.5 1614.67 2045.42 1609.75 2051.5 1609.75 2057.57 1609.75 2062.5 1614.67 2062.5 1620.75Z" stroke="#A5A5A5" stroke-width="3.4375" stroke-linejoin="round" stroke-miterlimit="10" fill="#A5A5A5"/><path d="M2173.5 1618.75C2173.5 1624.82 2168.57 1629.75 2162.5 1629.75 2156.42 1629.75 2151.5 1624.82 2151.5 1618.75 2151.5 1612.67 2156.42 1607.75 2162.5 1607.75 2168.57 1607.75 2173.5 1612.67 2173.5 1618.75Z" stroke="#A5A5A5" stroke-width="3.4375" stroke-linejoin="round" stroke-miterlimit="10" fill="#A5A5A5"/><path d="M2285.5 1617.75C2285.5 1623.82 2280.57 1628.75 2274.5 1628.75 2268.42 1628.75 2263.5 1623.82 2263.5 1617.75 2263.5 1611.68 2268.42 1606.75 2274.5 1606.75 2280.57 1606.75 2285.5 1611.68 2285.5 1617.75Z" stroke="#A5A5A5" stroke-width="3.4375" stroke-linejoin="round" stroke-miterlimit="10" fill="#A5A5A5"/><path d="M2397.5 1615.75C2397.5 1621.82 2392.57 1626.75 2386.5 1626.75 2380.42 1626.75 2375.5 1621.82 2375.5 1615.75 2375.5 1609.67 2380.42 1604.75 2386.5 1604.75 2392.57 1604.75 2397.5 1609.67 2397.5 1615.75Z" stroke="#A5A5A5" stroke-width="3.4375" stroke-linejoin="round" stroke-miterlimit="10" fill="#A5A5A5"/><path d="M2508.5 1613.75C2508.5 1619.82 2503.57 1624.75 2497.5 1624.75 2491.42 1624.75 2486.5 1619.82 2486.5 1613.75 2486.5 1607.67 2491.42 1602.75 2497.5 1602.75 2503.57 1602.75 2508.5 1607.67 2508.5 1613.75Z" stroke="#A5A5A5" stroke-width="3.4375" stroke-linejoin="round" stroke-miterlimit="10" fill="#A5A5A5"/></g><g clip-path="url(#clip10)"><path d="M1492.5 1628.5C1529.72 1627.65 1566.94 1626.8 1604.17 1625.94 1641.39 1625.09 1678.61 1624.24 1715.83 1623.39 1753.06 1622.54 1790.28 1621.68 1827.5 1620.83 1864.72 1619.98 1901.94 1619.13 1939.17 1618.28 1976.39 1617.43 2013.61 1616.57 2050.83 1615.72 2088.06 1614.87 2125.28 1614.02 2162.5 1613.17 2199.72 1612.31 2236.94 1611.46 2274.17 1610.61 2311.39 1609.76 2348.61 1608.91 2385.83 1608.06 2423.06 1607.2 2460.28 1606.35 2497.5 1605.5" stroke="#FFC000" stroke-width="6.875" stroke-linecap="round" stroke-linejoin="round" stroke-miterlimit="10" fill="none"/></g><g clip-path="url(#clip11)"><path d="M1503.5 1628.75C1503.5 1634.82 1498.57 1639.75 1492.5 1639.75 1486.42 1639.75 1481.5 1634.82 1481.5 1628.75 1481.5 1622.68 1486.42 1617.75 1492.5 1617.75 1498.57 1617.75 1503.5 1622.68 1503.5 1628.75Z" stroke="#FFC000" stroke-width="3.4375" stroke-linejoin="round" stroke-miterlimit="10" fill="#FFC000"/><path d="M1615.5 1625.75C1615.5 1631.82 1610.57 1636.75 1604.5 1636.75 1598.42 1636.75 1593.5 1631.82 1593.5 1625.75 1593.5 1619.67 1598.42 1614.75 1604.5 1614.75 1610.57 1614.75 1615.5 1619.67 1615.5 1625.75Z" stroke="#FFC000" stroke-width="3.4375" stroke-linejoin="round" stroke-miterlimit="10" fill="#FFC000"/><path d="M1726.5 1623.75C1726.5 1629.82 1721.57 1634.75 1715.5 1634.75 1709.42 1634.75 1704.5 1629.82 1704.5 1623.75 1704.5 1617.67 1709.42 1612.75 1715.5 1612.75 1721.57 1612.75 1726.5 1617.67 1726.5 1623.75Z" stroke="#FFC000" stroke-width="3.4375" stroke-linejoin="round" stroke-miterlimit="10" fill="#FFC000"/><path d="M1838.5 1620.75C1838.5 1626.82 1833.57 1631.75 1827.5 1631.75 1821.42 1631.75 1816.5 1626.82 1816.5 1620.75 1816.5 1614.67 1821.42 1609.75 1827.5 1609.75 1833.57 1609.75 1838.5 1614.67 1838.5 1620.75Z" stroke="#FFC000" stroke-width="3.4375" stroke-linejoin="round" stroke-miterlimit="10" fill="#FFC000"/><path d="M1950.5 1618.75C1950.5 1624.82 1945.57 1629.75 1939.5 1629.75 1933.42 1629.75 1928.5 1624.82 1928.5 1618.75 1928.5 1612.67 1933.42 1607.75 1939.5 1607.75 1945.57 1607.75 1950.5 1612.67 1950.5 1618.75Z" stroke="#FFC000" stroke-width="3.4375" stroke-linejoin="round" stroke-miterlimit="10" fill="#FFC000"/><path d="M2062.5 1615.75C2062.5 1621.82 2057.57 1626.75 2051.5 1626.75 2045.42 1626.75 2040.5 1621.82 2040.5 1615.75 2040.5 1609.67 2045.42 1604.75 2051.5 1604.75 2057.57 1604.75 2062.5 1609.67 2062.5 1615.75Z" stroke="#FFC000" stroke-width="3.4375" stroke-linejoin="round" stroke-miterlimit="10" fill="#FFC000"/><path d="M2173.5 1613.75C2173.5 1619.82 2168.57 1624.75 2162.5 1624.75 2156.42 1624.75 2151.5 1619.82 2151.5 1613.75 2151.5 1607.67 2156.42 1602.75 2162.5 1602.75 2168.57 1602.75 2173.5 1607.67 2173.5 1613.75Z" stroke="#FFC000" stroke-width="3.4375" stroke-linejoin="round" stroke-miterlimit="10" fill="#FFC000"/><path d="M2285.5 1610.75C2285.5 1616.82 2280.57 1621.75 2274.5 1621.75 2268.42 1621.75 2263.5 1616.82 2263.5 1610.75 2263.5 1604.67 2268.42 1599.75 2274.5 1599.75 2280.57 1599.75 2285.5 1604.67 2285.5 1610.75Z" stroke="#FFC000" stroke-width="3.4375" stroke-linejoin="round" stroke-miterlimit="10" fill="#FFC000"/><path d="M2397.5 1607.75C2397.5 1613.82 2392.57 1618.75 2386.5 1618.75 2380.42 1618.75 2375.5 1613.82 2375.5 1607.75 2375.5 1601.67 2380.42 1596.75 2386.5 1596.75 2392.57 1596.75 2397.5 1601.67 2397.5 1607.75Z" stroke="#FFC000" stroke-width="3.4375" stroke-linejoin="round" stroke-miterlimit="10" fill="#FFC000"/><path d="M2508.5 1605.75C2508.5 1611.82 2503.57 1616.75 2497.5 1616.75 2491.42 1616.75 2486.5 1611.82 2486.5 1605.75 2486.5 1599.68 2491.42 1594.75 2497.5 1594.75 2503.57 1594.75 2508.5 1599.68 2508.5 1605.75Z" stroke="#FFC000" stroke-width="3.4375" stroke-linejoin="round" stroke-miterlimit="10" fill="#FFC000"/></g><g clip-path="url(#clip12)"><path d="M1492.5 1629.5C1529.72 1629.24 1566.94 1628.98 1604.17 1628.72 1641.39 1628.46 1678.61 1628.2 1715.83 1627.94 1753.06 1627.68 1790.28 1627.43 1827.5 1627.17 1864.72 1626.91 1901.94 1626.65 1939.17 1626.39 1976.39 1626.13 2013.61 1625.87 2050.83 1625.61 2088.06 1625.35 2125.28 1625.09 2162.5 1624.83 2199.72 1624.57 2236.94 1624.31 2274.17 1624.06 2311.39 1623.8 2348.61 1623.54 2385.83 1623.28 2423.06 1623.02 2460.28 1622.76 2497.5 1622.5" stroke="#5B9BD5" stroke-width="6.875" stroke-linecap="round" stroke-linejoin="round" stroke-miterlimit="10" fill="none"/></g><g clip-path="url(#clip13)"><path d="M1503.5 1629.75C1503.5 1635.82 1498.57 1640.75 1492.5 1640.75 1486.42 1640.75 1481.5 1635.82 1481.5 1629.75 1481.5 1623.67 1486.42 1618.75 1492.5 1618.75 1498.57 1618.75 1503.5 1623.67 1503.5 1629.75Z" stroke="#5B9BD5" stroke-width="3.4375" stroke-linejoin="round" stroke-miterlimit="10" fill="#5B9BD5"/><path d="M1615.5 1629.75C1615.5 1635.82 1610.57 1640.75 1604.5 1640.75 1598.42 1640.75 1593.5 1635.82 1593.5 1629.75 1593.5 1623.67 1598.42 1618.75 1604.5 1618.75 1610.57 1618.75 1615.5 1623.67 1615.5 1629.75Z" stroke="#5B9BD5" stroke-width="3.4375" stroke-linejoin="round" stroke-miterlimit="10" fill="#5B9BD5"/><path d="M1726.5 1628.75C1726.5 1634.82 1721.57 1639.75 1715.5 1639.75 1709.42 1639.75 1704.5 1634.82 1704.5 1628.75 1704.5 1622.68 1709.42 1617.75 1715.5 1617.75 1721.57 1617.75 1726.5 1622.68 1726.5 1628.75Z" stroke="#5B9BD5" stroke-width="3.4375" stroke-linejoin="round" stroke-miterlimit="10" fill="#5B9BD5"/><path d="M1838.5 1627.75C1838.5 1633.82 1833.57 1638.75 1827.5 1638.75 1821.42 1638.75 1816.5 1633.82 1816.5 1627.75 1816.5 1621.68 1821.42 1616.75 1827.5 1616.75 1833.57 1616.75 1838.5 1621.68 1838.5 1627.75Z" stroke="#5B9BD5" stroke-width="3.4375" stroke-linejoin="round" stroke-miterlimit="10" fill="#5B9BD5"/><path d="M1950.5 1626.75C1950.5 1632.82 1945.57 1637.75 1939.5 1637.75 1933.42 1637.75 1928.5 1632.82 1928.5 1626.75 1928.5 1620.67 1933.42 1615.75 1939.5 1615.75 1945.57 1615.75 1950.5 1620.67 1950.5 1626.75Z" stroke="#5B9BD5" stroke-width="3.4375" stroke-linejoin="round" stroke-miterlimit="10" fill="#5B9BD5"/><path d="M2062.5 1625.75C2062.5 1631.82 2057.57 1636.75 2051.5 1636.75 2045.42 1636.75 2040.5 1631.82 2040.5 1625.75 2040.5 1619.67 2045.42 1614.75 2051.5 1614.75 2057.57 1614.75 2062.5 1619.67 2062.5 1625.75Z" stroke="#5B9BD5" stroke-width="3.4375" stroke-linejoin="round" stroke-miterlimit="10" fill="#5B9BD5"/><path d="M2173.5 1624.75C2173.5 1630.82 2168.57 1635.75 2162.5 1635.75 2156.42 1635.75 2151.5 1630.82 2151.5 1624.75 2151.5 1618.67 2156.42 1613.75 2162.5 1613.75 2168.57 1613.75 2173.5 1618.67 2173.5 1624.75Z" stroke="#5B9BD5" stroke-width="3.4375" stroke-linejoin="round" stroke-miterlimit="10" fill="#5B9BD5"/><path d="M2285.5 1623.75C2285.5 1629.82 2280.57 1634.75 2274.5 1634.75 2268.42 1634.75 2263.5 1629.82 2263.5 1623.75 2263.5 1617.67 2268.42 1612.75 2274.5 1612.75 2280.57 1612.75 2285.5 1617.67 2285.5 1623.75Z" stroke="#5B9BD5" stroke-width="3.4375" stroke-linejoin="round" stroke-miterlimit="10" fill="#5B9BD5"/><path d="M2397.5 1623.75C2397.5 1629.82 2392.57 1634.75 2386.5 1634.75 2380.42 1634.75 2375.5 1629.82 2375.5 1623.75 2375.5 1617.67 2380.42 1612.75 2386.5 1612.75 2392.57 1612.75 2397.5 1617.67 2397.5 1623.75Z" stroke="#5B9BD5" stroke-width="3.4375" stroke-linejoin="round" stroke-miterlimit="10" fill="#5B9BD5"/><path d="M2508.5 1622.75C2508.5 1628.82 2503.57 1633.75 2497.5 1633.75 2491.42 1633.75 2486.5 1628.82 2486.5 1622.75 2486.5 1616.67 2491.42 1611.75 2497.5 1611.75 2503.57 1611.75 2508.5 1616.67 2508.5 1622.75Z" stroke="#5B9BD5" stroke-width="3.4375" stroke-linejoin="round" stroke-miterlimit="10" fill="#5B9BD5"/></g><g clip-path="url(#clip14)"><path d="M1492.5 1626.5C1529.72 1622.09 1566.94 1619.11 1604.17 1613.28 1641.39 1607.45 1678.61 1600.2 1715.83 1591.53 1753.06 1582.86 1790.28 1572.77 1827.5 1561.26 1864.72 1549.74 1901.94 1536.81 1939.17 1522.45 1976.39 1508.1 2013.61 1492.32 2050.83 1475.12 2088.06 1457.92 2125.28 1439.3 2162.5 1419.26 2199.72 1399.21 2236.94 1377.75 2274.17 1354.87 2311.39 1331.98 2348.61 1307.67 2385.83 1281.95 2423.06 1256.22 2460.28 1227.65 2497.5 1200.5" stroke="#70AD47" stroke-width="6.875" stroke-linecap="round" stroke-linejoin="round" stroke-miterlimit="10" fill="none"/></g><g clip-path="url(#clip15)"><path d="M1503.5 1626.75C1503.5 1632.82 1498.57 1637.75 1492.5 1637.75 1486.42 1637.75 1481.5 1632.82 1481.5 1626.75 1481.5 1620.67 1486.42 1615.75 1492.5 1615.75 1498.57 1615.75 1503.5 1620.67 1503.5 1626.75Z" stroke="#70AD47" stroke-width="3.4375" stroke-linejoin="round" stroke-miterlimit="10" fill="#70AD47"/><path d="M1615.5 1612.75C1615.5 1618.82 1610.57 1623.75 1604.5 1623.75 1598.42 1623.75 1593.5 1618.82 1593.5 1612.75 1593.5 1606.67 1598.42 1601.75 1604.5 1601.75 1610.57 1601.75 1615.5 1606.67 1615.5 1612.75Z" stroke="#70AD47" stroke-width="3.4375" stroke-linejoin="round" stroke-miterlimit="10" fill="#70AD47"/><path d="M1726.5 1591.75C1726.5 1597.82 1721.57 1602.75 1715.5 1602.75 1709.42 1602.75 1704.5 1597.82 1704.5 1591.75 1704.5 1585.67 1709.42 1580.75 1715.5 1580.75 1721.57 1580.75 1726.5 1585.67 1726.5 1591.75Z" stroke="#70AD47" stroke-width="3.4375" stroke-linejoin="round" stroke-miterlimit="10" fill="#70AD47"/><path d="M1838.5 1560.75C1838.5 1566.82 1833.57 1571.75 1827.5 1571.75 1821.42 1571.75 1816.5 1566.82 1816.5 1560.75 1816.5 1554.67 1821.42 1549.75 1827.5 1549.75 1833.57 1549.75 1838.5 1554.67 1838.5 1560.75Z" stroke="#70AD47" stroke-width="3.4375" stroke-linejoin="round" stroke-miterlimit="10" fill="#70AD47"/><path d="M1950.5 1522.75C1950.5 1528.82 1945.57 1533.75 1939.5 1533.75 1933.42 1533.75 1928.5 1528.82 1928.5 1522.75 1928.5 1516.67 1933.42 1511.75 1939.5 1511.75 1945.57 1511.75 1950.5 1516.67 1950.5 1522.75Z" stroke="#70AD47" stroke-width="3.4375" stroke-linejoin="round" stroke-miterlimit="10" fill="#70AD47"/><path d="M2062.5 1474.75C2062.5 1480.82 2057.57 1485.75 2051.5 1485.75 2045.42 1485.75 2040.5 1480.82 2040.5 1474.75 2040.5 1468.68 2045.42 1463.75 2051.5 1463.75 2057.57 1463.75 2062.5 1468.68 2062.5 1474.75Z" stroke="#70AD47" stroke-width="3.4375" stroke-linejoin="round" stroke-miterlimit="10" fill="#70AD47"/><path d="M2173.5 1418.75C2173.5 1424.82 2168.57 1429.75 2162.5 1429.75 2156.42 1429.75 2151.5 1424.82 2151.5 1418.75 2151.5 1412.68 2156.42 1407.75 2162.5 1407.75 2168.57 1407.75 2173.5 1412.68 2173.5 1418.75Z" stroke="#70AD47" stroke-width="3.4375" stroke-linejoin="round" stroke-miterlimit="10" fill="#70AD47"/><path d="M2285.5 1354.75C2285.5 1360.82 2280.57 1365.75 2274.5 1365.75 2268.42 1365.75 2263.5 1360.82 2263.5 1354.75 2263.5 1348.67 2268.42 1343.75 2274.5 1343.75 2280.57 1343.75 2285.5 1348.67 2285.5 1354.75Z" stroke="#70AD47" stroke-width="3.4375" stroke-linejoin="round" stroke-miterlimit="10" fill="#70AD47"/><path d="M2397.5 1281.75C2397.5 1287.82 2392.57 1292.75 2386.5 1292.75 2380.42 1292.75 2375.5 1287.82 2375.5 1281.75 2375.5 1275.67 2380.42 1270.75 2386.5 1270.75 2392.57 1270.75 2397.5 1275.67 2397.5 1281.75Z" stroke="#70AD47" stroke-width="3.4375" stroke-linejoin="round" stroke-miterlimit="10" fill="#70AD47"/><path d="M2508.5 1200.75C2508.5 1206.82 2503.57 1211.75 2497.5 1211.75 2491.42 1211.75 2486.5 1206.82 2486.5 1200.75 2486.5 1194.67 2491.42 1189.75 2497.5 1189.75 2503.57 1189.75 2508.5 1194.67 2508.5 1200.75Z" stroke="#70AD47" stroke-width="3.4375" stroke-linejoin="round" stroke-miterlimit="10" fill="#70AD47"/></g><g clip-path="url(#clip16)"><path d="M1492.5 1629.5C1529.72 1628.66 1566.94 1627.65 1604.17 1626.99 1641.39 1626.33 1678.61 1626.28 1715.83 1625.53 1753.06 1624.79 1790.28 1623.17 1827.5 1622.54 1864.72 1621.9 1901.94 1621.82 1939.17 1621.73 1976.39 1621.63 2013.61 1622 2050.83 1621.97 2088.06 1621.94 2125.28 1622.51 2162.5 1621.57 2199.72 1620.62 2236.94 1617.48 2274.17 1616.3 2311.39 1615.13 2348.61 1615.16 2385.83 1614.52 2423.06 1613.89 2460.28 1613.17 2497.5 1612.5" stroke="#264478" stroke-width="6.875" stroke-linecap="round" stroke-linejoin="round" stroke-miterlimit="10" fill="none"/></g><g clip-path="url(#clip17)"><path d="M1503.5 1629.75C1503.5 1635.82 1498.57 1640.75 1492.5 1640.75 1486.42 1640.75 1481.5 1635.82 1481.5 1629.75 1481.5 1623.67 1486.42 1618.75 1492.5 1618.75 1498.57 1618.75 1503.5 1623.67 1503.5 1629.75Z" stroke="#264478" stroke-width="3.4375" stroke-linejoin="round" stroke-miterlimit="10" fill="#264478"/><path d="M1615.5 1627.75C1615.5 1633.82 1610.57 1638.75 1604.5 1638.75 1598.42 1638.75 1593.5 1633.82 1593.5 1627.75 1593.5 1621.68 1598.42 1616.75 1604.5 1616.75 1610.57 1616.75 1615.5 1621.68 1615.5 1627.75Z" stroke="#264478" stroke-width="3.4375" stroke-linejoin="round" stroke-miterlimit="10" fill="#264478"/><path d="M1726.5 1625.75C1726.5 1631.82 1721.57 1636.75 1715.5 1636.75 1709.42 1636.75 1704.5 1631.82 1704.5 1625.75 1704.5 1619.67 1709.42 1614.75 1715.5 1614.75 1721.57 1614.75 1726.5 1619.67 1726.5 1625.75Z" stroke="#264478" stroke-width="3.4375" stroke-linejoin="round" stroke-miterlimit="10" fill="#264478"/><path d="M1838.5 1622.75C1838.5 1628.82 1833.57 1633.75 1827.5 1633.75 1821.42 1633.75 1816.5 1628.82 1816.5 1622.75 1816.5 1616.67 1821.42 1611.75 1827.5 1611.75 1833.57 1611.75 1838.5 1616.67 1838.5 1622.75Z" stroke="#264478" stroke-width="3.4375" stroke-linejoin="round" stroke-miterlimit="10" fill="#264478"/><path d="M1950.5 1621.75C1950.5 1627.82 1945.57 1632.75 1939.5 1632.75 1933.42 1632.75 1928.5 1627.82 1928.5 1621.75 1928.5 1615.67 1933.42 1610.75 1939.5 1610.75 1945.57 1610.75 1950.5 1615.67 1950.5 1621.75Z" stroke="#264478" stroke-width="3.4375" stroke-linejoin="round" stroke-miterlimit="10" fill="#264478"/><path d="M2062.5 1622.75C2062.5 1628.82 2057.57 1633.75 2051.5 1633.75 2045.42 1633.75 2040.5 1628.82 2040.5 1622.75 2040.5 1616.67 2045.42 1611.75 2051.5 1611.75 2057.57 1611.75 2062.5 1616.67 2062.5 1622.75Z" stroke="#264478" stroke-width="3.4375" stroke-linejoin="round" stroke-miterlimit="10" fill="#264478"/><path d="M2173.5 1621.75C2173.5 1627.82 2168.57 1632.75 2162.5 1632.75 2156.42 1632.75 2151.5 1627.82 2151.5 1621.75 2151.5 1615.67 2156.42 1610.75 2162.5 1610.75 2168.57 1610.75 2173.5 1615.67 2173.5 1621.75Z" stroke="#264478" stroke-width="3.4375" stroke-linejoin="round" stroke-miterlimit="10" fill="#264478"/><path d="M2285.5 1616.75C2285.5 1622.82 2280.57 1627.75 2274.5 1627.75 2268.42 1627.75 2263.5 1622.82 2263.5 1616.75 2263.5 1610.68 2268.42 1605.75 2274.5 1605.75 2280.57 1605.75 2285.5 1610.68 2285.5 1616.75Z" stroke="#264478" stroke-width="3.4375" stroke-linejoin="round" stroke-miterlimit="10" fill="#264478"/><path d="M2397.5 1614.75C2397.5 1620.82 2392.57 1625.75 2386.5 1625.75 2380.42 1625.75 2375.5 1620.82 2375.5 1614.75 2375.5 1608.67 2380.42 1603.75 2386.5 1603.75 2392.57 1603.75 2397.5 1608.67 2397.5 1614.75Z" stroke="#264478" stroke-width="3.4375" stroke-linejoin="round" stroke-miterlimit="10" fill="#264478"/><path d="M2508.5 1612.75C2508.5 1618.82 2503.57 1623.75 2497.5 1623.75 2491.42 1623.75 2486.5 1618.82 2486.5 1612.75 2486.5 1606.67 2491.42 1601.75 2497.5 1601.75 2503.57 1601.75 2508.5 1606.67 2508.5 1612.75Z" stroke="#264478" stroke-width="3.4375" stroke-linejoin="round" stroke-miterlimit="10" fill="#264478"/></g><g clip-path="url(#clip18)"><path d="M1492.5 1629.5C1529.72 1627.95 1566.94 1625.82 1604.17 1624.86 1641.39 1623.9 1678.61 1625.29 1715.83 1623.74 1753.06 1622.2 1790.28 1617.89 1827.5 1615.58 1864.72 1613.28 1901.94 1610.9 1939.17 1609.91 1976.39 1608.92 2013.61 1611.04 2050.83 1609.65 2088.06 1608.27 2125.28 1604.53 2162.5 1601.58 2199.72 1598.63 2236.94 1595.04 2274.17 1591.96 2311.39 1588.88 2348.61 1585.18 2385.83 1583.11 2423.06 1581.03 2460.28 1580.7 2497.5 1579.5" stroke="#9E480E" stroke-width="6.875" stroke-linecap="round" stroke-linejoin="round" stroke-miterlimit="10" fill="none"/></g><g clip-path="url(#clip19)"><path d="M1503.5 1629.75C1503.5 1635.82 1498.57 1640.75 1492.5 1640.75 1486.42 1640.75 1481.5 1635.82 1481.5 1629.75 1481.5 1623.67 1486.42 1618.75 1492.5 1618.75 1498.57 1618.75 1503.5 1623.67 1503.5 1629.75Z" stroke="#9E480E" stroke-width="3.4375" stroke-linejoin="round" stroke-miterlimit="10" fill="#9E480E"/><path d="M1615.5 1624.75C1615.5 1630.82 1610.57 1635.75 1604.5 1635.75 1598.42 1635.75 1593.5 1630.82 1593.5 1624.75 1593.5 1618.67 1598.42 1613.75 1604.5 1613.75 1610.57 1613.75 1615.5 1618.67 1615.5 1624.75Z" stroke="#9E480E" stroke-width="3.4375" stroke-linejoin="round" stroke-miterlimit="10" fill="#9E480E"/><path d="M1726.5 1623.75C1726.5 1629.82 1721.57 1634.75 1715.5 1634.75 1709.42 1634.75 1704.5 1629.82 1704.5 1623.75 1704.5 1617.67 1709.42 1612.75 1715.5 1612.75 1721.57 1612.75 1726.5 1617.67 1726.5 1623.75Z" stroke="#9E480E" stroke-width="3.4375" stroke-linejoin="round" stroke-miterlimit="10" fill="#9E480E"/><path d="M1838.5 1615.75C1838.5 1621.82 1833.57 1626.75 1827.5 1626.75 1821.42 1626.75 1816.5 1621.82 1816.5 1615.75 1816.5 1609.67 1821.42 1604.75 1827.5 1604.75 1833.57 1604.75 1838.5 1609.67 1838.5 1615.75Z" stroke="#9E480E" stroke-width="3.4375" stroke-linejoin="round" stroke-miterlimit="10" fill="#9E480E"/><path d="M1950.5 1609.75C1950.5 1615.82 1945.57 1620.75 1939.5 1620.75 1933.42 1620.75 1928.5 1615.82 1928.5 1609.75 1928.5 1603.67 1933.42 1598.75 1939.5 1598.75 1945.57 1598.75 1950.5 1603.67 1950.5 1609.75Z" stroke="#9E480E" stroke-width="3.4375" stroke-linejoin="round" stroke-miterlimit="10" fill="#9E480E"/><path d="M2062.5 1609.75C2062.5 1615.82 2057.57 1620.75 2051.5 1620.75 2045.42 1620.75 2040.5 1615.82 2040.5 1609.75 2040.5 1603.67 2045.42 1598.75 2051.5 1598.75 2057.57 1598.75 2062.5 1603.67 2062.5 1609.75Z" stroke="#9E480E" stroke-width="3.4375" stroke-linejoin="round" stroke-miterlimit="10" fill="#9E480E"/><path d="M2173.5 1601.75C2173.5 1607.82 2168.57 1612.75 2162.5 1612.75 2156.42 1612.75 2151.5 1607.82 2151.5 1601.75 2151.5 1595.67 2156.42 1590.75 2162.5 1590.75 2168.57 1590.75 2173.5 1595.67 2173.5 1601.75Z" stroke="#9E480E" stroke-width="3.4375" stroke-linejoin="round" stroke-miterlimit="10" fill="#9E480E"/><path d="M2285.5 1591.75C2285.5 1597.82 2280.57 1602.75 2274.5 1602.75 2268.42 1602.75 2263.5 1597.82 2263.5 1591.75 2263.5 1585.67 2268.42 1580.75 2274.5 1580.75 2280.57 1580.75 2285.5 1585.67 2285.5 1591.75Z" stroke="#9E480E" stroke-width="3.4375" stroke-linejoin="round" stroke-miterlimit="10" fill="#9E480E"/><path d="M2397.5 1583.75C2397.5 1589.82 2392.57 1594.75 2386.5 1594.75 2380.42 1594.75 2375.5 1589.82 2375.5 1583.75 2375.5 1577.68 2380.42 1572.75 2386.5 1572.75 2392.57 1572.75 2397.5 1577.68 2397.5 1583.75Z" stroke="#9E480E" stroke-width="3.4375" stroke-linejoin="round" stroke-miterlimit="10" fill="#9E480E"/><path d="M2508.5 1579.75C2508.5 1585.82 2503.57 1590.75 2497.5 1590.75 2491.42 1590.75 2486.5 1585.82 2486.5 1579.75 2486.5 1573.67 2491.42 1568.75 2497.5 1568.75 2503.57 1568.75 2508.5 1573.67 2508.5 1579.75Z" stroke="#9E480E" stroke-width="3.4375" stroke-linejoin="round" stroke-miterlimit="10" fill="#9E480E"/></g><g clip-path="url(#clip20)"><path d="M1492.5 1629.5C1529.72 1627.83 1566.94 1625.86 1604.17 1624.48 1641.39 1623.09 1678.61 1622.31 1715.83 1621.19 1753.06 1620.06 1790.28 1618.85 1827.5 1617.73 1864.72 1616.6 1901.94 1617.26 1939.17 1614.44 1976.39 1611.61 2013.61 1603.9 2050.83 1600.76 2088.06 1597.61 2125.28 1597.27 2162.5 1595.56 2199.72 1593.86 2236.94 1592.22 2274.17 1590.54 2311.39 1588.87 2348.61 1587.2 2385.83 1585.52 2423.06 1583.85 2460.28 1582.17 2497.5 1580.5" stroke="#636363" stroke-width="6.875" stroke-linecap="round" stroke-linejoin="round" stroke-miterlimit="10" fill="none"/></g><g clip-path="url(#clip21)"><path d="M1503.5 1629.75C1503.5 1635.82 1498.57 1640.75 1492.5 1640.75 1486.42 1640.75 1481.5 1635.82 1481.5 1629.75 1481.5 1623.67 1486.42 1618.75 1492.5 1618.75 1498.57 1618.75 1503.5 1623.67 1503.5 1629.75Z" stroke="#636363" stroke-width="3.4375" stroke-linejoin="round" stroke-miterlimit="10" fill="#636363"/><path d="M1615.5 1624.75C1615.5 1630.82 1610.57 1635.75 1604.5 1635.75 1598.42 1635.75 1593.5 1630.82 1593.5 1624.75 1593.5 1618.67 1598.42 1613.75 1604.5 1613.75 1610.57 1613.75 1615.5 1618.67 1615.5 1624.75Z" stroke="#636363" stroke-width="3.4375" stroke-linejoin="round" stroke-miterlimit="10" fill="#636363"/><path d="M1726.5 1620.75C1726.5 1626.82 1721.57 1631.75 1715.5 1631.75 1709.42 1631.75 1704.5 1626.82 1704.5 1620.75 1704.5 1614.67 1709.42 1609.75 1715.5 1609.75 1721.57 1609.75 1726.5 1614.67 1726.5 1620.75Z" stroke="#636363" stroke-width="3.4375" stroke-linejoin="round" stroke-miterlimit="10" fill="#636363"/><path d="M1838.5 1617.75C1838.5 1623.82 1833.57 1628.75 1827.5 1628.75 1821.42 1628.75 1816.5 1623.82 1816.5 1617.75 1816.5 1611.68 1821.42 1606.75 1827.5 1606.75 1833.57 1606.75 1838.5 1611.68 1838.5 1617.75Z" stroke="#636363" stroke-width="3.4375" stroke-linejoin="round" stroke-miterlimit="10" fill="#636363"/><path d="M1950.5 1614.75C1950.5 1620.82 1945.57 1625.75 1939.5 1625.75 1933.42 1625.75 1928.5 1620.82 1928.5 1614.75 1928.5 1608.67 1933.42 1603.75 1939.5 1603.75 1945.57 1603.75 1950.5 1608.67 1950.5 1614.75Z" stroke="#636363" stroke-width="3.4375" stroke-linejoin="round" stroke-miterlimit="10" fill="#636363"/><path d="M2062.5 1600.75C2062.5 1606.82 2057.57 1611.75 2051.5 1611.75 2045.42 1611.75 2040.5 1606.82 2040.5 1600.75 2040.5 1594.67 2045.42 1589.75 2051.5 1589.75 2057.57 1589.75 2062.5 1594.67 2062.5 1600.75Z" stroke="#636363" stroke-width="3.4375" stroke-linejoin="round" stroke-miterlimit="10" fill="#636363"/><path d="M2173.5 1595.75C2173.5 1601.82 2168.57 1606.75 2162.5 1606.75 2156.42 1606.75 2151.5 1601.82 2151.5 1595.75 2151.5 1589.68 2156.42 1584.75 2162.5 1584.75 2168.57 1584.75 2173.5 1589.68 2173.5 1595.75Z" stroke="#636363" stroke-width="3.4375" stroke-linejoin="round" stroke-miterlimit="10" fill="#636363"/><path d="M2285.5 1590.75C2285.5 1596.82 2280.57 1601.75 2274.5 1601.75 2268.42 1601.75 2263.5 1596.82 2263.5 1590.75 2263.5 1584.67 2268.42 1579.75 2274.5 1579.75 2280.57 1579.75 2285.5 1584.67 2285.5 1590.75Z" stroke="#636363" stroke-width="3.4375" stroke-linejoin="round" stroke-miterlimit="10" fill="#636363"/><path d="M2397.5 1585.75C2397.5 1591.82 2392.57 1596.75 2386.5 1596.75 2380.42 1596.75 2375.5 1591.82 2375.5 1585.75 2375.5 1579.67 2380.42 1574.75 2386.5 1574.75 2392.57 1574.75 2397.5 1579.67 2397.5 1585.75Z" stroke="#636363" stroke-width="3.4375" stroke-linejoin="round" stroke-miterlimit="10" fill="#636363"/><path d="M2508.5 1580.75C2508.5 1586.82 2503.57 1591.75 2497.5 1591.75 2491.42 1591.75 2486.5 1586.82 2486.5 1580.75 2486.5 1574.67 2491.42 1569.75 2497.5 1569.75 2503.57 1569.75 2508.5 1574.67 2508.5 1580.75Z" stroke="#636363" stroke-width="3.4375" stroke-linejoin="round" stroke-miterlimit="10" fill="#636363"/></g><g clip-path="url(#clip22)"><path d="M1492.5 1628.5C1529.72 1627.51 1566.94 1626.72 1604.17 1625.53 1641.39 1624.34 1678.61 1622.41 1715.83 1621.37 1753.06 1620.32 1790.28 1620.09 1827.5 1619.24 1864.72 1618.39 1901.94 1617.85 1939.17 1616.27 1976.39 1614.68 2013.61 1611.17 2050.83 1609.73 2088.06 1608.29 2125.28 1608.46 2162.5 1607.61 2199.72 1606.76 2236.94 1605.82 2274.17 1604.63 2311.39 1603.44 2348.61 1601.66 2385.83 1600.47 2423.06 1599.28 2460.28 1598.49 2497.5 1597.5" stroke="#997300" stroke-width="6.875" stroke-linecap="round" stroke-linejoin="round" stroke-miterlimit="10" fill="none"/></g><g clip-path="url(#clip23)"><path d="M1503.5 1628.75C1503.5 1634.82 1498.57 1639.75 1492.5 1639.75 1486.42 1639.75 1481.5 1634.82 1481.5 1628.75 1481.5 1622.68 1486.42 1617.75 1492.5 1617.75 1498.57 1617.75 1503.5 1622.68 1503.5 1628.75Z" stroke="#997300" stroke-width="3.4375" stroke-linejoin="round" stroke-miterlimit="10" fill="#997300"/><path d="M1615.5 1625.75C1615.5 1631.82 1610.57 1636.75 1604.5 1636.75 1598.42 1636.75 1593.5 1631.82 1593.5 1625.75 1593.5 1619.67 1598.42 1614.75 1604.5 1614.75 1610.57 1614.75 1615.5 1619.67 1615.5 1625.75Z" stroke="#997300" stroke-width="3.4375" stroke-linejoin="round" stroke-miterlimit="10" fill="#997300"/><path d="M1726.5 1621.75C1726.5 1627.82 1721.57 1632.75 1715.5 1632.75 1709.42 1632.75 1704.5 1627.82 1704.5 1621.75 1704.5 1615.67 1709.42 1610.75 1715.5 1610.75 1721.57 1610.75 1726.5 1615.67 1726.5 1621.75Z" stroke="#997300" stroke-width="3.4375" stroke-linejoin="round" stroke-miterlimit="10" fill="#997300"/><path d="M1838.5 1619.75C1838.5 1625.82 1833.57 1630.75 1827.5 1630.75 1821.42 1630.75 1816.5 1625.82 1816.5 1619.75 1816.5 1613.67 1821.42 1608.75 1827.5 1608.75 1833.57 1608.75 1838.5 1613.67 1838.5 1619.75Z" stroke="#997300" stroke-width="3.4375" stroke-linejoin="round" stroke-miterlimit="10" fill="#997300"/><path d="M1950.5 1616.75C1950.5 1622.82 1945.57 1627.75 1939.5 1627.75 1933.42 1627.75 1928.5 1622.82 1928.5 1616.75 1928.5 1610.68 1933.42 1605.75 1939.5 1605.75 1945.57 1605.75 1950.5 1610.68 1950.5 1616.75Z" stroke="#997300" stroke-width="3.4375" stroke-linejoin="round" stroke-miterlimit="10" fill="#997300"/><path d="M2062.5 1610.75C2062.5 1616.82 2057.57 1621.75 2051.5 1621.75 2045.42 1621.75 2040.5 1616.82 2040.5 1610.75 2040.5 1604.67 2045.42 1599.75 2051.5 1599.75 2057.57 1599.75 2062.5 1604.67 2062.5 1610.75Z" stroke="#997300" stroke-width="3.4375" stroke-linejoin="round" stroke-miterlimit="10" fill="#997300"/><path d="M2173.5 1607.75C2173.5 1613.82 2168.57 1618.75 2162.5 1618.75 2156.42 1618.75 2151.5 1613.82 2151.5 1607.75 2151.5 1601.67 2156.42 1596.75 2162.5 1596.75 2168.57 1596.75 2173.5 1601.67 2173.5 1607.75Z" stroke="#997300" stroke-width="3.4375" stroke-linejoin="round" stroke-miterlimit="10" fill="#997300"/><path d="M2285.5 1604.75C2285.5 1610.82 2280.57 1615.75 2274.5 1615.75 2268.42 1615.75 2263.5 1610.82 2263.5 1604.75 2263.5 1598.67 2268.42 1593.75 2274.5 1593.75 2280.57 1593.75 2285.5 1598.67 2285.5 1604.75Z" stroke="#997300" stroke-width="3.4375" stroke-linejoin="round" stroke-miterlimit="10" fill="#997300"/><path d="M2397.5 1600.75C2397.5 1606.82 2392.57 1611.75 2386.5 1611.75 2380.42 1611.75 2375.5 1606.82 2375.5 1600.75 2375.5 1594.67 2380.42 1589.75 2386.5 1589.75 2392.57 1589.75 2397.5 1594.67 2397.5 1600.75Z" stroke="#997300" stroke-width="3.4375" stroke-linejoin="round" stroke-miterlimit="10" fill="#997300"/><path d="M2508.5 1597.75C2508.5 1603.82 2503.57 1608.75 2497.5 1608.75 2491.42 1608.75 2486.5 1603.82 2486.5 1597.75 2486.5 1591.67 2491.42 1586.75 2497.5 1586.75 2503.57 1586.75 2508.5 1591.67 2508.5 1597.75Z" stroke="#997300" stroke-width="3.4375" stroke-linejoin="round" stroke-miterlimit="10" fill="#997300"/></g><g clip-path="url(#clip24)"><text fill="#595959" font-family="Calibri,Calibri_MSFontService,sans-serif" font-weight="400" font-size="41" transform="matrix(1 0 0 1 1321.58 1642)">0</text></g><g clip-path="url(#clip25)"><text fill="#595959" font-family="Calibri,Calibri_MSFontService,sans-serif" font-weight="400" font-size="41" transform="matrix(1 0 0 1 1258.88 1472)">2000</text></g><g clip-path="url(#clip26)"><text fill="#595959" font-family="Calibri,Calibri_MSFontService,sans-serif" font-weight="400" font-size="41" transform="matrix(1 0 0 1 1258.88 1301)">4000</text></g><g clip-path="url(#clip27)"><text fill="#595959" font-family="Calibri,Calibri_MSFontService,sans-serif" font-weight="400" font-size="41" transform="matrix(1 0 0 1 1258.88 1131)">6000</text></g><g clip-path="url(#clip28)"><text fill="#595959" font-family="Calibri,Calibri_MSFontService,sans-serif" font-weight="400" font-size="41" transform="matrix(1 0 0 1 1258.88 960)">8000</text></g><g clip-path="url(#clip29)"><text fill="#595959" font-family="Calibri,Calibri_MSFontService,sans-serif" font-weight="400" font-size="41" transform="matrix(1 0 0 1 1237.98 789)">10000</text></g><g clip-path="url(#clip30)"><text fill="#595959" font-family="Calibri,Calibri_MSFontService,sans-serif" font-weight="400" font-size="41" transform="matrix(1 0 0 1 1237.98 619)">12000</text></g><g clip-path="url(#clip31)"><text fill="#595959" font-family="Calibri,Calibri_MSFontService,sans-serif" font-weight="400" font-size="41" transform="matrix(1 0 0 1 1370.3 1696)">0</text></g><g clip-path="url(#clip32)"><text fill="#595959" font-family="Calibri,Calibri_MSFontService,sans-serif" font-weight="400" font-size="41" transform="matrix(1 0 0 1 1583.28 1696)">20</text></g><g clip-path="url(#clip33)"><text fill="#595959" font-family="Calibri,Calibri_MSFontService,sans-serif" font-weight="400" font-size="41" transform="matrix(1 0 0 1 1806.72 1696)">40</text></g><g clip-path="url(#clip34)"><text fill="#595959" font-family="Calibri,Calibri_MSFontService,sans-serif" font-weight="400" font-size="41" transform="matrix(1 0 0 1 2030.15 1696)">60</text></g><g clip-path="url(#clip35)"><text fill="#595959" font-family="Calibri,Calibri_MSFontService,sans-serif" font-weight="400" font-size="41" transform="matrix(1 0 0 1 2253.58 1696)">80</text></g><g clip-path="url(#clip36)"><text fill="#595959" font-family="Calibri,Calibri_MSFontService,sans-serif" font-weight="400" font-size="41" transform="matrix(1 0 0 1 2466.57 1696)">100</text></g><g clip-path="url(#clip37)"><text fill="#595959" font-family="Calibri,Calibri_MSFontService,sans-serif" font-weight="400" font-size="41" transform="matrix(1 0 0 1 2690 1696)">120</text></g><g clip-path="url(#clip38)"><text fill="#595959" font-family="Calibri,Calibri_MSFontService,sans-serif" font-weight="400" font-size="46" transform="matrix(6.12323e-17 -1 1 6.12323e-17 1212.29 1223)">Opérations</text></g><g clip-path="url(#clip39)"><text fill="#595959" font-family="Calibri,Calibri_MSFontService,sans-serif" font-weight="400" font-size="46" transform="matrix(1 0 0 1 1981.42 1765)">Valeurs</text></g><g clip-path="url(#clip40)"><text fill="#595959" font-family="Calibri,Calibri_MSFontService,sans-serif" font-weight="400" font-size="64" transform="matrix(1 0 0 1 1937.24 533)">Opérations Presque Trié</text></g><g clip-path="url(#clip41)"><path d="M2824.5 847.5 2912.5 847.5" stroke="#4472C4" stroke-width="6.875" stroke-linecap="round" stroke-linejoin="round" stroke-miterlimit="10" fill="none" fill-rule="evenodd"/></g><g clip-path="url(#clip42)"><path d="M2879 847.499C2879 853.31 2874.07 858.021 2868 858.021 2861.93 858.021 2857 853.31 2857 847.499 2857 841.689 2861.93 836.978 2868 836.978 2874.07 836.978 2879 841.689 2879 847.499Z" stroke="#4472C4" stroke-width="3.4375" stroke-linejoin="round" stroke-miterlimit="10" fill="#4472C4"/></g><g clip-path="url(#clip43)"><text fill="#595959" font-family="Calibri,Calibri_MSFontService,sans-serif" font-weight="400" font-size="41" transform="matrix(1 0 0 1 2921.71 859)">Bubble Affecations</text></g><g clip-path="url(#clip44)"><path d="M2824.5 924.5 2912.5 924.5" stroke="#ED7D31" stroke-width="6.875" stroke-linecap="round" stroke-linejoin="round" stroke-miterlimit="10" fill="none" fill-rule="evenodd"/></g><g clip-path="url(#clip45)"><path d="M2879 924.499C2879 930.31 2874.07 935.021 2868 935.021 2861.93 935.021 2857 930.31 2857 924.499 2857 918.689 2861.93 913.978 2868 913.978 2874.07 913.978 2879 918.689 2879 924.499Z" stroke="#ED7D31" stroke-width="3.4375" stroke-linejoin="round" stroke-miterlimit="10" fill="#ED7D31"/></g><g clip-path="url(#clip46)"><text fill="#595959" font-family="Calibri,Calibri_MSFontService,sans-serif" font-weight="400" font-size="41" transform="matrix(1 0 0 1 2921.71 936)">Bubble Comparaisons</text></g><g clip-path="url(#clip47)"><path d="M2824.5 1002.5 2912.5 1002.5" stroke="#A5A5A5" stroke-width="6.875" stroke-linecap="round" stroke-linejoin="round" stroke-miterlimit="10" fill="none" fill-rule="evenodd"/></g><g clip-path="url(#clip48)"><path d="M2879 1002C2879 1008.07 2874.07 1013 2868 1013 2861.93 1013 2857 1008.07 2857 1002 2857 995.924 2861.93 991 2868 991 2874.07 991 2879 995.924 2879 1002Z" stroke="#A5A5A5" stroke-width="3.4375" stroke-linejoin="round" stroke-miterlimit="10" fill="#A5A5A5"/></g><g clip-path="url(#clip49)"><text fill="#595959" font-family="Calibri,Calibri_MSFontService,sans-serif" font-weight="400" font-size="41" transform="matrix(1 0 0 1 2921.71 1014)">Insertion Affecations</text></g><g clip-path="url(#clip50)"><path d="M2824.5 1079.5 2912.5 1079.5" stroke="#FFC000" stroke-width="6.875" stroke-linecap="round" stroke-linejoin="round" stroke-miterlimit="10" fill="none" fill-rule="evenodd"/></g><g clip-path="url(#clip51)"><path d="M2879 1079C2879 1085.07 2874.07 1090 2868 1090 2861.93 1090 2857 1085.07 2857 1079 2857 1072.92 2861.93 1068 2868 1068 2874.07 1068 2879 1072.92 2879 1079Z" stroke="#FFC000" stroke-width="3.4375" stroke-linejoin="round" stroke-miterlimit="10" fill="#FFC000"/></g><g clip-path="url(#clip52)"><text fill="#595959" font-family="Calibri,Calibri_MSFontService,sans-serif" font-weight="400" font-size="41" transform="matrix(1 0 0 1 2921.71 1091)">Insertion Comparaisons</text></g><g clip-path="url(#clip53)"><path d="M2824.5 1156.5 2912.5 1156.5" stroke="#5B9BD5" stroke-width="6.875" stroke-linecap="round" stroke-linejoin="round" stroke-miterlimit="10" fill="none" fill-rule="evenodd"/></g><g clip-path="url(#clip54)"><path d="M2879 1156C2879 1162.07 2874.07 1167 2868 1167 2861.93 1167 2857 1162.07 2857 1156 2857 1149.92 2861.93 1145 2868 1145 2874.07 1145 2879 1149.92 2879 1156Z" stroke="#5B9BD5" stroke-width="3.4375" stroke-linejoin="round" stroke-miterlimit="10" fill="#5B9BD5"/></g><g clip-path="url(#clip55)"><text fill="#595959" font-family="Calibri,Calibri_MSFontService,sans-serif" font-weight="400" font-size="41" transform="matrix(1 0 0 1 2921.71 1168)">Selection Affectations</text></g><g clip-path="url(#clip56)"><path d="M2824.5 1234.5 2912.5 1234.5" stroke="#70AD47" stroke-width="6.875" stroke-linecap="round" stroke-linejoin="round" stroke-miterlimit="10" fill="none" fill-rule="evenodd"/></g><g clip-path="url(#clip57)"><path d="M2879 1234C2879 1240.07 2874.07 1245 2868 1245 2861.93 1245 2857 1240.07 2857 1234 2857 1227.92 2861.93 1223 2868 1223 2874.07 1223 2879 1227.92 2879 1234Z" stroke="#70AD47" stroke-width="3.4375" stroke-linejoin="round" stroke-miterlimit="10" fill="#70AD47"/></g><g clip-path="url(#clip58)"><text fill="#595959" font-family="Calibri,Calibri_MSFontService,sans-serif" font-weight="400" font-size="41" transform="matrix(1 0 0 1 2921.71 1246)">Selection Comparaisons</text></g><g clip-path="url(#clip59)"><path d="M2824.5 1311.5 2912.5 1311.5" stroke="#264478" stroke-width="6.875" stroke-linecap="round" stroke-linejoin="round" stroke-miterlimit="10" fill="none" fill-rule="evenodd"/></g><g clip-path="url(#clip60)"><path d="M2879 1311C2879 1317.07 2874.07 1322 2868 1322 2861.93 1322 2857 1317.07 2857 1311 2857 1304.92 2861.93 1300 2868 1300 2874.07 1300 2879 1304.92 2879 1311Z" stroke="#264478" stroke-width="3.4375" stroke-linejoin="round" stroke-miterlimit="10" fill="#264478"/></g><g clip-path="url(#clip61)"><text fill="#595959" font-family="Calibri,Calibri_MSFontService,sans-serif" font-weight="400" font-size="41" transform="matrix(1 0 0 1 2921.71 1323)">Sort Affecations</text></g><g clip-path="url(#clip62)"><path d="M2824.5 1388.5 2912.5 1388.5" stroke="#9E480E" stroke-width="6.875" stroke-linecap="round" stroke-linejoin="round" stroke-miterlimit="10" fill="none" fill-rule="evenodd"/></g><g clip-path="url(#clip63)"><path d="M2879 1388C2879 1394.07 2874.07 1399 2868 1399 2861.93 1399 2857 1394.07 2857 1388 2857 1381.92 2861.93 1377 2868 1377 2874.07 1377 2879 1381.92 2879 1388Z" stroke="#9E480E" stroke-width="3.4375" stroke-linejoin="round" stroke-miterlimit="10" fill="#9E480E"/></g><g clip-path="url(#clip64)"><text fill="#595959" font-family="Calibri,Calibri_MSFontService,sans-serif" font-weight="400" font-size="41" transform="matrix(1 0 0 1 2921.71 1400)">Sort Comparaisons</text></g><g clip-path="url(#clip65)"><path d="M2824.5 1466.5 2912.5 1466.5" stroke="#636363" stroke-width="6.875" stroke-linecap="round" stroke-linejoin="round" stroke-miterlimit="10" fill="none" fill-rule="evenodd"/></g><g clip-path="url(#clip66)"><path d="M2879 1466C2879 1472.07 2874.07 1477 2868 1477 2861.93 1477 2857 1472.07 2857 1466 2857 1459.92 2861.93 1455 2868 1455 2874.07 1455 2879 1459.92 2879 1466Z" stroke="#636363" stroke-width="3.4375" stroke-linejoin="round" stroke-miterlimit="10" fill="#636363"/></g><g clip-path="url(#clip67)"><text fill="#595959" font-family="Calibri,Calibri_MSFontService,sans-serif" font-weight="400" font-size="41" transform="matrix(1 0 0 1 2921.71 1478)">StableSort Affectations</text></g><g clip-path="url(#clip68)"><path d="M2824.5 1543.5 2912.5 1543.5" stroke="#997300" stroke-width="6.875" stroke-linecap="round" stroke-linejoin="round" stroke-miterlimit="10" fill="none" fill-rule="evenodd"/></g><g clip-path="url(#clip69)"><path d="M2879 1543C2879 1549.07 2874.07 1554 2868 1554 2861.93 1554 2857 1549.07 2857 1543 2857 1536.92 2861.93 1532 2868 1532 2874.07 1532 2879 1536.92 2879 1543Z" stroke="#997300" stroke-width="3.4375" stroke-linejoin="round" stroke-miterlimit="10" fill="#997300"/></g><g clip-path="url(#clip70)"><text fill="#595959" font-family="Calibri,Calibri_MSFontService,sans-serif" font-weight="400" font-size="41" transform="matrix(1 0 0 1 2921.71 1555)">StableSort Comparaisons</text></g><rect x="1111.5" y="437.5" width="2277" height="1397" stroke="#D9D9D9" stroke-width="3.4375" stroke-linejoin="round" stroke-miterlimit="10" fill="none"/></g></svg>