<svg width="2505" height="1460" xmlns="http://www.w3.org/2000/svg" xmlns:xlink="http://www.w3.org/1999/xlink" xml:space="preserve" overflow="hidden"><defs><clipPath id="clip0"><rect x="926" y="233" width="2505" height="1460"/></clipPath><clipPath id="clip1"><rect x="926" y="233" width="2503" height="1458"/></clipPath><clipPath id="clip2"><rect x="926" y="233" width="2503" height="1458"/></clipPath><clipPath id="clip3"><rect x="926" y="233" width="2503" height="1458"/></clipPath><clipPath id="clip4"><rect x="1196" y="403" width="1570" height="1088"/></clipPath><clipPath id="clip5"><rect x="926" y="233" width="2503" height="1458"/></clipPath><clipPath id="clip6"><rect x="1196" y="403" width="1570" height="1088"/></clipPath><clipPath id="clip7"><rect x="926" y="233" width="2503" height="1458"/></clipPath><clipPath id="clip8"><rect x="1196" y="403" width="1570" height="1088"/></clipPath><clipPath id="clip9"><rect x="926" y="233" width="2503" height="1458"/></clipPath><clipPath id="clip10"><rect x="1196" y="403" width="1570" height="1088"/></clipPath><clipPath id="clip11"><rect x="926" y="233" width="2503" height="1458"/></clipPath><clipPath id="clip12"><rect x="1196" y="403" width="1570" height="1088"/></clipPath><clipPath id="clip13"><rect x="926" y="233" width="2503" height="1458"/></clipPath><clipPath id="clip14"><rect x="1196" y="403" width="1570" height="1088"/></clipPath><clipPath id="clip15"><rect x="926" y="233" width="2503" height="1458"/></clipPath><clipPath id="clip16"><rect x="1196" y="403" width="1570" height="1088"/></clipPath><clipPath id="clip17"><rect x="926" y="233" width="2503" height="1458"/></clipPath><clipPath id="clip18"><rect x="1196" y="403" width="1570" height="1088"/></clipPath><clipPath id="clip19"><rect x="926" y="233" width="2503" height="1458"/></clipPath><clipPath id="clip20"><rect x="1196" y="403" width="1570" height="1088"/></clipPath><clipPath id="clip21"><rect x="926" y="233" width="2503" height="1458"/></clipPath><clipPath id="clip22"><rect x="1196" y="403" width="1570" height="1088"/></clipPath><clipPath id="clip23"><rect x="926" y="233" width="2503" height="1458"/></clipPath><clipPath id="clip24"><rect x="926" y="233" width="2503" height="1458"/></clipPath><clipPath id="clip25"><rect x="926" y="233" width="2503" height="1458"/></clipPath><clipPath id="clip26"><rect x="926" y="233" width="2503" height="1458"/></clipPath><clipPath id="clip27"><rect x="926" y="233" width="2503" height="1458"/></clipPath><clipPath id="clip28"><rect x="926" y="233" width="2503" height="1458"/></clipPath><clipPath id="clip29"><rect x="926" y="233" width="2503" height="1458"/></clipPath><clipPath id="clip30"><rect x="926" y="233" width="2503" height="1458"/></clipPath><clipPath id="clip31"><rect x="926" y="233" width="2503" height="1458"/></clipPath><clipPath id="clip32"><rect x="926" y="233" width="2503" height="1458"/></clipPath><clipPath id="clip33"><rect x="926" y="233" width="2503" height="1458"/></clipPath><clipPath id="clip34"><rect x="926" y="233" width="2503" height="1458"/></clipPath><clipPath id="clip35"><rect x="926" y="233" width="2503" height="1458"/></clipPath><clipPath id="clip36"><rect x="926" y="233" width="2503" height="1458"/></clipPath><clipPath id="clip37"><rect x="926" y="233" width="2503" height="1458"/></clipPath><clipPath id="clip38"><rect x="926" y="233" width="2503" height="1458"/></clipPath><clipPath id="clip39"><rect x="926" y="233" width="2503" height="1458"/></clipPath><clipPath id="clip40"><rect x="926" y="233" width="2503" height="1458"/></clipPath><clipPath id="clip41"><rect x="926" y="233" width="2503" height="1458"/></clipPath><clipPath id="clip42"><rect x="926" y="233" width="2503" height="1458"/></clipPath><clipPath id="clip43"><rect x="926" y="233" width="2503" height="1458"/></clipPath><clipPath id="clip44"><rect x="926" y="233" width="2503" height="1458"/></clipPath><clipPath id="clip45"><rect x="926" y="233" width="2503" height="1458"/></clipPath><clipPath id="clip46"><rect x="926" y="233" width="2503" height="1458"/></clipPath><clipPath id="clip47"><rect x="926" y="233" width="2503" height="1458"/></clipPath><clipPath id="clip48"><rect x="926" y="233" width="2503" height="1458"/></clipPath><clipPath id="clip49"><rect x="926" y="233" width="2503" height="1458"/></clipPath><clipPath id="clip50"><rect x="926" y="233" width="2503" height="1458"/></clipPath><clipPath id="clip51"><rect x="926" y="233" width="2503" height="1458"/></clipPath><clipPath id="clip52"><rect x="926" y="233" width="2503" height="1458"/></clipPath><clipPath id="clip53"><rect x="926" y="233" width="2503" height="1458"/></clipPath><clipPath id="clip54"><rect x="926" y="233" width="2503" height="1458"/></clipPath><clipPath id="clip55"><rect x="926" y="233" width="2503" height="1458"/></clipPath><clipPath id="clip56"><rect x="926" y="233" width="2503" height="1458"/></clipPath><clipPath id="clip57"><rect x="926" y="233" width="2503" height="1458"/></clipPath><clipPath id="clip58"><rect x="926" y="233" width="2503" height="1458"/></clipPath><clipPath id="clip59"><rect x="926" y="233" width="2503" height="1458"/></clipPath><clipPath id="clip60"><rect x="926" y="233" width="2503" height="1458"/></clipPath><clipPath id="clip61"><rect x="926" y="233" width="2503" height="1458"/></clipPath><clipPath id="clip62"><rect x="926" y="233" width="2503" height="1458"/></clipPath><clipPath id="clip63"><rect x="926" y="233" width="2503" height="1458"/></clipPath><clipPath id="clip64"><rect x="926" y="233" width="2503" height="1458"/></clipPath><clipPath id="clip65"><rect x="926" y="233" width="2503" height="1458"/></clipPath><clipPath id="clip66"><rect x="926" y="233" width="2503" height="1458"/></clipPath><clipPath id="clip67"><rect x="926" y="233" width="2503" height="1458"/></clipPath><clipPath id="clip68"><rect x="926" y="233" width="2503" height="1458"/></clipPath><clipPath id="clip69"><rect x="926" y="233" width="2503" height="1458"/></clipPath><clipPath id="clip70"><rect x="926" y="233" width="2503" height="1458"/></clipPath></defs><g clip-path="url(#clip0)" transform="translate(-926 -233)"><rect x="927" y="234" width="2502" height="1457" fill="#FFFFFF"/><g clip-path="url(#clip1)"><path d="M1196.5 1307.54 2762.5 1307.54M1196.5 1126.54 2762.5 1126.54M1196.5 945.531 2762.5 945.531M1196.5 765.525 2762.5 765.525M1196.5 584.519 2762.5 584.519M1196.5 403.5 2762.5 403.5" stroke="#D9D9D9" stroke-width="3.4375" stroke-linejoin="round" stroke-miterlimit="10" fill="none"/></g><g clip-path="url(#clip2)"><path d="M0 0 0.000360892 1084" stroke="#BFBFBF" stroke-width="3.4375" stroke-linejoin="round" stroke-miterlimit="10" fill="none" fill-rule="evenodd" transform="matrix(1 0 0 -1 1196.5 1487.5)"/></g><g clip-path="url(#clip3)"><path d="M1196.5 1487.5 2762.5 1487.5" stroke="#BFBFBF" stroke-width="3.4375" stroke-linejoin="round" stroke-miterlimit="10" fill="none" fill-rule="evenodd"/></g><g clip-path="url(#clip4)"><path d="M1327.5 1487.5C1370.98 1487.5 1414.46 1487.5 1457.94 1487.5 1501.43 1487.5 1544.91 1487.5 1588.39 1487.5 1631.87 1487.5 1675.35 1487.5 1718.83 1487.5 1762.31 1487.5 1805.8 1487.5 1849.28 1487.5 1892.76 1487.5 1936.24 1487.5 1979.72 1487.5 2023.2 1487.5 2066.69 1487.5 2110.17 1487.5 2153.65 1487.5 2197.13 1487.5 2240.61 1487.5 2284.09 1487.5 2327.57 1487.5 2371.06 1487.5 2414.54 1487.5 2458.02 1487.5 2501.5 1487.5" stroke="#4472C4" stroke-width="6.875" stroke-linecap="round" stroke-linejoin="round" stroke-miterlimit="10" fill="none"/></g><g clip-path="url(#clip5)"><path d="M1338.25 1487.25C1338.25 1493.32 1333.32 1498.25 1327.25 1498.25 1321.17 1498.25 1316.25 1493.32 1316.25 1487.25 1316.25 1481.17 1321.17 1476.25 1327.25 1476.25 1333.32 1476.25 1338.25 1481.17 1338.25 1487.25Z" stroke="#4472C4" stroke-width="3.4375" stroke-linejoin="round" stroke-miterlimit="10" fill="#4472C4"/><path d="M1468.25 1487.25C1468.25 1493.32 1463.32 1498.25 1457.25 1498.25 1451.17 1498.25 1446.25 1493.32 1446.25 1487.25 1446.25 1481.17 1451.17 1476.25 1457.25 1476.25 1463.32 1476.25 1468.25 1481.17 1468.25 1487.25Z" stroke="#4472C4" stroke-width="3.4375" stroke-linejoin="round" stroke-miterlimit="10" fill="#4472C4"/><path d="M1599.25 1487.25C1599.25 1493.32 1594.32 1498.25 1588.25 1498.25 1582.17 1498.25 1577.25 1493.32 1577.25 1487.25 1577.25 1481.17 1582.17 1476.25 1588.25 1476.25 1594.32 1476.25 1599.25 1481.17 1599.25 1487.25Z" stroke="#4472C4" stroke-width="3.4375" stroke-linejoin="round" stroke-miterlimit="10" fill="#4472C4"/><path d="M1729.25 1487.25C1729.25 1493.32 1724.32 1498.25 1718.25 1498.25 1712.17 1498.25 1707.25 1493.32 1707.25 1487.25 1707.25 1481.17 1712.17 1476.25 1718.25 1476.25 1724.32 1476.25 1729.25 1481.17 1729.25 1487.25Z" stroke="#4472C4" stroke-width="3.4375" stroke-linejoin="round" stroke-miterlimit="10" fill="#4472C4"/><path d="M1860.25 1487.25C1860.25 1493.32 1855.32 1498.25 1849.25 1498.25 1843.17 1498.25 1838.25 1493.32 1838.25 1487.25 1838.25 1481.17 1843.17 1476.25 1849.25 1476.25 1855.32 1476.25 1860.25 1481.17 1860.25 1487.25Z" stroke="#4472C4" stroke-width="3.4375" stroke-linejoin="round" stroke-miterlimit="10" fill="#4472C4"/><path d="M1990.25 1487.25C1990.25 1493.32 1985.32 1498.25 1979.25 1498.25 1973.17 1498.25 1968.25 1493.32 1968.25 1487.25 1968.25 1481.17 1973.17 1476.25 1979.25 1476.25 1985.32 1476.25 1990.25 1481.17 1990.25 1487.25Z" stroke="#4472C4" stroke-width="3.4375" stroke-linejoin="round" stroke-miterlimit="10" fill="#4472C4"/><path d="M2121.25 1487.25C2121.25 1493.32 2116.32 1498.25 2110.25 1498.25 2104.17 1498.25 2099.25 1493.32 2099.25 1487.25 2099.25 1481.17 2104.17 1476.25 2110.25 1476.25 2116.32 1476.25 2121.25 1481.17 2121.25 1487.25Z" stroke="#4472C4" stroke-width="3.4375" stroke-linejoin="round" stroke-miterlimit="10" fill="#4472C4"/><path d="M2251.25 1487.25C2251.25 1493.32 2246.32 1498.25 2240.25 1498.25 2234.17 1498.25 2229.25 1493.32 2229.25 1487.25 2229.25 1481.17 2234.17 1476.25 2240.25 1476.25 2246.32 1476.25 2251.25 1481.17 2251.25 1487.25Z" stroke="#4472C4" stroke-width="3.4375" stroke-linejoin="round" stroke-miterlimit="10" fill="#4472C4"/><path d="M2382.25 1487.25C2382.25 1493.32 2377.32 1498.25 2371.25 1498.25 2365.17 1498.25 2360.25 1493.32 2360.25 1487.25 2360.25 1481.17 2365.17 1476.25 2371.25 1476.25 2377.32 1476.25 2382.25 1481.17 2382.25 1487.25Z" stroke="#4472C4" stroke-width="3.4375" stroke-linejoin="round" stroke-miterlimit="10" fill="#4472C4"/><path d="M2512.25 1487.25C2512.25 1493.32 2507.32 1498.25 2501.25 1498.25 2495.17 1498.25 2490.25 1493.32 2490.25 1487.25 2490.25 1481.17 2495.17 1476.25 2501.25 1476.25 2507.32 1476.25 2512.25 1481.17 2512.25 1487.25Z" stroke="#4472C4" stroke-width="3.4375" stroke-linejoin="round" stroke-miterlimit="10" fill="#4472C4"/></g><g clip-path="url(#clip6)"><path d="M1327.5 1478.5C1370.98 1469.47 1414.46 1463.45 1457.94 1451.41 1501.43 1439.37 1544.91 1424.32 1588.39 1406.26 1631.87 1388.2 1675.35 1367.13 1718.83 1343.05 1762.31 1318.96 1805.8 1291.87 1849.28 1261.77 1892.76 1231.67 1936.24 1198.56 1979.72 1162.44 2023.2 1126.32 2066.69 1087.19 2110.17 1045.05 2153.65 1002.9 2197.13 957.752 2240.61 909.591 2284.09 861.429 2327.57 810.257 2371.06 756.076 2414.54 701.894 2458.02 641.692 2501.5 584.5" stroke="#ED7D31" stroke-width="6.875" stroke-linecap="round" stroke-linejoin="round" stroke-miterlimit="10" fill="none"/></g><g clip-path="url(#clip7)"><path d="M1338.25 1478.25C1338.25 1484.32 1333.32 1489.25 1327.25 1489.25 1321.17 1489.25 1316.25 1484.32 1316.25 1478.25 1316.25 1472.17 1321.17 1467.25 1327.25 1467.25 1333.32 1467.25 1338.25 1472.17 1338.25 1478.25Z" stroke="#ED7D31" stroke-width="3.4375" stroke-linejoin="round" stroke-miterlimit="10" fill="#ED7D31"/><path d="M1468.25 1451.25C1468.25 1457.32 1463.32 1462.25 1457.25 1462.25 1451.17 1462.25 1446.25 1457.32 1446.25 1451.25 1446.25 1445.17 1451.17 1440.25 1457.25 1440.25 1463.32 1440.25 1468.25 1445.17 1468.25 1451.25Z" stroke="#ED7D31" stroke-width="3.4375" stroke-linejoin="round" stroke-miterlimit="10" fill="#ED7D31"/><path d="M1599.25 1406.25C1599.25 1412.32 1594.32 1417.25 1588.25 1417.25 1582.17 1417.25 1577.25 1412.32 1577.25 1406.25 1577.25 1400.17 1582.17 1395.25 1588.25 1395.25 1594.32 1395.25 1599.25 1400.17 1599.25 1406.25Z" stroke="#ED7D31" stroke-width="3.4375" stroke-linejoin="round" stroke-miterlimit="10" fill="#ED7D31"/><path d="M1729.25 1343.25C1729.25 1349.32 1724.32 1354.25 1718.25 1354.25 1712.17 1354.25 1707.25 1349.32 1707.25 1343.25 1707.25 1337.17 1712.17 1332.25 1718.25 1332.25 1724.32 1332.25 1729.25 1337.17 1729.25 1343.25Z" stroke="#ED7D31" stroke-width="3.4375" stroke-linejoin="round" stroke-miterlimit="10" fill="#ED7D31"/><path d="M1860.25 1261.25C1860.25 1267.32 1855.32 1272.25 1849.25 1272.25 1843.17 1272.25 1838.25 1267.32 1838.25 1261.25 1838.25 1255.17 1843.17 1250.25 1849.25 1250.25 1855.32 1250.25 1860.25 1255.17 1860.25 1261.25Z" stroke="#ED7D31" stroke-width="3.4375" stroke-linejoin="round" stroke-miterlimit="10" fill="#ED7D31"/><path d="M1990.25 1162.25C1990.25 1168.32 1985.32 1173.25 1979.25 1173.25 1973.17 1173.25 1968.25 1168.32 1968.25 1162.25 1968.25 1156.17 1973.17 1151.25 1979.25 1151.25 1985.32 1151.25 1990.25 1156.17 1990.25 1162.25Z" stroke="#ED7D31" stroke-width="3.4375" stroke-linejoin="round" stroke-miterlimit="10" fill="#ED7D31"/><path d="M2121.25 1045.25C2121.25 1051.32 2116.32 1056.25 2110.25 1056.25 2104.17 1056.25 2099.25 1051.32 2099.25 1045.25 2099.25 1039.17 2104.17 1034.25 2110.25 1034.25 2116.32 1034.25 2121.25 1039.17 2121.25 1045.25Z" stroke="#ED7D31" stroke-width="3.4375" stroke-linejoin="round" stroke-miterlimit="10" fill="#ED7D31"/><path d="M2251.25 909.25C2251.25 915.325 2246.32 920.249 2240.25 920.249 2234.17 920.249 2229.25 915.325 2229.25 909.25 2229.25 903.175 2234.17 898.25 2240.25 898.25 2246.32 898.25 2251.25 903.175 2251.25 909.25Z" stroke="#ED7D31" stroke-width="3.4375" stroke-linejoin="round" stroke-miterlimit="10" fill="#ED7D31"/><path d="M2382.25 756.25C2382.25 762.325 2377.32 767.249 2371.25 767.249 2365.17 767.249 2360.25 762.325 2360.25 756.25 2360.25 750.175 2365.17 745.25 2371.25 745.25 2377.32 745.25 2382.25 750.175 2382.25 756.25Z" stroke="#ED7D31" stroke-width="3.4375" stroke-linejoin="round" stroke-miterlimit="10" fill="#ED7D31"/><path d="M2512.25 584.249C2512.25 590.324 2507.32 595.249 2501.25 595.249 2495.17 595.249 2490.25 590.324 2490.25 584.249 2490.25 578.174 2495.17 573.25 2501.25 573.25 2507.32 573.25 2512.25 578.174 2512.25 584.249Z" stroke="#ED7D31" stroke-width="3.4375" stroke-linejoin="round" stroke-miterlimit="10" fill="#ED7D31"/></g><g clip-path="url(#clip8)"><path d="M1327.5 1486.5C1370.98 1485.87 1414.46 1485.24 1457.94 1484.61 1501.43 1483.98 1544.91 1483.35 1588.39 1482.72 1631.87 1482.09 1675.35 1481.46 1718.83 1480.83 1762.31 1480.2 1805.8 1479.57 1849.28 1478.94 1892.76 1478.31 1936.24 1477.68 1979.72 1477.06 2023.2 1476.43 2066.69 1475.8 2110.17 1475.17 2153.65 1474.54 2197.13 1473.91 2240.61 1473.28 2284.09 1472.65 2327.57 1472.02 2371.06 1471.39 2414.54 1470.76 2458.02 1470.13 2501.5 1469.5" stroke="#A5A5A5" stroke-width="6.875" stroke-linecap="round" stroke-linejoin="round" stroke-miterlimit="10" fill="none"/></g><g clip-path="url(#clip9)"><path d="M1338.25 1486.25C1338.25 1492.32 1333.32 1497.25 1327.25 1497.25 1321.17 1497.25 1316.25 1492.32 1316.25 1486.25 1316.25 1480.17 1321.17 1475.25 1327.25 1475.25 1333.32 1475.25 1338.25 1480.17 1338.25 1486.25Z" stroke="#A5A5A5" stroke-width="3.4375" stroke-linejoin="round" stroke-miterlimit="10" fill="#A5A5A5"/><path d="M1468.25 1484.25C1468.25 1490.32 1463.32 1495.25 1457.25 1495.25 1451.17 1495.25 1446.25 1490.32 1446.25 1484.25 1446.25 1478.17 1451.17 1473.25 1457.25 1473.25 1463.32 1473.25 1468.25 1478.17 1468.25 1484.25Z" stroke="#A5A5A5" stroke-width="3.4375" stroke-linejoin="round" stroke-miterlimit="10" fill="#A5A5A5"/><path d="M1599.25 1482.25C1599.25 1488.32 1594.32 1493.25 1588.25 1493.25 1582.17 1493.25 1577.25 1488.32 1577.25 1482.25 1577.25 1476.17 1582.17 1471.25 1588.25 1471.25 1594.32 1471.25 1599.25 1476.17 1599.25 1482.25Z" stroke="#A5A5A5" stroke-width="3.4375" stroke-linejoin="round" stroke-miterlimit="10" fill="#A5A5A5"/><path d="M1729.25 1480.25C1729.25 1486.32 1724.32 1491.25 1718.25 1491.25 1712.17 1491.25 1707.25 1486.32 1707.25 1480.25 1707.25 1474.17 1712.17 1469.25 1718.25 1469.25 1724.32 1469.25 1729.25 1474.17 1729.25 1480.25Z" stroke="#A5A5A5" stroke-width="3.4375" stroke-linejoin="round" stroke-miterlimit="10" fill="#A5A5A5"/><path d="M1860.25 1478.25C1860.25 1484.32 1855.32 1489.25 1849.25 1489.25 1843.17 1489.25 1838.25 1484.32 1838.25 1478.25 1838.25 1472.17 1843.17 1467.25 1849.25 1467.25 1855.32 1467.25 1860.25 1472.17 1860.25 1478.25Z" stroke="#A5A5A5" stroke-width="3.4375" stroke-linejoin="round" stroke-miterlimit="10" fill="#A5A5A5"/><path d="M1990.25 1477.25C1990.25 1483.32 1985.32 1488.25 1979.25 1488.25 1973.17 1488.25 1968.25 1483.32 1968.25 1477.25 1968.25 1471.17 1973.17 1466.25 1979.25 1466.25 1985.32 1466.25 1990.25 1471.17 1990.25 1477.25Z" stroke="#A5A5A5" stroke-width="3.4375" stroke-linejoin="round" stroke-miterlimit="10" fill="#A5A5A5"/><path d="M2121.25 1475.25C2121.25 1481.32 2116.32 1486.25 2110.25 1486.25 2104.17 1486.25 2099.25 1481.32 2099.25 1475.25 2099.25 1469.17 2104.17 1464.25 2110.25 1464.25 2116.32 1464.25 2121.25 1469.17 2121.25 1475.25Z" stroke="#A5A5A5" stroke-width="3.4375" stroke-linejoin="round" stroke-miterlimit="10" fill="#A5A5A5"/><path d="M2251.25 1473.25C2251.25 1479.32 2246.32 1484.25 2240.25 1484.25 2234.17 1484.25 2229.25 1479.32 2229.25 1473.25 2229.25 1467.17 2234.17 1462.25 2240.25 1462.25 2246.32 1462.25 2251.25 1467.17 2251.25 1473.25Z" stroke="#A5A5A5" stroke-width="3.4375" stroke-linejoin="round" stroke-miterlimit="10" fill="#A5A5A5"/><path d="M2382.25 1471.25C2382.25 1477.32 2377.32 1482.25 2371.25 1482.25 2365.17 1482.25 2360.25 1477.32 2360.25 1471.25 2360.25 1465.17 2365.17 1460.25 2371.25 1460.25 2377.32 1460.25 2382.25 1465.17 2382.25 1471.25Z" stroke="#A5A5A5" stroke-width="3.4375" stroke-linejoin="round" stroke-miterlimit="10" fill="#A5A5A5"/><path d="M2512.25 1469.25C2512.25 1475.32 2507.32 1480.25 2501.25 1480.25 2495.17 1480.25 2490.25 1475.32 2490.25 1469.25 2490.25 1463.17 2495.17 1458.25 2501.25 1458.25 2507.32 1458.25 2512.25 1463.17 2512.25 1469.25Z" stroke="#A5A5A5" stroke-width="3.4375" stroke-linejoin="round" stroke-miterlimit="10" fill="#A5A5A5"/></g><g clip-path="url(#clip10)"><path d="M1327.5 1485.5C1370.98 1484.57 1414.46 1483.65 1457.94 1482.72 1501.43 1481.8 1544.91 1480.87 1588.39 1479.94 1631.87 1479.02 1675.35 1478.09 1718.83 1477.17 1762.31 1476.24 1805.8 1475.31 1849.28 1474.39 1892.76 1473.46 1936.24 1472.54 1979.72 1471.61 2023.2 1470.69 2066.69 1469.76 2110.17 1468.83 2153.65 1467.91 2197.13 1466.98 2240.61 1466.06 2284.09 1465.13 2327.57 1464.2 2371.06 1463.28 2414.54 1462.35 2458.02 1461.43 2501.5 1460.5" stroke="#FFC000" stroke-width="6.875" stroke-linecap="round" stroke-linejoin="round" stroke-miterlimit="10" fill="none"/></g><g clip-path="url(#clip11)"><path d="M1338.25 1485.25C1338.25 1491.32 1333.32 1496.25 1327.25 1496.25 1321.17 1496.25 1316.25 1491.32 1316.25 1485.25 1316.25 1479.17 1321.17 1474.25 1327.25 1474.25 1333.32 1474.25 1338.25 1479.17 1338.25 1485.25Z" stroke="#FFC000" stroke-width="3.4375" stroke-linejoin="round" stroke-miterlimit="10" fill="#FFC000"/><path d="M1468.25 1482.25C1468.25 1488.32 1463.32 1493.25 1457.25 1493.25 1451.17 1493.25 1446.25 1488.32 1446.25 1482.25 1446.25 1476.17 1451.17 1471.25 1457.25 1471.25 1463.32 1471.25 1468.25 1476.17 1468.25 1482.25Z" stroke="#FFC000" stroke-width="3.4375" stroke-linejoin="round" stroke-miterlimit="10" fill="#FFC000"/><path d="M1599.25 1479.25C1599.25 1485.32 1594.32 1490.25 1588.25 1490.25 1582.17 1490.25 1577.25 1485.32 1577.25 1479.25 1577.25 1473.17 1582.17 1468.25 1588.25 1468.25 1594.32 1468.25 1599.25 1473.17 1599.25 1479.25Z" stroke="#FFC000" stroke-width="3.4375" stroke-linejoin="round" stroke-miterlimit="10" fill="#FFC000"/><path d="M1729.25 1477.25C1729.25 1483.32 1724.32 1488.25 1718.25 1488.25 1712.17 1488.25 1707.25 1483.32 1707.25 1477.25 1707.25 1471.17 1712.17 1466.25 1718.25 1466.25 1724.32 1466.25 1729.25 1471.17 1729.25 1477.25Z" stroke="#FFC000" stroke-width="3.4375" stroke-linejoin="round" stroke-miterlimit="10" fill="#FFC000"/><path d="M1860.25 1474.25C1860.25 1480.32 1855.32 1485.25 1849.25 1485.25 1843.17 1485.25 1838.25 1480.32 1838.25 1474.25 1838.25 1468.17 1843.17 1463.25 1849.25 1463.25 1855.32 1463.25 1860.25 1468.17 1860.25 1474.25Z" stroke="#FFC000" stroke-width="3.4375" stroke-linejoin="round" stroke-miterlimit="10" fill="#FFC000"/><path d="M1990.25 1471.25C1990.25 1477.32 1985.32 1482.25 1979.25 1482.25 1973.17 1482.25 1968.25 1477.32 1968.25 1471.25 1968.25 1465.17 1973.17 1460.25 1979.25 1460.25 1985.32 1460.25 1990.25 1465.17 1990.25 1471.25Z" stroke="#FFC000" stroke-width="3.4375" stroke-linejoin="round" stroke-miterlimit="10" fill="#FFC000"/><path d="M2121.25 1469.25C2121.25 1475.32 2116.32 1480.25 2110.25 1480.25 2104.17 1480.25 2099.25 1475.32 2099.25 1469.25 2099.25 1463.17 2104.17 1458.25 2110.25 1458.25 2116.32 1458.25 2121.25 1463.17 2121.25 1469.25Z" stroke="#FFC000" stroke-width="3.4375" stroke-linejoin="round" stroke-miterlimit="10" fill="#FFC000"/><path d="M2251.25 1466.25C2251.25 1472.32 2246.32 1477.25 2240.25 1477.25 2234.17 1477.25 2229.25 1472.32 2229.25 1466.25 2229.25 1460.17 2234.17 1455.25 2240.25 1455.25 2246.32 1455.25 2251.25 1460.17 2251.25 1466.25Z" stroke="#FFC000" stroke-width="3.4375" stroke-linejoin="round" stroke-miterlimit="10" fill="#FFC000"/><path d="M2382.25 1463.25C2382.25 1469.32 2377.32 1474.25 2371.25 1474.25 2365.17 1474.25 2360.25 1469.32 2360.25 1463.25 2360.25 1457.17 2365.17 1452.25 2371.25 1452.25 2377.32 1452.25 2382.25 1457.17 2382.25 1463.25Z" stroke="#FFC000" stroke-width="3.4375" stroke-linejoin="round" stroke-miterlimit="10" fill="#FFC000"/><path d="M2512.25 1460.25C2512.25 1466.32 2507.32 1471.25 2501.25 1471.25 2495.17 1471.25 2490.25 1466.32 2490.25 1460.25 2490.25 1454.17 2495.17 1449.25 2501.25 1449.25 2507.32 1449.25 2512.25 1454.17 2512.25 1460.25Z" stroke="#FFC000" stroke-width="3.4375" stroke-linejoin="round" stroke-miterlimit="10" fill="#FFC000"/></g><g clip-path="url(#clip12)"><path d="M1327.5 1486.5C1370.98 1486.2 1414.46 1485.91 1457.94 1485.61 1501.43 1485.31 1544.91 1485.02 1588.39 1484.72 1631.87 1484.43 1675.35 1484.13 1718.83 1483.83 1762.31 1483.54 1805.8 1483.24 1849.28 1482.94 1892.76 1482.65 1936.24 1482.35 1979.72 1482.06 2023.2 1481.76 2066.69 1481.46 2110.17 1481.17 2153.65 1480.87 2197.13 1480.57 2240.61 1480.28 2284.09 1479.98 2327.57 1479.69 2371.06 1479.39 2414.54 1479.09 2458.02 1478.8 2501.5 1478.5" stroke="#5B9BD5" stroke-width="6.875" stroke-linecap="round" stroke-linejoin="round" stroke-miterlimit="10" fill="none"/></g><g clip-path="url(#clip13)"><path d="M1338.25 1486.25C1338.25 1492.32 1333.32 1497.25 1327.25 1497.25 1321.17 1497.25 1316.25 1492.32 1316.25 1486.25 1316.25 1480.17 1321.17 1475.25 1327.25 1475.25 1333.32 1475.25 1338.25 1480.17 1338.25 1486.25Z" stroke="#5B9BD5" stroke-width="3.4375" stroke-linejoin="round" stroke-miterlimit="10" fill="#5B9BD5"/><path d="M1468.25 1486.25C1468.25 1492.32 1463.32 1497.25 1457.25 1497.25 1451.17 1497.25 1446.25 1492.32 1446.25 1486.25 1446.25 1480.17 1451.17 1475.25 1457.25 1475.25 1463.32 1475.25 1468.25 1480.17 1468.25 1486.25Z" stroke="#5B9BD5" stroke-width="3.4375" stroke-linejoin="round" stroke-miterlimit="10" fill="#5B9BD5"/><path d="M1599.25 1485.25C1599.25 1491.32 1594.32 1496.25 1588.25 1496.25 1582.17 1496.25 1577.25 1491.32 1577.25 1485.25 1577.25 1479.17 1582.17 1474.25 1588.25 1474.25 1594.32 1474.25 1599.25 1479.17 1599.25 1485.25Z" stroke="#5B9BD5" stroke-width="3.4375" stroke-linejoin="round" stroke-miterlimit="10" fill="#5B9BD5"/><path d="M1729.25 1484.25C1729.25 1490.32 1724.32 1495.25 1718.25 1495.25 1712.17 1495.25 1707.25 1490.32 1707.25 1484.25 1707.25 1478.17 1712.17 1473.25 1718.25 1473.25 1724.32 1473.25 1729.25 1478.17 1729.25 1484.25Z" stroke="#5B9BD5" stroke-width="3.4375" stroke-linejoin="round" stroke-miterlimit="10" fill="#5B9BD5"/><path d="M1860.25 1483.25C1860.25 1489.32 1855.32 1494.25 1849.25 1494.25 1843.17 1494.25 1838.25 1489.32 1838.25 1483.25 1838.25 1477.17 1843.17 1472.25 1849.25 1472.25 1855.32 1472.25 1860.25 1477.17 1860.25 1483.25Z" stroke="#5B9BD5" stroke-width="3.4375" stroke-linejoin="round" stroke-miterlimit="10" fill="#5B9BD5"/><path d="M1990.25 1482.25C1990.25 1488.32 1985.32 1493.25 1979.25 1493.25 1973.17 1493.25 1968.25 1488.32 1968.25 1482.25 1968.25 1476.17 1973.17 1471.25 1979.25 1471.25 1985.32 1471.25 1990.25 1476.17 1990.25 1482.25Z" stroke="#5B9BD5" stroke-width="3.4375" stroke-linejoin="round" stroke-miterlimit="10" fill="#5B9BD5"/><path d="M2121.25 1481.25C2121.25 1487.32 2116.32 1492.25 2110.25 1492.25 2104.17 1492.25 2099.25 1487.32 2099.25 1481.25 2099.25 1475.17 2104.17 1470.25 2110.25 1470.25 2116.32 1470.25 2121.25 1475.17 2121.25 1481.25Z" stroke="#5B9BD5" stroke-width="3.4375" stroke-linejoin="round" stroke-miterlimit="10" fill="#5B9BD5"/><path d="M2251.25 1480.25C2251.25 1486.32 2246.32 1491.25 2240.25 1491.25 2234.17 1491.25 2229.25 1486.32 2229.25 1480.25 2229.25 1474.17 2234.17 1469.25 2240.25 1469.25 2246.32 1469.25 2251.25 1474.17 2251.25 1480.25Z" stroke="#5B9BD5" stroke-width="3.4375" stroke-linejoin="round" stroke-miterlimit="10" fill="#5B9BD5"/><path d="M2382.25 1479.25C2382.25 1485.32 2377.32 1490.25 2371.25 1490.25 2365.17 1490.25 2360.25 1485.32 2360.25 1479.25 2360.25 1473.17 2365.17 1468.25 2371.25 1468.25 2377.32 1468.25 2382.25 1473.17 2382.25 1479.25Z" stroke="#5B9BD5" stroke-width="3.4375" stroke-linejoin="round" stroke-miterlimit="10" fill="#5B9BD5"/><path d="M2512.25 1478.25C2512.25 1484.32 2507.32 1489.25 2501.25 1489.25 2495.17 1489.25 2490.25 1484.32 2490.25 1478.25 2490.25 1472.17 2495.17 1467.25 2501.25 1467.25 2507.32 1467.25 2512.25 1472.17 2512.25 1478.25Z" stroke="#5B9BD5" stroke-width="3.4375" stroke-linejoin="round" stroke-miterlimit="10" fill="#5B9BD5"/></g><g clip-path="url(#clip14)"><path d="M1327.5 1482.5C1370.98 1477.83 1414.46 1474.67 1457.94 1468.51 1501.43 1462.33 1544.91 1454.66 1588.39 1445.48 1631.87 1436.3 1675.35 1425.62 1718.83 1413.43 1762.31 1401.24 1805.8 1387.54 1849.28 1372.35 1892.76 1357.15 1936.24 1340.44 1979.72 1322.23 2023.2 1304.03 2066.69 1284.31 2110.17 1263.09 2153.65 1241.88 2197.13 1219.15 2240.61 1194.93 2284.09 1170.7 2327.57 1144.96 2371.06 1117.73 2414.54 1090.49 2458.02 1060.24 2501.5 1031.5" stroke="#70AD47" stroke-width="6.875" stroke-linecap="round" stroke-linejoin="round" stroke-miterlimit="10" fill="none"/></g><g clip-path="url(#clip15)"><path d="M1338.25 1482.25C1338.25 1488.32 1333.32 1493.25 1327.25 1493.25 1321.17 1493.25 1316.25 1488.32 1316.25 1482.25 1316.25 1476.17 1321.17 1471.25 1327.25 1471.25 1333.32 1471.25 1338.25 1476.17 1338.25 1482.25Z" stroke="#70AD47" stroke-width="3.4375" stroke-linejoin="round" stroke-miterlimit="10" fill="#70AD47"/><path d="M1468.25 1468.25C1468.25 1474.32 1463.32 1479.25 1457.25 1479.25 1451.17 1479.25 1446.25 1474.32 1446.25 1468.25 1446.25 1462.17 1451.17 1457.25 1457.25 1457.25 1463.32 1457.25 1468.25 1462.17 1468.25 1468.25Z" stroke="#70AD47" stroke-width="3.4375" stroke-linejoin="round" stroke-miterlimit="10" fill="#70AD47"/><path d="M1599.25 1445.25C1599.25 1451.32 1594.32 1456.25 1588.25 1456.25 1582.17 1456.25 1577.25 1451.32 1577.25 1445.25 1577.25 1439.17 1582.17 1434.25 1588.25 1434.25 1594.32 1434.25 1599.25 1439.17 1599.25 1445.25Z" stroke="#70AD47" stroke-width="3.4375" stroke-linejoin="round" stroke-miterlimit="10" fill="#70AD47"/><path d="M1729.25 1413.25C1729.25 1419.32 1724.32 1424.25 1718.25 1424.25 1712.17 1424.25 1707.25 1419.32 1707.25 1413.25 1707.25 1407.17 1712.17 1402.25 1718.25 1402.25 1724.32 1402.25 1729.25 1407.17 1729.25 1413.25Z" stroke="#70AD47" stroke-width="3.4375" stroke-linejoin="round" stroke-miterlimit="10" fill="#70AD47"/><path d="M1860.25 1372.25C1860.25 1378.32 1855.32 1383.25 1849.25 1383.25 1843.17 1383.25 1838.25 1378.32 1838.25 1372.25 1838.25 1366.17 1843.17 1361.25 1849.25 1361.25 1855.32 1361.25 1860.25 1366.17 1860.25 1372.25Z" stroke="#70AD47" stroke-width="3.4375" stroke-linejoin="round" stroke-miterlimit="10" fill="#70AD47"/><path d="M1990.25 1322.25C1990.25 1328.32 1985.32 1333.25 1979.25 1333.25 1973.17 1333.25 1968.25 1328.32 1968.25 1322.25 1968.25 1316.17 1973.17 1311.25 1979.25 1311.25 1985.32 1311.25 1990.25 1316.17 1990.25 1322.25Z" stroke="#70AD47" stroke-width="3.4375" stroke-linejoin="round" stroke-miterlimit="10" fill="#70AD47"/><path d="M2121.25 1263.25C2121.25 1269.32 2116.32 1274.25 2110.25 1274.25 2104.17 1274.25 2099.25 1269.32 2099.25 1263.25 2099.25 1257.17 2104.17 1252.25 2110.25 1252.25 2116.32 1252.25 2121.25 1257.17 2121.25 1263.25Z" stroke="#70AD47" stroke-width="3.4375" stroke-linejoin="round" stroke-miterlimit="10" fill="#70AD47"/><path d="M2251.25 1195.25C2251.25 1201.32 2246.32 1206.25 2240.25 1206.25 2234.17 1206.25 2229.25 1201.32 2229.25 1195.25 2229.25 1189.17 2234.17 1184.25 2240.25 1184.25 2246.32 1184.25 2251.25 1189.17 2251.25 1195.25Z" stroke="#70AD47" stroke-width="3.4375" stroke-linejoin="round" stroke-miterlimit="10" fill="#70AD47"/><path d="M2382.25 1117.25C2382.25 1123.32 2377.32 1128.25 2371.25 1128.25 2365.17 1128.25 2360.25 1123.32 2360.25 1117.25 2360.25 1111.17 2365.17 1106.25 2371.25 1106.25 2377.32 1106.25 2382.25 1111.17 2382.25 1117.25Z" stroke="#70AD47" stroke-width="3.4375" stroke-linejoin="round" stroke-miterlimit="10" fill="#70AD47"/><path d="M2512.25 1031.25C2512.25 1037.32 2507.32 1042.25 2501.25 1042.25 2495.17 1042.25 2490.25 1037.32 2490.25 1031.25 2490.25 1025.17 2495.17 1020.25 2501.25 1020.25 2507.32 1020.25 2512.25 1025.17 2512.25 1031.25Z" stroke="#70AD47" stroke-width="3.4375" stroke-linejoin="round" stroke-miterlimit="10" fill="#70AD47"/></g><g clip-path="url(#clip16)"><path d="M1327.5 1486.5C1370.98 1485.6 1414.46 1484.54 1457.94 1483.8 1501.43 1483.07 1544.91 1482.7 1588.39 1482.07 1631.87 1481.43 1675.35 1480.65 1718.83 1479.98 1762.31 1479.31 1805.8 1478.64 1849.28 1478.07 1892.76 1477.49 1936.24 1476.27 1979.72 1476.5 2023.2 1476.73 2066.69 1480.21 2110.17 1479.46 2153.65 1478.7 2197.13 1473.49 2240.61 1471.98 2284.09 1470.47 2327.57 1470.99 2371.06 1470.41 2414.54 1469.83 2458.02 1469.14 2501.5 1468.5" stroke="#264478" stroke-width="6.875" stroke-linecap="round" stroke-linejoin="round" stroke-miterlimit="10" fill="none"/></g><g clip-path="url(#clip17)"><path d="M1338.25 1486.25C1338.25 1492.32 1333.32 1497.25 1327.25 1497.25 1321.17 1497.25 1316.25 1492.32 1316.25 1486.25 1316.25 1480.17 1321.17 1475.25 1327.25 1475.25 1333.32 1475.25 1338.25 1480.17 1338.25 1486.25Z" stroke="#264478" stroke-width="3.4375" stroke-linejoin="round" stroke-miterlimit="10" fill="#264478"/><path d="M1468.25 1484.25C1468.25 1490.32 1463.32 1495.25 1457.25 1495.25 1451.17 1495.25 1446.25 1490.32 1446.25 1484.25 1446.25 1478.17 1451.17 1473.25 1457.25 1473.25 1463.32 1473.25 1468.25 1478.17 1468.25 1484.25Z" stroke="#264478" stroke-width="3.4375" stroke-linejoin="round" stroke-miterlimit="10" fill="#264478"/><path d="M1599.25 1482.25C1599.25 1488.32 1594.32 1493.25 1588.25 1493.25 1582.17 1493.25 1577.25 1488.32 1577.25 1482.25 1577.25 1476.17 1582.17 1471.25 1588.25 1471.25 1594.32 1471.25 1599.25 1476.17 1599.25 1482.25Z" stroke="#264478" stroke-width="3.4375" stroke-linejoin="round" stroke-miterlimit="10" fill="#264478"/><path d="M1729.25 1480.25C1729.25 1486.32 1724.32 1491.25 1718.25 1491.25 1712.17 1491.25 1707.25 1486.32 1707.25 1480.25 1707.25 1474.17 1712.17 1469.25 1718.25 1469.25 1724.32 1469.25 1729.25 1474.17 1729.25 1480.25Z" stroke="#264478" stroke-width="3.4375" stroke-linejoin="round" stroke-miterlimit="10" fill="#264478"/><path d="M1860.25 1478.25C1860.25 1484.32 1855.32 1489.25 1849.25 1489.25 1843.17 1489.25 1838.25 1484.32 1838.25 1478.25 1838.25 1472.17 1843.17 1467.25 1849.25 1467.25 1855.32 1467.25 1860.25 1472.17 1860.25 1478.25Z" stroke="#264478" stroke-width="3.4375" stroke-linejoin="round" stroke-miterlimit="10" fill="#264478"/><path d="M1990.25 1476.25C1990.25 1482.32 1985.32 1487.25 1979.25 1487.25 1973.17 1487.25 1968.25 1482.32 1968.25 1476.25 1968.25 1470.17 1973.17 1465.25 1979.25 1465.25 1985.32 1465.25 1990.25 1470.17 1990.25 1476.25Z" stroke="#264478" stroke-width="3.4375" stroke-linejoin="round" stroke-miterlimit="10" fill="#264478"/><path d="M2121.25 1479.25C2121.25 1485.32 2116.32 1490.25 2110.25 1490.25 2104.17 1490.25 2099.25 1485.32 2099.25 1479.25 2099.25 1473.17 2104.17 1468.25 2110.25 1468.25 2116.32 1468.25 2121.25 1473.17 2121.25 1479.25Z" stroke="#264478" stroke-width="3.4375" stroke-linejoin="round" stroke-miterlimit="10" fill="#264478"/><path d="M2251.25 1471.25C2251.25 1477.32 2246.32 1482.25 2240.25 1482.25 2234.17 1482.25 2229.25 1477.32 2229.25 1471.25 2229.25 1465.17 2234.17 1460.25 2240.25 1460.25 2246.32 1460.25 2251.25 1465.17 2251.25 1471.25Z" stroke="#264478" stroke-width="3.4375" stroke-linejoin="round" stroke-miterlimit="10" fill="#264478"/><path d="M2382.25 1470.25C2382.25 1476.32 2377.32 1481.25 2371.25 1481.25 2365.17 1481.25 2360.25 1476.32 2360.25 1470.25 2360.25 1464.17 2365.17 1459.25 2371.25 1459.25 2377.32 1459.25 2382.25 1464.17 2382.25 1470.25Z" stroke="#264478" stroke-width="3.4375" stroke-linejoin="round" stroke-miterlimit="10" fill="#264478"/><path d="M2512.25 1468.25C2512.25 1474.32 2507.32 1479.25 2501.25 1479.25 2495.17 1479.25 2490.25 1474.32 2490.25 1468.25 2490.25 1462.17 2495.17 1457.25 2501.25 1457.25 2507.32 1457.25 2512.25 1462.17 2512.25 1468.25Z" stroke="#264478" stroke-width="3.4375" stroke-linejoin="round" stroke-miterlimit="10" fill="#264478"/></g><g clip-path="url(#clip18)"><path d="M1327.5 1486.5C1370.98 1485.12 1414.46 1483.44 1457.94 1482.38 1501.43 1481.31 1544.91 1482.16 1588.39 1480.08 1631.87 1478.01 1675.35 1472.32 1718.83 1469.91 1762.31 1467.5 1805.8 1466.98 1849.28 1465.6 1892.76 1464.23 1936.24 1462.73 1979.72 1461.66 2023.2 1460.59 2066.69 1462.55 2110.17 1459.19 2153.65 1455.83 2197.13 1445.35 2240.61 1441.5 2284.09 1437.65 2327.57 1437.92 2371.06 1436.09 2414.54 1434.26 2458.02 1432.36 2501.5 1430.5" stroke="#9E480E" stroke-width="6.875" stroke-linecap="round" stroke-linejoin="round" stroke-miterlimit="10" fill="none"/></g><g clip-path="url(#clip19)"><path d="M1338.25 1486.25C1338.25 1492.32 1333.32 1497.25 1327.25 1497.25 1321.17 1497.25 1316.25 1492.32 1316.25 1486.25 1316.25 1480.17 1321.17 1475.25 1327.25 1475.25 1333.32 1475.25 1338.25 1480.17 1338.25 1486.25Z" stroke="#9E480E" stroke-width="3.4375" stroke-linejoin="round" stroke-miterlimit="10" fill="#9E480E"/><path d="M1468.25 1482.25C1468.25 1488.32 1463.32 1493.25 1457.25 1493.25 1451.17 1493.25 1446.25 1488.32 1446.25 1482.25 1446.25 1476.17 1451.17 1471.25 1457.25 1471.25 1463.32 1471.25 1468.25 1476.17 1468.25 1482.25Z" stroke="#9E480E" stroke-width="3.4375" stroke-linejoin="round" stroke-miterlimit="10" fill="#9E480E"/><path d="M1599.25 1479.25C1599.25 1485.32 1594.32 1490.25 1588.25 1490.25 1582.17 1490.25 1577.25 1485.32 1577.25 1479.25 1577.25 1473.17 1582.17 1468.25 1588.25 1468.25 1594.32 1468.25 1599.25 1473.17 1599.25 1479.25Z" stroke="#9E480E" stroke-width="3.4375" stroke-linejoin="round" stroke-miterlimit="10" fill="#9E480E"/><path d="M1729.25 1469.25C1729.25 1475.32 1724.32 1480.25 1718.25 1480.25 1712.17 1480.25 1707.25 1475.32 1707.25 1469.25 1707.25 1463.17 1712.17 1458.25 1718.25 1458.25 1724.32 1458.25 1729.25 1463.17 1729.25 1469.25Z" stroke="#9E480E" stroke-width="3.4375" stroke-linejoin="round" stroke-miterlimit="10" fill="#9E480E"/><path d="M1860.25 1465.25C1860.25 1471.32 1855.32 1476.25 1849.25 1476.25 1843.17 1476.25 1838.25 1471.32 1838.25 1465.25 1838.25 1459.17 1843.17 1454.25 1849.25 1454.25 1855.32 1454.25 1860.25 1459.17 1860.25 1465.25Z" stroke="#9E480E" stroke-width="3.4375" stroke-linejoin="round" stroke-miterlimit="10" fill="#9E480E"/><path d="M1990.25 1461.25C1990.25 1467.32 1985.32 1472.25 1979.25 1472.25 1973.17 1472.25 1968.25 1467.32 1968.25 1461.25 1968.25 1455.17 1973.17 1450.25 1979.25 1450.25 1985.32 1450.25 1990.25 1455.17 1990.25 1461.25Z" stroke="#9E480E" stroke-width="3.4375" stroke-linejoin="round" stroke-miterlimit="10" fill="#9E480E"/><path d="M2121.25 1459.25C2121.25 1465.32 2116.32 1470.25 2110.25 1470.25 2104.17 1470.25 2099.25 1465.32 2099.25 1459.25 2099.25 1453.17 2104.17 1448.25 2110.25 1448.25 2116.32 1448.25 2121.25 1453.17 2121.25 1459.25Z" stroke="#9E480E" stroke-width="3.4375" stroke-linejoin="round" stroke-miterlimit="10" fill="#9E480E"/><path d="M2251.25 1441.25C2251.25 1447.32 2246.32 1452.25 2240.25 1452.25 2234.17 1452.25 2229.25 1447.32 2229.25 1441.25 2229.25 1435.17 2234.17 1430.25 2240.25 1430.25 2246.32 1430.25 2251.25 1435.17 2251.25 1441.25Z" stroke="#9E480E" stroke-width="3.4375" stroke-linejoin="round" stroke-miterlimit="10" fill="#9E480E"/><path d="M2382.25 1436.25C2382.25 1442.32 2377.32 1447.25 2371.25 1447.25 2365.17 1447.25 2360.25 1442.32 2360.25 1436.25 2360.25 1430.17 2365.17 1425.25 2371.25 1425.25 2377.32 1425.25 2382.25 1430.17 2382.25 1436.25Z" stroke="#9E480E" stroke-width="3.4375" stroke-linejoin="round" stroke-miterlimit="10" fill="#9E480E"/><path d="M2512.25 1430.25C2512.25 1436.32 2507.32 1441.25 2501.25 1441.25 2495.17 1441.25 2490.25 1436.32 2490.25 1430.25 2490.25 1424.17 2495.17 1419.25 2501.25 1419.25 2507.32 1419.25 2512.25 1424.17 2512.25 1430.25Z" stroke="#9E480E" stroke-width="3.4375" stroke-linejoin="round" stroke-miterlimit="10" fill="#9E480E"/></g><g clip-path="url(#clip20)"><path d="M1327.5 1486.5C1370.98 1484.72 1414.46 1482.64 1457.94 1481.17 1501.43 1479.7 1544.91 1478.87 1588.39 1477.68 1631.87 1476.49 1675.35 1475.2 1718.83 1474.01 1762.31 1472.81 1805.8 1473.52 1849.28 1470.51 1892.76 1467.51 1936.24 1459.34 1979.72 1456 2023.2 1452.66 2066.69 1452.29 2110.17 1450.49 2153.65 1448.68 2197.13 1446.93 2240.61 1445.16 2284.09 1443.38 2327.57 1441.6 2371.06 1439.83 2414.54 1438.05 2458.02 1436.28 2501.5 1434.5" stroke="#636363" stroke-width="6.875" stroke-linecap="round" stroke-linejoin="round" stroke-miterlimit="10" fill="none"/></g><g clip-path="url(#clip21)"><path d="M1338.25 1486.25C1338.25 1492.32 1333.32 1497.25 1327.25 1497.25 1321.17 1497.25 1316.25 1492.32 1316.25 1486.25 1316.25 1480.17 1321.17 1475.25 1327.25 1475.25 1333.32 1475.25 1338.25 1480.17 1338.25 1486.25Z" stroke="#636363" stroke-width="3.4375" stroke-linejoin="round" stroke-miterlimit="10" fill="#636363"/><path d="M1468.25 1480.25C1468.25 1486.32 1463.32 1491.25 1457.25 1491.25 1451.17 1491.25 1446.25 1486.32 1446.25 1480.25 1446.25 1474.17 1451.17 1469.25 1457.25 1469.25 1463.32 1469.25 1468.25 1474.17 1468.25 1480.25Z" stroke="#636363" stroke-width="3.4375" stroke-linejoin="round" stroke-miterlimit="10" fill="#636363"/><path d="M1599.25 1477.25C1599.25 1483.32 1594.32 1488.25 1588.25 1488.25 1582.17 1488.25 1577.25 1483.32 1577.25 1477.25 1577.25 1471.17 1582.17 1466.25 1588.25 1466.25 1594.32 1466.25 1599.25 1471.17 1599.25 1477.25Z" stroke="#636363" stroke-width="3.4375" stroke-linejoin="round" stroke-miterlimit="10" fill="#636363"/><path d="M1729.25 1473.25C1729.25 1479.32 1724.32 1484.25 1718.25 1484.25 1712.17 1484.25 1707.25 1479.32 1707.25 1473.25 1707.25 1467.17 1712.17 1462.25 1718.25 1462.25 1724.32 1462.25 1729.25 1467.17 1729.25 1473.25Z" stroke="#636363" stroke-width="3.4375" stroke-linejoin="round" stroke-miterlimit="10" fill="#636363"/><path d="M1860.25 1470.25C1860.25 1476.32 1855.32 1481.25 1849.25 1481.25 1843.17 1481.25 1838.25 1476.32 1838.25 1470.25 1838.25 1464.17 1843.17 1459.25 1849.25 1459.25 1855.32 1459.25 1860.25 1464.17 1860.25 1470.25Z" stroke="#636363" stroke-width="3.4375" stroke-linejoin="round" stroke-miterlimit="10" fill="#636363"/><path d="M1990.25 1456.25C1990.25 1462.32 1985.32 1467.25 1979.25 1467.25 1973.17 1467.25 1968.25 1462.32 1968.25 1456.25 1968.25 1450.17 1973.17 1445.25 1979.25 1445.25 1985.32 1445.25 1990.25 1450.17 1990.25 1456.25Z" stroke="#636363" stroke-width="3.4375" stroke-linejoin="round" stroke-miterlimit="10" fill="#636363"/><path d="M2121.25 1450.25C2121.25 1456.32 2116.32 1461.25 2110.25 1461.25 2104.17 1461.25 2099.25 1456.32 2099.25 1450.25 2099.25 1444.17 2104.17 1439.25 2110.25 1439.25 2116.32 1439.25 2121.25 1444.17 2121.25 1450.25Z" stroke="#636363" stroke-width="3.4375" stroke-linejoin="round" stroke-miterlimit="10" fill="#636363"/><path d="M2251.25 1445.25C2251.25 1451.32 2246.32 1456.25 2240.25 1456.25 2234.17 1456.25 2229.25 1451.32 2229.25 1445.25 2229.25 1439.17 2234.17 1434.25 2240.25 1434.25 2246.32 1434.25 2251.25 1439.17 2251.25 1445.25Z" stroke="#636363" stroke-width="3.4375" stroke-linejoin="round" stroke-miterlimit="10" fill="#636363"/><path d="M2382.25 1440.25C2382.25 1446.32 2377.32 1451.25 2371.25 1451.25 2365.17 1451.25 2360.25 1446.32 2360.25 1440.25 2360.25 1434.17 2365.17 1429.25 2371.25 1429.25 2377.32 1429.25 2382.25 1434.17 2382.25 1440.25Z" stroke="#636363" stroke-width="3.4375" stroke-linejoin="round" stroke-miterlimit="10" fill="#636363"/><path d="M2512.25 1434.25C2512.25 1440.32 2507.32 1445.25 2501.25 1445.25 2495.17 1445.25 2490.25 1440.32 2490.25 1434.25 2490.25 1428.17 2495.17 1423.25 2501.25 1423.25 2507.32 1423.25 2512.25 1428.17 2512.25 1434.25Z" stroke="#636363" stroke-width="3.4375" stroke-linejoin="round" stroke-miterlimit="10" fill="#636363"/></g><g clip-path="url(#clip22)"><path d="M1327.5 1485.5C1370.98 1484.44 1414.46 1483.6 1457.94 1482.34 1501.43 1481.07 1544.91 1479.02 1588.39 1477.91 1631.87 1476.79 1675.35 1476.55 1718.83 1475.65 1762.31 1474.74 1805.8 1474.17 1849.28 1472.48 1892.76 1470.79 1936.24 1467.06 1979.72 1465.52 2023.2 1463.98 2066.69 1464.16 2110.17 1463.26 2153.65 1462.35 2197.13 1461.36 2240.61 1460.09 2284.09 1458.83 2327.57 1456.93 2371.06 1455.66 2414.54 1454.4 2458.02 1453.55 2501.5 1452.5" stroke="#997300" stroke-width="6.875" stroke-linecap="round" stroke-linejoin="round" stroke-miterlimit="10" fill="none"/></g><g clip-path="url(#clip23)"><path d="M1338.25 1485.25C1338.25 1491.32 1333.32 1496.25 1327.25 1496.25 1321.17 1496.25 1316.25 1491.32 1316.25 1485.25 1316.25 1479.17 1321.17 1474.25 1327.25 1474.25 1333.32 1474.25 1338.25 1479.17 1338.25 1485.25Z" stroke="#997300" stroke-width="3.4375" stroke-linejoin="round" stroke-miterlimit="10" fill="#997300"/><path d="M1468.25 1482.25C1468.25 1488.32 1463.32 1493.25 1457.25 1493.25 1451.17 1493.25 1446.25 1488.32 1446.25 1482.25 1446.25 1476.17 1451.17 1471.25 1457.25 1471.25 1463.32 1471.25 1468.25 1476.17 1468.25 1482.25Z" stroke="#997300" stroke-width="3.4375" stroke-linejoin="round" stroke-miterlimit="10" fill="#997300"/><path d="M1599.25 1478.25C1599.25 1484.32 1594.32 1489.25 1588.25 1489.25 1582.17 1489.25 1577.25 1484.32 1577.25 1478.25 1577.25 1472.17 1582.17 1467.25 1588.25 1467.25 1594.32 1467.25 1599.25 1472.17 1599.25 1478.25Z" stroke="#997300" stroke-width="3.4375" stroke-linejoin="round" stroke-miterlimit="10" fill="#997300"/><path d="M1729.25 1475.25C1729.25 1481.32 1724.32 1486.25 1718.25 1486.25 1712.17 1486.25 1707.25 1481.32 1707.25 1475.25 1707.25 1469.17 1712.17 1464.25 1718.25 1464.25 1724.32 1464.25 1729.25 1469.17 1729.25 1475.25Z" stroke="#997300" stroke-width="3.4375" stroke-linejoin="round" stroke-miterlimit="10" fill="#997300"/><path d="M1860.25 1472.25C1860.25 1478.32 1855.32 1483.25 1849.25 1483.25 1843.17 1483.25 1838.25 1478.32 1838.25 1472.25 1838.25 1466.17 1843.17 1461.25 1849.25 1461.25 1855.32 1461.25 1860.25 1466.17 1860.25 1472.25Z" stroke="#997300" stroke-width="3.4375" stroke-linejoin="round" stroke-miterlimit="10" fill="#997300"/><path d="M1990.25 1465.25C1990.25 1471.32 1985.32 1476.25 1979.25 1476.25 1973.17 1476.25 1968.25 1471.32 1968.25 1465.25 1968.25 1459.17 1973.17 1454.25 1979.25 1454.25 1985.32 1454.25 1990.25 1459.17 1990.25 1465.25Z" stroke="#997300" stroke-width="3.4375" stroke-linejoin="round" stroke-miterlimit="10" fill="#997300"/><path d="M2121.25 1463.25C2121.25 1469.32 2116.32 1474.25 2110.25 1474.25 2104.17 1474.25 2099.25 1469.32 2099.25 1463.25 2099.25 1457.17 2104.17 1452.25 2110.25 1452.25 2116.32 1452.25 2121.25 1457.17 2121.25 1463.25Z" stroke="#997300" stroke-width="3.4375" stroke-linejoin="round" stroke-miterlimit="10" fill="#997300"/><path d="M2251.25 1460.25C2251.25 1466.32 2246.32 1471.25 2240.25 1471.25 2234.17 1471.25 2229.25 1466.32 2229.25 1460.25 2229.25 1454.17 2234.17 1449.25 2240.25 1449.25 2246.32 1449.25 2251.25 1454.17 2251.25 1460.25Z" stroke="#997300" stroke-width="3.4375" stroke-linejoin="round" stroke-miterlimit="10" fill="#997300"/><path d="M2382.25 1456.25C2382.25 1462.32 2377.32 1467.25 2371.25 1467.25 2365.17 1467.25 2360.25 1462.32 2360.25 1456.25 2360.25 1450.17 2365.17 1445.25 2371.25 1445.25 2377.32 1445.25 2382.25 1450.17 2382.25 1456.25Z" stroke="#997300" stroke-width="3.4375" stroke-linejoin="round" stroke-miterlimit="10" fill="#997300"/><path d="M2512.25 1452.25C2512.25 1458.32 2507.32 1463.25 2501.25 1463.25 2495.17 1463.25 2490.25 1458.32 2490.25 1452.25 2490.25 1446.17 2495.17 1441.25 2501.25 1441.25 2507.32 1441.25 2512.25 1446.17 2512.25 1452.25Z" stroke="#997300" stroke-width="3.4375" stroke-linejoin="round" stroke-miterlimit="10" fill="#997300"/></g><g clip-path="url(#clip24)"><text fill="#595959" font-family="Calibri,Calibri_MSFontService,sans-serif" font-weight="400" font-size="41" transform="matrix(1 0 0 1 1137.33 1499)">0</text></g><g clip-path="url(#clip25)"><text fill="#595959" font-family="Calibri,Calibri_MSFontService,sans-serif" font-weight="400" font-size="41" transform="matrix(1 0 0 1 1074.63 1319)">2000</text></g><g clip-path="url(#clip26)"><text fill="#595959" font-family="Calibri,Calibri_MSFontService,sans-serif" font-weight="400" font-size="41" transform="matrix(1 0 0 1 1074.63 1138)">4000</text></g><g clip-path="url(#clip27)"><text fill="#595959" font-family="Calibri,Calibri_MSFontService,sans-serif" font-weight="400" font-size="41" transform="matrix(1 0 0 1 1074.63 957)">6000</text></g><g clip-path="url(#clip28)"><text fill="#595959" font-family="Calibri,Calibri_MSFontService,sans-serif" font-weight="400" font-size="41" transform="matrix(1 0 0 1 1074.63 777)">8000</text></g><g clip-path="url(#clip29)"><text fill="#595959" font-family="Calibri,Calibri_MSFontService,sans-serif" font-weight="400" font-size="41" transform="matrix(1 0 0 1 1053.73 596)">10000</text></g><g clip-path="url(#clip30)"><text fill="#595959" font-family="Calibri,Calibri_MSFontService,sans-serif" font-weight="400" font-size="41" transform="matrix(1 0 0 1 1053.73 415)">12000</text></g><g clip-path="url(#clip31)"><text fill="#595959" font-family="Calibri,Calibri_MSFontService,sans-serif" font-weight="400" font-size="41" transform="matrix(1 0 0 1 1186.05 1553)">0</text></g><g clip-path="url(#clip32)"><text fill="#595959" font-family="Calibri,Calibri_MSFontService,sans-serif" font-weight="400" font-size="41" transform="matrix(1 0 0 1 1436.62 1553)">20</text></g><g clip-path="url(#clip33)"><text fill="#595959" font-family="Calibri,Calibri_MSFontService,sans-serif" font-weight="400" font-size="41" transform="matrix(1 0 0 1 1697.63 1553)">40</text></g><g clip-path="url(#clip34)"><text fill="#595959" font-family="Calibri,Calibri_MSFontService,sans-serif" font-weight="400" font-size="41" transform="matrix(1 0 0 1 1958.65 1553)">60</text></g><g clip-path="url(#clip35)"><text fill="#595959" font-family="Calibri,Calibri_MSFontService,sans-serif" font-weight="400" font-size="41" transform="matrix(1 0 0 1 2219.67 1553)">80</text></g><g clip-path="url(#clip36)"><text fill="#595959" font-family="Calibri,Calibri_MSFontService,sans-serif" font-weight="400" font-size="41" transform="matrix(1 0 0 1 2470.24 1553)">100</text></g><g clip-path="url(#clip37)"><text fill="#595959" font-family="Calibri,Calibri_MSFontService,sans-serif" font-weight="400" font-size="41" transform="matrix(1 0 0 1 2731.25 1553)">120</text></g><g clip-path="url(#clip38)"><text fill="#595959" font-family="Calibri,Calibri_MSFontService,sans-serif" font-weight="400" font-size="46" transform="matrix(6.12323e-17 -1 1 6.12323e-17 1028.04 1049)">Opérations</text></g><g clip-path="url(#clip39)"><text fill="#595959" font-family="Calibri,Calibri_MSFontService,sans-serif" font-weight="400" font-size="46" transform="matrix(1 0 0 1 1909.92 1622)">Valeurs</text></g><g clip-path="url(#clip40)"><text fill="#595959" font-family="Calibri,Calibri_MSFontService,sans-serif" font-weight="400" font-size="64" transform="matrix(1 0 0 1 1906.82 329)">Opérations Croissant</text></g><g clip-path="url(#clip41)"><path d="M2865.5 674.5 2953.5 674.5" stroke="#4472C4" stroke-width="6.875" stroke-linecap="round" stroke-linejoin="round" stroke-miterlimit="10" fill="none" fill-rule="evenodd"/></g><g clip-path="url(#clip42)"><path d="M2920 674C2920 680.075 2915.07 684.999 2909 684.999 2902.93 684.999 2898 680.075 2898 674 2898 667.924 2902.93 663 2909 663 2915.07 663 2920 667.924 2920 674Z" stroke="#4472C4" stroke-width="3.4375" stroke-linejoin="round" stroke-miterlimit="10" fill="#4472C4"/></g><g clip-path="url(#clip43)"><text fill="#595959" font-family="Calibri,Calibri_MSFontService,sans-serif" font-weight="400" font-size="41" transform="matrix(1 0 0 1 2962.96 686)">Bubble Affecations</text></g><g clip-path="url(#clip44)"><path d="M2865.5 751.5 2953.5 751.5" stroke="#ED7D31" stroke-width="6.875" stroke-linecap="round" stroke-linejoin="round" stroke-miterlimit="10" fill="none" fill-rule="evenodd"/></g><g clip-path="url(#clip45)"><path d="M2920 751C2920 757.075 2915.07 761.999 2909 761.999 2902.93 761.999 2898 757.075 2898 751 2898 744.924 2902.93 740 2909 740 2915.07 740 2920 744.924 2920 751Z" stroke="#ED7D31" stroke-width="3.4375" stroke-linejoin="round" stroke-miterlimit="10" fill="#ED7D31"/></g><g clip-path="url(#clip46)"><text fill="#595959" font-family="Calibri,Calibri_MSFontService,sans-serif" font-weight="400" font-size="41" transform="matrix(1 0 0 1 2962.96 763)">Bubble Comparaisons</text></g><g clip-path="url(#clip47)"><path d="M2865.5 828.5 2953.5 828.5" stroke="#A5A5A5" stroke-width="6.875" stroke-linecap="round" stroke-linejoin="round" stroke-miterlimit="10" fill="none" fill-rule="evenodd"/></g><g clip-path="url(#clip48)"><path d="M2920 828C2920 834.075 2915.07 838.999 2909 838.999 2902.93 838.999 2898 834.075 2898 828 2898 821.924 2902.93 817 2909 817 2915.07 817 2920 821.924 2920 828Z" stroke="#A5A5A5" stroke-width="3.4375" stroke-linejoin="round" stroke-miterlimit="10" fill="#A5A5A5"/></g><g clip-path="url(#clip49)"><text fill="#595959" font-family="Calibri,Calibri_MSFontService,sans-serif" font-weight="400" font-size="41" transform="matrix(1 0 0 1 2962.96 840)">Insertion Affecations</text></g><g clip-path="url(#clip50)"><path d="M2865.5 906.5 2953.5 906.5" stroke="#FFC000" stroke-width="6.875" stroke-linecap="round" stroke-linejoin="round" stroke-miterlimit="10" fill="none" fill-rule="evenodd"/></g><g clip-path="url(#clip51)"><path d="M2920 906C2920 912.075 2915.07 916.999 2909 916.999 2902.93 916.999 2898 912.075 2898 906 2898 899.925 2902.93 895 2909 895 2915.07 895 2920 899.925 2920 906Z" stroke="#FFC000" stroke-width="3.4375" stroke-linejoin="round" stroke-miterlimit="10" fill="#FFC000"/></g><g clip-path="url(#clip52)"><text fill="#595959" font-family="Calibri,Calibri_MSFontService,sans-serif" font-weight="400" font-size="41" transform="matrix(1 0 0 1 2962.96 918)">Insertion Comparaisons</text></g><g clip-path="url(#clip53)"><path d="M2865.5 983.5 2953.5 983.5" stroke="#5B9BD5" stroke-width="6.875" stroke-linecap="round" stroke-linejoin="round" stroke-miterlimit="10" fill="none" fill-rule="evenodd"/></g><g clip-path="url(#clip54)"><path d="M2920 983C2920 989.075 2915.07 993.999 2909 993.999 2902.93 993.999 2898 989.075 2898 983 2898 976.925 2902.93 972 2909 972 2915.07 972 2920 976.925 2920 983Z" stroke="#5B9BD5" stroke-width="3.4375" stroke-linejoin="round" stroke-miterlimit="10" fill="#5B9BD5"/></g><g clip-path="url(#clip55)"><text fill="#595959" font-family="Calibri,Calibri_MSFontService,sans-serif" font-weight="400" font-size="41" transform="matrix(1 0 0 1 2962.96 995)">Selection Affectations</text></g><g clip-path="url(#clip56)"><path d="M2865.5 1060.5 2953.5 1060.5" stroke="#70AD47" stroke-width="6.875" stroke-linecap="round" stroke-linejoin="round" stroke-miterlimit="10" fill="none" fill-rule="evenodd"/></g><g clip-path="url(#clip57)"><path d="M2920 1060C2920 1066.07 2915.07 1071 2909 1071 2902.93 1071 2898 1066.07 2898 1060 2898 1053.92 2902.93 1049 2909 1049 2915.07 1049 2920 1053.92 2920 1060Z" stroke="#70AD47" stroke-width="3.4375" stroke-linejoin="round" stroke-miterlimit="10" fill="#70AD47"/></g><g clip-path="url(#clip58)"><text fill="#595959" font-family="Calibri,Calibri_MSFontService,sans-serif" font-weight="400" font-size="41" transform="matrix(1 0 0 1 2962.96 1073)">Selection Comparaisons</text></g><g clip-path="url(#clip59)"><path d="M2865.5 1138.5 2953.5 1138.5" stroke="#264478" stroke-width="6.875" stroke-linecap="round" stroke-linejoin="round" stroke-miterlimit="10" fill="none" fill-rule="evenodd"/></g><g clip-path="url(#clip60)"><path d="M2920 1138C2920 1144.07 2915.07 1149 2909 1149 2902.93 1149 2898 1144.07 2898 1138 2898 1131.92 2902.93 1127 2909 1127 2915.07 1127 2920 1131.92 2920 1138Z" stroke="#264478" stroke-width="3.4375" stroke-linejoin="round" stroke-miterlimit="10" fill="#264478"/></g><g clip-path="url(#clip61)"><text fill="#595959" font-family="Calibri,Calibri_MSFontService,sans-serif" font-weight="400" font-size="41" transform="matrix(1 0 0 1 2962.96 1150)">Sort Affecations</text></g><g clip-path="url(#clip62)"><path d="M2865.5 1215.5 2953.5 1215.5" stroke="#9E480E" stroke-width="6.875" stroke-linecap="round" stroke-linejoin="round" stroke-miterlimit="10" fill="none" fill-rule="evenodd"/></g><g clip-path="url(#clip63)"><path d="M2920 1215C2920 1221.07 2915.07 1226 2909 1226 2902.93 1226 2898 1221.07 2898 1215 2898 1208.92 2902.93 1204 2909 1204 2915.07 1204 2920 1208.92 2920 1215Z" stroke="#9E480E" stroke-width="3.4375" stroke-linejoin="round" stroke-miterlimit="10" fill="#9E480E"/></g><g clip-path="url(#clip64)"><text fill="#595959" font-family="Calibri,Calibri_MSFontService,sans-serif" font-weight="400" font-size="41" transform="matrix(1 0 0 1 2962.96 1227)">Sort Comparaisons</text></g><g clip-path="url(#clip65)"><path d="M2865.5 1292.5 2953.5 1292.5" stroke="#636363" stroke-width="6.875" stroke-linecap="round" stroke-linejoin="round" stroke-miterlimit="10" fill="none" fill-rule="evenodd"/></g><g clip-path="url(#clip66)"><path d="M2920 1292C2920 1298.07 2915.07 1303 2909 1303 2902.93 1303 2898 1298.07 2898 1292 2898 1285.92 2902.93 1281 2909 1281 2915.07 1281 2920 1285.92 2920 1292Z" stroke="#636363" stroke-width="3.4375" stroke-linejoin="round" stroke-miterlimit="10" fill="#636363"/></g><g clip-path="url(#clip67)"><text fill="#595959" font-family="Calibri,Calibri_MSFontService,sans-serif" font-weight="400" font-size="41" transform="matrix(1 0 0 1 2962.96 1305)">StableSort Affectations</text></g><g clip-path="url(#clip68)"><path d="M2865.5 1370.5 2953.5 1370.5" stroke="#997300" stroke-width="6.875" stroke-linecap="round" stroke-linejoin="round" stroke-miterlimit="10" fill="none" fill-rule="evenodd"/></g><g clip-path="url(#clip69)"><path d="M2920 1370C2920 1376.07 2915.07 1381 2909 1381 2902.93 1381 2898 1376.07 2898 1370 2898 1363.92 2902.93 1359 2909 1359 2915.07 1359 2920 1363.92 2920 1370Z" stroke="#997300" stroke-width="3.4375" stroke-linejoin="round" stroke-miterlimit="10" fill="#997300"/></g><g clip-path="url(#clip70)"><text fill="#595959" font-family="Calibri,Calibri_MSFontService,sans-serif" font-weight="400" font-size="41" transform="matrix(1 0 0 1 2962.96 1382)">StableSort Comparaisons</text></g><rect x="927.5" y="234.5" width="2502" height="1457" stroke="#D9D9D9" stroke-width="3.4375" stroke-linejoin="round" stroke-miterlimit="10" fill="none"/></g></svg>