<svg width="2343" height="1447" xmlns="http://www.w3.org/2000/svg" xmlns:xlink="http://www.w3.org/1999/xlink" xml:space="preserve" overflow="hidden"><defs><clipPath id="clip0"><rect x="1685" y="43" width="2343" height="1447"/></clipPath><clipPath id="clip1"><rect x="1685" y="44" width="2341" height="1443"/></clipPath><clipPath id="clip2"><rect x="1685" y="44" width="2341" height="1443"/></clipPath><clipPath id="clip3"><rect x="1685" y="44" width="2341" height="1443"/></clipPath><clipPath id="clip4"><rect x="1955" y="213" width="1407" height="1074"/></clipPath><clipPath id="clip5"><rect x="1685" y="44" width="2341" height="1443"/></clipPath><clipPath id="clip6"><rect x="1955" y="213" width="1407" height="1074"/></clipPath><clipPath id="clip7"><rect x="1685" y="44" width="2341" height="1443"/></clipPath><clipPath id="clip8"><rect x="1955" y="213" width="1407" height="1074"/></clipPath><clipPath id="clip9"><rect x="1685" y="44" width="2341" height="1443"/></clipPath><clipPath id="clip10"><rect x="1955" y="213" width="1407" height="1074"/></clipPath><clipPath id="clip11"><rect x="1685" y="44" width="2341" height="1443"/></clipPath><clipPath id="clip12"><rect x="1955" y="213" width="1407" height="1074"/></clipPath><clipPath id="clip13"><rect x="1685" y="44" width="2341" height="1443"/></clipPath><clipPath id="clip14"><rect x="1955" y="213" width="1407" height="1074"/></clipPath><clipPath id="clip15"><rect x="1685" y="44" width="2341" height="1443"/></clipPath><clipPath id="clip16"><rect x="1955" y="213" width="1407" height="1074"/></clipPath><clipPath id="clip17"><rect x="1685" y="44" width="2341" height="1443"/></clipPath><clipPath id="clip18"><rect x="1955" y="213" width="1407" height="1074"/></clipPath><clipPath id="clip19"><rect x="1685" y="44" width="2341" height="1443"/></clipPath><clipPath id="clip20"><rect x="1955" y="213" width="1407" height="1074"/></clipPath><clipPath id="clip21"><rect x="1685" y="44" width="2341" height="1443"/></clipPath><clipPath id="clip22"><rect x="1955" y="213" width="1407" height="1074"/></clipPath><clipPath id="clip23"><rect x="1685" y="44" width="2341" height="1443"/></clipPath><clipPath id="clip24"><rect x="1685" y="44" width="2341" height="1443"/></clipPath><clipPath id="clip25"><rect x="1685" y="44" width="2341" height="1443"/></clipPath><clipPath id="clip26"><rect x="1685" y="44" width="2341" height="1443"/></clipPath><clipPath id="clip27"><rect x="1685" y="44" width="2341" height="1443"/></clipPath><clipPath id="clip28"><rect x="1685" y="44" width="2341" height="1443"/></clipPath><clipPath id="clip29"><rect x="1685" y="44" width="2341" height="1443"/></clipPath><clipPath id="clip30"><rect x="1685" y="44" width="2341" height="1443"/></clipPath><clipPath id="clip31"><rect x="1685" y="44" width="2341" height="1443"/></clipPath><clipPath id="clip32"><rect x="1685" y="44" width="2341" height="1443"/></clipPath><clipPath id="clip33"><rect x="1685" y="44" width="2341" height="1443"/></clipPath><clipPath id="clip34"><rect x="1685" y="44" width="2341" height="1443"/></clipPath><clipPath id="clip35"><rect x="1685" y="44" width="2341" height="1443"/></clipPath><clipPath id="clip36"><rect x="1685" y="44" width="2341" height="1443"/></clipPath><clipPath id="clip37"><rect x="1685" y="44" width="2341" height="1443"/></clipPath><clipPath id="clip38"><rect x="1685" y="44" width="2341" height="1443"/></clipPath><clipPath id="clip39"><rect x="1685" y="44" width="2341" height="1443"/></clipPath><clipPath id="clip40"><rect x="1685" y="44" width="2341" height="1443"/></clipPath><clipPath id="clip41"><rect x="1685" y="44" width="2341" height="1443"/></clipPath><clipPath id="clip42"><rect x="1685" y="44" width="2341" height="1443"/></clipPath><clipPath id="clip43"><rect x="1685" y="44" width="2341" height="1443"/></clipPath><clipPath id="clip44"><rect x="1685" y="44" width="2341" height="1443"/></clipPath><clipPath id="clip45"><rect x="1685" y="44" width="2341" height="1443"/></clipPath><clipPath id="clip46"><rect x="1685" y="44" width="2341" height="1443"/></clipPath><clipPath id="clip47"><rect x="1685" y="44" width="2341" height="1443"/></clipPath><clipPath id="clip48"><rect x="1685" y="44" width="2341" height="1443"/></clipPath><clipPath id="clip49"><rect x="1685" y="44" width="2341" height="1443"/></clipPath><clipPath id="clip50"><rect x="1685" y="44" width="2341" height="1443"/></clipPath><clipPath id="clip51"><rect x="1685" y="44" width="2341" height="1443"/></clipPath><clipPath id="clip52"><rect x="1685" y="44" width="2341" height="1443"/></clipPath><clipPath id="clip53"><rect x="1685" y="44" width="2341" height="1443"/></clipPath><clipPath id="clip54"><rect x="1685" y="44" width="2341" height="1443"/></clipPath><clipPath id="clip55"><rect x="1685" y="44" width="2341" height="1443"/></clipPath><clipPath id="clip56"><rect x="1685" y="44" width="2341" height="1443"/></clipPath><clipPath id="clip57"><rect x="1685" y="44" width="2341" height="1443"/></clipPath><clipPath id="clip58"><rect x="1685" y="44" width="2341" height="1443"/></clipPath><clipPath id="clip59"><rect x="1685" y="44" width="2341" height="1443"/></clipPath><clipPath id="clip60"><rect x="1685" y="44" width="2341" height="1443"/></clipPath><clipPath id="clip61"><rect x="1685" y="44" width="2341" height="1443"/></clipPath><clipPath id="clip62"><rect x="1685" y="44" width="2341" height="1443"/></clipPath><clipPath id="clip63"><rect x="1685" y="44" width="2341" height="1443"/></clipPath><clipPath id="clip64"><rect x="1685" y="44" width="2341" height="1443"/></clipPath><clipPath id="clip65"><rect x="1685" y="44" width="2341" height="1443"/></clipPath><clipPath id="clip66"><rect x="1685" y="44" width="2341" height="1443"/></clipPath><clipPath id="clip67"><rect x="1685" y="44" width="2341" height="1443"/></clipPath><clipPath id="clip68"><rect x="1685" y="44" width="2341" height="1443"/></clipPath><clipPath id="clip69"><rect x="1685" y="44" width="2341" height="1443"/></clipPath><clipPath id="clip70"><rect x="1685" y="44" width="2341" height="1443"/></clipPath></defs><g clip-path="url(#clip0)" transform="translate(-1685 -43)"><rect x="1686" y="44" width="2340" height="1444" fill="#FFFFFF"/><g clip-path="url(#clip1)"><path d="M1955.5 1105.54 3359.5 1105.54M1955.5 927.531 3359.5 927.531M1955.5 749.525 3359.5 749.525M1955.5 570.519 3359.5 570.519M1955.5 392.513 3359.5 392.513M1955.5 213.5 3359.5 213.5" stroke="#D9D9D9" stroke-width="3.4375" stroke-linejoin="round" stroke-miterlimit="10" fill="none"/></g><g clip-path="url(#clip2)"><path d="M0 0 0.000360892 1071" stroke="#BFBFBF" stroke-width="3.4375" stroke-linejoin="round" stroke-miterlimit="10" fill="none" fill-rule="evenodd" transform="matrix(1 0 0 -1 1955.5 1284.5)"/></g><g clip-path="url(#clip3)"><path d="M1955.5 1284.5 3359.5 1284.5" stroke="#BFBFBF" stroke-width="3.4375" stroke-linejoin="round" stroke-miterlimit="10" fill="none" fill-rule="evenodd"/></g><g clip-path="url(#clip4)"><path d="M2072.5 1276.5C2111.5 1267.88 2150.5 1262.23 2189.5 1250.63 2228.5 1239.04 2267.5 1224.47 2306.5 1206.93 2345.5 1189.39 2384.5 1168.87 2423.5 1145.38 2462.5 1121.9 2501.5 1095.43 2540.5 1066 2579.5 1036.57 2618.5 1004.16 2657.5 968.778 2696.5 933.397 2735.5 895.044 2774.5 853.717 2813.5 812.39 2852.5 768.09 2891.5 720.817 2930.5 673.544 2969.5 623.297 3008.5 570.078 3047.5 516.858 3086.5 457.692 3125.5 401.5" stroke="#4472C4" stroke-width="6.875" stroke-linecap="round" stroke-linejoin="round" stroke-miterlimit="10" fill="none"/></g><g clip-path="url(#clip5)"><path d="M2083.25 1276.5C2083.25 1282.57 2078.32 1287.5 2072.25 1287.5 2066.17 1287.5 2061.25 1282.57 2061.25 1276.5 2061.25 1270.42 2066.17 1265.5 2072.25 1265.5 2078.32 1265.5 2083.25 1270.42 2083.25 1276.5Z" stroke="#4472C4" stroke-width="3.4375" stroke-linejoin="round" stroke-miterlimit="10" fill="#4472C4"/><path d="M2200.25 1250.5C2200.25 1256.57 2195.32 1261.5 2189.25 1261.5 2183.17 1261.5 2178.25 1256.57 2178.25 1250.5 2178.25 1244.42 2183.17 1239.5 2189.25 1239.5 2195.32 1239.5 2200.25 1244.42 2200.25 1250.5Z" stroke="#4472C4" stroke-width="3.4375" stroke-linejoin="round" stroke-miterlimit="10" fill="#4472C4"/><path d="M2317.25 1206.5C2317.25 1212.57 2312.32 1217.5 2306.25 1217.5 2300.17 1217.5 2295.25 1212.57 2295.25 1206.5 2295.25 1200.42 2300.17 1195.5 2306.25 1195.5 2312.32 1195.5 2317.25 1200.42 2317.25 1206.5Z" stroke="#4472C4" stroke-width="3.4375" stroke-linejoin="round" stroke-miterlimit="10" fill="#4472C4"/><path d="M2434.25 1145.5C2434.25 1151.57 2429.32 1156.5 2423.25 1156.5 2417.17 1156.5 2412.25 1151.57 2412.25 1145.5 2412.25 1139.42 2417.17 1134.5 2423.25 1134.5 2429.32 1134.5 2434.25 1139.42 2434.25 1145.5Z" stroke="#4472C4" stroke-width="3.4375" stroke-linejoin="round" stroke-miterlimit="10" fill="#4472C4"/><path d="M2551.25 1065.5C2551.25 1071.57 2546.32 1076.5 2540.25 1076.5 2534.17 1076.5 2529.25 1071.57 2529.25 1065.5 2529.25 1059.42 2534.17 1054.5 2540.25 1054.5 2546.32 1054.5 2551.25 1059.42 2551.25 1065.5Z" stroke="#4472C4" stroke-width="3.4375" stroke-linejoin="round" stroke-miterlimit="10" fill="#4472C4"/><path d="M2668.25 968.5C2668.25 974.575 2663.32 979.499 2657.25 979.499 2651.17 979.499 2646.25 974.575 2646.25 968.5 2646.25 962.425 2651.17 957.5 2657.25 957.5 2663.32 957.5 2668.25 962.425 2668.25 968.5Z" stroke="#4472C4" stroke-width="3.4375" stroke-linejoin="round" stroke-miterlimit="10" fill="#4472C4"/><path d="M2785.25 853.5C2785.25 859.575 2780.32 864.499 2774.25 864.499 2768.17 864.499 2763.25 859.575 2763.25 853.5 2763.25 847.425 2768.17 842.5 2774.25 842.5 2780.32 842.5 2785.25 847.425 2785.25 853.5Z" stroke="#4472C4" stroke-width="3.4375" stroke-linejoin="round" stroke-miterlimit="10" fill="#4472C4"/><path d="M2902.25 720.5C2902.25 726.575 2897.32 731.499 2891.25 731.499 2885.17 731.499 2880.25 726.575 2880.25 720.5 2880.25 714.425 2885.17 709.5 2891.25 709.5 2897.32 709.5 2902.25 714.425 2902.25 720.5Z" stroke="#4472C4" stroke-width="3.4375" stroke-linejoin="round" stroke-miterlimit="10" fill="#4472C4"/><path d="M3019.25 569.5C3019.25 575.575 3014.32 580.499 3008.25 580.499 3002.17 580.499 2997.25 575.575 2997.25 569.5 2997.25 563.425 3002.17 558.5 3008.25 558.5 3014.32 558.5 3019.25 563.425 3019.25 569.5Z" stroke="#4472C4" stroke-width="3.4375" stroke-linejoin="round" stroke-miterlimit="10" fill="#4472C4"/><path d="M3136.25 401.5C3136.25 407.575 3131.32 412.499 3125.25 412.499 3119.17 412.499 3114.25 407.575 3114.25 401.5 3114.25 395.425 3119.17 390.5 3125.25 390.5 3131.32 390.5 3136.25 395.425 3136.25 401.5Z" stroke="#4472C4" stroke-width="3.4375" stroke-linejoin="round" stroke-miterlimit="10" fill="#4472C4"/></g><g clip-path="url(#clip6)"><path d="M2072.5 1275.5C2111.5 1266.58 2150.5 1260.63 2189.5 1248.74 2228.5 1236.85 2267.5 1221.98 2306.5 1204.15 2345.5 1186.31 2384.5 1165.5 2423.5 1141.71 2462.5 1117.93 2501.5 1091.17 2540.5 1061.44 2579.5 1031.71 2618.5 999.005 2657.5 963.329 2696.5 927.652 2735.5 889.002 2774.5 847.379 2813.5 805.756 2852.5 761.16 2891.5 713.591 2930.5 666.022 2969.5 615.48 3008.5 561.965 3047.5 508.449 3086.5 448.988 3125.5 392.5" stroke="#ED7D31" stroke-width="6.875" stroke-linecap="round" stroke-linejoin="round" stroke-miterlimit="10" fill="none"/></g><g clip-path="url(#clip7)"><path d="M2083.25 1275.5C2083.25 1281.57 2078.32 1286.5 2072.25 1286.5 2066.17 1286.5 2061.25 1281.57 2061.25 1275.5 2061.25 1269.42 2066.17 1264.5 2072.25 1264.5 2078.32 1264.5 2083.25 1269.42 2083.25 1275.5Z" stroke="#ED7D31" stroke-width="3.4375" stroke-linejoin="round" stroke-miterlimit="10" fill="#ED7D31"/><path d="M2200.25 1248.5C2200.25 1254.57 2195.32 1259.5 2189.25 1259.5 2183.17 1259.5 2178.25 1254.57 2178.25 1248.5 2178.25 1242.42 2183.17 1237.5 2189.25 1237.5 2195.32 1237.5 2200.25 1242.42 2200.25 1248.5Z" stroke="#ED7D31" stroke-width="3.4375" stroke-linejoin="round" stroke-miterlimit="10" fill="#ED7D31"/><path d="M2317.25 1204.5C2317.25 1210.57 2312.32 1215.5 2306.25 1215.5 2300.17 1215.5 2295.25 1210.57 2295.25 1204.5 2295.25 1198.42 2300.17 1193.5 2306.25 1193.5 2312.32 1193.5 2317.25 1198.42 2317.25 1204.5Z" stroke="#ED7D31" stroke-width="3.4375" stroke-linejoin="round" stroke-miterlimit="10" fill="#ED7D31"/><path d="M2434.25 1141.5C2434.25 1147.57 2429.32 1152.5 2423.25 1152.5 2417.17 1152.5 2412.25 1147.57 2412.25 1141.5 2412.25 1135.42 2417.17 1130.5 2423.25 1130.5 2429.32 1130.5 2434.25 1135.42 2434.25 1141.5Z" stroke="#ED7D31" stroke-width="3.4375" stroke-linejoin="round" stroke-miterlimit="10" fill="#ED7D31"/><path d="M2551.25 1061.5C2551.25 1067.57 2546.32 1072.5 2540.25 1072.5 2534.17 1072.5 2529.25 1067.57 2529.25 1061.5 2529.25 1055.42 2534.17 1050.5 2540.25 1050.5 2546.32 1050.5 2551.25 1055.42 2551.25 1061.5Z" stroke="#ED7D31" stroke-width="3.4375" stroke-linejoin="round" stroke-miterlimit="10" fill="#ED7D31"/><path d="M2668.25 963.5C2668.25 969.575 2663.32 974.499 2657.25 974.499 2651.17 974.499 2646.25 969.575 2646.25 963.5 2646.25 957.425 2651.17 952.5 2657.25 952.5 2663.32 952.5 2668.25 957.425 2668.25 963.5Z" stroke="#ED7D31" stroke-width="3.4375" stroke-linejoin="round" stroke-miterlimit="10" fill="#ED7D31"/><path d="M2785.25 847.5C2785.25 853.575 2780.32 858.499 2774.25 858.499 2768.17 858.499 2763.25 853.575 2763.25 847.5 2763.25 841.425 2768.17 836.5 2774.25 836.5 2780.32 836.5 2785.25 841.425 2785.25 847.5Z" stroke="#ED7D31" stroke-width="3.4375" stroke-linejoin="round" stroke-miterlimit="10" fill="#ED7D31"/><path d="M2902.25 713.5C2902.25 719.575 2897.32 724.499 2891.25 724.499 2885.17 724.499 2880.25 719.575 2880.25 713.5 2880.25 707.425 2885.17 702.5 2891.25 702.5 2897.32 702.5 2902.25 707.425 2902.25 713.5Z" stroke="#ED7D31" stroke-width="3.4375" stroke-linejoin="round" stroke-miterlimit="10" fill="#ED7D31"/><path d="M3019.25 561.5C3019.25 567.575 3014.32 572.499 3008.25 572.499 3002.17 572.499 2997.25 567.575 2997.25 561.5 2997.25 555.425 3002.17 550.5 3008.25 550.5 3014.32 550.5 3019.25 555.425 3019.25 561.5Z" stroke="#ED7D31" stroke-width="3.4375" stroke-linejoin="round" stroke-miterlimit="10" fill="#ED7D31"/><path d="M3136.25 392.5C3136.25 398.575 3131.32 403.499 3125.25 403.499 3119.17 403.499 3114.25 398.575 3114.25 392.5 3114.25 386.425 3119.17 381.5 3125.25 381.5 3131.32 381.5 3136.25 386.425 3136.25 392.5Z" stroke="#ED7D31" stroke-width="3.4375" stroke-linejoin="round" stroke-miterlimit="10" fill="#ED7D31"/></g><g clip-path="url(#clip8)"><path d="M2072.5 1282.5C2111.5 1281.91 2150.5 1281.31 2189.5 1280.72 2228.5 1280.13 2267.5 1279.54 2306.5 1278.94 2345.5 1278.35 2384.5 1277.76 2423.5 1277.17 2462.5 1276.57 2501.5 1275.98 2540.5 1275.39 2579.5 1274.8 2618.5 1274.2 2657.5 1273.61 2696.5 1273.02 2735.5 1272.43 2774.5 1271.83 2813.5 1271.24 2852.5 1270.65 2891.5 1270.06 2930.5 1269.46 2969.5 1268.87 3008.5 1268.28 3047.5 1267.68 3086.5 1267.09 3125.5 1266.5" stroke="#A5A5A5" stroke-width="6.875" stroke-linecap="round" stroke-linejoin="round" stroke-miterlimit="10" fill="none"/></g><g clip-path="url(#clip9)"><path d="M2083.25 1282.5C2083.25 1288.57 2078.32 1293.5 2072.25 1293.5 2066.17 1293.5 2061.25 1288.57 2061.25 1282.5 2061.25 1276.42 2066.17 1271.5 2072.25 1271.5 2078.32 1271.5 2083.25 1276.42 2083.25 1282.5Z" stroke="#A5A5A5" stroke-width="3.4375" stroke-linejoin="round" stroke-miterlimit="10" fill="#A5A5A5"/><path d="M2200.25 1280.5C2200.25 1286.57 2195.32 1291.5 2189.25 1291.5 2183.17 1291.5 2178.25 1286.57 2178.25 1280.5 2178.25 1274.42 2183.17 1269.5 2189.25 1269.5 2195.32 1269.5 2200.25 1274.42 2200.25 1280.5Z" stroke="#A5A5A5" stroke-width="3.4375" stroke-linejoin="round" stroke-miterlimit="10" fill="#A5A5A5"/><path d="M2317.25 1279.5C2317.25 1285.57 2312.32 1290.5 2306.25 1290.5 2300.17 1290.5 2295.25 1285.57 2295.25 1279.5 2295.25 1273.42 2300.17 1268.5 2306.25 1268.5 2312.32 1268.5 2317.25 1273.42 2317.25 1279.5Z" stroke="#A5A5A5" stroke-width="3.4375" stroke-linejoin="round" stroke-miterlimit="10" fill="#A5A5A5"/><path d="M2434.25 1277.5C2434.25 1283.57 2429.32 1288.5 2423.25 1288.5 2417.17 1288.5 2412.25 1283.57 2412.25 1277.5 2412.25 1271.42 2417.17 1266.5 2423.25 1266.5 2429.32 1266.5 2434.25 1271.42 2434.25 1277.5Z" stroke="#A5A5A5" stroke-width="3.4375" stroke-linejoin="round" stroke-miterlimit="10" fill="#A5A5A5"/><path d="M2551.25 1275.5C2551.25 1281.57 2546.32 1286.5 2540.25 1286.5 2534.17 1286.5 2529.25 1281.57 2529.25 1275.5 2529.25 1269.42 2534.17 1264.5 2540.25 1264.5 2546.32 1264.5 2551.25 1269.42 2551.25 1275.5Z" stroke="#A5A5A5" stroke-width="3.4375" stroke-linejoin="round" stroke-miterlimit="10" fill="#A5A5A5"/><path d="M2668.25 1273.5C2668.25 1279.57 2663.32 1284.5 2657.25 1284.5 2651.17 1284.5 2646.25 1279.57 2646.25 1273.5 2646.25 1267.42 2651.17 1262.5 2657.25 1262.5 2663.32 1262.5 2668.25 1267.42 2668.25 1273.5Z" stroke="#A5A5A5" stroke-width="3.4375" stroke-linejoin="round" stroke-miterlimit="10" fill="#A5A5A5"/><path d="M2785.25 1271.5C2785.25 1277.57 2780.32 1282.5 2774.25 1282.5 2768.17 1282.5 2763.25 1277.57 2763.25 1271.5 2763.25 1265.42 2768.17 1260.5 2774.25 1260.5 2780.32 1260.5 2785.25 1265.42 2785.25 1271.5Z" stroke="#A5A5A5" stroke-width="3.4375" stroke-linejoin="round" stroke-miterlimit="10" fill="#A5A5A5"/><path d="M2902.25 1270.5C2902.25 1276.57 2897.32 1281.5 2891.25 1281.5 2885.17 1281.5 2880.25 1276.57 2880.25 1270.5 2880.25 1264.42 2885.17 1259.5 2891.25 1259.5 2897.32 1259.5 2902.25 1264.42 2902.25 1270.5Z" stroke="#A5A5A5" stroke-width="3.4375" stroke-linejoin="round" stroke-miterlimit="10" fill="#A5A5A5"/><path d="M3019.25 1268.5C3019.25 1274.57 3014.32 1279.5 3008.25 1279.5 3002.17 1279.5 2997.25 1274.57 2997.25 1268.5 2997.25 1262.42 3002.17 1257.5 3008.25 1257.5 3014.32 1257.5 3019.25 1262.42 3019.25 1268.5Z" stroke="#A5A5A5" stroke-width="3.4375" stroke-linejoin="round" stroke-miterlimit="10" fill="#A5A5A5"/><path d="M3136.25 1266.5C3136.25 1272.57 3131.32 1277.5 3125.25 1277.5 3119.17 1277.5 3114.25 1272.57 3114.25 1266.5 3114.25 1260.42 3119.17 1255.5 3125.25 1255.5 3131.32 1255.5 3136.25 1260.42 3136.25 1266.5Z" stroke="#A5A5A5" stroke-width="3.4375" stroke-linejoin="round" stroke-miterlimit="10" fill="#A5A5A5"/></g><g clip-path="url(#clip10)"><path d="M2072.5 1281.5C2111.5 1280.61 2150.5 1279.72 2189.5 1278.83 2228.5 1277.94 2267.5 1277.06 2306.5 1276.17 2345.5 1275.28 2384.5 1274.39 2423.5 1273.5 2462.5 1272.61 2501.5 1271.72 2540.5 1270.83 2579.5 1269.94 2618.5 1269.06 2657.5 1268.17 2696.5 1267.28 2735.5 1266.39 2774.5 1265.5 2813.5 1264.61 2852.5 1263.72 2891.5 1262.83 2930.5 1261.94 2969.5 1261.06 3008.5 1260.17 3047.5 1259.28 3086.5 1258.39 3125.5 1257.5" stroke="#FFC000" stroke-width="6.875" stroke-linecap="round" stroke-linejoin="round" stroke-miterlimit="10" fill="none"/></g><g clip-path="url(#clip11)"><path d="M2083.25 1281.5C2083.25 1287.57 2078.32 1292.5 2072.25 1292.5 2066.17 1292.5 2061.25 1287.57 2061.25 1281.5 2061.25 1275.42 2066.17 1270.5 2072.25 1270.5 2078.32 1270.5 2083.25 1275.42 2083.25 1281.5Z" stroke="#FFC000" stroke-width="3.4375" stroke-linejoin="round" stroke-miterlimit="10" fill="#FFC000"/><path d="M2200.25 1279.5C2200.25 1285.57 2195.32 1290.5 2189.25 1290.5 2183.17 1290.5 2178.25 1285.57 2178.25 1279.5 2178.25 1273.42 2183.17 1268.5 2189.25 1268.5 2195.32 1268.5 2200.25 1273.42 2200.25 1279.5Z" stroke="#FFC000" stroke-width="3.4375" stroke-linejoin="round" stroke-miterlimit="10" fill="#FFC000"/><path d="M2317.25 1276.5C2317.25 1282.57 2312.32 1287.5 2306.25 1287.5 2300.17 1287.5 2295.25 1282.57 2295.25 1276.5 2295.25 1270.42 2300.17 1265.5 2306.25 1265.5 2312.32 1265.5 2317.25 1270.42 2317.25 1276.5Z" stroke="#FFC000" stroke-width="3.4375" stroke-linejoin="round" stroke-miterlimit="10" fill="#FFC000"/><path d="M2434.25 1273.5C2434.25 1279.57 2429.32 1284.5 2423.25 1284.5 2417.17 1284.5 2412.25 1279.57 2412.25 1273.5 2412.25 1267.42 2417.17 1262.5 2423.25 1262.5 2429.32 1262.5 2434.25 1267.42 2434.25 1273.5Z" stroke="#FFC000" stroke-width="3.4375" stroke-linejoin="round" stroke-miterlimit="10" fill="#FFC000"/><path d="M2551.25 1271.5C2551.25 1277.57 2546.32 1282.5 2540.25 1282.5 2534.17 1282.5 2529.25 1277.57 2529.25 1271.5 2529.25 1265.42 2534.17 1260.5 2540.25 1260.5 2546.32 1260.5 2551.25 1265.42 2551.25 1271.5Z" stroke="#FFC000" stroke-width="3.4375" stroke-linejoin="round" stroke-miterlimit="10" fill="#FFC000"/><path d="M2668.25 1268.5C2668.25 1274.57 2663.32 1279.5 2657.25 1279.5 2651.17 1279.5 2646.25 1274.57 2646.25 1268.5 2646.25 1262.42 2651.17 1257.5 2657.25 1257.5 2663.32 1257.5 2668.25 1262.42 2668.25 1268.5Z" stroke="#FFC000" stroke-width="3.4375" stroke-linejoin="round" stroke-miterlimit="10" fill="#FFC000"/><path d="M2785.25 1265.5C2785.25 1271.57 2780.32 1276.5 2774.25 1276.5 2768.17 1276.5 2763.25 1271.57 2763.25 1265.5 2763.25 1259.42 2768.17 1254.5 2774.25 1254.5 2780.32 1254.5 2785.25 1259.42 2785.25 1265.5Z" stroke="#FFC000" stroke-width="3.4375" stroke-linejoin="round" stroke-miterlimit="10" fill="#FFC000"/><path d="M2902.25 1263.5C2902.25 1269.57 2897.32 1274.5 2891.25 1274.5 2885.17 1274.5 2880.25 1269.57 2880.25 1263.5 2880.25 1257.42 2885.17 1252.5 2891.25 1252.5 2897.32 1252.5 2902.25 1257.42 2902.25 1263.5Z" stroke="#FFC000" stroke-width="3.4375" stroke-linejoin="round" stroke-miterlimit="10" fill="#FFC000"/><path d="M3019.25 1260.5C3019.25 1266.57 3014.32 1271.5 3008.25 1271.5 3002.17 1271.5 2997.25 1266.57 2997.25 1260.5 2997.25 1254.42 3002.17 1249.5 3008.25 1249.5 3014.32 1249.5 3019.25 1254.42 3019.25 1260.5Z" stroke="#FFC000" stroke-width="3.4375" stroke-linejoin="round" stroke-miterlimit="10" fill="#FFC000"/><path d="M3136.25 1257.5C3136.25 1263.57 3131.32 1268.5 3125.25 1268.5 3119.17 1268.5 3114.25 1263.57 3114.25 1257.5 3114.25 1251.42 3119.17 1246.5 3125.25 1246.5 3131.32 1246.5 3136.25 1251.42 3136.25 1257.5Z" stroke="#FFC000" stroke-width="3.4375" stroke-linejoin="round" stroke-miterlimit="10" fill="#FFC000"/></g><g clip-path="url(#clip12)"><path d="M2072.5 1283.5C2111.5 1283.2 2150.5 1282.91 2189.5 1282.61 2228.5 1282.31 2267.5 1282.02 2306.5 1281.72 2345.5 1281.43 2384.5 1281.13 2423.5 1280.83 2462.5 1280.54 2501.5 1280.24 2540.5 1279.94 2579.5 1279.65 2618.5 1279.35 2657.5 1279.06 2696.5 1278.76 2735.5 1278.46 2774.5 1278.17 2813.5 1277.87 2852.5 1277.57 2891.5 1277.28 2930.5 1276.98 2969.5 1276.69 3008.5 1276.39 3047.5 1276.09 3086.5 1275.8 3125.5 1275.5" stroke="#5B9BD5" stroke-width="6.875" stroke-linecap="round" stroke-linejoin="round" stroke-miterlimit="10" fill="none"/></g><g clip-path="url(#clip13)"><path d="M2083.25 1283.5C2083.25 1289.57 2078.32 1294.5 2072.25 1294.5 2066.17 1294.5 2061.25 1289.57 2061.25 1283.5 2061.25 1277.42 2066.17 1272.5 2072.25 1272.5 2078.32 1272.5 2083.25 1277.42 2083.25 1283.5Z" stroke="#5B9BD5" stroke-width="3.4375" stroke-linejoin="round" stroke-miterlimit="10" fill="#5B9BD5"/><path d="M2200.25 1282.5C2200.25 1288.57 2195.32 1293.5 2189.25 1293.5 2183.17 1293.5 2178.25 1288.57 2178.25 1282.5 2178.25 1276.42 2183.17 1271.5 2189.25 1271.5 2195.32 1271.5 2200.25 1276.42 2200.25 1282.5Z" stroke="#5B9BD5" stroke-width="3.4375" stroke-linejoin="round" stroke-miterlimit="10" fill="#5B9BD5"/><path d="M2317.25 1281.5C2317.25 1287.57 2312.32 1292.5 2306.25 1292.5 2300.17 1292.5 2295.25 1287.57 2295.25 1281.5 2295.25 1275.42 2300.17 1270.5 2306.25 1270.5 2312.32 1270.5 2317.25 1275.42 2317.25 1281.5Z" stroke="#5B9BD5" stroke-width="3.4375" stroke-linejoin="round" stroke-miterlimit="10" fill="#5B9BD5"/><path d="M2434.25 1280.5C2434.25 1286.57 2429.32 1291.5 2423.25 1291.5 2417.17 1291.5 2412.25 1286.57 2412.25 1280.5 2412.25 1274.42 2417.17 1269.5 2423.25 1269.5 2429.32 1269.5 2434.25 1274.42 2434.25 1280.5Z" stroke="#5B9BD5" stroke-width="3.4375" stroke-linejoin="round" stroke-miterlimit="10" fill="#5B9BD5"/><path d="M2551.25 1279.5C2551.25 1285.57 2546.32 1290.5 2540.25 1290.5 2534.17 1290.5 2529.25 1285.57 2529.25 1279.5 2529.25 1273.42 2534.17 1268.5 2540.25 1268.5 2546.32 1268.5 2551.25 1273.42 2551.25 1279.5Z" stroke="#5B9BD5" stroke-width="3.4375" stroke-linejoin="round" stroke-miterlimit="10" fill="#5B9BD5"/><path d="M2668.25 1278.5C2668.25 1284.57 2663.32 1289.5 2657.25 1289.5 2651.17 1289.5 2646.25 1284.57 2646.25 1278.5 2646.25 1272.42 2651.17 1267.5 2657.25 1267.5 2663.32 1267.5 2668.25 1272.42 2668.25 1278.5Z" stroke="#5B9BD5" stroke-width="3.4375" stroke-linejoin="round" stroke-miterlimit="10" fill="#5B9BD5"/><path d="M2785.25 1278.5C2785.25 1284.57 2780.32 1289.5 2774.25 1289.5 2768.17 1289.5 2763.25 1284.57 2763.25 1278.5 2763.25 1272.42 2768.17 1267.5 2774.25 1267.5 2780.32 1267.5 2785.25 1272.42 2785.25 1278.5Z" stroke="#5B9BD5" stroke-width="3.4375" stroke-linejoin="round" stroke-miterlimit="10" fill="#5B9BD5"/><path d="M2902.25 1277.5C2902.25 1283.57 2897.32 1288.5 2891.25 1288.5 2885.17 1288.5 2880.25 1283.57 2880.25 1277.5 2880.25 1271.42 2885.17 1266.5 2891.25 1266.5 2897.32 1266.5 2902.25 1271.42 2902.25 1277.5Z" stroke="#5B9BD5" stroke-width="3.4375" stroke-linejoin="round" stroke-miterlimit="10" fill="#5B9BD5"/><path d="M3019.25 1276.5C3019.25 1282.57 3014.32 1287.5 3008.25 1287.5 3002.17 1287.5 2997.25 1282.57 2997.25 1276.5 2997.25 1270.42 3002.17 1265.5 3008.25 1265.5 3014.32 1265.5 3019.25 1270.42 3019.25 1276.5Z" stroke="#5B9BD5" stroke-width="3.4375" stroke-linejoin="round" stroke-miterlimit="10" fill="#5B9BD5"/><path d="M3136.25 1275.5C3136.25 1281.57 3131.32 1286.5 3125.25 1286.5 3119.17 1286.5 3114.25 1281.57 3114.25 1275.5 3114.25 1269.42 3119.17 1264.5 3125.25 1264.5 3131.32 1264.5 3136.25 1269.42 3136.25 1275.5Z" stroke="#5B9BD5" stroke-width="3.4375" stroke-linejoin="round" stroke-miterlimit="10" fill="#5B9BD5"/></g><g clip-path="url(#clip14)"><path d="M2072.5 1279.5C2111.5 1274.89 2150.5 1271.76 2189.5 1265.66 2228.5 1259.56 2267.5 1251.97 2306.5 1242.89 2345.5 1233.81 2384.5 1223.25 2423.5 1211.19 2462.5 1199.14 2501.5 1185.6 2540.5 1170.57 2579.5 1155.54 2618.5 1139.02 2657.5 1121.01 2696.5 1103 2735.5 1083.51 2774.5 1062.53 2813.5 1041.54 2852.5 1019.07 2891.5 995.114 2930.5 971.154 2969.5 945.707 3008.5 918.771 3047.5 891.835 3086.5 861.924 3125.5 833.5" stroke="#70AD47" stroke-width="6.875" stroke-linecap="round" stroke-linejoin="round" stroke-miterlimit="10" fill="none"/></g><g clip-path="url(#clip15)"><path d="M2083.25 1279.5C2083.25 1285.57 2078.32 1290.5 2072.25 1290.5 2066.17 1290.5 2061.25 1285.57 2061.25 1279.5 2061.25 1273.42 2066.17 1268.5 2072.25 1268.5 2078.32 1268.5 2083.25 1273.42 2083.25 1279.5Z" stroke="#70AD47" stroke-width="3.4375" stroke-linejoin="round" stroke-miterlimit="10" fill="#70AD47"/><path d="M2200.25 1265.5C2200.25 1271.57 2195.32 1276.5 2189.25 1276.5 2183.17 1276.5 2178.25 1271.57 2178.25 1265.5 2178.25 1259.42 2183.17 1254.5 2189.25 1254.5 2195.32 1254.5 2200.25 1259.42 2200.25 1265.5Z" stroke="#70AD47" stroke-width="3.4375" stroke-linejoin="round" stroke-miterlimit="10" fill="#70AD47"/><path d="M2317.25 1242.5C2317.25 1248.57 2312.32 1253.5 2306.25 1253.5 2300.17 1253.5 2295.25 1248.57 2295.25 1242.5 2295.25 1236.42 2300.17 1231.5 2306.25 1231.5 2312.32 1231.5 2317.25 1236.42 2317.25 1242.5Z" stroke="#70AD47" stroke-width="3.4375" stroke-linejoin="round" stroke-miterlimit="10" fill="#70AD47"/><path d="M2434.25 1211.5C2434.25 1217.57 2429.32 1222.5 2423.25 1222.5 2417.17 1222.5 2412.25 1217.57 2412.25 1211.5 2412.25 1205.42 2417.17 1200.5 2423.25 1200.5 2429.32 1200.5 2434.25 1205.42 2434.25 1211.5Z" stroke="#70AD47" stroke-width="3.4375" stroke-linejoin="round" stroke-miterlimit="10" fill="#70AD47"/><path d="M2551.25 1170.5C2551.25 1176.57 2546.32 1181.5 2540.25 1181.5 2534.17 1181.5 2529.25 1176.57 2529.25 1170.5 2529.25 1164.42 2534.17 1159.5 2540.25 1159.5 2546.32 1159.5 2551.25 1164.42 2551.25 1170.5Z" stroke="#70AD47" stroke-width="3.4375" stroke-linejoin="round" stroke-miterlimit="10" fill="#70AD47"/><path d="M2668.25 1121.5C2668.25 1127.57 2663.32 1132.5 2657.25 1132.5 2651.17 1132.5 2646.25 1127.57 2646.25 1121.5 2646.25 1115.42 2651.17 1110.5 2657.25 1110.5 2663.32 1110.5 2668.25 1115.42 2668.25 1121.5Z" stroke="#70AD47" stroke-width="3.4375" stroke-linejoin="round" stroke-miterlimit="10" fill="#70AD47"/><path d="M2785.25 1062.5C2785.25 1068.57 2780.32 1073.5 2774.25 1073.5 2768.17 1073.5 2763.25 1068.57 2763.25 1062.5 2763.25 1056.42 2768.17 1051.5 2774.25 1051.5 2780.32 1051.5 2785.25 1056.42 2785.25 1062.5Z" stroke="#70AD47" stroke-width="3.4375" stroke-linejoin="round" stroke-miterlimit="10" fill="#70AD47"/><path d="M2902.25 995.5C2902.25 1001.57 2897.32 1006.5 2891.25 1006.5 2885.17 1006.5 2880.25 1001.57 2880.25 995.5 2880.25 989.425 2885.17 984.5 2891.25 984.5 2897.32 984.5 2902.25 989.425 2902.25 995.5Z" stroke="#70AD47" stroke-width="3.4375" stroke-linejoin="round" stroke-miterlimit="10" fill="#70AD47"/><path d="M3019.25 919.5C3019.25 925.575 3014.32 930.499 3008.25 930.499 3002.17 930.499 2997.25 925.575 2997.25 919.5 2997.25 913.425 3002.17 908.5 3008.25 908.5 3014.32 908.5 3019.25 913.425 3019.25 919.5Z" stroke="#70AD47" stroke-width="3.4375" stroke-linejoin="round" stroke-miterlimit="10" fill="#70AD47"/><path d="M3136.25 833.5C3136.25 839.575 3131.32 844.499 3125.25 844.499 3119.17 844.499 3114.25 839.575 3114.25 833.5 3114.25 827.425 3119.17 822.5 3125.25 822.5 3131.32 822.5 3136.25 827.425 3136.25 833.5Z" stroke="#70AD47" stroke-width="3.4375" stroke-linejoin="round" stroke-miterlimit="10" fill="#70AD47"/></g><g clip-path="url(#clip16)"><path d="M2072.5 1283.5C2111.5 1282.55 2150.5 1281.43 2189.5 1280.65 2228.5 1279.87 2267.5 1279.49 2306.5 1278.82 2345.5 1278.15 2384.5 1277.32 2423.5 1276.62 2462.5 1275.91 2501.5 1275.21 2540.5 1274.6 2579.5 1273.98 2618.5 1272.7 2657.5 1272.94 2696.5 1273.19 2735.5 1276.86 2774.5 1276.07 2813.5 1275.27 2852.5 1269.76 2891.5 1268.17 2930.5 1266.58 2969.5 1267.13 3008.5 1266.52 3047.5 1265.91 3086.5 1265.17 3125.5 1264.5" stroke="#264478" stroke-width="6.875" stroke-linecap="round" stroke-linejoin="round" stroke-miterlimit="10" fill="none"/></g><g clip-path="url(#clip17)"><path d="M2083.25 1283.5C2083.25 1289.57 2078.32 1294.5 2072.25 1294.5 2066.17 1294.5 2061.25 1289.57 2061.25 1283.5 2061.25 1277.42 2066.17 1272.5 2072.25 1272.5 2078.32 1272.5 2083.25 1277.42 2083.25 1283.5Z" stroke="#264478" stroke-width="3.4375" stroke-linejoin="round" stroke-miterlimit="10" fill="#264478"/><path d="M2200.25 1280.5C2200.25 1286.57 2195.32 1291.5 2189.25 1291.5 2183.17 1291.5 2178.25 1286.57 2178.25 1280.5 2178.25 1274.42 2183.17 1269.5 2189.25 1269.5 2195.32 1269.5 2200.25 1274.42 2200.25 1280.5Z" stroke="#264478" stroke-width="3.4375" stroke-linejoin="round" stroke-miterlimit="10" fill="#264478"/><path d="M2317.25 1278.5C2317.25 1284.57 2312.32 1289.5 2306.25 1289.5 2300.17 1289.5 2295.25 1284.57 2295.25 1278.5 2295.25 1272.42 2300.17 1267.5 2306.25 1267.5 2312.32 1267.5 2317.25 1272.42 2317.25 1278.5Z" stroke="#264478" stroke-width="3.4375" stroke-linejoin="round" stroke-miterlimit="10" fill="#264478"/><path d="M2434.25 1276.5C2434.25 1282.57 2429.32 1287.5 2423.25 1287.5 2417.17 1287.5 2412.25 1282.57 2412.25 1276.5 2412.25 1270.42 2417.17 1265.5 2423.25 1265.5 2429.32 1265.5 2434.25 1270.42 2434.25 1276.5Z" stroke="#264478" stroke-width="3.4375" stroke-linejoin="round" stroke-miterlimit="10" fill="#264478"/><path d="M2551.25 1274.5C2551.25 1280.57 2546.32 1285.5 2540.25 1285.5 2534.17 1285.5 2529.25 1280.57 2529.25 1274.5 2529.25 1268.42 2534.17 1263.5 2540.25 1263.5 2546.32 1263.5 2551.25 1268.42 2551.25 1274.5Z" stroke="#264478" stroke-width="3.4375" stroke-linejoin="round" stroke-miterlimit="10" fill="#264478"/><path d="M2668.25 1273.5C2668.25 1279.57 2663.32 1284.5 2657.25 1284.5 2651.17 1284.5 2646.25 1279.57 2646.25 1273.5 2646.25 1267.42 2651.17 1262.5 2657.25 1262.5 2663.32 1262.5 2668.25 1267.42 2668.25 1273.5Z" stroke="#264478" stroke-width="3.4375" stroke-linejoin="round" stroke-miterlimit="10" fill="#264478"/><path d="M2785.25 1276.5C2785.25 1282.57 2780.32 1287.5 2774.25 1287.5 2768.17 1287.5 2763.25 1282.57 2763.25 1276.5 2763.25 1270.42 2768.17 1265.5 2774.25 1265.5 2780.32 1265.5 2785.25 1270.42 2785.25 1276.5Z" stroke="#264478" stroke-width="3.4375" stroke-linejoin="round" stroke-miterlimit="10" fill="#264478"/><path d="M2902.25 1268.5C2902.25 1274.57 2897.32 1279.5 2891.25 1279.5 2885.17 1279.5 2880.25 1274.57 2880.25 1268.5 2880.25 1262.42 2885.17 1257.5 2891.25 1257.5 2897.32 1257.5 2902.25 1262.42 2902.25 1268.5Z" stroke="#264478" stroke-width="3.4375" stroke-linejoin="round" stroke-miterlimit="10" fill="#264478"/><path d="M3019.25 1266.5C3019.25 1272.57 3014.32 1277.5 3008.25 1277.5 3002.17 1277.5 2997.25 1272.57 2997.25 1266.5 2997.25 1260.42 3002.17 1255.5 3008.25 1255.5 3014.32 1255.5 3019.25 1260.42 3019.25 1266.5Z" stroke="#264478" stroke-width="3.4375" stroke-linejoin="round" stroke-miterlimit="10" fill="#264478"/><path d="M3136.25 1264.5C3136.25 1270.57 3131.32 1275.5 3125.25 1275.5 3119.17 1275.5 3114.25 1270.57 3114.25 1264.5 3114.25 1258.42 3119.17 1253.5 3125.25 1253.5 3131.32 1253.5 3136.25 1258.42 3136.25 1264.5Z" stroke="#264478" stroke-width="3.4375" stroke-linejoin="round" stroke-miterlimit="10" fill="#264478"/></g><g clip-path="url(#clip18)"><path d="M2072.5 1282.5C2111.5 1281.17 2150.5 1279.55 2189.5 1278.52 2228.5 1277.49 2267.5 1278.32 2306.5 1276.31 2345.5 1274.31 2384.5 1268.83 2423.5 1266.5 2462.5 1264.18 2501.5 1263.68 2540.5 1262.35 2579.5 1261.02 2618.5 1259.58 2657.5 1258.55 2696.5 1257.52 2735.5 1259.4 2774.5 1256.16 2813.5 1252.92 2852.5 1242.82 2891.5 1239.11 2930.5 1235.39 2969.5 1235.66 3008.5 1233.89 3047.5 1232.12 3086.5 1230.3 3125.5 1228.5" stroke="#9E480E" stroke-width="6.875" stroke-linecap="round" stroke-linejoin="round" stroke-miterlimit="10" fill="none"/></g><g clip-path="url(#clip19)"><path d="M2083.25 1282.5C2083.25 1288.57 2078.32 1293.5 2072.25 1293.5 2066.17 1293.5 2061.25 1288.57 2061.25 1282.5 2061.25 1276.42 2066.17 1271.5 2072.25 1271.5 2078.32 1271.5 2083.25 1276.42 2083.25 1282.5Z" stroke="#9E480E" stroke-width="3.4375" stroke-linejoin="round" stroke-miterlimit="10" fill="#9E480E"/><path d="M2200.25 1278.5C2200.25 1284.57 2195.32 1289.5 2189.25 1289.5 2183.17 1289.5 2178.25 1284.57 2178.25 1278.5 2178.25 1272.42 2183.17 1267.5 2189.25 1267.5 2195.32 1267.5 2200.25 1272.42 2200.25 1278.5Z" stroke="#9E480E" stroke-width="3.4375" stroke-linejoin="round" stroke-miterlimit="10" fill="#9E480E"/><path d="M2317.25 1276.5C2317.25 1282.57 2312.32 1287.5 2306.25 1287.5 2300.17 1287.5 2295.25 1282.57 2295.25 1276.5 2295.25 1270.42 2300.17 1265.5 2306.25 1265.5 2312.32 1265.5 2317.25 1270.42 2317.25 1276.5Z" stroke="#9E480E" stroke-width="3.4375" stroke-linejoin="round" stroke-miterlimit="10" fill="#9E480E"/><path d="M2434.25 1266.5C2434.25 1272.57 2429.32 1277.5 2423.25 1277.5 2417.17 1277.5 2412.25 1272.57 2412.25 1266.5 2412.25 1260.42 2417.17 1255.5 2423.25 1255.5 2429.32 1255.5 2434.25 1260.42 2434.25 1266.5Z" stroke="#9E480E" stroke-width="3.4375" stroke-linejoin="round" stroke-miterlimit="10" fill="#9E480E"/><path d="M2551.25 1262.5C2551.25 1268.57 2546.32 1273.5 2540.25 1273.5 2534.17 1273.5 2529.25 1268.57 2529.25 1262.5 2529.25 1256.42 2534.17 1251.5 2540.25 1251.5 2546.32 1251.5 2551.25 1256.42 2551.25 1262.5Z" stroke="#9E480E" stroke-width="3.4375" stroke-linejoin="round" stroke-miterlimit="10" fill="#9E480E"/><path d="M2668.25 1258.5C2668.25 1264.57 2663.32 1269.5 2657.25 1269.5 2651.17 1269.5 2646.25 1264.57 2646.25 1258.5 2646.25 1252.42 2651.17 1247.5 2657.25 1247.5 2663.32 1247.5 2668.25 1252.42 2668.25 1258.5Z" stroke="#9E480E" stroke-width="3.4375" stroke-linejoin="round" stroke-miterlimit="10" fill="#9E480E"/><path d="M2785.25 1256.5C2785.25 1262.57 2780.32 1267.5 2774.25 1267.5 2768.17 1267.5 2763.25 1262.57 2763.25 1256.5 2763.25 1250.42 2768.17 1245.5 2774.25 1245.5 2780.32 1245.5 2785.25 1250.42 2785.25 1256.5Z" stroke="#9E480E" stroke-width="3.4375" stroke-linejoin="round" stroke-miterlimit="10" fill="#9E480E"/><path d="M2902.25 1238.5C2902.25 1244.57 2897.32 1249.5 2891.25 1249.5 2885.17 1249.5 2880.25 1244.57 2880.25 1238.5 2880.25 1232.42 2885.17 1227.5 2891.25 1227.5 2897.32 1227.5 2902.25 1232.42 2902.25 1238.5Z" stroke="#9E480E" stroke-width="3.4375" stroke-linejoin="round" stroke-miterlimit="10" fill="#9E480E"/><path d="M3019.25 1233.5C3019.25 1239.57 3014.32 1244.5 3008.25 1244.5 3002.17 1244.5 2997.25 1239.57 2997.25 1233.5 2997.25 1227.42 3002.17 1222.5 3008.25 1222.5 3014.32 1222.5 3019.25 1227.42 3019.25 1233.5Z" stroke="#9E480E" stroke-width="3.4375" stroke-linejoin="round" stroke-miterlimit="10" fill="#9E480E"/><path d="M3136.25 1228.5C3136.25 1234.57 3131.32 1239.5 3125.25 1239.5 3119.17 1239.5 3114.25 1234.57 3114.25 1228.5 3114.25 1222.42 3119.17 1217.5 3125.25 1217.5 3131.32 1217.5 3136.25 1222.42 3136.25 1228.5Z" stroke="#9E480E" stroke-width="3.4375" stroke-linejoin="round" stroke-miterlimit="10" fill="#9E480E"/></g><g clip-path="url(#clip20)"><path d="M2072.5 1282.5C2111.5 1280.79 2150.5 1278.79 2189.5 1277.38 2228.5 1275.96 2267.5 1275.17 2306.5 1274.02 2345.5 1272.87 2384.5 1271.63 2423.5 1270.49 2462.5 1269.34 2501.5 1270.01 2540.5 1267.13 2579.5 1264.24 2618.5 1256.38 2657.5 1253.17 2696.5 1249.96 2735.5 1249.61 2774.5 1247.87 2813.5 1246.13 2852.5 1244.45 2891.5 1242.75 2930.5 1241.04 2969.5 1239.33 3008.5 1237.62 3047.5 1235.92 3086.5 1234.21 3125.5 1232.5" stroke="#636363" stroke-width="6.875" stroke-linecap="round" stroke-linejoin="round" stroke-miterlimit="10" fill="none"/></g><g clip-path="url(#clip21)"><path d="M2083.25 1282.5C2083.25 1288.57 2078.32 1293.5 2072.25 1293.5 2066.17 1293.5 2061.25 1288.57 2061.25 1282.5 2061.25 1276.42 2066.17 1271.5 2072.25 1271.5 2078.32 1271.5 2083.25 1276.42 2083.25 1282.5Z" stroke="#636363" stroke-width="3.4375" stroke-linejoin="round" stroke-miterlimit="10" fill="#636363"/><path d="M2200.25 1277.5C2200.25 1283.57 2195.32 1288.5 2189.25 1288.5 2183.17 1288.5 2178.25 1283.57 2178.25 1277.5 2178.25 1271.42 2183.17 1266.5 2189.25 1266.5 2195.32 1266.5 2200.25 1271.42 2200.25 1277.5Z" stroke="#636363" stroke-width="3.4375" stroke-linejoin="round" stroke-miterlimit="10" fill="#636363"/><path d="M2317.25 1273.5C2317.25 1279.57 2312.32 1284.5 2306.25 1284.5 2300.17 1284.5 2295.25 1279.57 2295.25 1273.5 2295.25 1267.42 2300.17 1262.5 2306.25 1262.5 2312.32 1262.5 2317.25 1267.42 2317.25 1273.5Z" stroke="#636363" stroke-width="3.4375" stroke-linejoin="round" stroke-miterlimit="10" fill="#636363"/><path d="M2434.25 1270.5C2434.25 1276.57 2429.32 1281.5 2423.25 1281.5 2417.17 1281.5 2412.25 1276.57 2412.25 1270.5 2412.25 1264.42 2417.17 1259.5 2423.25 1259.5 2429.32 1259.5 2434.25 1264.42 2434.25 1270.5Z" stroke="#636363" stroke-width="3.4375" stroke-linejoin="round" stroke-miterlimit="10" fill="#636363"/><path d="M2551.25 1267.5C2551.25 1273.57 2546.32 1278.5 2540.25 1278.5 2534.17 1278.5 2529.25 1273.57 2529.25 1267.5 2529.25 1261.42 2534.17 1256.5 2540.25 1256.5 2546.32 1256.5 2551.25 1261.42 2551.25 1267.5Z" stroke="#636363" stroke-width="3.4375" stroke-linejoin="round" stroke-miterlimit="10" fill="#636363"/><path d="M2668.25 1252.5C2668.25 1258.57 2663.32 1263.5 2657.25 1263.5 2651.17 1263.5 2646.25 1258.57 2646.25 1252.5 2646.25 1246.42 2651.17 1241.5 2657.25 1241.5 2663.32 1241.5 2668.25 1246.42 2668.25 1252.5Z" stroke="#636363" stroke-width="3.4375" stroke-linejoin="round" stroke-miterlimit="10" fill="#636363"/><path d="M2785.25 1247.5C2785.25 1253.57 2780.32 1258.5 2774.25 1258.5 2768.17 1258.5 2763.25 1253.57 2763.25 1247.5 2763.25 1241.42 2768.17 1236.5 2774.25 1236.5 2780.32 1236.5 2785.25 1241.42 2785.25 1247.5Z" stroke="#636363" stroke-width="3.4375" stroke-linejoin="round" stroke-miterlimit="10" fill="#636363"/><path d="M2902.25 1242.5C2902.25 1248.57 2897.32 1253.5 2891.25 1253.5 2885.17 1253.5 2880.25 1248.57 2880.25 1242.5 2880.25 1236.42 2885.17 1231.5 2891.25 1231.5 2897.32 1231.5 2902.25 1236.42 2902.25 1242.5Z" stroke="#636363" stroke-width="3.4375" stroke-linejoin="round" stroke-miterlimit="10" fill="#636363"/><path d="M3019.25 1237.5C3019.25 1243.57 3014.32 1248.5 3008.25 1248.5 3002.17 1248.5 2997.25 1243.57 2997.25 1237.5 2997.25 1231.42 3002.17 1226.5 3008.25 1226.5 3014.32 1226.5 3019.25 1231.42 3019.25 1237.5Z" stroke="#636363" stroke-width="3.4375" stroke-linejoin="round" stroke-miterlimit="10" fill="#636363"/><path d="M3136.25 1232.5C3136.25 1238.57 3131.32 1243.5 3125.25 1243.5 3119.17 1243.5 3114.25 1238.57 3114.25 1232.5 3114.25 1226.42 3119.17 1221.5 3125.25 1221.5 3131.32 1221.5 3136.25 1226.42 3136.25 1232.5Z" stroke="#636363" stroke-width="3.4375" stroke-linejoin="round" stroke-miterlimit="10" fill="#636363"/></g><g clip-path="url(#clip22)"><path d="M2072.5 1282.5C2111.5 1281.45 2150.5 1280.6 2189.5 1279.34 2228.5 1278.07 2267.5 1276.02 2306.5 1274.91 2345.5 1273.79 2384.5 1273.55 2423.5 1272.65 2462.5 1271.74 2501.5 1271.17 2540.5 1269.48 2579.5 1267.79 2618.5 1264.06 2657.5 1262.52 2696.5 1260.98 2735.5 1261.16 2774.5 1260.26 2813.5 1259.35 2852.5 1258.36 2891.5 1257.09 2930.5 1255.83 2969.5 1253.93 3008.5 1252.66 3047.5 1251.4 3086.5 1250.55 3125.5 1249.5" stroke="#997300" stroke-width="6.875" stroke-linecap="round" stroke-linejoin="round" stroke-miterlimit="10" fill="none"/></g><g clip-path="url(#clip23)"><path d="M2083.25 1282.5C2083.25 1288.57 2078.32 1293.5 2072.25 1293.5 2066.17 1293.5 2061.25 1288.57 2061.25 1282.5 2061.25 1276.42 2066.17 1271.5 2072.25 1271.5 2078.32 1271.5 2083.25 1276.42 2083.25 1282.5Z" stroke="#997300" stroke-width="3.4375" stroke-linejoin="round" stroke-miterlimit="10" fill="#997300"/><path d="M2200.25 1279.5C2200.25 1285.57 2195.32 1290.5 2189.25 1290.5 2183.17 1290.5 2178.25 1285.57 2178.25 1279.5 2178.25 1273.42 2183.17 1268.5 2189.25 1268.5 2195.32 1268.5 2200.25 1273.42 2200.25 1279.5Z" stroke="#997300" stroke-width="3.4375" stroke-linejoin="round" stroke-miterlimit="10" fill="#997300"/><path d="M2317.25 1274.5C2317.25 1280.57 2312.32 1285.5 2306.25 1285.5 2300.17 1285.5 2295.25 1280.57 2295.25 1274.5 2295.25 1268.42 2300.17 1263.5 2306.25 1263.5 2312.32 1263.5 2317.25 1268.42 2317.25 1274.5Z" stroke="#997300" stroke-width="3.4375" stroke-linejoin="round" stroke-miterlimit="10" fill="#997300"/><path d="M2434.25 1272.5C2434.25 1278.57 2429.32 1283.5 2423.25 1283.5 2417.17 1283.5 2412.25 1278.57 2412.25 1272.5 2412.25 1266.42 2417.17 1261.5 2423.25 1261.5 2429.32 1261.5 2434.25 1266.42 2434.25 1272.5Z" stroke="#997300" stroke-width="3.4375" stroke-linejoin="round" stroke-miterlimit="10" fill="#997300"/><path d="M2551.25 1269.5C2551.25 1275.57 2546.32 1280.5 2540.25 1280.5 2534.17 1280.5 2529.25 1275.57 2529.25 1269.5 2529.25 1263.42 2534.17 1258.5 2540.25 1258.5 2546.32 1258.5 2551.25 1263.42 2551.25 1269.5Z" stroke="#997300" stroke-width="3.4375" stroke-linejoin="round" stroke-miterlimit="10" fill="#997300"/><path d="M2668.25 1262.5C2668.25 1268.57 2663.32 1273.5 2657.25 1273.5 2651.17 1273.5 2646.25 1268.57 2646.25 1262.5 2646.25 1256.42 2651.17 1251.5 2657.25 1251.5 2663.32 1251.5 2668.25 1256.42 2668.25 1262.5Z" stroke="#997300" stroke-width="3.4375" stroke-linejoin="round" stroke-miterlimit="10" fill="#997300"/><path d="M2785.25 1260.5C2785.25 1266.57 2780.32 1271.5 2774.25 1271.5 2768.17 1271.5 2763.25 1266.57 2763.25 1260.5 2763.25 1254.42 2768.17 1249.5 2774.25 1249.5 2780.32 1249.5 2785.25 1254.42 2785.25 1260.5Z" stroke="#997300" stroke-width="3.4375" stroke-linejoin="round" stroke-miterlimit="10" fill="#997300"/><path d="M2902.25 1257.5C2902.25 1263.57 2897.32 1268.5 2891.25 1268.5 2885.17 1268.5 2880.25 1263.57 2880.25 1257.5 2880.25 1251.42 2885.17 1246.5 2891.25 1246.5 2897.32 1246.5 2902.25 1251.42 2902.25 1257.5Z" stroke="#997300" stroke-width="3.4375" stroke-linejoin="round" stroke-miterlimit="10" fill="#997300"/><path d="M3019.25 1252.5C3019.25 1258.57 3014.32 1263.5 3008.25 1263.5 3002.17 1263.5 2997.25 1258.57 2997.25 1252.5 2997.25 1246.42 3002.17 1241.5 3008.25 1241.5 3014.32 1241.5 3019.25 1246.42 3019.25 1252.5Z" stroke="#997300" stroke-width="3.4375" stroke-linejoin="round" stroke-miterlimit="10" fill="#997300"/><path d="M3136.25 1249.5C3136.25 1255.57 3131.32 1260.5 3125.25 1260.5 3119.17 1260.5 3114.25 1255.57 3114.25 1249.5 3114.25 1243.42 3119.17 1238.5 3125.25 1238.5 3131.32 1238.5 3136.25 1243.42 3136.25 1249.5Z" stroke="#997300" stroke-width="3.4375" stroke-linejoin="round" stroke-miterlimit="10" fill="#997300"/></g><g clip-path="url(#clip24)"><text fill="#595959" font-family="Calibri,Calibri_MSFontService,sans-serif" font-weight="400" font-size="41" transform="matrix(1 0 0 1 1896.33 1296)">0</text></g><g clip-path="url(#clip25)"><text fill="#595959" font-family="Calibri,Calibri_MSFontService,sans-serif" font-weight="400" font-size="41" transform="matrix(1 0 0 1 1833.63 1117)">2000</text></g><g clip-path="url(#clip26)"><text fill="#595959" font-family="Calibri,Calibri_MSFontService,sans-serif" font-weight="400" font-size="41" transform="matrix(1 0 0 1 1833.63 939)">4000</text></g><g clip-path="url(#clip27)"><text fill="#595959" font-family="Calibri,Calibri_MSFontService,sans-serif" font-weight="400" font-size="41" transform="matrix(1 0 0 1 1833.63 761)">6000</text></g><g clip-path="url(#clip28)"><text fill="#595959" font-family="Calibri,Calibri_MSFontService,sans-serif" font-weight="400" font-size="41" transform="matrix(1 0 0 1 1833.63 582)">8000</text></g><g clip-path="url(#clip29)"><text fill="#595959" font-family="Calibri,Calibri_MSFontService,sans-serif" font-weight="400" font-size="41" transform="matrix(1 0 0 1 1812.73 404)">10000</text></g><g clip-path="url(#clip30)"><text fill="#595959" font-family="Calibri,Calibri_MSFontService,sans-serif" font-weight="400" font-size="41" transform="matrix(1 0 0 1 1812.73 226)">12000</text></g><g clip-path="url(#clip31)"><text fill="#595959" font-family="Calibri,Calibri_MSFontService,sans-serif" font-weight="400" font-size="41" transform="matrix(1 0 0 1 1945.05 1349)">0</text></g><g clip-path="url(#clip32)"><text fill="#595959" font-family="Calibri,Calibri_MSFontService,sans-serif" font-weight="400" font-size="41" transform="matrix(1 0 0 1 2168.57 1349)">20</text></g><g clip-path="url(#clip33)"><text fill="#595959" font-family="Calibri,Calibri_MSFontService,sans-serif" font-weight="400" font-size="41" transform="matrix(1 0 0 1 2402.55 1349)">40</text></g><g clip-path="url(#clip34)"><text fill="#595959" font-family="Calibri,Calibri_MSFontService,sans-serif" font-weight="400" font-size="41" transform="matrix(1 0 0 1 2636.53 1349)">60</text></g><g clip-path="url(#clip35)"><text fill="#595959" font-family="Calibri,Calibri_MSFontService,sans-serif" font-weight="400" font-size="41" transform="matrix(1 0 0 1 2870.5 1349)">80</text></g><g clip-path="url(#clip36)"><text fill="#595959" font-family="Calibri,Calibri_MSFontService,sans-serif" font-weight="400" font-size="41" transform="matrix(1 0 0 1 3094.03 1349)">100</text></g><g clip-path="url(#clip37)"><text fill="#595959" font-family="Calibri,Calibri_MSFontService,sans-serif" font-weight="400" font-size="41" transform="matrix(1 0 0 1 3328 1349)">120</text></g><g clip-path="url(#clip38)"><text fill="#595959" font-family="Calibri,Calibri_MSFontService,sans-serif" font-weight="400" font-size="46" transform="matrix(6.12323e-17 -1 1 6.12323e-17 1787.04 853)">Opérations</text></g><g clip-path="url(#clip39)"><text fill="#595959" font-family="Calibri,Calibri_MSFontService,sans-serif" font-weight="400" font-size="46" transform="matrix(1 0 0 1 2587.79 1419)">Valeurs</text></g><g clip-path="url(#clip40)"><text fill="#595959" font-family="Calibri,Calibri_MSFontService,sans-serif" font-weight="400" font-size="64" transform="matrix(1 0 0 1 2552.53 139)">Opérations Decroissant</text></g><g clip-path="url(#clip41)"><path d="M3462.5 477.5 3550.5 477.5" stroke="#4472C4" stroke-width="6.875" stroke-linecap="round" stroke-linejoin="round" stroke-miterlimit="10" fill="none" fill-rule="evenodd"/></g><g clip-path="url(#clip42)"><path d="M3517 477C3517 483.075 3512.07 487.999 3506 487.999 3499.93 487.999 3495 483.075 3495 477 3495 470.925 3499.93 466 3506 466 3512.07 466 3517 470.925 3517 477Z" stroke="#4472C4" stroke-width="3.4375" stroke-linejoin="round" stroke-miterlimit="10" fill="#4472C4"/></g><g clip-path="url(#clip43)"><text fill="#595959" font-family="Calibri,Calibri_MSFontService,sans-serif" font-weight="400" font-size="41" transform="matrix(1 0 0 1 3559.71 489)">Bubble Affecations</text></g><g clip-path="url(#clip44)"><path d="M3462.5 554.5 3550.5 554.5" stroke="#ED7D31" stroke-width="6.875" stroke-linecap="round" stroke-linejoin="round" stroke-miterlimit="10" fill="none" fill-rule="evenodd"/></g><g clip-path="url(#clip45)"><path d="M3517 554C3517 560.075 3512.07 564.999 3506 564.999 3499.93 564.999 3495 560.075 3495 554 3495 547.925 3499.93 543 3506 543 3512.07 543 3517 547.925 3517 554Z" stroke="#ED7D31" stroke-width="3.4375" stroke-linejoin="round" stroke-miterlimit="10" fill="#ED7D31"/></g><g clip-path="url(#clip46)"><text fill="#595959" font-family="Calibri,Calibri_MSFontService,sans-serif" font-weight="400" font-size="41" transform="matrix(1 0 0 1 3559.71 567)">Bubble Comparaisons</text></g><g clip-path="url(#clip47)"><path d="M3462.5 632.5 3550.5 632.5" stroke="#A5A5A5" stroke-width="6.875" stroke-linecap="round" stroke-linejoin="round" stroke-miterlimit="10" fill="none" fill-rule="evenodd"/></g><g clip-path="url(#clip48)"><path d="M3517 632C3517 638.075 3512.07 642.999 3506 642.999 3499.93 642.999 3495 638.075 3495 632 3495 625.925 3499.93 621 3506 621 3512.07 621 3517 625.925 3517 632Z" stroke="#A5A5A5" stroke-width="3.4375" stroke-linejoin="round" stroke-miterlimit="10" fill="#A5A5A5"/></g><g clip-path="url(#clip49)"><text fill="#595959" font-family="Calibri,Calibri_MSFontService,sans-serif" font-weight="400" font-size="41" transform="matrix(1 0 0 1 3559.71 644)">Insertion Affecations</text></g><g clip-path="url(#clip50)"><path d="M3462.5 709.5 3550.5 709.5" stroke="#FFC000" stroke-width="6.875" stroke-linecap="round" stroke-linejoin="round" stroke-miterlimit="10" fill="none" fill-rule="evenodd"/></g><g clip-path="url(#clip51)"><path d="M3517 709C3517 715.075 3512.07 719.999 3506 719.999 3499.93 719.999 3495 715.075 3495 709 3495 702.925 3499.93 698 3506 698 3512.07 698 3517 702.925 3517 709Z" stroke="#FFC000" stroke-width="3.4375" stroke-linejoin="round" stroke-miterlimit="10" fill="#FFC000"/></g><g clip-path="url(#clip52)"><text fill="#595959" font-family="Calibri,Calibri_MSFontService,sans-serif" font-weight="400" font-size="41" transform="matrix(1 0 0 1 3559.71 721)">Insertion Comparaisons</text></g><g clip-path="url(#clip53)"><path d="M3462.5 786.5 3550.5 786.5" stroke="#5B9BD5" stroke-width="6.875" stroke-linecap="round" stroke-linejoin="round" stroke-miterlimit="10" fill="none" fill-rule="evenodd"/></g><g clip-path="url(#clip54)"><path d="M3517 786C3517 792.075 3512.07 796.999 3506 796.999 3499.93 796.999 3495 792.075 3495 786 3495 779.925 3499.93 775 3506 775 3512.07 775 3517 779.925 3517 786Z" stroke="#5B9BD5" stroke-width="3.4375" stroke-linejoin="round" stroke-miterlimit="10" fill="#5B9BD5"/></g><g clip-path="url(#clip55)"><text fill="#595959" font-family="Calibri,Calibri_MSFontService,sans-serif" font-weight="400" font-size="41" transform="matrix(1 0 0 1 3559.71 799)">Selection Affectations</text></g><g clip-path="url(#clip56)"><path d="M3462.5 864.5 3550.5 864.5" stroke="#70AD47" stroke-width="6.875" stroke-linecap="round" stroke-linejoin="round" stroke-miterlimit="10" fill="none" fill-rule="evenodd"/></g><g clip-path="url(#clip57)"><path d="M3517 864C3517 870.075 3512.07 874.999 3506 874.999 3499.93 874.999 3495 870.075 3495 864 3495 857.925 3499.93 853 3506 853 3512.07 853 3517 857.925 3517 864Z" stroke="#70AD47" stroke-width="3.4375" stroke-linejoin="round" stroke-miterlimit="10" fill="#70AD47"/></g><g clip-path="url(#clip58)"><text fill="#595959" font-family="Calibri,Calibri_MSFontService,sans-serif" font-weight="400" font-size="41" transform="matrix(1 0 0 1 3559.71 876)">Selection Comparaisons</text></g><g clip-path="url(#clip59)"><path d="M3462.5 941.5 3550.5 941.5" stroke="#264478" stroke-width="6.875" stroke-linecap="round" stroke-linejoin="round" stroke-miterlimit="10" fill="none" fill-rule="evenodd"/></g><g clip-path="url(#clip60)"><path d="M3517 941C3517 947.075 3512.07 951.999 3506 951.999 3499.93 951.999 3495 947.075 3495 941 3495 934.925 3499.93 930 3506 930 3512.07 930 3517 934.925 3517 941Z" stroke="#264478" stroke-width="3.4375" stroke-linejoin="round" stroke-miterlimit="10" fill="#264478"/></g><g clip-path="url(#clip61)"><text fill="#595959" font-family="Calibri,Calibri_MSFontService,sans-serif" font-weight="400" font-size="41" transform="matrix(1 0 0 1 3559.71 953)">Sort Affecations</text></g><g clip-path="url(#clip62)"><path d="M3462.5 1019.5 3550.5 1019.5" stroke="#9E480E" stroke-width="6.875" stroke-linecap="round" stroke-linejoin="round" stroke-miterlimit="10" fill="none" fill-rule="evenodd"/></g><g clip-path="url(#clip63)"><path d="M3517 1019C3517 1025.07 3512.07 1030 3506 1030 3499.93 1030 3495 1025.07 3495 1019 3495 1012.92 3499.93 1008 3506 1008 3512.07 1008 3517 1012.92 3517 1019Z" stroke="#9E480E" stroke-width="3.4375" stroke-linejoin="round" stroke-miterlimit="10" fill="#9E480E"/></g><g clip-path="url(#clip64)"><text fill="#595959" font-family="Calibri,Calibri_MSFontService,sans-serif" font-weight="400" font-size="41" transform="matrix(1 0 0 1 3559.71 1031)">Sort Comparaisons</text></g><g clip-path="url(#clip65)"><path d="M3462.5 1096.5 3550.5 1096.5" stroke="#636363" stroke-width="6.875" stroke-linecap="round" stroke-linejoin="round" stroke-miterlimit="10" fill="none" fill-rule="evenodd"/></g><g clip-path="url(#clip66)"><path d="M3517 1096C3517 1102.07 3512.07 1107 3506 1107 3499.93 1107 3495 1102.07 3495 1096 3495 1089.92 3499.93 1085 3506 1085 3512.07 1085 3517 1089.92 3517 1096Z" stroke="#636363" stroke-width="3.4375" stroke-linejoin="round" stroke-miterlimit="10" fill="#636363"/></g><g clip-path="url(#clip67)"><text fill="#595959" font-family="Calibri,Calibri_MSFontService,sans-serif" font-weight="400" font-size="41" transform="matrix(1 0 0 1 3559.71 1108)">StableSort Affectations</text></g><g clip-path="url(#clip68)"><path d="M3462.5 1173.5 3550.5 1173.5" stroke="#997300" stroke-width="6.875" stroke-linecap="round" stroke-linejoin="round" stroke-miterlimit="10" fill="none" fill-rule="evenodd"/></g><g clip-path="url(#clip69)"><path d="M3517 1173C3517 1179.07 3512.07 1184 3506 1184 3499.93 1184 3495 1179.07 3495 1173 3495 1166.92 3499.93 1162 3506 1162 3512.07 1162 3517 1166.92 3517 1173Z" stroke="#997300" stroke-width="3.4375" stroke-linejoin="round" stroke-miterlimit="10" fill="#997300"/></g><g clip-path="url(#clip70)"><text fill="#595959" font-family="Calibri,Calibri_MSFontService,sans-serif" font-weight="400" font-size="41" transform="matrix(1 0 0 1 3559.71 1185)">StableSort Comparaisons</text></g><rect x="1686.5" y="44.4998" width="2340" height="1444" stroke="#D9D9D9" stroke-width="3.4375" stroke-linejoin="round" stroke-miterlimit="10" fill="none"/></g></svg>