<svg width="2365" height="1485" xmlns="http://www.w3.org/2000/svg" xmlns:xlink="http://www.w3.org/1999/xlink" xml:space="preserve" overflow="hidden"><defs><clipPath id="clip0"><rect x="1022" y="417" width="2365" height="1485"/></clipPath><clipPath id="clip1"><rect x="1023" y="418" width="2362" height="1482"/></clipPath><clipPath id="clip2"><rect x="1023" y="418" width="2362" height="1482"/></clipPath><clipPath id="clip3"><rect x="1023" y="418" width="2362" height="1482"/></clipPath><clipPath id="clip4"><rect x="1292" y="587" width="1430" height="1113"/></clipPath><clipPath id="clip5"><rect x="1023" y="418" width="2362" height="1482"/></clipPath><clipPath id="clip6"><rect x="1292" y="587" width="1430" height="1113"/></clipPath><clipPath id="clip7"><rect x="1023" y="418" width="2362" height="1482"/></clipPath><clipPath id="clip8"><rect x="1292" y="587" width="1430" height="1113"/></clipPath><clipPath id="clip9"><rect x="1023" y="418" width="2362" height="1482"/></clipPath><clipPath id="clip10"><rect x="1292" y="587" width="1430" height="1113"/></clipPath><clipPath id="clip11"><rect x="1023" y="418" width="2362" height="1482"/></clipPath><clipPath id="clip12"><rect x="1292" y="587" width="1430" height="1113"/></clipPath><clipPath id="clip13"><rect x="1023" y="418" width="2362" height="1482"/></clipPath><clipPath id="clip14"><rect x="1292" y="587" width="1430" height="1113"/></clipPath><clipPath id="clip15"><rect x="1023" y="418" width="2362" height="1482"/></clipPath><clipPath id="clip16"><rect x="1292" y="587" width="1430" height="1113"/></clipPath><clipPath id="clip17"><rect x="1023" y="418" width="2362" height="1482"/></clipPath><clipPath id="clip18"><rect x="1292" y="587" width="1430" height="1113"/></clipPath><clipPath id="clip19"><rect x="1023" y="418" width="2362" height="1482"/></clipPath><clipPath id="clip20"><rect x="1292" y="587" width="1430" height="1113"/></clipPath><clipPath id="clip21"><rect x="1023" y="418" width="2362" height="1482"/></clipPath><clipPath id="clip22"><rect x="1292" y="587" width="1430" height="1113"/></clipPath><clipPath id="clip23"><rect x="1023" y="418" width="2362" height="1482"/></clipPath><clipPath id="clip24"><rect x="1023" y="418" width="2362" height="1482"/></clipPath><clipPath id="clip25"><rect x="1023" y="418" width="2362" height="1482"/></clipPath><clipPath id="clip26"><rect x="1023" y="418" width="2362" height="1482"/></clipPath><clipPath id="clip27"><rect x="1023" y="418" width="2362" height="1482"/></clipPath><clipPath id="clip28"><rect x="1023" y="418" width="2362" height="1482"/></clipPath><clipPath id="clip29"><rect x="1023" y="418" width="2362" height="1482"/></clipPath><clipPath id="clip30"><rect x="1023" y="418" width="2362" height="1482"/></clipPath><clipPath id="clip31"><rect x="1023" y="418" width="2362" height="1482"/></clipPath><clipPath id="clip32"><rect x="1023" y="418" width="2362" height="1482"/></clipPath><clipPath id="clip33"><rect x="1023" y="418" width="2362" height="1482"/></clipPath><clipPath id="clip34"><rect x="1023" y="418" width="2362" height="1482"/></clipPath><clipPath id="clip35"><rect x="1023" y="418" width="2362" height="1482"/></clipPath><clipPath id="clip36"><rect x="1023" y="418" width="2362" height="1482"/></clipPath><clipPath id="clip37"><rect x="1023" y="418" width="2362" height="1482"/></clipPath><clipPath id="clip38"><rect x="1023" y="418" width="2362" height="1482"/></clipPath><clipPath id="clip39"><rect x="1023" y="418" width="2362" height="1482"/></clipPath><clipPath id="clip40"><rect x="1023" y="418" width="2362" height="1482"/></clipPath><clipPath id="clip41"><rect x="1023" y="418" width="2362" height="1482"/></clipPath><clipPath id="clip42"><rect x="1023" y="418" width="2362" height="1482"/></clipPath><clipPath id="clip43"><rect x="1023" y="418" width="2362" height="1482"/></clipPath><clipPath id="clip44"><rect x="1023" y="418" width="2362" height="1482"/></clipPath><clipPath id="clip45"><rect x="1023" y="418" width="2362" height="1482"/></clipPath><clipPath id="clip46"><rect x="1023" y="418" width="2362" height="1482"/></clipPath><clipPath id="clip47"><rect x="1023" y="418" width="2362" height="1482"/></clipPath><clipPath id="clip48"><rect x="1023" y="418" width="2362" height="1482"/></clipPath><clipPath id="clip49"><rect x="1023" y="418" width="2362" height="1482"/></clipPath><clipPath id="clip50"><rect x="1023" y="418" width="2362" height="1482"/></clipPath><clipPath id="clip51"><rect x="1023" y="418" width="2362" height="1482"/></clipPath><clipPath id="clip52"><rect x="1023" y="418" width="2362" height="1482"/></clipPath><clipPath id="clip53"><rect x="1023" y="418" width="2362" height="1482"/></clipPath><clipPath id="clip54"><rect x="1023" y="418" width="2362" height="1482"/></clipPath><clipPath id="clip55"><rect x="1023" y="418" width="2362" height="1482"/></clipPath><clipPath id="clip56"><rect x="1023" y="418" width="2362" height="1482"/></clipPath><clipPath id="clip57"><rect x="1023" y="418" width="2362" height="1482"/></clipPath><clipPath id="clip58"><rect x="1023" y="418" width="2362" height="1482"/></clipPath><clipPath id="clip59"><rect x="1023" y="418" width="2362" height="1482"/></clipPath><clipPath id="clip60"><rect x="1023" y="418" width="2362" height="1482"/></clipPath><clipPath id="clip61"><rect x="1023" y="418" width="2362" height="1482"/></clipPath><clipPath id="clip62"><rect x="1023" y="418" width="2362" height="1482"/></clipPath><clipPath id="clip63"><rect x="1023" y="418" width="2362" height="1482"/></clipPath><clipPath id="clip64"><rect x="1023" y="418" width="2362" height="1482"/></clipPath><clipPath id="clip65"><rect x="1023" y="418" width="2362" height="1482"/></clipPath><clipPath id="clip66"><rect x="1023" y="418" width="2362" height="1482"/></clipPath><clipPath id="clip67"><rect x="1023" y="418" width="2362" height="1482"/></clipPath><clipPath id="clip68"><rect x="1023" y="418" width="2362" height="1482"/></clipPath><clipPath id="clip69"><rect x="1023" y="418" width="2362" height="1482"/></clipPath><clipPath id="clip70"><rect x="1023" y="418" width="2362" height="1482"/></clipPath></defs><g clip-path="url(#clip0)" transform="translate(-1022 -417)"><rect x="1023" y="418" width="2362" height="1482" fill="#FFFFFF"/><g clip-path="url(#clip1)"><path d="M1292.5 1511.55 2718.5 1511.55M1292.5 1327.54 2718.5 1327.54M1292.5 1142.54 2718.5 1142.54M1292.5 957.532 2718.5 957.532M1292.5 772.526 2718.5 772.526M1292.5 587.5 2718.5 587.5" stroke="#D9D9D9" stroke-width="3.4375" stroke-linejoin="round" stroke-miterlimit="10" fill="none"/></g><g clip-path="url(#clip2)"><path d="M0 0 0.000360892 1109" stroke="#BFBFBF" stroke-width="3.4375" stroke-linejoin="round" stroke-miterlimit="10" fill="none" fill-rule="evenodd" transform="matrix(1 0 0 -1 1292.5 1696.5)"/></g><g clip-path="url(#clip3)"><path d="M1292.5 1696.5 2718.5 1696.5" stroke="#BFBFBF" stroke-width="3.4375" stroke-linejoin="round" stroke-miterlimit="10" fill="none" fill-rule="evenodd"/></g><g clip-path="url(#clip4)"><path d="M1411.5 1693.5C1451.09 1687.84 1490.68 1682.23 1530.28 1676.51 1569.87 1670.78 1609.46 1666.26 1649.06 1659.15 1688.65 1652.04 1728.24 1645.63 1767.83 1633.84 1807.43 1622.05 1847.02 1601.83 1886.61 1588.41 1926.2 1574.99 1965.8 1570.74 2005.39 1553.32 2044.98 1535.9 2084.57 1505.91 2124.17 1483.87 2163.76 1461.83 2203.35 1450.51 2242.94 1421.08 2282.54 1391.65 2322.13 1340.74 2361.72 1307.31 2401.31 1273.88 2440.91 1249.44 2480.5 1220.5" stroke="#4472C4" stroke-width="6.875" stroke-linecap="round" stroke-linejoin="round" stroke-miterlimit="10" fill="none"/></g><g clip-path="url(#clip5)"><path d="M1422.5 1693.5C1422.5 1699.57 1417.57 1704.5 1411.5 1704.5 1405.42 1704.5 1400.5 1699.57 1400.5 1693.5 1400.5 1687.42 1405.42 1682.5 1411.5 1682.5 1417.57 1682.5 1422.5 1687.42 1422.5 1693.5Z" stroke="#4472C4" stroke-width="3.4375" stroke-linejoin="round" stroke-miterlimit="10" fill="#4472C4"/><path d="M1541.5 1676.5C1541.5 1682.57 1536.57 1687.5 1530.5 1687.5 1524.42 1687.5 1519.5 1682.57 1519.5 1676.5 1519.5 1670.42 1524.42 1665.5 1530.5 1665.5 1536.57 1665.5 1541.5 1670.42 1541.5 1676.5Z" stroke="#4472C4" stroke-width="3.4375" stroke-linejoin="round" stroke-miterlimit="10" fill="#4472C4"/><path d="M1660.5 1659.5C1660.5 1665.57 1655.57 1670.5 1649.5 1670.5 1643.42 1670.5 1638.5 1665.57 1638.5 1659.5 1638.5 1653.42 1643.42 1648.5 1649.5 1648.5 1655.57 1648.5 1660.5 1653.42 1660.5 1659.5Z" stroke="#4472C4" stroke-width="3.4375" stroke-linejoin="round" stroke-miterlimit="10" fill="#4472C4"/><path d="M1779.5 1633.5C1779.5 1639.57 1774.57 1644.5 1768.5 1644.5 1762.42 1644.5 1757.5 1639.57 1757.5 1633.5 1757.5 1627.42 1762.42 1622.5 1768.5 1622.5 1774.57 1622.5 1779.5 1627.42 1779.5 1633.5Z" stroke="#4472C4" stroke-width="3.4375" stroke-linejoin="round" stroke-miterlimit="10" fill="#4472C4"/><path d="M1897.5 1588.5C1897.5 1594.57 1892.57 1599.5 1886.5 1599.5 1880.42 1599.5 1875.5 1594.57 1875.5 1588.5 1875.5 1582.42 1880.42 1577.5 1886.5 1577.5 1892.57 1577.5 1897.5 1582.42 1897.5 1588.5Z" stroke="#4472C4" stroke-width="3.4375" stroke-linejoin="round" stroke-miterlimit="10" fill="#4472C4"/><path d="M2016.5 1553.5C2016.5 1559.57 2011.57 1564.5 2005.5 1564.5 1999.42 1564.5 1994.5 1559.57 1994.5 1553.5 1994.5 1547.42 1999.42 1542.5 2005.5 1542.5 2011.57 1542.5 2016.5 1547.42 2016.5 1553.5Z" stroke="#4472C4" stroke-width="3.4375" stroke-linejoin="round" stroke-miterlimit="10" fill="#4472C4"/><path d="M2135.5 1483.5C2135.5 1489.57 2130.57 1494.5 2124.5 1494.5 2118.42 1494.5 2113.5 1489.57 2113.5 1483.5 2113.5 1477.42 2118.42 1472.5 2124.5 1472.5 2130.57 1472.5 2135.5 1477.42 2135.5 1483.5Z" stroke="#4472C4" stroke-width="3.4375" stroke-linejoin="round" stroke-miterlimit="10" fill="#4472C4"/><path d="M2254.5 1420.5C2254.5 1426.57 2249.57 1431.5 2243.5 1431.5 2237.42 1431.5 2232.5 1426.57 2232.5 1420.5 2232.5 1414.42 2237.42 1409.5 2243.5 1409.5 2249.57 1409.5 2254.5 1414.42 2254.5 1420.5Z" stroke="#4472C4" stroke-width="3.4375" stroke-linejoin="round" stroke-miterlimit="10" fill="#4472C4"/><path d="M2373.5 1307.5C2373.5 1313.57 2368.57 1318.5 2362.5 1318.5 2356.42 1318.5 2351.5 1313.57 2351.5 1307.5 2351.5 1301.42 2356.42 1296.5 2362.5 1296.5 2368.57 1296.5 2373.5 1301.42 2373.5 1307.5Z" stroke="#4472C4" stroke-width="3.4375" stroke-linejoin="round" stroke-miterlimit="10" fill="#4472C4"/><path d="M2491.5 1220.5C2491.5 1226.57 2486.57 1231.5 2480.5 1231.5 2474.42 1231.5 2469.5 1226.57 2469.5 1220.5 2469.5 1214.42 2474.42 1209.5 2480.5 1209.5 2486.57 1209.5 2491.5 1214.42 2491.5 1220.5Z" stroke="#4472C4" stroke-width="3.4375" stroke-linejoin="round" stroke-miterlimit="10" fill="#4472C4"/></g><g clip-path="url(#clip6)"><path d="M1411.5 1687.5C1451.09 1678.26 1490.68 1672.1 1530.28 1659.77 1569.87 1647.45 1609.46 1632.05 1649.06 1613.56 1688.65 1595.08 1728.24 1573.51 1767.83 1548.86 1807.43 1524.22 1847.02 1496.49 1886.61 1465.68 1926.2 1434.87 1965.8 1400.98 2005.39 1364.02 2044.98 1327.05 2084.57 1286.99 2124.17 1243.86 2163.76 1200.73 2203.35 1154.52 2242.94 1105.23 2282.54 1055.93 2322.13 1003.56 2361.72 948.106 2401.31 892.651 2440.91 831.035 2480.5 772.5" stroke="#ED7D31" stroke-width="6.875" stroke-linecap="round" stroke-linejoin="round" stroke-miterlimit="10" fill="none"/></g><g clip-path="url(#clip7)"><path d="M1422.5 1687.5C1422.5 1693.57 1417.57 1698.5 1411.5 1698.5 1405.42 1698.5 1400.5 1693.57 1400.5 1687.5 1400.5 1681.42 1405.42 1676.5 1411.5 1676.5 1417.57 1676.5 1422.5 1681.42 1422.5 1687.5Z" stroke="#ED7D31" stroke-width="3.4375" stroke-linejoin="round" stroke-miterlimit="10" fill="#ED7D31"/><path d="M1541.5 1659.5C1541.5 1665.57 1536.57 1670.5 1530.5 1670.5 1524.42 1670.5 1519.5 1665.57 1519.5 1659.5 1519.5 1653.42 1524.42 1648.5 1530.5 1648.5 1536.57 1648.5 1541.5 1653.42 1541.5 1659.5Z" stroke="#ED7D31" stroke-width="3.4375" stroke-linejoin="round" stroke-miterlimit="10" fill="#ED7D31"/><path d="M1660.5 1613.5C1660.5 1619.57 1655.57 1624.5 1649.5 1624.5 1643.42 1624.5 1638.5 1619.57 1638.5 1613.5 1638.5 1607.42 1643.42 1602.5 1649.5 1602.5 1655.57 1602.5 1660.5 1607.42 1660.5 1613.5Z" stroke="#ED7D31" stroke-width="3.4375" stroke-linejoin="round" stroke-miterlimit="10" fill="#ED7D31"/><path d="M1779.5 1548.5C1779.5 1554.57 1774.57 1559.5 1768.5 1559.5 1762.42 1559.5 1757.5 1554.57 1757.5 1548.5 1757.5 1542.42 1762.42 1537.5 1768.5 1537.5 1774.57 1537.5 1779.5 1542.42 1779.5 1548.5Z" stroke="#ED7D31" stroke-width="3.4375" stroke-linejoin="round" stroke-miterlimit="10" fill="#ED7D31"/><path d="M1897.5 1465.5C1897.5 1471.57 1892.57 1476.5 1886.5 1476.5 1880.42 1476.5 1875.5 1471.57 1875.5 1465.5 1875.5 1459.42 1880.42 1454.5 1886.5 1454.5 1892.57 1454.5 1897.5 1459.42 1897.5 1465.5Z" stroke="#ED7D31" stroke-width="3.4375" stroke-linejoin="round" stroke-miterlimit="10" fill="#ED7D31"/><path d="M2016.5 1364.5C2016.5 1370.57 2011.57 1375.5 2005.5 1375.5 1999.42 1375.5 1994.5 1370.57 1994.5 1364.5 1994.5 1358.42 1999.42 1353.5 2005.5 1353.5 2011.57 1353.5 2016.5 1358.42 2016.5 1364.5Z" stroke="#ED7D31" stroke-width="3.4375" stroke-linejoin="round" stroke-miterlimit="10" fill="#ED7D31"/><path d="M2135.5 1244.5C2135.5 1250.57 2130.57 1255.5 2124.5 1255.5 2118.42 1255.5 2113.5 1250.57 2113.5 1244.5 2113.5 1238.42 2118.42 1233.5 2124.5 1233.5 2130.57 1233.5 2135.5 1238.42 2135.5 1244.5Z" stroke="#ED7D31" stroke-width="3.4375" stroke-linejoin="round" stroke-miterlimit="10" fill="#ED7D31"/><path d="M2254.5 1105.5C2254.5 1111.57 2249.57 1116.5 2243.5 1116.5 2237.42 1116.5 2232.5 1111.57 2232.5 1105.5 2232.5 1099.42 2237.42 1094.5 2243.5 1094.5 2249.57 1094.5 2254.5 1099.42 2254.5 1105.5Z" stroke="#ED7D31" stroke-width="3.4375" stroke-linejoin="round" stroke-miterlimit="10" fill="#ED7D31"/><path d="M2373.5 948.5C2373.5 954.574 2368.57 959.499 2362.5 959.499 2356.42 959.499 2351.5 954.574 2351.5 948.5 2351.5 942.425 2356.42 937.5 2362.5 937.5 2368.57 937.5 2373.5 942.425 2373.5 948.5Z" stroke="#ED7D31" stroke-width="3.4375" stroke-linejoin="round" stroke-miterlimit="10" fill="#ED7D31"/><path d="M2491.5 772.5C2491.5 778.574 2486.57 783.499 2480.5 783.499 2474.42 783.499 2469.5 778.574 2469.5 772.5 2469.5 766.425 2474.42 761.5 2480.5 761.5 2486.57 761.5 2491.5 766.425 2491.5 772.5Z" stroke="#ED7D31" stroke-width="3.4375" stroke-linejoin="round" stroke-miterlimit="10" fill="#ED7D31"/></g><g clip-path="url(#clip8)"><path d="M1411.5 1695.5C1451.09 1694.87 1490.68 1694.24 1530.28 1693.61 1569.87 1692.98 1609.46 1692.35 1649.06 1691.72 1688.65 1691.09 1728.24 1690.46 1767.83 1689.83 1807.43 1689.2 1847.02 1688.57 1886.61 1687.94 1926.2 1687.31 1965.8 1686.68 2005.39 1686.06 2044.98 1685.43 2084.57 1684.8 2124.17 1684.17 2163.76 1683.54 2203.35 1682.91 2242.94 1682.28 2282.54 1681.65 2322.13 1681.02 2361.72 1680.39 2401.31 1679.76 2440.91 1679.13 2480.5 1678.5" stroke="#A5A5A5" stroke-width="6.875" stroke-linecap="round" stroke-linejoin="round" stroke-miterlimit="10" fill="none"/></g><g clip-path="url(#clip9)"><path d="M1422.5 1695.5C1422.5 1701.57 1417.57 1706.5 1411.5 1706.5 1405.42 1706.5 1400.5 1701.57 1400.5 1695.5 1400.5 1689.42 1405.42 1684.5 1411.5 1684.5 1417.57 1684.5 1422.5 1689.42 1422.5 1695.5Z" stroke="#A5A5A5" stroke-width="3.4375" stroke-linejoin="round" stroke-miterlimit="10" fill="#A5A5A5"/><path d="M1541.5 1693.5C1541.5 1699.57 1536.57 1704.5 1530.5 1704.5 1524.42 1704.5 1519.5 1699.57 1519.5 1693.5 1519.5 1687.42 1524.42 1682.5 1530.5 1682.5 1536.57 1682.5 1541.5 1687.42 1541.5 1693.5Z" stroke="#A5A5A5" stroke-width="3.4375" stroke-linejoin="round" stroke-miterlimit="10" fill="#A5A5A5"/><path d="M1660.5 1691.5C1660.5 1697.57 1655.57 1702.5 1649.5 1702.5 1643.42 1702.5 1638.5 1697.57 1638.5 1691.5 1638.5 1685.42 1643.42 1680.5 1649.5 1680.5 1655.57 1680.5 1660.5 1685.42 1660.5 1691.5Z" stroke="#A5A5A5" stroke-width="3.4375" stroke-linejoin="round" stroke-miterlimit="10" fill="#A5A5A5"/><path d="M1779.5 1689.5C1779.5 1695.57 1774.57 1700.5 1768.5 1700.5 1762.42 1700.5 1757.5 1695.57 1757.5 1689.5 1757.5 1683.42 1762.42 1678.5 1768.5 1678.5 1774.57 1678.5 1779.5 1683.42 1779.5 1689.5Z" stroke="#A5A5A5" stroke-width="3.4375" stroke-linejoin="round" stroke-miterlimit="10" fill="#A5A5A5"/><path d="M1897.5 1687.5C1897.5 1693.57 1892.57 1698.5 1886.5 1698.5 1880.42 1698.5 1875.5 1693.57 1875.5 1687.5 1875.5 1681.42 1880.42 1676.5 1886.5 1676.5 1892.57 1676.5 1897.5 1681.42 1897.5 1687.5Z" stroke="#A5A5A5" stroke-width="3.4375" stroke-linejoin="round" stroke-miterlimit="10" fill="#A5A5A5"/><path d="M2016.5 1685.5C2016.5 1691.57 2011.57 1696.5 2005.5 1696.5 1999.42 1696.5 1994.5 1691.57 1994.5 1685.5 1994.5 1679.42 1999.42 1674.5 2005.5 1674.5 2011.57 1674.5 2016.5 1679.42 2016.5 1685.5Z" stroke="#A5A5A5" stroke-width="3.4375" stroke-linejoin="round" stroke-miterlimit="10" fill="#A5A5A5"/><path d="M2135.5 1683.5C2135.5 1689.57 2130.57 1694.5 2124.5 1694.5 2118.42 1694.5 2113.5 1689.57 2113.5 1683.5 2113.5 1677.42 2118.42 1672.5 2124.5 1672.5 2130.57 1672.5 2135.5 1677.42 2135.5 1683.5Z" stroke="#A5A5A5" stroke-width="3.4375" stroke-linejoin="round" stroke-miterlimit="10" fill="#A5A5A5"/><path d="M2254.5 1682.5C2254.5 1688.57 2249.57 1693.5 2243.5 1693.5 2237.42 1693.5 2232.5 1688.57 2232.5 1682.5 2232.5 1676.42 2237.42 1671.5 2243.5 1671.5 2249.57 1671.5 2254.5 1676.42 2254.5 1682.5Z" stroke="#A5A5A5" stroke-width="3.4375" stroke-linejoin="round" stroke-miterlimit="10" fill="#A5A5A5"/><path d="M2373.5 1680.5C2373.5 1686.57 2368.57 1691.5 2362.5 1691.5 2356.42 1691.5 2351.5 1686.57 2351.5 1680.5 2351.5 1674.42 2356.42 1669.5 2362.5 1669.5 2368.57 1669.5 2373.5 1674.42 2373.5 1680.5Z" stroke="#A5A5A5" stroke-width="3.4375" stroke-linejoin="round" stroke-miterlimit="10" fill="#A5A5A5"/><path d="M2491.5 1678.5C2491.5 1684.57 2486.57 1689.5 2480.5 1689.5 2474.42 1689.5 2469.5 1684.57 2469.5 1678.5 2469.5 1672.42 2474.42 1667.5 2480.5 1667.5 2486.57 1667.5 2491.5 1672.42 2491.5 1678.5Z" stroke="#A5A5A5" stroke-width="3.4375" stroke-linejoin="round" stroke-miterlimit="10" fill="#A5A5A5"/></g><g clip-path="url(#clip10)"><path d="M1411.5 1694.5C1451.09 1693.57 1490.68 1692.65 1530.28 1691.72 1569.87 1690.8 1609.46 1689.87 1649.06 1688.94 1688.65 1688.02 1728.24 1687.09 1767.83 1686.17 1807.43 1685.24 1847.02 1684.31 1886.61 1683.39 1926.2 1682.46 1965.8 1681.54 2005.39 1680.61 2044.98 1679.68 2084.57 1678.76 2124.17 1677.83 2163.76 1676.91 2203.35 1675.98 2242.94 1675.06 2282.54 1674.13 2322.13 1673.2 2361.72 1672.28 2401.31 1671.35 2440.91 1670.43 2480.5 1669.5" stroke="#FFC000" stroke-width="6.875" stroke-linecap="round" stroke-linejoin="round" stroke-miterlimit="10" fill="none"/></g><g clip-path="url(#clip11)"><path d="M1422.5 1694.5C1422.5 1700.57 1417.57 1705.5 1411.5 1705.5 1405.42 1705.5 1400.5 1700.57 1400.5 1694.5 1400.5 1688.42 1405.42 1683.5 1411.5 1683.5 1417.57 1683.5 1422.5 1688.42 1422.5 1694.5Z" stroke="#FFC000" stroke-width="3.4375" stroke-linejoin="round" stroke-miterlimit="10" fill="#FFC000"/><path d="M1541.5 1691.5C1541.5 1697.57 1536.57 1702.5 1530.5 1702.5 1524.42 1702.5 1519.5 1697.57 1519.5 1691.5 1519.5 1685.42 1524.42 1680.5 1530.5 1680.5 1536.57 1680.5 1541.5 1685.42 1541.5 1691.5Z" stroke="#FFC000" stroke-width="3.4375" stroke-linejoin="round" stroke-miterlimit="10" fill="#FFC000"/><path d="M1660.5 1688.5C1660.5 1694.57 1655.57 1699.5 1649.5 1699.5 1643.42 1699.5 1638.5 1694.57 1638.5 1688.5 1638.5 1682.42 1643.42 1677.5 1649.5 1677.5 1655.57 1677.5 1660.5 1682.42 1660.5 1688.5Z" stroke="#FFC000" stroke-width="3.4375" stroke-linejoin="round" stroke-miterlimit="10" fill="#FFC000"/><path d="M1779.5 1685.5C1779.5 1691.57 1774.57 1696.5 1768.5 1696.5 1762.42 1696.5 1757.5 1691.57 1757.5 1685.5 1757.5 1679.42 1762.42 1674.5 1768.5 1674.5 1774.57 1674.5 1779.5 1679.42 1779.5 1685.5Z" stroke="#FFC000" stroke-width="3.4375" stroke-linejoin="round" stroke-miterlimit="10" fill="#FFC000"/><path d="M1897.5 1683.5C1897.5 1689.57 1892.57 1694.5 1886.5 1694.5 1880.42 1694.5 1875.5 1689.57 1875.5 1683.5 1875.5 1677.42 1880.42 1672.5 1886.5 1672.5 1892.57 1672.5 1897.5 1677.42 1897.5 1683.5Z" stroke="#FFC000" stroke-width="3.4375" stroke-linejoin="round" stroke-miterlimit="10" fill="#FFC000"/><path d="M2016.5 1680.5C2016.5 1686.57 2011.57 1691.5 2005.5 1691.5 1999.42 1691.5 1994.5 1686.57 1994.5 1680.5 1994.5 1674.42 1999.42 1669.5 2005.5 1669.5 2011.57 1669.5 2016.5 1674.42 2016.5 1680.5Z" stroke="#FFC000" stroke-width="3.4375" stroke-linejoin="round" stroke-miterlimit="10" fill="#FFC000"/><path d="M2135.5 1677.5C2135.5 1683.57 2130.57 1688.5 2124.5 1688.5 2118.42 1688.5 2113.5 1683.57 2113.5 1677.5 2113.5 1671.42 2118.42 1666.5 2124.5 1666.5 2130.57 1666.5 2135.5 1671.42 2135.5 1677.5Z" stroke="#FFC000" stroke-width="3.4375" stroke-linejoin="round" stroke-miterlimit="10" fill="#FFC000"/><path d="M2254.5 1674.5C2254.5 1680.57 2249.57 1685.5 2243.5 1685.5 2237.42 1685.5 2232.5 1680.57 2232.5 1674.5 2232.5 1668.42 2237.42 1663.5 2243.5 1663.5 2249.57 1663.5 2254.5 1668.42 2254.5 1674.5Z" stroke="#FFC000" stroke-width="3.4375" stroke-linejoin="round" stroke-miterlimit="10" fill="#FFC000"/><path d="M2373.5 1672.5C2373.5 1678.57 2368.57 1683.5 2362.5 1683.5 2356.42 1683.5 2351.5 1678.57 2351.5 1672.5 2351.5 1666.42 2356.42 1661.5 2362.5 1661.5 2368.57 1661.5 2373.5 1666.42 2373.5 1672.5Z" stroke="#FFC000" stroke-width="3.4375" stroke-linejoin="round" stroke-miterlimit="10" fill="#FFC000"/><path d="M2491.5 1669.5C2491.5 1675.57 2486.57 1680.5 2480.5 1680.5 2474.42 1680.5 2469.5 1675.57 2469.5 1669.5 2469.5 1663.42 2474.42 1658.5 2480.5 1658.5 2486.57 1658.5 2491.5 1663.42 2491.5 1669.5Z" stroke="#FFC000" stroke-width="3.4375" stroke-linejoin="round" stroke-miterlimit="10" fill="#FFC000"/></g><g clip-path="url(#clip12)"><path d="M1411.5 1695.5C1451.09 1695.2 1490.68 1694.91 1530.28 1694.61 1569.87 1694.31 1609.46 1694.02 1649.06 1693.72 1688.65 1693.43 1728.24 1693.13 1767.83 1692.83 1807.43 1692.54 1847.02 1692.24 1886.61 1691.94 1926.2 1691.65 1965.8 1691.35 2005.39 1691.06 2044.98 1690.76 2084.57 1690.46 2124.17 1690.17 2163.76 1689.87 2203.35 1689.57 2242.94 1689.28 2282.54 1688.98 2322.13 1688.68 2361.72 1688.39 2401.31 1688.09 2440.91 1687.8 2480.5 1687.5" stroke="#5B9BD5" stroke-width="6.875" stroke-linecap="round" stroke-linejoin="round" stroke-miterlimit="10" fill="none"/></g><g clip-path="url(#clip13)"><path d="M1422.5 1695.5C1422.5 1701.57 1417.57 1706.5 1411.5 1706.5 1405.42 1706.5 1400.5 1701.57 1400.5 1695.5 1400.5 1689.42 1405.42 1684.5 1411.5 1684.5 1417.57 1684.5 1422.5 1689.42 1422.5 1695.5Z" stroke="#5B9BD5" stroke-width="3.4375" stroke-linejoin="round" stroke-miterlimit="10" fill="#5B9BD5"/><path d="M1541.5 1694.5C1541.5 1700.57 1536.57 1705.5 1530.5 1705.5 1524.42 1705.5 1519.5 1700.57 1519.5 1694.5 1519.5 1688.42 1524.42 1683.5 1530.5 1683.5 1536.57 1683.5 1541.5 1688.42 1541.5 1694.5Z" stroke="#5B9BD5" stroke-width="3.4375" stroke-linejoin="round" stroke-miterlimit="10" fill="#5B9BD5"/><path d="M1660.5 1694.5C1660.5 1700.57 1655.57 1705.5 1649.5 1705.5 1643.42 1705.5 1638.5 1700.57 1638.5 1694.5 1638.5 1688.42 1643.42 1683.5 1649.5 1683.5 1655.57 1683.5 1660.5 1688.42 1660.5 1694.5Z" stroke="#5B9BD5" stroke-width="3.4375" stroke-linejoin="round" stroke-miterlimit="10" fill="#5B9BD5"/><path d="M1779.5 1693.5C1779.5 1699.57 1774.57 1704.5 1768.5 1704.5 1762.42 1704.5 1757.5 1699.57 1757.5 1693.5 1757.5 1687.42 1762.42 1682.5 1768.5 1682.5 1774.57 1682.5 1779.5 1687.42 1779.5 1693.5Z" stroke="#5B9BD5" stroke-width="3.4375" stroke-linejoin="round" stroke-miterlimit="10" fill="#5B9BD5"/><path d="M1897.5 1692.5C1897.5 1698.57 1892.57 1703.5 1886.5 1703.5 1880.42 1703.5 1875.5 1698.57 1875.5 1692.5 1875.5 1686.42 1880.42 1681.5 1886.5 1681.5 1892.57 1681.5 1897.5 1686.42 1897.5 1692.5Z" stroke="#5B9BD5" stroke-width="3.4375" stroke-linejoin="round" stroke-miterlimit="10" fill="#5B9BD5"/><path d="M2016.5 1691.5C2016.5 1697.57 2011.57 1702.5 2005.5 1702.5 1999.42 1702.5 1994.5 1697.57 1994.5 1691.5 1994.5 1685.42 1999.42 1680.5 2005.5 1680.5 2011.57 1680.5 2016.5 1685.42 2016.5 1691.5Z" stroke="#5B9BD5" stroke-width="3.4375" stroke-linejoin="round" stroke-miterlimit="10" fill="#5B9BD5"/><path d="M2135.5 1690.5C2135.5 1696.57 2130.57 1701.5 2124.5 1701.5 2118.42 1701.5 2113.5 1696.57 2113.5 1690.5 2113.5 1684.42 2118.42 1679.5 2124.5 1679.5 2130.57 1679.5 2135.5 1684.42 2135.5 1690.5Z" stroke="#5B9BD5" stroke-width="3.4375" stroke-linejoin="round" stroke-miterlimit="10" fill="#5B9BD5"/><path d="M2254.5 1689.5C2254.5 1695.57 2249.57 1700.5 2243.5 1700.5 2237.42 1700.5 2232.5 1695.57 2232.5 1689.5 2232.5 1683.42 2237.42 1678.5 2243.5 1678.5 2249.57 1678.5 2254.5 1683.42 2254.5 1689.5Z" stroke="#5B9BD5" stroke-width="3.4375" stroke-linejoin="round" stroke-miterlimit="10" fill="#5B9BD5"/><path d="M2373.5 1688.5C2373.5 1694.57 2368.57 1699.5 2362.5 1699.5 2356.42 1699.5 2351.5 1694.57 2351.5 1688.5 2351.5 1682.42 2356.42 1677.5 2362.5 1677.5 2368.57 1677.5 2373.5 1682.42 2373.5 1688.5Z" stroke="#5B9BD5" stroke-width="3.4375" stroke-linejoin="round" stroke-miterlimit="10" fill="#5B9BD5"/><path d="M2491.5 1687.5C2491.5 1693.57 2486.57 1698.5 2480.5 1698.5 2474.42 1698.5 2469.5 1693.57 2469.5 1687.5 2469.5 1681.42 2474.42 1676.5 2480.5 1676.5 2486.57 1676.5 2491.5 1681.42 2491.5 1687.5Z" stroke="#5B9BD5" stroke-width="3.4375" stroke-linejoin="round" stroke-miterlimit="10" fill="#5B9BD5"/></g><g clip-path="url(#clip14)"><path d="M1411.5 1691.5C1451.09 1686.73 1490.68 1683.5 1530.28 1677.19 1569.87 1670.89 1609.46 1663.04 1649.06 1653.66 1688.65 1644.28 1728.24 1633.36 1767.83 1620.9 1807.43 1608.44 1847.02 1594.44 1886.61 1578.9 1926.2 1563.37 1965.8 1546.29 2005.39 1527.68 2044.98 1509.07 2084.57 1488.92 2124.17 1467.23 2163.76 1445.54 2203.35 1422.31 2242.94 1397.55 2282.54 1372.78 2322.13 1346.48 2361.72 1318.64 2401.31 1290.8 2440.91 1259.88 2480.5 1230.5" stroke="#70AD47" stroke-width="6.875" stroke-linecap="round" stroke-linejoin="round" stroke-miterlimit="10" fill="none"/></g><g clip-path="url(#clip15)"><path d="M1422.5 1691.5C1422.5 1697.57 1417.57 1702.5 1411.5 1702.5 1405.42 1702.5 1400.5 1697.57 1400.5 1691.5 1400.5 1685.42 1405.42 1680.5 1411.5 1680.5 1417.57 1680.5 1422.5 1685.42 1422.5 1691.5Z" stroke="#70AD47" stroke-width="3.4375" stroke-linejoin="round" stroke-miterlimit="10" fill="#70AD47"/><path d="M1541.5 1677.5C1541.5 1683.57 1536.57 1688.5 1530.5 1688.5 1524.42 1688.5 1519.5 1683.57 1519.5 1677.5 1519.5 1671.42 1524.42 1666.5 1530.5 1666.5 1536.57 1666.5 1541.5 1671.42 1541.5 1677.5Z" stroke="#70AD47" stroke-width="3.4375" stroke-linejoin="round" stroke-miterlimit="10" fill="#70AD47"/><path d="M1660.5 1653.5C1660.5 1659.57 1655.57 1664.5 1649.5 1664.5 1643.42 1664.5 1638.5 1659.57 1638.5 1653.5 1638.5 1647.42 1643.42 1642.5 1649.5 1642.5 1655.57 1642.5 1660.5 1647.42 1660.5 1653.5Z" stroke="#70AD47" stroke-width="3.4375" stroke-linejoin="round" stroke-miterlimit="10" fill="#70AD47"/><path d="M1779.5 1621.5C1779.5 1627.57 1774.57 1632.5 1768.5 1632.5 1762.42 1632.5 1757.5 1627.57 1757.5 1621.5 1757.5 1615.42 1762.42 1610.5 1768.5 1610.5 1774.57 1610.5 1779.5 1615.42 1779.5 1621.5Z" stroke="#70AD47" stroke-width="3.4375" stroke-linejoin="round" stroke-miterlimit="10" fill="#70AD47"/><path d="M1897.5 1579.5C1897.5 1585.57 1892.57 1590.5 1886.5 1590.5 1880.42 1590.5 1875.5 1585.57 1875.5 1579.5 1875.5 1573.42 1880.42 1568.5 1886.5 1568.5 1892.57 1568.5 1897.5 1573.42 1897.5 1579.5Z" stroke="#70AD47" stroke-width="3.4375" stroke-linejoin="round" stroke-miterlimit="10" fill="#70AD47"/><path d="M2016.5 1527.5C2016.5 1533.57 2011.57 1538.5 2005.5 1538.5 1999.42 1538.5 1994.5 1533.57 1994.5 1527.5 1994.5 1521.42 1999.42 1516.5 2005.5 1516.5 2011.57 1516.5 2016.5 1521.42 2016.5 1527.5Z" stroke="#70AD47" stroke-width="3.4375" stroke-linejoin="round" stroke-miterlimit="10" fill="#70AD47"/><path d="M2135.5 1467.5C2135.5 1473.57 2130.57 1478.5 2124.5 1478.5 2118.42 1478.5 2113.5 1473.57 2113.5 1467.5 2113.5 1461.42 2118.42 1456.5 2124.5 1456.5 2130.57 1456.5 2135.5 1461.42 2135.5 1467.5Z" stroke="#70AD47" stroke-width="3.4375" stroke-linejoin="round" stroke-miterlimit="10" fill="#70AD47"/><path d="M2254.5 1397.5C2254.5 1403.57 2249.57 1408.5 2243.5 1408.5 2237.42 1408.5 2232.5 1403.57 2232.5 1397.5 2232.5 1391.42 2237.42 1386.5 2243.5 1386.5 2249.57 1386.5 2254.5 1391.42 2254.5 1397.5Z" stroke="#70AD47" stroke-width="3.4375" stroke-linejoin="round" stroke-miterlimit="10" fill="#70AD47"/><path d="M2373.5 1318.5C2373.5 1324.57 2368.57 1329.5 2362.5 1329.5 2356.42 1329.5 2351.5 1324.57 2351.5 1318.5 2351.5 1312.42 2356.42 1307.5 2362.5 1307.5 2368.57 1307.5 2373.5 1312.42 2373.5 1318.5Z" stroke="#70AD47" stroke-width="3.4375" stroke-linejoin="round" stroke-miterlimit="10" fill="#70AD47"/><path d="M2491.5 1230.5C2491.5 1236.57 2486.57 1241.5 2480.5 1241.5 2474.42 1241.5 2469.5 1236.57 2469.5 1230.5 2469.5 1224.42 2474.42 1219.5 2480.5 1219.5 2486.57 1219.5 2491.5 1224.42 2491.5 1230.5Z" stroke="#70AD47" stroke-width="3.4375" stroke-linejoin="round" stroke-miterlimit="10" fill="#70AD47"/></g><g clip-path="url(#clip16)"><path d="M1411.5 1695.5C1451.09 1694.55 1490.68 1693.43 1530.28 1692.65 1569.87 1691.87 1609.46 1691.49 1649.06 1690.82 1688.65 1690.15 1728.24 1689.32 1767.83 1688.62 1807.43 1687.91 1847.02 1687.21 1886.61 1686.6 1926.2 1685.98 1965.8 1684.7 2005.39 1684.94 2044.98 1685.19 2084.57 1688.86 2124.17 1688.06 2163.76 1687.27 2203.35 1681.76 2242.94 1680.17 2282.54 1678.58 2322.13 1679.13 2361.72 1678.52 2401.31 1677.91 2440.91 1677.17 2480.5 1676.5" stroke="#264478" stroke-width="6.875" stroke-linecap="round" stroke-linejoin="round" stroke-miterlimit="10" fill="none"/></g><g clip-path="url(#clip17)"><path d="M1422.5 1695.5C1422.5 1701.57 1417.57 1706.5 1411.5 1706.5 1405.42 1706.5 1400.5 1701.57 1400.5 1695.5 1400.5 1689.42 1405.42 1684.5 1411.5 1684.5 1417.57 1684.5 1422.5 1689.42 1422.5 1695.5Z" stroke="#264478" stroke-width="3.4375" stroke-linejoin="round" stroke-miterlimit="10" fill="#264478"/><path d="M1541.5 1693.5C1541.5 1699.57 1536.57 1704.5 1530.5 1704.5 1524.42 1704.5 1519.5 1699.57 1519.5 1693.5 1519.5 1687.42 1524.42 1682.5 1530.5 1682.5 1536.57 1682.5 1541.5 1687.42 1541.5 1693.5Z" stroke="#264478" stroke-width="3.4375" stroke-linejoin="round" stroke-miterlimit="10" fill="#264478"/><path d="M1660.5 1691.5C1660.5 1697.57 1655.57 1702.5 1649.5 1702.5 1643.42 1702.5 1638.5 1697.57 1638.5 1691.5 1638.5 1685.42 1643.42 1680.5 1649.5 1680.5 1655.57 1680.5 1660.5 1685.42 1660.5 1691.5Z" stroke="#264478" stroke-width="3.4375" stroke-linejoin="round" stroke-miterlimit="10" fill="#264478"/><path d="M1779.5 1688.5C1779.5 1694.57 1774.57 1699.5 1768.5 1699.5 1762.42 1699.5 1757.5 1694.57 1757.5 1688.5 1757.5 1682.42 1762.42 1677.5 1768.5 1677.5 1774.57 1677.5 1779.5 1682.42 1779.5 1688.5Z" stroke="#264478" stroke-width="3.4375" stroke-linejoin="round" stroke-miterlimit="10" fill="#264478"/><path d="M1897.5 1686.5C1897.5 1692.57 1892.57 1697.5 1886.5 1697.5 1880.42 1697.5 1875.5 1692.57 1875.5 1686.5 1875.5 1680.42 1880.42 1675.5 1886.5 1675.5 1892.57 1675.5 1897.5 1680.42 1897.5 1686.5Z" stroke="#264478" stroke-width="3.4375" stroke-linejoin="round" stroke-miterlimit="10" fill="#264478"/><path d="M2016.5 1685.5C2016.5 1691.57 2011.57 1696.5 2005.5 1696.5 1999.42 1696.5 1994.5 1691.57 1994.5 1685.5 1994.5 1679.42 1999.42 1674.5 2005.5 1674.5 2011.57 1674.5 2016.5 1679.42 2016.5 1685.5Z" stroke="#264478" stroke-width="3.4375" stroke-linejoin="round" stroke-miterlimit="10" fill="#264478"/><path d="M2135.5 1688.5C2135.5 1694.57 2130.57 1699.5 2124.5 1699.5 2118.42 1699.5 2113.5 1694.57 2113.5 1688.5 2113.5 1682.42 2118.42 1677.5 2124.5 1677.5 2130.57 1677.5 2135.5 1682.42 2135.5 1688.5Z" stroke="#264478" stroke-width="3.4375" stroke-linejoin="round" stroke-miterlimit="10" fill="#264478"/><path d="M2254.5 1680.5C2254.5 1686.57 2249.57 1691.5 2243.5 1691.5 2237.42 1691.5 2232.5 1686.57 2232.5 1680.5 2232.5 1674.42 2237.42 1669.5 2243.5 1669.5 2249.57 1669.5 2254.5 1674.42 2254.5 1680.5Z" stroke="#264478" stroke-width="3.4375" stroke-linejoin="round" stroke-miterlimit="10" fill="#264478"/><path d="M2373.5 1678.5C2373.5 1684.57 2368.57 1689.5 2362.5 1689.5 2356.42 1689.5 2351.5 1684.57 2351.5 1678.5 2351.5 1672.42 2356.42 1667.5 2362.5 1667.5 2368.57 1667.5 2373.5 1672.42 2373.5 1678.5Z" stroke="#264478" stroke-width="3.4375" stroke-linejoin="round" stroke-miterlimit="10" fill="#264478"/><path d="M2491.5 1676.5C2491.5 1682.57 2486.57 1687.5 2480.5 1687.5 2474.42 1687.5 2469.5 1682.57 2469.5 1676.5 2469.5 1670.42 2474.42 1665.5 2480.5 1665.5 2486.57 1665.5 2491.5 1670.42 2491.5 1676.5Z" stroke="#264478" stroke-width="3.4375" stroke-linejoin="round" stroke-miterlimit="10" fill="#264478"/></g><g clip-path="url(#clip18)"><path d="M1411.5 1695.5C1451.09 1694.1 1490.68 1692.39 1530.28 1691.3 1569.87 1690.21 1609.46 1691.08 1649.06 1688.97 1688.65 1686.85 1728.24 1681.07 1767.83 1678.61 1807.43 1676.16 1847.02 1675.63 1886.61 1674.23 1926.2 1672.83 1965.8 1671.31 2005.39 1670.22 2044.98 1669.13 2084.57 1671.12 2124.17 1667.7 2163.76 1664.28 2203.35 1653.61 2242.94 1649.69 2282.54 1645.78 2322.13 1646.06 2361.72 1644.19 2401.31 1642.32 2440.91 1640.4 2480.5 1638.5" stroke="#9E480E" stroke-width="6.875" stroke-linecap="round" stroke-linejoin="round" stroke-miterlimit="10" fill="none"/></g><g clip-path="url(#clip19)"><path d="M1422.5 1695.5C1422.5 1701.57 1417.57 1706.5 1411.5 1706.5 1405.42 1706.5 1400.5 1701.57 1400.5 1695.5 1400.5 1689.42 1405.42 1684.5 1411.5 1684.5 1417.57 1684.5 1422.5 1689.42 1422.5 1695.5Z" stroke="#9E480E" stroke-width="3.4375" stroke-linejoin="round" stroke-miterlimit="10" fill="#9E480E"/><path d="M1541.5 1690.5C1541.5 1696.57 1536.57 1701.5 1530.5 1701.5 1524.42 1701.5 1519.5 1696.57 1519.5 1690.5 1519.5 1684.42 1524.42 1679.5 1530.5 1679.5 1536.57 1679.5 1541.5 1684.42 1541.5 1690.5Z" stroke="#9E480E" stroke-width="3.4375" stroke-linejoin="round" stroke-miterlimit="10" fill="#9E480E"/><path d="M1660.5 1688.5C1660.5 1694.57 1655.57 1699.5 1649.5 1699.5 1643.42 1699.5 1638.5 1694.57 1638.5 1688.5 1638.5 1682.42 1643.42 1677.5 1649.5 1677.5 1655.57 1677.5 1660.5 1682.42 1660.5 1688.5Z" stroke="#9E480E" stroke-width="3.4375" stroke-linejoin="round" stroke-miterlimit="10" fill="#9E480E"/><path d="M1779.5 1678.5C1779.5 1684.57 1774.57 1689.5 1768.5 1689.5 1762.42 1689.5 1757.5 1684.57 1757.5 1678.5 1757.5 1672.42 1762.42 1667.5 1768.5 1667.5 1774.57 1667.5 1779.5 1672.42 1779.5 1678.5Z" stroke="#9E480E" stroke-width="3.4375" stroke-linejoin="round" stroke-miterlimit="10" fill="#9E480E"/><path d="M1897.5 1674.5C1897.5 1680.57 1892.57 1685.5 1886.5 1685.5 1880.42 1685.5 1875.5 1680.57 1875.5 1674.5 1875.5 1668.42 1880.42 1663.5 1886.5 1663.5 1892.57 1663.5 1897.5 1668.42 1897.5 1674.5Z" stroke="#9E480E" stroke-width="3.4375" stroke-linejoin="round" stroke-miterlimit="10" fill="#9E480E"/><path d="M2016.5 1670.5C2016.5 1676.57 2011.57 1681.5 2005.5 1681.5 1999.42 1681.5 1994.5 1676.57 1994.5 1670.5 1994.5 1664.42 1999.42 1659.5 2005.5 1659.5 2011.57 1659.5 2016.5 1664.42 2016.5 1670.5Z" stroke="#9E480E" stroke-width="3.4375" stroke-linejoin="round" stroke-miterlimit="10" fill="#9E480E"/><path d="M2135.5 1667.5C2135.5 1673.57 2130.57 1678.5 2124.5 1678.5 2118.42 1678.5 2113.5 1673.57 2113.5 1667.5 2113.5 1661.42 2118.42 1656.5 2124.5 1656.5 2130.57 1656.5 2135.5 1661.42 2135.5 1667.5Z" stroke="#9E480E" stroke-width="3.4375" stroke-linejoin="round" stroke-miterlimit="10" fill="#9E480E"/><path d="M2254.5 1649.5C2254.5 1655.57 2249.57 1660.5 2243.5 1660.5 2237.42 1660.5 2232.5 1655.57 2232.5 1649.5 2232.5 1643.42 2237.42 1638.5 2243.5 1638.5 2249.57 1638.5 2254.5 1643.42 2254.5 1649.5Z" stroke="#9E480E" stroke-width="3.4375" stroke-linejoin="round" stroke-miterlimit="10" fill="#9E480E"/><path d="M2373.5 1644.5C2373.5 1650.57 2368.57 1655.5 2362.5 1655.5 2356.42 1655.5 2351.5 1650.57 2351.5 1644.5 2351.5 1638.42 2356.42 1633.5 2362.5 1633.5 2368.57 1633.5 2373.5 1638.42 2373.5 1644.5Z" stroke="#9E480E" stroke-width="3.4375" stroke-linejoin="round" stroke-miterlimit="10" fill="#9E480E"/><path d="M2491.5 1638.5C2491.5 1644.57 2486.57 1649.5 2480.5 1649.5 2474.42 1649.5 2469.5 1644.57 2469.5 1638.5 2469.5 1632.42 2474.42 1627.5 2480.5 1627.5 2486.57 1627.5 2491.5 1632.42 2491.5 1638.5Z" stroke="#9E480E" stroke-width="3.4375" stroke-linejoin="round" stroke-miterlimit="10" fill="#9E480E"/></g><g clip-path="url(#clip20)"><path d="M1411.5 1694.5C1451.09 1692.72 1490.68 1690.64 1530.28 1689.17 1569.87 1687.7 1609.46 1686.87 1649.06 1685.68 1688.65 1684.49 1728.24 1683.2 1767.83 1682 1807.43 1680.81 1847.02 1681.52 1886.61 1678.51 1926.2 1675.51 1965.8 1667.34 2005.39 1664 2044.98 1660.66 2084.57 1660.29 2124.17 1658.49 2163.76 1656.68 2203.35 1654.93 2242.94 1653.16 2282.54 1651.38 2322.13 1649.6 2361.72 1647.83 2401.31 1646.05 2440.91 1644.28 2480.5 1642.5" stroke="#636363" stroke-width="6.875" stroke-linecap="round" stroke-linejoin="round" stroke-miterlimit="10" fill="none"/></g><g clip-path="url(#clip21)"><path d="M1422.5 1694.5C1422.5 1700.57 1417.57 1705.5 1411.5 1705.5 1405.42 1705.5 1400.5 1700.57 1400.5 1694.5 1400.5 1688.42 1405.42 1683.5 1411.5 1683.5 1417.57 1683.5 1422.5 1688.42 1422.5 1694.5Z" stroke="#636363" stroke-width="3.4375" stroke-linejoin="round" stroke-miterlimit="10" fill="#636363"/><path d="M1541.5 1689.5C1541.5 1695.57 1536.57 1700.5 1530.5 1700.5 1524.42 1700.5 1519.5 1695.57 1519.5 1689.5 1519.5 1683.42 1524.42 1678.5 1530.5 1678.5 1536.57 1678.5 1541.5 1683.42 1541.5 1689.5Z" stroke="#636363" stroke-width="3.4375" stroke-linejoin="round" stroke-miterlimit="10" fill="#636363"/><path d="M1660.5 1686.5C1660.5 1692.57 1655.57 1697.5 1649.5 1697.5 1643.42 1697.5 1638.5 1692.57 1638.5 1686.5 1638.5 1680.42 1643.42 1675.5 1649.5 1675.5 1655.57 1675.5 1660.5 1680.42 1660.5 1686.5Z" stroke="#636363" stroke-width="3.4375" stroke-linejoin="round" stroke-miterlimit="10" fill="#636363"/><path d="M1779.5 1682.5C1779.5 1688.57 1774.57 1693.5 1768.5 1693.5 1762.42 1693.5 1757.5 1688.57 1757.5 1682.5 1757.5 1676.42 1762.42 1671.5 1768.5 1671.5 1774.57 1671.5 1779.5 1676.42 1779.5 1682.5Z" stroke="#636363" stroke-width="3.4375" stroke-linejoin="round" stroke-miterlimit="10" fill="#636363"/><path d="M1897.5 1678.5C1897.5 1684.57 1892.57 1689.5 1886.5 1689.5 1880.42 1689.5 1875.5 1684.57 1875.5 1678.5 1875.5 1672.42 1880.42 1667.5 1886.5 1667.5 1892.57 1667.5 1897.5 1672.42 1897.5 1678.5Z" stroke="#636363" stroke-width="3.4375" stroke-linejoin="round" stroke-miterlimit="10" fill="#636363"/><path d="M2016.5 1664.5C2016.5 1670.57 2011.57 1675.5 2005.5 1675.5 1999.42 1675.5 1994.5 1670.57 1994.5 1664.5 1994.5 1658.42 1999.42 1653.5 2005.5 1653.5 2011.57 1653.5 2016.5 1658.42 2016.5 1664.5Z" stroke="#636363" stroke-width="3.4375" stroke-linejoin="round" stroke-miterlimit="10" fill="#636363"/><path d="M2135.5 1658.5C2135.5 1664.57 2130.57 1669.5 2124.5 1669.5 2118.42 1669.5 2113.5 1664.57 2113.5 1658.5 2113.5 1652.42 2118.42 1647.5 2124.5 1647.5 2130.57 1647.5 2135.5 1652.42 2135.5 1658.5Z" stroke="#636363" stroke-width="3.4375" stroke-linejoin="round" stroke-miterlimit="10" fill="#636363"/><path d="M2254.5 1653.5C2254.5 1659.57 2249.57 1664.5 2243.5 1664.5 2237.42 1664.5 2232.5 1659.57 2232.5 1653.5 2232.5 1647.42 2237.42 1642.5 2243.5 1642.5 2249.57 1642.5 2254.5 1647.42 2254.5 1653.5Z" stroke="#636363" stroke-width="3.4375" stroke-linejoin="round" stroke-miterlimit="10" fill="#636363"/><path d="M2373.5 1648.5C2373.5 1654.57 2368.57 1659.5 2362.5 1659.5 2356.42 1659.5 2351.5 1654.57 2351.5 1648.5 2351.5 1642.42 2356.42 1637.5 2362.5 1637.5 2368.57 1637.5 2373.5 1642.42 2373.5 1648.5Z" stroke="#636363" stroke-width="3.4375" stroke-linejoin="round" stroke-miterlimit="10" fill="#636363"/><path d="M2491.5 1642.5C2491.5 1648.57 2486.57 1653.5 2480.5 1653.5 2474.42 1653.5 2469.5 1648.57 2469.5 1642.5 2469.5 1636.42 2474.42 1631.5 2480.5 1631.5 2486.57 1631.5 2491.5 1636.42 2491.5 1642.5Z" stroke="#636363" stroke-width="3.4375" stroke-linejoin="round" stroke-miterlimit="10" fill="#636363"/></g><g clip-path="url(#clip22)"><path d="M1411.5 1694.5C1451.09 1693.45 1490.68 1692.6 1530.28 1691.34 1569.87 1690.07 1609.46 1688.02 1649.06 1686.91 1688.65 1685.79 1728.24 1685.55 1767.83 1684.65 1807.43 1683.74 1847.02 1683.17 1886.61 1681.48 1926.2 1679.79 1965.8 1676.06 2005.39 1674.52 2044.98 1672.98 2084.57 1673.16 2124.17 1672.26 2163.76 1671.35 2203.35 1670.36 2242.94 1669.09 2282.54 1667.83 2322.13 1665.93 2361.72 1664.66 2401.31 1663.4 2440.91 1662.55 2480.5 1661.5" stroke="#997300" stroke-width="6.875" stroke-linecap="round" stroke-linejoin="round" stroke-miterlimit="10" fill="none"/></g><g clip-path="url(#clip23)"><path d="M1422.5 1694.5C1422.5 1700.57 1417.57 1705.5 1411.5 1705.5 1405.42 1705.5 1400.5 1700.57 1400.5 1694.5 1400.5 1688.42 1405.42 1683.5 1411.5 1683.5 1417.57 1683.5 1422.5 1688.42 1422.5 1694.5Z" stroke="#997300" stroke-width="3.4375" stroke-linejoin="round" stroke-miterlimit="10" fill="#997300"/><path d="M1541.5 1691.5C1541.5 1697.57 1536.57 1702.5 1530.5 1702.5 1524.42 1702.5 1519.5 1697.57 1519.5 1691.5 1519.5 1685.42 1524.42 1680.5 1530.5 1680.5 1536.57 1680.5 1541.5 1685.42 1541.5 1691.5Z" stroke="#997300" stroke-width="3.4375" stroke-linejoin="round" stroke-miterlimit="10" fill="#997300"/><path d="M1660.5 1687.5C1660.5 1693.57 1655.57 1698.5 1649.5 1698.5 1643.42 1698.5 1638.5 1693.57 1638.5 1687.5 1638.5 1681.42 1643.42 1676.5 1649.5 1676.5 1655.57 1676.5 1660.5 1681.42 1660.5 1687.5Z" stroke="#997300" stroke-width="3.4375" stroke-linejoin="round" stroke-miterlimit="10" fill="#997300"/><path d="M1779.5 1684.5C1779.5 1690.57 1774.57 1695.5 1768.5 1695.5 1762.42 1695.5 1757.5 1690.57 1757.5 1684.5 1757.5 1678.42 1762.42 1673.5 1768.5 1673.5 1774.57 1673.5 1779.5 1678.42 1779.5 1684.5Z" stroke="#997300" stroke-width="3.4375" stroke-linejoin="round" stroke-miterlimit="10" fill="#997300"/><path d="M1897.5 1681.5C1897.5 1687.57 1892.57 1692.5 1886.5 1692.5 1880.42 1692.5 1875.5 1687.57 1875.5 1681.5 1875.5 1675.42 1880.42 1670.5 1886.5 1670.5 1892.57 1670.5 1897.5 1675.42 1897.5 1681.5Z" stroke="#997300" stroke-width="3.4375" stroke-linejoin="round" stroke-miterlimit="10" fill="#997300"/><path d="M2016.5 1674.5C2016.5 1680.57 2011.57 1685.5 2005.5 1685.5 1999.42 1685.5 1994.5 1680.57 1994.5 1674.5 1994.5 1668.42 1999.42 1663.5 2005.5 1663.5 2011.57 1663.5 2016.5 1668.42 2016.5 1674.5Z" stroke="#997300" stroke-width="3.4375" stroke-linejoin="round" stroke-miterlimit="10" fill="#997300"/><path d="M2135.5 1672.5C2135.5 1678.57 2130.57 1683.5 2124.5 1683.5 2118.42 1683.5 2113.5 1678.57 2113.5 1672.5 2113.5 1666.42 2118.42 1661.5 2124.5 1661.5 2130.57 1661.5 2135.5 1666.42 2135.5 1672.5Z" stroke="#997300" stroke-width="3.4375" stroke-linejoin="round" stroke-miterlimit="10" fill="#997300"/><path d="M2254.5 1668.5C2254.5 1674.57 2249.57 1679.5 2243.5 1679.5 2237.42 1679.5 2232.5 1674.57 2232.5 1668.5 2232.5 1662.42 2237.42 1657.5 2243.5 1657.5 2249.57 1657.5 2254.5 1662.42 2254.5 1668.5Z" stroke="#997300" stroke-width="3.4375" stroke-linejoin="round" stroke-miterlimit="10" fill="#997300"/><path d="M2373.5 1664.5C2373.5 1670.57 2368.57 1675.5 2362.5 1675.5 2356.42 1675.5 2351.5 1670.57 2351.5 1664.5 2351.5 1658.42 2356.42 1653.5 2362.5 1653.5 2368.57 1653.5 2373.5 1658.42 2373.5 1664.5Z" stroke="#997300" stroke-width="3.4375" stroke-linejoin="round" stroke-miterlimit="10" fill="#997300"/><path d="M2491.5 1661.5C2491.5 1667.57 2486.57 1672.5 2480.5 1672.5 2474.42 1672.5 2469.5 1667.57 2469.5 1661.5 2469.5 1655.42 2474.42 1650.5 2480.5 1650.5 2486.57 1650.5 2491.5 1655.42 2491.5 1661.5Z" stroke="#997300" stroke-width="3.4375" stroke-linejoin="round" stroke-miterlimit="10" fill="#997300"/></g><g clip-path="url(#clip24)"><text fill="#595959" font-family="Calibri,Calibri_MSFontService,sans-serif" font-weight="400" font-size="41" transform="matrix(1 0 0 1 1233.58 1708)">0</text></g><g clip-path="url(#clip25)"><text fill="#595959" font-family="Calibri,Calibri_MSFontService,sans-serif" font-weight="400" font-size="41" transform="matrix(1 0 0 1 1170.88 1523)">2000</text></g><g clip-path="url(#clip26)"><text fill="#595959" font-family="Calibri,Calibri_MSFontService,sans-serif" font-weight="400" font-size="41" transform="matrix(1 0 0 1 1170.88 1339)">4000</text></g><g clip-path="url(#clip27)"><text fill="#595959" font-family="Calibri,Calibri_MSFontService,sans-serif" font-weight="400" font-size="41" transform="matrix(1 0 0 1 1170.88 1154)">6000</text></g><g clip-path="url(#clip28)"><text fill="#595959" font-family="Calibri,Calibri_MSFontService,sans-serif" font-weight="400" font-size="41" transform="matrix(1 0 0 1 1170.88 969)">8000</text></g><g clip-path="url(#clip29)"><text fill="#595959" font-family="Calibri,Calibri_MSFontService,sans-serif" font-weight="400" font-size="41" transform="matrix(1 0 0 1 1149.98 784)">10000</text></g><g clip-path="url(#clip30)"><text fill="#595959" font-family="Calibri,Calibri_MSFontService,sans-serif" font-weight="400" font-size="41" transform="matrix(1 0 0 1 1149.98 600)">12000</text></g><g clip-path="url(#clip31)"><text fill="#595959" font-family="Calibri,Calibri_MSFontService,sans-serif" font-weight="400" font-size="41" transform="matrix(1 0 0 1 1282.3 1762)">0</text></g><g clip-path="url(#clip32)"><text fill="#595959" font-family="Calibri,Calibri_MSFontService,sans-serif" font-weight="400" font-size="41" transform="matrix(1 0 0 1 1509.49 1762)">20</text></g><g clip-path="url(#clip33)"><text fill="#595959" font-family="Calibri,Calibri_MSFontService,sans-serif" font-weight="400" font-size="41" transform="matrix(1 0 0 1 1747.13 1762)">40</text></g><g clip-path="url(#clip34)"><text fill="#595959" font-family="Calibri,Calibri_MSFontService,sans-serif" font-weight="400" font-size="41" transform="matrix(1 0 0 1 1984.78 1762)">60</text></g><g clip-path="url(#clip35)"><text fill="#595959" font-family="Calibri,Calibri_MSFontService,sans-serif" font-weight="400" font-size="41" transform="matrix(1 0 0 1 2222.42 1762)">80</text></g><g clip-path="url(#clip36)"><text fill="#595959" font-family="Calibri,Calibri_MSFontService,sans-serif" font-weight="400" font-size="41" transform="matrix(1 0 0 1 2449.61 1762)">100</text></g><g clip-path="url(#clip37)"><text fill="#595959" font-family="Calibri,Calibri_MSFontService,sans-serif" font-weight="400" font-size="41" transform="matrix(1 0 0 1 2687.25 1762)">120</text></g><g clip-path="url(#clip38)"><text fill="#595959" font-family="Calibri,Calibri_MSFontService,sans-serif" font-weight="400" font-size="46" transform="matrix(6.12323e-17 -1 1 6.12323e-17 1124.29 1246)">Opérations</text></g><g clip-path="url(#clip39)"><text fill="#595959" font-family="Calibri,Calibri_MSFontService,sans-serif" font-weight="400" font-size="46" transform="matrix(1 0 0 1 1936.04 1831)">Valeurs</text></g><g clip-path="url(#clip40)"><text fill="#595959" font-family="Calibri,Calibri_MSFontService,sans-serif" font-weight="400" font-size="64" transform="matrix(1 0 0 1 1934.36 513)">Opérations Aleatoire</text></g><g clip-path="url(#clip41)"><path d="M2821.5 870.5 2909.5 870.5" stroke="#4472C4" stroke-width="6.875" stroke-linecap="round" stroke-linejoin="round" stroke-miterlimit="10" fill="none" fill-rule="evenodd"/></g><g clip-path="url(#clip42)"><path d="M2876 869.999C2876 876.075 2871.07 880.999 2865 880.999 2858.93 880.999 2854 876.075 2854 869.999 2854 863.924 2858.93 859 2865 859 2871.07 859 2876 863.924 2876 869.999Z" stroke="#4472C4" stroke-width="3.4375" stroke-linejoin="round" stroke-miterlimit="10" fill="#4472C4"/></g><g clip-path="url(#clip43)"><text fill="#595959" font-family="Calibri,Calibri_MSFontService,sans-serif" font-weight="400" font-size="41" transform="matrix(1 0 0 1 2918.96 882)">Bubble Affecations</text></g><g clip-path="url(#clip44)"><path d="M2821.5 948.5 2909.5 948.5" stroke="#ED7D31" stroke-width="6.875" stroke-linecap="round" stroke-linejoin="round" stroke-miterlimit="10" fill="none" fill-rule="evenodd"/></g><g clip-path="url(#clip45)"><path d="M2876 948C2876 954.075 2871.07 958.999 2865 958.999 2858.93 958.999 2854 954.075 2854 948 2854 941.924 2858.93 937 2865 937 2871.07 937 2876 941.924 2876 948Z" stroke="#ED7D31" stroke-width="3.4375" stroke-linejoin="round" stroke-miterlimit="10" fill="#ED7D31"/></g><g clip-path="url(#clip46)"><text fill="#595959" font-family="Calibri,Calibri_MSFontService,sans-serif" font-weight="400" font-size="41" transform="matrix(1 0 0 1 2918.96 960)">Bubble Comparaisons</text></g><g clip-path="url(#clip47)"><path d="M2821.5 1025.5 2909.5 1025.5" stroke="#A5A5A5" stroke-width="6.875" stroke-linecap="round" stroke-linejoin="round" stroke-miterlimit="10" fill="none" fill-rule="evenodd"/></g><g clip-path="url(#clip48)"><path d="M2876 1025C2876 1031.07 2871.07 1036 2865 1036 2858.93 1036 2854 1031.07 2854 1025 2854 1018.92 2858.93 1014 2865 1014 2871.07 1014 2876 1018.92 2876 1025Z" stroke="#A5A5A5" stroke-width="3.4375" stroke-linejoin="round" stroke-miterlimit="10" fill="#A5A5A5"/></g><g clip-path="url(#clip49)"><text fill="#595959" font-family="Calibri,Calibri_MSFontService,sans-serif" font-weight="400" font-size="41" transform="matrix(1 0 0 1 2918.96 1037)">Insertion Affecations</text></g><g clip-path="url(#clip50)"><path d="M2821.5 1102.5 2909.5 1102.5" stroke="#FFC000" stroke-width="6.875" stroke-linecap="round" stroke-linejoin="round" stroke-miterlimit="10" fill="none" fill-rule="evenodd"/></g><g clip-path="url(#clip51)"><path d="M2876 1102C2876 1108.07 2871.07 1113 2865 1113 2858.93 1113 2854 1108.07 2854 1102 2854 1095.92 2858.93 1091 2865 1091 2871.07 1091 2876 1095.92 2876 1102Z" stroke="#FFC000" stroke-width="3.4375" stroke-linejoin="round" stroke-miterlimit="10" fill="#FFC000"/></g><g clip-path="url(#clip52)"><text fill="#595959" font-family="Calibri,Calibri_MSFontService,sans-serif" font-weight="400" font-size="41" transform="matrix(1 0 0 1 2918.96 1114)">Insertion Comparaisons</text></g><g clip-path="url(#clip53)"><path d="M2821.5 1180.5 2909.5 1180.5" stroke="#5B9BD5" stroke-width="6.875" stroke-linecap="round" stroke-linejoin="round" stroke-miterlimit="10" fill="none" fill-rule="evenodd"/></g><g clip-path="url(#clip54)"><path d="M2876 1180C2876 1186.07 2871.07 1191 2865 1191 2858.93 1191 2854 1186.07 2854 1180 2854 1173.92 2858.93 1169 2865 1169 2871.07 1169 2876 1173.92 2876 1180Z" stroke="#5B9BD5" stroke-width="3.4375" stroke-linejoin="round" stroke-miterlimit="10" fill="#5B9BD5"/></g><g clip-path="url(#clip55)"><text fill="#595959" font-family="Calibri,Calibri_MSFontService,sans-serif" font-weight="400" font-size="41" transform="matrix(1 0 0 1 2918.96 1192)">Selection Affectations</text></g><g clip-path="url(#clip56)"><path d="M2821.5 1257.5 2909.5 1257.5" stroke="#70AD47" stroke-width="6.875" stroke-linecap="round" stroke-linejoin="round" stroke-miterlimit="10" fill="none" fill-rule="evenodd"/></g><g clip-path="url(#clip57)"><path d="M2876 1257C2876 1263.07 2871.07 1268 2865 1268 2858.93 1268 2854 1263.07 2854 1257 2854 1250.92 2858.93 1246 2865 1246 2871.07 1246 2876 1250.92 2876 1257Z" stroke="#70AD47" stroke-width="3.4375" stroke-linejoin="round" stroke-miterlimit="10" fill="#70AD47"/></g><g clip-path="url(#clip58)"><text fill="#595959" font-family="Calibri,Calibri_MSFontService,sans-serif" font-weight="400" font-size="41" transform="matrix(1 0 0 1 2918.96 1269)">Selection Comparaisons</text></g><g clip-path="url(#clip59)"><path d="M2821.5 1334.5 2909.5 1334.5" stroke="#264478" stroke-width="6.875" stroke-linecap="round" stroke-linejoin="round" stroke-miterlimit="10" fill="none" fill-rule="evenodd"/></g><g clip-path="url(#clip60)"><path d="M2876 1334C2876 1340.07 2871.07 1345 2865 1345 2858.93 1345 2854 1340.07 2854 1334 2854 1327.92 2858.93 1323 2865 1323 2871.07 1323 2876 1327.92 2876 1334Z" stroke="#264478" stroke-width="3.4375" stroke-linejoin="round" stroke-miterlimit="10" fill="#264478"/></g><g clip-path="url(#clip61)"><text fill="#595959" font-family="Calibri,Calibri_MSFontService,sans-serif" font-weight="400" font-size="41" transform="matrix(1 0 0 1 2918.96 1346)">Sort Affecations</text></g><g clip-path="url(#clip62)"><path d="M2821.5 1412.5 2909.5 1412.5" stroke="#9E480E" stroke-width="6.875" stroke-linecap="round" stroke-linejoin="round" stroke-miterlimit="10" fill="none" fill-rule="evenodd"/></g><g clip-path="url(#clip63)"><path d="M2876 1412C2876 1418.07 2871.07 1423 2865 1423 2858.93 1423 2854 1418.07 2854 1412 2854 1405.92 2858.93 1401 2865 1401 2871.07 1401 2876 1405.92 2876 1412Z" stroke="#9E480E" stroke-width="3.4375" stroke-linejoin="round" stroke-miterlimit="10" fill="#9E480E"/></g><g clip-path="url(#clip64)"><text fill="#595959" font-family="Calibri,Calibri_MSFontService,sans-serif" font-weight="400" font-size="41" transform="matrix(1 0 0 1 2918.96 1424)">Sort Comparaisons</text></g><g clip-path="url(#clip65)"><path d="M2821.5 1489.5 2909.5 1489.5" stroke="#636363" stroke-width="6.875" stroke-linecap="round" stroke-linejoin="round" stroke-miterlimit="10" fill="none" fill-rule="evenodd"/></g><g clip-path="url(#clip66)"><path d="M2876 1489C2876 1495.07 2871.07 1500 2865 1500 2858.93 1500 2854 1495.07 2854 1489 2854 1482.92 2858.93 1478 2865 1478 2871.07 1478 2876 1482.92 2876 1489Z" stroke="#636363" stroke-width="3.4375" stroke-linejoin="round" stroke-miterlimit="10" fill="#636363"/></g><g clip-path="url(#clip67)"><text fill="#595959" font-family="Calibri,Calibri_MSFontService,sans-serif" font-weight="400" font-size="41" transform="matrix(1 0 0 1 2918.96 1501)">StableSort Affectations</text></g><g clip-path="url(#clip68)"><path d="M2821.5 1566.5 2909.5 1566.5" stroke="#997300" stroke-width="6.875" stroke-linecap="round" stroke-linejoin="round" stroke-miterlimit="10" fill="none" fill-rule="evenodd"/></g><g clip-path="url(#clip69)"><path d="M2876 1566C2876 1572.07 2871.07 1577 2865 1577 2858.93 1577 2854 1572.07 2854 1566 2854 1559.92 2858.93 1555 2865 1555 2871.07 1555 2876 1559.92 2876 1566Z" stroke="#997300" stroke-width="3.4375" stroke-linejoin="round" stroke-miterlimit="10" fill="#997300"/></g><g clip-path="url(#clip70)"><text fill="#595959" font-family="Calibri,Calibri_MSFontService,sans-serif" font-weight="400" font-size="41" transform="matrix(1 0 0 1 2918.96 1579)">StableSort Comparaisons</text></g><rect x="1023.5" y="418.5" width="2362" height="1482" stroke="#D9D9D9" stroke-width="3.4375" stroke-linejoin="round" stroke-miterlimit="10" fill="none"/></g></svg>