<svg width="2491" height="1477" xmlns="http://www.w3.org/2000/svg" xmlns:xlink="http://www.w3.org/1999/xlink" xml:space="preserve" overflow="hidden"><defs><clipPath id="clip0"><rect x="893" y="376" width="2491" height="1477"/></clipPath><clipPath id="clip1"><rect x="893" y="376" width="2489" height="1474"/></clipPath><clipPath id="clip2"><rect x="893" y="376" width="2489" height="1474"/></clipPath><clipPath id="clip3"><rect x="893" y="376" width="2489" height="1474"/></clipPath><clipPath id="clip4"><rect x="1132" y="546" width="1784" height="1104"/></clipPath><clipPath id="clip5"><rect x="893" y="376" width="2489" height="1474"/></clipPath><clipPath id="clip6"><rect x="1132" y="546" width="1784" height="1104"/></clipPath><clipPath id="clip7"><rect x="893" y="376" width="2489" height="1474"/></clipPath><clipPath id="clip8"><rect x="1132" y="546" width="1784" height="1104"/></clipPath><clipPath id="clip9"><rect x="893" y="376" width="2489" height="1474"/></clipPath><clipPath id="clip10"><rect x="1132" y="546" width="1784" height="1104"/></clipPath><clipPath id="clip11"><rect x="893" y="376" width="2489" height="1474"/></clipPath><clipPath id="clip12"><rect x="1132" y="546" width="1784" height="1104"/></clipPath><clipPath id="clip13"><rect x="893" y="376" width="2489" height="1474"/></clipPath><clipPath id="clip14"><rect x="893" y="376" width="2489" height="1474"/></clipPath><clipPath id="clip15"><rect x="893" y="376" width="2489" height="1474"/></clipPath><clipPath id="clip16"><rect x="893" y="376" width="2489" height="1474"/></clipPath><clipPath id="clip17"><rect x="893" y="376" width="2489" height="1474"/></clipPath><clipPath id="clip18"><rect x="893" y="376" width="2489" height="1474"/></clipPath><clipPath id="clip19"><rect x="893" y="376" width="2489" height="1474"/></clipPath><clipPath id="clip20"><rect x="893" y="376" width="2489" height="1474"/></clipPath><clipPath id="clip21"><rect x="893" y="376" width="2489" height="1474"/></clipPath><clipPath id="clip22"><rect x="893" y="376" width="2489" height="1474"/></clipPath><clipPath id="clip23"><rect x="893" y="376" width="2489" height="1474"/></clipPath><clipPath id="clip24"><rect x="893" y="376" width="2489" height="1474"/></clipPath><clipPath id="clip25"><rect x="893" y="376" width="2489" height="1474"/></clipPath><clipPath id="clip26"><rect x="893" y="376" width="2489" height="1474"/></clipPath><clipPath id="clip27"><rect x="893" y="376" width="2489" height="1474"/></clipPath><clipPath id="clip28"><rect x="893" y="376" width="2489" height="1474"/></clipPath><clipPath id="clip29"><rect x="893" y="376" width="2489" height="1474"/></clipPath><clipPath id="clip30"><rect x="893" y="376" width="2489" height="1474"/></clipPath><clipPath id="clip31"><rect x="893" y="376" width="2489" height="1474"/></clipPath><clipPath id="clip32"><rect x="893" y="376" width="2489" height="1474"/></clipPath><clipPath id="clip33"><rect x="893" y="376" width="2489" height="1474"/></clipPath><clipPath id="clip34"><rect x="893" y="376" width="2489" height="1474"/></clipPath><clipPath id="clip35"><rect x="893" y="376" width="2489" height="1474"/></clipPath><clipPath id="clip36"><rect x="893" y="376" width="2489" height="1474"/></clipPath><clipPath id="clip37"><rect x="893" y="376" width="2489" height="1474"/></clipPath><clipPath id="clip38"><rect x="893" y="376" width="2489" height="1474"/></clipPath><clipPath id="clip39"><rect x="893" y="376" width="2489" height="1474"/></clipPath><clipPath id="clip40"><rect x="893" y="376" width="2489" height="1474"/></clipPath><clipPath id="clip41"><rect x="893" y="376" width="2489" height="1474"/></clipPath><clipPath id="clip42"><rect x="893" y="376" width="2489" height="1474"/></clipPath><clipPath id="clip43"><rect x="893" y="376" width="2489" height="1474"/></clipPath><clipPath id="clip44"><rect x="893" y="376" width="2489" height="1474"/></clipPath><clipPath id="clip45"><rect x="893" y="376" width="2489" height="1474"/></clipPath><clipPath id="clip46"><rect x="893" y="376" width="2489" height="1474"/></clipPath><clipPath id="clip47"><rect x="893" y="376" width="2489" height="1474"/></clipPath></defs><g clip-path="url(#clip0)" transform="translate(-893 -376)"><rect x="894" y="377" width="2488" height="1474" fill="#FFFFFF"/><g clip-path="url(#clip1)"><path d="M1132.5 1509.55 2913.5 1509.55M1132.5 1372.55 2913.5 1372.55M1132.5 1234.54 2913.5 1234.54M1132.5 1096.54 2913.5 1096.54M1132.5 959.532 2913.5 959.532M1132.5 821.527 2913.5 821.527M1132.5 684.523 2913.5 684.523M1132.5 546.5 2913.5 546.5" stroke="#D9D9D9" stroke-width="3.4375" stroke-linejoin="round" stroke-miterlimit="10" fill="none"/></g><g clip-path="url(#clip2)"><path d="M0 0 0.000360892 1101" stroke="#BFBFBF" stroke-width="3.4375" stroke-linejoin="round" stroke-miterlimit="10" fill="none" fill-rule="evenodd" transform="matrix(1 0 0 -1 1132.5 1647.5)"/></g><g clip-path="url(#clip3)"><path d="M1132.5 1647.5 2913.5 1647.5" stroke="#BFBFBF" stroke-width="3.4375" stroke-linejoin="round" stroke-miterlimit="10" fill="none" fill-rule="evenodd"/></g><g clip-path="url(#clip4)"><path d="M1280.5 1623.5C1329.98 1616.63 1379.46 1614.57 1428.94 1602.88 1478.43 1591.2 1527.91 1572.65 1577.39 1553.4 1626.87 1534.16 1676.35 1512.63 1725.83 1487.43 1775.31 1462.23 1824.8 1433.83 1874.28 1402.22 1923.76 1370.6 1973.24 1335.78 2022.72 1297.76 2072.2 1259.73 2121.69 1217.12 2171.17 1174.06 2220.65 1130.99 2270.13 1088.39 2319.61 1039.36 2369.09 990.343 2418.57 934.907 2468.06 879.93 2517.54 824.953 2567.02 766.31 2616.5 709.5" stroke="#4472C4" stroke-width="6.875" stroke-linecap="round" stroke-linejoin="round" stroke-miterlimit="10" fill="none"/></g><g clip-path="url(#clip5)"><path d="M1291.25 1623.25C1291.25 1629.32 1286.32 1634.25 1280.25 1634.25 1274.17 1634.25 1269.25 1629.32 1269.25 1623.25 1269.25 1617.17 1274.17 1612.25 1280.25 1612.25 1286.32 1612.25 1291.25 1617.17 1291.25 1623.25Z" stroke="#4472C4" stroke-width="3.4375" stroke-linejoin="round" stroke-miterlimit="10" fill="#4472C4"/><path d="M1439.25 1603.25C1439.25 1609.32 1434.32 1614.25 1428.25 1614.25 1422.17 1614.25 1417.25 1609.32 1417.25 1603.25 1417.25 1597.17 1422.17 1592.25 1428.25 1592.25 1434.32 1592.25 1439.25 1597.17 1439.25 1603.25Z" stroke="#4472C4" stroke-width="3.4375" stroke-linejoin="round" stroke-miterlimit="10" fill="#4472C4"/><path d="M1588.25 1553.25C1588.25 1559.32 1583.32 1564.25 1577.25 1564.25 1571.17 1564.25 1566.25 1559.32 1566.25 1553.25 1566.25 1547.17 1571.17 1542.25 1577.25 1542.25 1583.32 1542.25 1588.25 1547.17 1588.25 1553.25Z" stroke="#4472C4" stroke-width="3.4375" stroke-linejoin="round" stroke-miterlimit="10" fill="#4472C4"/><path d="M1736.25 1487.25C1736.25 1493.32 1731.32 1498.25 1725.25 1498.25 1719.17 1498.25 1714.25 1493.32 1714.25 1487.25 1714.25 1481.17 1719.17 1476.25 1725.25 1476.25 1731.32 1476.25 1736.25 1481.17 1736.25 1487.25Z" stroke="#4472C4" stroke-width="3.4375" stroke-linejoin="round" stroke-miterlimit="10" fill="#4472C4"/><path d="M1885.25 1402.25C1885.25 1408.32 1880.32 1413.25 1874.25 1413.25 1868.17 1413.25 1863.25 1408.32 1863.25 1402.25 1863.25 1396.17 1868.17 1391.25 1874.25 1391.25 1880.32 1391.25 1885.25 1396.17 1885.25 1402.25Z" stroke="#4472C4" stroke-width="3.4375" stroke-linejoin="round" stroke-miterlimit="10" fill="#4472C4"/><path d="M2033.25 1297.25C2033.25 1303.32 2028.32 1308.25 2022.25 1308.25 2016.17 1308.25 2011.25 1303.32 2011.25 1297.25 2011.25 1291.17 2016.17 1286.25 2022.25 1286.25 2028.32 1286.25 2033.25 1291.17 2033.25 1297.25Z" stroke="#4472C4" stroke-width="3.4375" stroke-linejoin="round" stroke-miterlimit="10" fill="#4472C4"/><path d="M2182.25 1174.25C2182.25 1180.32 2177.32 1185.25 2171.25 1185.25 2165.17 1185.25 2160.25 1180.32 2160.25 1174.25 2160.25 1168.17 2165.17 1163.25 2171.25 1163.25 2177.32 1163.25 2182.25 1168.17 2182.25 1174.25Z" stroke="#4472C4" stroke-width="3.4375" stroke-linejoin="round" stroke-miterlimit="10" fill="#4472C4"/><path d="M2330.25 1039.25C2330.25 1045.32 2325.32 1050.25 2319.25 1050.25 2313.17 1050.25 2308.25 1045.32 2308.25 1039.25 2308.25 1033.17 2313.17 1028.25 2319.25 1028.25 2325.32 1028.25 2330.25 1033.17 2330.25 1039.25Z" stroke="#4472C4" stroke-width="3.4375" stroke-linejoin="round" stroke-miterlimit="10" fill="#4472C4"/><path d="M2478.25 879.25C2478.25 885.325 2473.32 890.249 2467.25 890.249 2461.17 890.249 2456.25 885.325 2456.25 879.25 2456.25 873.175 2461.17 868.25 2467.25 868.25 2473.32 868.25 2478.25 873.175 2478.25 879.25Z" stroke="#4472C4" stroke-width="3.4375" stroke-linejoin="round" stroke-miterlimit="10" fill="#4472C4"/><path d="M2627.25 709.25C2627.25 715.324 2622.32 720.249 2616.25 720.249 2610.17 720.249 2605.25 715.324 2605.25 709.25 2605.25 703.175 2610.17 698.25 2616.25 698.25 2622.32 698.25 2627.25 703.175 2627.25 709.25Z" stroke="#4472C4" stroke-width="3.4375" stroke-linejoin="round" stroke-miterlimit="10" fill="#4472C4"/></g><g clip-path="url(#clip6)"><path d="M1280.5 1641.5C1329.98 1641.05 1379.46 1640.82 1428.94 1640.15 1478.43 1639.48 1527.91 1638.57 1577.39 1637.45 1626.87 1636.32 1676.35 1634.52 1725.83 1633.4 1775.31 1632.27 1824.8 1631.6 1874.28 1630.7 1923.76 1629.8 1973.24 1629.12 2022.72 1628 2072.2 1626.87 2121.69 1625.3 2171.17 1623.95 2220.65 1622.6 2270.13 1621.03 2319.61 1619.9 2369.09 1618.77 2418.57 1618.1 2468.06 1617.2 2517.54 1616.3 2567.02 1615.4 2616.5 1614.5" stroke="#ED7D31" stroke-width="6.875" stroke-linecap="round" stroke-linejoin="round" stroke-miterlimit="10" fill="none"/></g><g clip-path="url(#clip7)"><path d="M1291.25 1641.25C1291.25 1647.32 1286.32 1652.25 1280.25 1652.25 1274.17 1652.25 1269.25 1647.32 1269.25 1641.25 1269.25 1635.17 1274.17 1630.25 1280.25 1630.25 1286.32 1630.25 1291.25 1635.17 1291.25 1641.25Z" stroke="#ED7D31" stroke-width="3.4375" stroke-linejoin="round" stroke-miterlimit="10" fill="#ED7D31"/><path d="M1439.25 1640.25C1439.25 1646.32 1434.32 1651.25 1428.25 1651.25 1422.17 1651.25 1417.25 1646.32 1417.25 1640.25 1417.25 1634.17 1422.17 1629.25 1428.25 1629.25 1434.32 1629.25 1439.25 1634.17 1439.25 1640.25Z" stroke="#ED7D31" stroke-width="3.4375" stroke-linejoin="round" stroke-miterlimit="10" fill="#ED7D31"/><path d="M1588.25 1637.25C1588.25 1643.32 1583.32 1648.25 1577.25 1648.25 1571.17 1648.25 1566.25 1643.32 1566.25 1637.25 1566.25 1631.17 1571.17 1626.25 1577.25 1626.25 1583.32 1626.25 1588.25 1631.17 1588.25 1637.25Z" stroke="#ED7D31" stroke-width="3.4375" stroke-linejoin="round" stroke-miterlimit="10" fill="#ED7D31"/><path d="M1736.25 1633.25C1736.25 1639.32 1731.32 1644.25 1725.25 1644.25 1719.17 1644.25 1714.25 1639.32 1714.25 1633.25 1714.25 1627.17 1719.17 1622.25 1725.25 1622.25 1731.32 1622.25 1736.25 1627.17 1736.25 1633.25Z" stroke="#ED7D31" stroke-width="3.4375" stroke-linejoin="round" stroke-miterlimit="10" fill="#ED7D31"/><path d="M1885.25 1630.25C1885.25 1636.32 1880.32 1641.25 1874.25 1641.25 1868.17 1641.25 1863.25 1636.32 1863.25 1630.25 1863.25 1624.17 1868.17 1619.25 1874.25 1619.25 1880.32 1619.25 1885.25 1624.17 1885.25 1630.25Z" stroke="#ED7D31" stroke-width="3.4375" stroke-linejoin="round" stroke-miterlimit="10" fill="#ED7D31"/><path d="M2033.25 1627.25C2033.25 1633.32 2028.32 1638.25 2022.25 1638.25 2016.17 1638.25 2011.25 1633.32 2011.25 1627.25 2011.25 1621.17 2016.17 1616.25 2022.25 1616.25 2028.32 1616.25 2033.25 1621.17 2033.25 1627.25Z" stroke="#ED7D31" stroke-width="3.4375" stroke-linejoin="round" stroke-miterlimit="10" fill="#ED7D31"/><path d="M2182.25 1623.25C2182.25 1629.32 2177.32 1634.25 2171.25 1634.25 2165.17 1634.25 2160.25 1629.32 2160.25 1623.25 2160.25 1617.17 2165.17 1612.25 2171.25 1612.25 2177.32 1612.25 2182.25 1617.17 2182.25 1623.25Z" stroke="#ED7D31" stroke-width="3.4375" stroke-linejoin="round" stroke-miterlimit="10" fill="#ED7D31"/><path d="M2330.25 1619.25C2330.25 1625.32 2325.32 1630.25 2319.25 1630.25 2313.17 1630.25 2308.25 1625.32 2308.25 1619.25 2308.25 1613.17 2313.17 1608.25 2319.25 1608.25 2325.32 1608.25 2330.25 1613.17 2330.25 1619.25Z" stroke="#ED7D31" stroke-width="3.4375" stroke-linejoin="round" stroke-miterlimit="10" fill="#ED7D31"/><path d="M2478.25 1616.25C2478.25 1622.32 2473.32 1627.25 2467.25 1627.25 2461.17 1627.25 2456.25 1622.32 2456.25 1616.25 2456.25 1610.17 2461.17 1605.25 2467.25 1605.25 2473.32 1605.25 2478.25 1610.17 2478.25 1616.25Z" stroke="#ED7D31" stroke-width="3.4375" stroke-linejoin="round" stroke-miterlimit="10" fill="#ED7D31"/><path d="M2627.25 1614.25C2627.25 1620.32 2622.32 1625.25 2616.25 1625.25 2610.17 1625.25 2605.25 1620.32 2605.25 1614.25 2605.25 1608.17 2610.17 1603.25 2616.25 1603.25 2622.32 1603.25 2627.25 1608.17 2627.25 1614.25Z" stroke="#ED7D31" stroke-width="3.4375" stroke-linejoin="round" stroke-miterlimit="10" fill="#ED7D31"/></g><g clip-path="url(#clip8)"><path d="M1280.5 1634.5C1329.98 1628.09 1379.46 1622.82 1428.94 1615.26 1478.43 1607.7 1527.91 1600.14 1577.39 1589.15 1626.87 1578.15 1676.35 1563.95 1725.83 1549.29 1775.31 1534.63 1824.8 1518.6 1874.28 1501.19 1923.76 1483.78 1973.24 1465.46 2022.72 1444.84 2072.2 1424.23 2121.69 1401.32 2171.17 1377.5 2220.65 1353.68 2270.13 1328.71 2319.61 1301.91 2369.09 1275.11 2418.57 1246.94 2468.06 1216.7 2517.54 1186.47 2567.02 1152.57 2616.5 1120.5" stroke="#A5A5A5" stroke-width="6.875" stroke-linecap="round" stroke-linejoin="round" stroke-miterlimit="10" fill="none"/></g><g clip-path="url(#clip9)"><path d="M1291.25 1634.25C1291.25 1640.32 1286.32 1645.25 1280.25 1645.25 1274.17 1645.25 1269.25 1640.32 1269.25 1634.25 1269.25 1628.17 1274.17 1623.25 1280.25 1623.25 1286.32 1623.25 1291.25 1628.17 1291.25 1634.25Z" stroke="#A5A5A5" stroke-width="3.4375" stroke-linejoin="round" stroke-miterlimit="10" fill="#A5A5A5"/><path d="M1439.25 1615.25C1439.25 1621.32 1434.32 1626.25 1428.25 1626.25 1422.17 1626.25 1417.25 1621.32 1417.25 1615.25 1417.25 1609.17 1422.17 1604.25 1428.25 1604.25 1434.32 1604.25 1439.25 1609.17 1439.25 1615.25Z" stroke="#A5A5A5" stroke-width="3.4375" stroke-linejoin="round" stroke-miterlimit="10" fill="#A5A5A5"/><path d="M1588.25 1589.25C1588.25 1595.32 1583.32 1600.25 1577.25 1600.25 1571.17 1600.25 1566.25 1595.32 1566.25 1589.25 1566.25 1583.17 1571.17 1578.25 1577.25 1578.25 1583.32 1578.25 1588.25 1583.17 1588.25 1589.25Z" stroke="#A5A5A5" stroke-width="3.4375" stroke-linejoin="round" stroke-miterlimit="10" fill="#A5A5A5"/><path d="M1736.25 1549.25C1736.25 1555.32 1731.32 1560.25 1725.25 1560.25 1719.17 1560.25 1714.25 1555.32 1714.25 1549.25 1714.25 1543.17 1719.17 1538.25 1725.25 1538.25 1731.32 1538.25 1736.25 1543.17 1736.25 1549.25Z" stroke="#A5A5A5" stroke-width="3.4375" stroke-linejoin="round" stroke-miterlimit="10" fill="#A5A5A5"/><path d="M1885.25 1501.25C1885.25 1507.32 1880.32 1512.25 1874.25 1512.25 1868.17 1512.25 1863.25 1507.32 1863.25 1501.25 1863.25 1495.17 1868.17 1490.25 1874.25 1490.25 1880.32 1490.25 1885.25 1495.17 1885.25 1501.25Z" stroke="#A5A5A5" stroke-width="3.4375" stroke-linejoin="round" stroke-miterlimit="10" fill="#A5A5A5"/><path d="M2033.25 1445.25C2033.25 1451.32 2028.32 1456.25 2022.25 1456.25 2016.17 1456.25 2011.25 1451.32 2011.25 1445.25 2011.25 1439.17 2016.17 1434.25 2022.25 1434.25 2028.32 1434.25 2033.25 1439.17 2033.25 1445.25Z" stroke="#A5A5A5" stroke-width="3.4375" stroke-linejoin="round" stroke-miterlimit="10" fill="#A5A5A5"/><path d="M2182.25 1377.25C2182.25 1383.32 2177.32 1388.25 2171.25 1388.25 2165.17 1388.25 2160.25 1383.32 2160.25 1377.25 2160.25 1371.17 2165.17 1366.25 2171.25 1366.25 2177.32 1366.25 2182.25 1371.17 2182.25 1377.25Z" stroke="#A5A5A5" stroke-width="3.4375" stroke-linejoin="round" stroke-miterlimit="10" fill="#A5A5A5"/><path d="M2330.25 1301.25C2330.25 1307.32 2325.32 1312.25 2319.25 1312.25 2313.17 1312.25 2308.25 1307.32 2308.25 1301.25 2308.25 1295.17 2313.17 1290.25 2319.25 1290.25 2325.32 1290.25 2330.25 1295.17 2330.25 1301.25Z" stroke="#A5A5A5" stroke-width="3.4375" stroke-linejoin="round" stroke-miterlimit="10" fill="#A5A5A5"/><path d="M2478.25 1216.25C2478.25 1222.32 2473.32 1227.25 2467.25 1227.25 2461.17 1227.25 2456.25 1222.32 2456.25 1216.25 2456.25 1210.17 2461.17 1205.25 2467.25 1205.25 2473.32 1205.25 2478.25 1210.17 2478.25 1216.25Z" stroke="#A5A5A5" stroke-width="3.4375" stroke-linejoin="round" stroke-miterlimit="10" fill="#A5A5A5"/><path d="M2627.25 1120.25C2627.25 1126.32 2622.32 1131.25 2616.25 1131.25 2610.17 1131.25 2605.25 1126.32 2605.25 1120.25 2605.25 1114.17 2610.17 1109.25 2616.25 1109.25 2622.32 1109.25 2627.25 1114.17 2627.25 1120.25Z" stroke="#A5A5A5" stroke-width="3.4375" stroke-linejoin="round" stroke-miterlimit="10" fill="#A5A5A5"/></g><g clip-path="url(#clip10)"><path d="M1280.5 1640.5C1329.98 1635.41 1379.46 1626.85 1428.94 1625.23 1478.43 1623.62 1527.91 1632.4 1577.39 1630.79 1626.87 1629.17 1676.35 1618.76 1725.83 1615.52 1775.31 1612.28 1824.8 1612.51 1874.28 1611.36 1923.76 1610.2 1973.24 1609.51 2022.72 1608.58 2072.2 1607.66 2121.69 1609.97 2171.17 1605.81 2220.65 1601.64 2270.13 1588.23 2319.61 1583.6 2369.09 1578.98 2418.57 1579.9 2468.06 1578.05 2517.54 1576.2 2567.02 1574.35 2616.5 1572.5" stroke="#FFC000" stroke-width="6.875" stroke-linecap="round" stroke-linejoin="round" stroke-miterlimit="10" fill="none"/></g><g clip-path="url(#clip11)"><path d="M1291.25 1640.25C1291.25 1646.32 1286.32 1651.25 1280.25 1651.25 1274.17 1651.25 1269.25 1646.32 1269.25 1640.25 1269.25 1634.17 1274.17 1629.25 1280.25 1629.25 1286.32 1629.25 1291.25 1634.17 1291.25 1640.25Z" stroke="#FFC000" stroke-width="3.4375" stroke-linejoin="round" stroke-miterlimit="10" fill="#FFC000"/><path d="M1439.25 1625.25C1439.25 1631.32 1434.32 1636.25 1428.25 1636.25 1422.17 1636.25 1417.25 1631.32 1417.25 1625.25 1417.25 1619.17 1422.17 1614.25 1428.25 1614.25 1434.32 1614.25 1439.25 1619.17 1439.25 1625.25Z" stroke="#FFC000" stroke-width="3.4375" stroke-linejoin="round" stroke-miterlimit="10" fill="#FFC000"/><path d="M1588.25 1630.25C1588.25 1636.32 1583.32 1641.25 1577.25 1641.25 1571.17 1641.25 1566.25 1636.32 1566.25 1630.25 1566.25 1624.17 1571.17 1619.25 1577.25 1619.25 1583.32 1619.25 1588.25 1624.17 1588.25 1630.25Z" stroke="#FFC000" stroke-width="3.4375" stroke-linejoin="round" stroke-miterlimit="10" fill="#FFC000"/><path d="M1736.25 1615.25C1736.25 1621.32 1731.32 1626.25 1725.25 1626.25 1719.17 1626.25 1714.25 1621.32 1714.25 1615.25 1714.25 1609.17 1719.17 1604.25 1725.25 1604.25 1731.32 1604.25 1736.25 1609.17 1736.25 1615.25Z" stroke="#FFC000" stroke-width="3.4375" stroke-linejoin="round" stroke-miterlimit="10" fill="#FFC000"/><path d="M1885.25 1611.25C1885.25 1617.32 1880.32 1622.25 1874.25 1622.25 1868.17 1622.25 1863.25 1617.32 1863.25 1611.25 1863.25 1605.17 1868.17 1600.25 1874.25 1600.25 1880.32 1600.25 1885.25 1605.17 1885.25 1611.25Z" stroke="#FFC000" stroke-width="3.4375" stroke-linejoin="round" stroke-miterlimit="10" fill="#FFC000"/><path d="M2033.25 1608.25C2033.25 1614.32 2028.32 1619.25 2022.25 1619.25 2016.17 1619.25 2011.25 1614.32 2011.25 1608.25 2011.25 1602.17 2016.17 1597.25 2022.25 1597.25 2028.32 1597.25 2033.25 1602.17 2033.25 1608.25Z" stroke="#FFC000" stroke-width="3.4375" stroke-linejoin="round" stroke-miterlimit="10" fill="#FFC000"/><path d="M2182.25 1605.25C2182.25 1611.32 2177.32 1616.25 2171.25 1616.25 2165.17 1616.25 2160.25 1611.32 2160.25 1605.25 2160.25 1599.17 2165.17 1594.25 2171.25 1594.25 2177.32 1594.25 2182.25 1599.17 2182.25 1605.25Z" stroke="#FFC000" stroke-width="3.4375" stroke-linejoin="round" stroke-miterlimit="10" fill="#FFC000"/><path d="M2330.25 1583.25C2330.25 1589.32 2325.32 1594.25 2319.25 1594.25 2313.17 1594.25 2308.25 1589.32 2308.25 1583.25 2308.25 1577.17 2313.17 1572.25 2319.25 1572.25 2325.32 1572.25 2330.25 1577.17 2330.25 1583.25Z" stroke="#FFC000" stroke-width="3.4375" stroke-linejoin="round" stroke-miterlimit="10" fill="#FFC000"/><path d="M2478.25 1578.25C2478.25 1584.32 2473.32 1589.25 2467.25 1589.25 2461.17 1589.25 2456.25 1584.32 2456.25 1578.25 2456.25 1572.17 2461.17 1567.25 2467.25 1567.25 2473.32 1567.25 2478.25 1572.17 2478.25 1578.25Z" stroke="#FFC000" stroke-width="3.4375" stroke-linejoin="round" stroke-miterlimit="10" fill="#FFC000"/><path d="M2627.25 1572.25C2627.25 1578.32 2622.32 1583.25 2616.25 1583.25 2610.17 1583.25 2605.25 1578.32 2605.25 1572.25 2605.25 1566.17 2610.17 1561.25 2616.25 1561.25 2622.32 1561.25 2627.25 1566.17 2627.25 1572.25Z" stroke="#FFC000" stroke-width="3.4375" stroke-linejoin="round" stroke-miterlimit="10" fill="#FFC000"/></g><g clip-path="url(#clip12)"><path d="M1280.5 1621.5C1329.98 1620.11 1379.46 1618.73 1428.94 1617.34 1478.43 1615.95 1527.91 1614.11 1577.39 1613.18 1626.87 1612.26 1676.35 1612.72 1725.83 1611.8 1775.31 1610.87 1824.8 1612.95 1874.28 1607.64 1923.76 1602.32 1973.24 1584.53 2022.72 1579.91 2072.2 1575.29 2121.69 1581.06 2171.17 1579.91 2220.65 1578.75 2270.13 1575.29 2319.61 1572.98 2369.09 1570.67 2418.57 1568.12 2468.06 1566.05 2517.54 1563.97 2567.02 1562.35 2616.5 1560.5" stroke="#5B9BD5" stroke-width="6.875" stroke-linecap="round" stroke-linejoin="round" stroke-miterlimit="10" fill="none"/></g><g clip-path="url(#clip13)"><path d="M1291.25 1621.25C1291.25 1627.32 1286.32 1632.25 1280.25 1632.25 1274.17 1632.25 1269.25 1627.32 1269.25 1621.25 1269.25 1615.17 1274.17 1610.25 1280.25 1610.25 1286.32 1610.25 1291.25 1615.17 1291.25 1621.25Z" stroke="#5B9BD5" stroke-width="3.4375" stroke-linejoin="round" stroke-miterlimit="10" fill="#5B9BD5"/><path d="M1439.25 1616.25C1439.25 1622.32 1434.32 1627.25 1428.25 1627.25 1422.17 1627.25 1417.25 1622.32 1417.25 1616.25 1417.25 1610.17 1422.17 1605.25 1428.25 1605.25 1434.32 1605.25 1439.25 1610.17 1439.25 1616.25Z" stroke="#5B9BD5" stroke-width="3.4375" stroke-linejoin="round" stroke-miterlimit="10" fill="#5B9BD5"/><path d="M1588.25 1612.25C1588.25 1618.32 1583.32 1623.25 1577.25 1623.25 1571.17 1623.25 1566.25 1618.32 1566.25 1612.25 1566.25 1606.17 1571.17 1601.25 1577.25 1601.25 1583.32 1601.25 1588.25 1606.17 1588.25 1612.25Z" stroke="#5B9BD5" stroke-width="3.4375" stroke-linejoin="round" stroke-miterlimit="10" fill="#5B9BD5"/><path d="M1736.25 1611.25C1736.25 1617.32 1731.32 1622.25 1725.25 1622.25 1719.17 1622.25 1714.25 1617.32 1714.25 1611.25 1714.25 1605.17 1719.17 1600.25 1725.25 1600.25 1731.32 1600.25 1736.25 1605.17 1736.25 1611.25Z" stroke="#5B9BD5" stroke-width="3.4375" stroke-linejoin="round" stroke-miterlimit="10" fill="#5B9BD5"/><path d="M1885.25 1607.25C1885.25 1613.32 1880.32 1618.25 1874.25 1618.25 1868.17 1618.25 1863.25 1613.32 1863.25 1607.25 1863.25 1601.17 1868.17 1596.25 1874.25 1596.25 1880.32 1596.25 1885.25 1601.17 1885.25 1607.25Z" stroke="#5B9BD5" stroke-width="3.4375" stroke-linejoin="round" stroke-miterlimit="10" fill="#5B9BD5"/><path d="M2033.25 1579.25C2033.25 1585.32 2028.32 1590.25 2022.25 1590.25 2016.17 1590.25 2011.25 1585.32 2011.25 1579.25 2011.25 1573.17 2016.17 1568.25 2022.25 1568.25 2028.32 1568.25 2033.25 1573.17 2033.25 1579.25Z" stroke="#5B9BD5" stroke-width="3.4375" stroke-linejoin="round" stroke-miterlimit="10" fill="#5B9BD5"/><path d="M2182.25 1579.25C2182.25 1585.32 2177.32 1590.25 2171.25 1590.25 2165.17 1590.25 2160.25 1585.32 2160.25 1579.25 2160.25 1573.17 2165.17 1568.25 2171.25 1568.25 2177.32 1568.25 2182.25 1573.17 2182.25 1579.25Z" stroke="#5B9BD5" stroke-width="3.4375" stroke-linejoin="round" stroke-miterlimit="10" fill="#5B9BD5"/><path d="M2330.25 1572.25C2330.25 1578.32 2325.32 1583.25 2319.25 1583.25 2313.17 1583.25 2308.25 1578.32 2308.25 1572.25 2308.25 1566.17 2313.17 1561.25 2319.25 1561.25 2325.32 1561.25 2330.25 1566.17 2330.25 1572.25Z" stroke="#5B9BD5" stroke-width="3.4375" stroke-linejoin="round" stroke-miterlimit="10" fill="#5B9BD5"/><path d="M2478.25 1566.25C2478.25 1572.32 2473.32 1577.25 2467.25 1577.25 2461.17 1577.25 2456.25 1572.32 2456.25 1566.25 2456.25 1560.17 2461.17 1555.25 2467.25 1555.25 2473.32 1555.25 2478.25 1560.17 2478.25 1566.25Z" stroke="#5B9BD5" stroke-width="3.4375" stroke-linejoin="round" stroke-miterlimit="10" fill="#5B9BD5"/><path d="M2627.25 1560.25C2627.25 1566.32 2622.32 1571.25 2616.25 1571.25 2610.17 1571.25 2605.25 1566.32 2605.25 1560.25 2605.25 1554.17 2610.17 1549.25 2616.25 1549.25 2622.32 1549.25 2627.25 1554.17 2627.25 1560.25Z" stroke="#5B9BD5" stroke-width="3.4375" stroke-linejoin="round" stroke-miterlimit="10" fill="#5B9BD5"/></g><g clip-path="url(#clip14)"><text fill="#595959" font-family="Calibri,Calibri_MSFontService,sans-serif" font-weight="400" font-size="41" transform="matrix(1 0 0 1 1072.94 1659)">0</text></g><g clip-path="url(#clip15)"><text fill="#595959" font-family="Calibri,Calibri_MSFontService,sans-serif" font-weight="400" font-size="41" transform="matrix(1 0 0 1 1020.73 1521)">0.01</text></g><g clip-path="url(#clip16)"><text fill="#595959" font-family="Calibri,Calibri_MSFontService,sans-serif" font-weight="400" font-size="41" transform="matrix(1 0 0 1 1020.73 1384)">0.02</text></g><g clip-path="url(#clip17)"><text fill="#595959" font-family="Calibri,Calibri_MSFontService,sans-serif" font-weight="400" font-size="41" transform="matrix(1 0 0 1 1020.73 1246)">0.03</text></g><g clip-path="url(#clip18)"><text fill="#595959" font-family="Calibri,Calibri_MSFontService,sans-serif" font-weight="400" font-size="41" transform="matrix(1 0 0 1 1020.73 1109)">0.04</text></g><g clip-path="url(#clip19)"><text fill="#595959" font-family="Calibri,Calibri_MSFontService,sans-serif" font-weight="400" font-size="41" transform="matrix(1 0 0 1 1020.73 971)">0.05</text></g><g clip-path="url(#clip20)"><text fill="#595959" font-family="Calibri,Calibri_MSFontService,sans-serif" font-weight="400" font-size="41" transform="matrix(1 0 0 1 1020.73 833)">0.06</text></g><g clip-path="url(#clip21)"><text fill="#595959" font-family="Calibri,Calibri_MSFontService,sans-serif" font-weight="400" font-size="41" transform="matrix(1 0 0 1 1020.73 696)">0.07</text></g><g clip-path="url(#clip22)"><text fill="#595959" font-family="Calibri,Calibri_MSFontService,sans-serif" font-weight="400" font-size="41" transform="matrix(1 0 0 1 1020.73 558)">0.08</text></g><g clip-path="url(#clip23)"><text fill="#595959" font-family="Calibri,Calibri_MSFontService,sans-serif" font-weight="400" font-size="41" transform="matrix(1 0 0 1 1121.65 1712)">0</text></g><g clip-path="url(#clip24)"><text fill="#595959" font-family="Calibri,Calibri_MSFontService,sans-serif" font-weight="400" font-size="41" transform="matrix(1 0 0 1 1408.05 1712)">20</text></g><g clip-path="url(#clip25)"><text fill="#595959" font-family="Calibri,Calibri_MSFontService,sans-serif" font-weight="400" font-size="41" transform="matrix(1 0 0 1 1704.9 1712)">40</text></g><g clip-path="url(#clip26)"><text fill="#595959" font-family="Calibri,Calibri_MSFontService,sans-serif" font-weight="400" font-size="41" transform="matrix(1 0 0 1 2001.75 1712)">60</text></g><g clip-path="url(#clip27)"><text fill="#595959" font-family="Calibri,Calibri_MSFontService,sans-serif" font-weight="400" font-size="41" transform="matrix(1 0 0 1 2298.59 1712)">80</text></g><g clip-path="url(#clip28)"><text fill="#595959" font-family="Calibri,Calibri_MSFontService,sans-serif" font-weight="400" font-size="41" transform="matrix(1 0 0 1 2584.99 1712)">100</text></g><g clip-path="url(#clip29)"><text fill="#595959" font-family="Calibri,Calibri_MSFontService,sans-serif" font-weight="400" font-size="41" transform="matrix(1 0 0 1 2881.84 1712)">120</text></g><g clip-path="url(#clip30)"><text fill="#595959" font-family="Calibri,Calibri_MSFontService,sans-serif" font-weight="400" font-size="46" transform="matrix(6.12323e-17 -1 1 6.12323e-17 995.042 1205)">Temps [ms]</text></g><g clip-path="url(#clip31)"><text fill="#595959" font-family="Calibri,Calibri_MSFontService,sans-serif" font-weight="400" font-size="46" transform="matrix(1 0 0 1 1953.01 1782)">Valeurs</text></g><g clip-path="url(#clip32)"><text fill="#595959" font-family="Calibri,Calibri_MSFontService,sans-serif" font-weight="400" font-size="64" transform="matrix(1 0 0 1 1927.43 472)">Temps Croissant</text></g><g clip-path="url(#clip33)"><path d="M3016.5 1018.5 3104.5 1018.5" stroke="#4472C4" stroke-width="6.875" stroke-linecap="round" stroke-linejoin="round" stroke-miterlimit="10" fill="none" fill-rule="evenodd"/></g><g clip-path="url(#clip34)"><path d="M3071 1018C3071 1024.07 3066.07 1029 3060 1029 3053.92 1029 3049 1024.07 3049 1018 3049 1011.92 3053.92 1007 3060 1007 3066.07 1007 3071 1011.92 3071 1018Z" stroke="#4472C4" stroke-width="3.4375" stroke-linejoin="round" stroke-miterlimit="10" fill="#4472C4"/></g><g clip-path="url(#clip35)"><text fill="#595959" font-family="Calibri,Calibri_MSFontService,sans-serif" font-weight="400" font-size="41" transform="matrix(1 0 0 1 3113.55 1030)">BubbleSort</text></g><g clip-path="url(#clip36)"><path d="M3016.5 1096.5 3104.5 1096.5" stroke="#ED7D31" stroke-width="6.875" stroke-linecap="round" stroke-linejoin="round" stroke-miterlimit="10" fill="none" fill-rule="evenodd"/></g><g clip-path="url(#clip37)"><path d="M3071 1096C3071 1102.07 3066.07 1107 3060 1107 3053.92 1107 3049 1102.07 3049 1096 3049 1089.92 3053.92 1085 3060 1085 3066.07 1085 3071 1089.92 3071 1096Z" stroke="#ED7D31" stroke-width="3.4375" stroke-linejoin="round" stroke-miterlimit="10" fill="#ED7D31"/></g><g clip-path="url(#clip38)"><text fill="#595959" font-family="Calibri,Calibri_MSFontService,sans-serif" font-weight="400" font-size="41" transform="matrix(1 0 0 1 3113.55 1108)">InsertionSort</text></g><g clip-path="url(#clip39)"><path d="M3016.5 1173.5 3104.5 1173.5" stroke="#A5A5A5" stroke-width="6.875" stroke-linecap="round" stroke-linejoin="round" stroke-miterlimit="10" fill="none" fill-rule="evenodd"/></g><g clip-path="url(#clip40)"><path d="M3071 1173C3071 1179.07 3066.07 1184 3060 1184 3053.92 1184 3049 1179.07 3049 1173 3049 1166.92 3053.92 1162 3060 1162 3066.07 1162 3071 1166.92 3071 1173Z" stroke="#A5A5A5" stroke-width="3.4375" stroke-linejoin="round" stroke-miterlimit="10" fill="#A5A5A5"/></g><g clip-path="url(#clip41)"><text fill="#595959" font-family="Calibri,Calibri_MSFontService,sans-serif" font-weight="400" font-size="41" transform="matrix(1 0 0 1 3113.55 1185)">SelectionSort</text></g><g clip-path="url(#clip42)"><path d="M3016.5 1250.5 3104.5 1250.5" stroke="#FFC000" stroke-width="6.875" stroke-linecap="round" stroke-linejoin="round" stroke-miterlimit="10" fill="none" fill-rule="evenodd"/></g><g clip-path="url(#clip43)"><path d="M3071 1250C3071 1256.07 3066.07 1261 3060 1261 3053.92 1261 3049 1256.07 3049 1250 3049 1243.92 3053.92 1239 3060 1239 3066.07 1239 3071 1243.92 3071 1250Z" stroke="#FFC000" stroke-width="3.4375" stroke-linejoin="round" stroke-miterlimit="10" fill="#FFC000"/></g><g clip-path="url(#clip44)"><text fill="#595959" font-family="Calibri,Calibri_MSFontService,sans-serif" font-weight="400" font-size="41" transform="matrix(1 0 0 1 3113.55 1262)">Sort</text></g><g clip-path="url(#clip45)"><path d="M3016.5 1328.5 3104.5 1328.5" stroke="#5B9BD5" stroke-width="6.875" stroke-linecap="round" stroke-linejoin="round" stroke-miterlimit="10" fill="none" fill-rule="evenodd"/></g><g clip-path="url(#clip46)"><path d="M3071 1328C3071 1334.07 3066.07 1339 3060 1339 3053.92 1339 3049 1334.07 3049 1328 3049 1321.92 3053.92 1317 3060 1317 3066.07 1317 3071 1321.92 3071 1328Z" stroke="#5B9BD5" stroke-width="3.4375" stroke-linejoin="round" stroke-miterlimit="10" fill="#5B9BD5"/></g><g clip-path="url(#clip47)"><text fill="#595959" font-family="Calibri,Calibri_MSFontService,sans-serif" font-weight="400" font-size="41" transform="matrix(1 0 0 1 3113.55 1340)">StableSort</text></g><rect x="894.5" y="377.5" width="2488" height="1474" stroke="#D9D9D9" stroke-width="3.4375" stroke-linejoin="round" stroke-miterlimit="10" fill="none"/></g></svg>