<svg width="2592" height="1352" xmlns="http://www.w3.org/2000/svg" xmlns:xlink="http://www.w3.org/1999/xlink" xml:space="preserve" overflow="hidden"><defs><clipPath id="clip0"><rect x="858" y="527" width="2592" height="1352"/></clipPath><clipPath id="clip1"><rect x="859" y="527" width="2588" height="1349"/></clipPath><clipPath id="clip2"><rect x="859" y="527" width="2588" height="1349"/></clipPath><clipPath id="clip3"><rect x="859" y="527" width="2588" height="1349"/></clipPath><clipPath id="clip4"><rect x="1097" y="697" width="1884" height="979"/></clipPath><clipPath id="clip5"><rect x="859" y="527" width="2588" height="1349"/></clipPath><clipPath id="clip6"><rect x="1097" y="697" width="1884" height="979"/></clipPath><clipPath id="clip7"><rect x="859" y="527" width="2588" height="1349"/></clipPath><clipPath id="clip8"><rect x="1097" y="697" width="1884" height="979"/></clipPath><clipPath id="clip9"><rect x="859" y="527" width="2588" height="1349"/></clipPath><clipPath id="clip10"><rect x="1097" y="697" width="1884" height="979"/></clipPath><clipPath id="clip11"><rect x="859" y="527" width="2588" height="1349"/></clipPath><clipPath id="clip12"><rect x="1097" y="697" width="1884" height="979"/></clipPath><clipPath id="clip13"><rect x="859" y="527" width="2588" height="1349"/></clipPath><clipPath id="clip14"><rect x="859" y="527" width="2588" height="1349"/></clipPath><clipPath id="clip15"><rect x="859" y="527" width="2588" height="1349"/></clipPath><clipPath id="clip16"><rect x="859" y="527" width="2588" height="1349"/></clipPath><clipPath id="clip17"><rect x="859" y="527" width="2588" height="1349"/></clipPath><clipPath id="clip18"><rect x="859" y="527" width="2588" height="1349"/></clipPath><clipPath id="clip19"><rect x="859" y="527" width="2588" height="1349"/></clipPath><clipPath id="clip20"><rect x="859" y="527" width="2588" height="1349"/></clipPath><clipPath id="clip21"><rect x="859" y="527" width="2588" height="1349"/></clipPath><clipPath id="clip22"><rect x="859" y="527" width="2588" height="1349"/></clipPath><clipPath id="clip23"><rect x="859" y="527" width="2588" height="1349"/></clipPath><clipPath id="clip24"><rect x="859" y="527" width="2588" height="1349"/></clipPath><clipPath id="clip25"><rect x="859" y="527" width="2588" height="1349"/></clipPath><clipPath id="clip26"><rect x="859" y="527" width="2588" height="1349"/></clipPath><clipPath id="clip27"><rect x="859" y="527" width="2588" height="1349"/></clipPath><clipPath id="clip28"><rect x="859" y="527" width="2588" height="1349"/></clipPath><clipPath id="clip29"><rect x="859" y="527" width="2588" height="1349"/></clipPath><clipPath id="clip30"><rect x="859" y="527" width="2588" height="1349"/></clipPath><clipPath id="clip31"><rect x="859" y="527" width="2588" height="1349"/></clipPath><clipPath id="clip32"><rect x="859" y="527" width="2588" height="1349"/></clipPath><clipPath id="clip33"><rect x="859" y="527" width="2588" height="1349"/></clipPath><clipPath id="clip34"><rect x="859" y="527" width="2588" height="1349"/></clipPath><clipPath id="clip35"><rect x="859" y="527" width="2588" height="1349"/></clipPath><clipPath id="clip36"><rect x="859" y="527" width="2588" height="1349"/></clipPath><clipPath id="clip37"><rect x="859" y="527" width="2588" height="1349"/></clipPath><clipPath id="clip38"><rect x="859" y="527" width="2588" height="1349"/></clipPath><clipPath id="clip39"><rect x="859" y="527" width="2588" height="1349"/></clipPath><clipPath id="clip40"><rect x="859" y="527" width="2588" height="1349"/></clipPath><clipPath id="clip41"><rect x="859" y="527" width="2588" height="1349"/></clipPath><clipPath id="clip42"><rect x="859" y="527" width="2588" height="1349"/></clipPath><clipPath id="clip43"><rect x="859" y="527" width="2588" height="1349"/></clipPath><clipPath id="clip44"><rect x="859" y="527" width="2588" height="1349"/></clipPath><clipPath id="clip45"><rect x="859" y="527" width="2588" height="1349"/></clipPath><clipPath id="clip46"><rect x="859" y="527" width="2588" height="1349"/></clipPath></defs><g clip-path="url(#clip0)" transform="translate(-858 -527)"><rect x="859" y="528" width="2589" height="1349" fill="#FFFFFF"/><g clip-path="url(#clip1)"><path d="M1097.5 1533.55 2978.5 1533.55M1097.5 1394.55 2978.5 1394.55M1097.5 1255.54 2978.5 1255.54M1097.5 1115.54 2978.5 1115.54M1097.5 976.532 2978.5 976.532M1097.5 837.528 2978.5 837.528M1097.5 697.5 2978.5 697.5" stroke="#D9D9D9" stroke-width="3.4375" stroke-linejoin="round" stroke-miterlimit="10" fill="none"/></g><g clip-path="url(#clip2)"><path d="M0 0 0.000360892 976" stroke="#BFBFBF" stroke-width="3.4375" stroke-linejoin="round" stroke-miterlimit="10" fill="none" fill-rule="evenodd" transform="matrix(1 0 0 -1 1097.5 1673.5)"/></g><g clip-path="url(#clip3)"><path d="M1097.5 1673.5 2978.5 1673.5" stroke="#BFBFBF" stroke-width="3.4375" stroke-linejoin="round" stroke-miterlimit="10" fill="none" fill-rule="evenodd"/></g><g clip-path="url(#clip4)"><path d="M1254.5 1657.5C1306.76 1650.53 1359.02 1647.05 1411.28 1636.6 1463.54 1626.15 1515.8 1611.63 1568.06 1594.8 1620.31 1577.96 1672.57 1557.87 1724.83 1535.58 1777.09 1513.29 1829.35 1489.37 1881.61 1461.03 1933.87 1432.7 1986.13 1399.03 2038.39 1365.59 2090.65 1332.15 2142.91 1299.4 2195.17 1260.39 2247.43 1221.37 2299.69 1175.86 2351.94 1131.5 2404.2 1087.15 2456.46 1043.25 2508.72 994.254 2560.98 945.254 2613.24 889.751 2665.5 837.5" stroke="#4472C4" stroke-width="6.875" stroke-linecap="round" stroke-linejoin="round" stroke-miterlimit="10" fill="none"/></g><g clip-path="url(#clip5)"><path d="M1265.87 1657.16C1265.87 1663.23 1260.95 1668.16 1254.87 1668.16 1248.8 1668.16 1243.87 1663.23 1243.87 1657.16 1243.87 1651.08 1248.8 1646.16 1254.87 1646.16 1260.95 1646.16 1265.87 1651.08 1265.87 1657.16Z" stroke="#4472C4" stroke-width="3.4375" stroke-linejoin="round" stroke-miterlimit="10" fill="#4472C4"/><path d="M1422.87 1636.16C1422.87 1642.23 1417.95 1647.16 1411.87 1647.16 1405.8 1647.16 1400.87 1642.23 1400.87 1636.16 1400.87 1630.08 1405.8 1625.16 1411.87 1625.16 1417.95 1625.16 1422.87 1630.08 1422.87 1636.16Z" stroke="#4472C4" stroke-width="3.4375" stroke-linejoin="round" stroke-miterlimit="10" fill="#4472C4"/><path d="M1578.87 1594.16C1578.87 1600.23 1573.95 1605.16 1567.87 1605.16 1561.8 1605.16 1556.87 1600.23 1556.87 1594.16 1556.87 1588.08 1561.8 1583.16 1567.87 1583.16 1573.95 1583.16 1578.87 1588.08 1578.87 1594.16Z" stroke="#4472C4" stroke-width="3.4375" stroke-linejoin="round" stroke-miterlimit="10" fill="#4472C4"/><path d="M1735.87 1535.16C1735.87 1541.23 1730.95 1546.16 1724.87 1546.16 1718.8 1546.16 1713.87 1541.23 1713.87 1535.16 1713.87 1529.08 1718.8 1524.16 1724.87 1524.16 1730.95 1524.16 1735.87 1529.08 1735.87 1535.16Z" stroke="#4472C4" stroke-width="3.4375" stroke-linejoin="round" stroke-miterlimit="10" fill="#4472C4"/><path d="M1892.87 1460.16C1892.87 1466.23 1887.95 1471.16 1881.87 1471.16 1875.8 1471.16 1870.87 1466.23 1870.87 1460.16 1870.87 1454.08 1875.8 1449.16 1881.87 1449.16 1887.95 1449.16 1892.87 1454.08 1892.87 1460.16Z" stroke="#4472C4" stroke-width="3.4375" stroke-linejoin="round" stroke-miterlimit="10" fill="#4472C4"/><path d="M2049.87 1365.16C2049.87 1371.23 2044.95 1376.15 2038.87 1376.15 2032.8 1376.15 2027.87 1371.23 2027.87 1365.16 2027.87 1359.08 2032.8 1354.16 2038.87 1354.16 2044.95 1354.16 2049.87 1359.08 2049.87 1365.16Z" stroke="#4472C4" stroke-width="3.4375" stroke-linejoin="round" stroke-miterlimit="10" fill="#4472C4"/><path d="M2205.87 1260.16C2205.87 1266.23 2200.95 1271.16 2194.87 1271.16 2188.8 1271.16 2183.87 1266.23 2183.87 1260.16 2183.87 1254.08 2188.8 1249.16 2194.87 1249.16 2200.95 1249.16 2205.87 1254.08 2205.87 1260.16Z" stroke="#4472C4" stroke-width="3.4375" stroke-linejoin="round" stroke-miterlimit="10" fill="#4472C4"/><path d="M2362.87 1131.16C2362.87 1137.23 2357.95 1142.16 2351.87 1142.16 2345.8 1142.16 2340.87 1137.23 2340.87 1131.16 2340.87 1125.08 2345.8 1120.16 2351.87 1120.16 2357.95 1120.16 2362.87 1125.08 2362.87 1131.16Z" stroke="#4472C4" stroke-width="3.4375" stroke-linejoin="round" stroke-miterlimit="10" fill="#4472C4"/><path d="M2519.87 993.155C2519.87 999.23 2514.95 1004.15 2508.87 1004.15 2502.8 1004.15 2497.87 999.23 2497.87 993.155 2497.87 987.08 2502.8 982.156 2508.87 982.156 2514.95 982.156 2519.87 987.08 2519.87 993.155Z" stroke="#4472C4" stroke-width="3.4375" stroke-linejoin="round" stroke-miterlimit="10" fill="#4472C4"/><path d="M2676.87 837.155C2676.87 843.23 2671.95 848.155 2665.87 848.155 2659.8 848.155 2654.87 843.23 2654.87 837.155 2654.87 831.08 2659.8 826.156 2665.87 826.156 2671.95 826.156 2676.87 831.08 2676.87 837.155Z" stroke="#4472C4" stroke-width="3.4375" stroke-linejoin="round" stroke-miterlimit="10" fill="#4472C4"/></g><g clip-path="url(#clip6)"><path d="M1254.5 1664.5C1306.76 1658.93 1359.02 1655.21 1411.28 1647.78 1463.54 1640.35 1515.8 1630.94 1568.06 1619.91 1620.31 1608.88 1672.57 1596.22 1724.83 1581.59 1777.09 1566.96 1829.35 1551.63 1881.61 1532.12 1933.87 1512.61 1986.13 1488.11 2038.39 1464.54 2090.65 1440.96 2142.91 1417.39 2195.17 1390.68 2247.43 1363.97 2299.69 1334.48 2351.94 1304.28 2404.2 1274.09 2456.46 1242.16 2508.72 1209.53 2560.98 1176.9 2613.24 1142.18 2665.5 1108.5" stroke="#ED7D31" stroke-width="6.875" stroke-linecap="round" stroke-linejoin="round" stroke-miterlimit="10" fill="none"/></g><g clip-path="url(#clip7)"><path d="M1265.87 1664.16C1265.87 1670.23 1260.95 1675.15 1254.87 1675.15 1248.8 1675.15 1243.87 1670.23 1243.87 1664.16 1243.87 1658.08 1248.8 1653.16 1254.87 1653.16 1260.95 1653.16 1265.87 1658.08 1265.87 1664.16Z" stroke="#ED7D31" stroke-width="3.4375" stroke-linejoin="round" stroke-miterlimit="10" fill="#ED7D31"/><path d="M1422.87 1648.16C1422.87 1654.23 1417.95 1659.16 1411.87 1659.16 1405.8 1659.16 1400.87 1654.23 1400.87 1648.16 1400.87 1642.08 1405.8 1637.16 1411.87 1637.16 1417.95 1637.16 1422.87 1642.08 1422.87 1648.16Z" stroke="#ED7D31" stroke-width="3.4375" stroke-linejoin="round" stroke-miterlimit="10" fill="#ED7D31"/><path d="M1578.87 1620.16C1578.87 1626.23 1573.95 1631.15 1567.87 1631.15 1561.8 1631.15 1556.87 1626.23 1556.87 1620.16 1556.87 1614.08 1561.8 1609.16 1567.87 1609.16 1573.95 1609.16 1578.87 1614.08 1578.87 1620.16Z" stroke="#ED7D31" stroke-width="3.4375" stroke-linejoin="round" stroke-miterlimit="10" fill="#ED7D31"/><path d="M1735.87 1582.16C1735.87 1588.23 1730.95 1593.16 1724.87 1593.16 1718.8 1593.16 1713.87 1588.23 1713.87 1582.16 1713.87 1576.08 1718.8 1571.16 1724.87 1571.16 1730.95 1571.16 1735.87 1576.08 1735.87 1582.16Z" stroke="#ED7D31" stroke-width="3.4375" stroke-linejoin="round" stroke-miterlimit="10" fill="#ED7D31"/><path d="M1892.87 1532.16C1892.87 1538.23 1887.95 1543.15 1881.87 1543.15 1875.8 1543.15 1870.87 1538.23 1870.87 1532.16 1870.87 1526.08 1875.8 1521.16 1881.87 1521.16 1887.95 1521.16 1892.87 1526.08 1892.87 1532.16Z" stroke="#ED7D31" stroke-width="3.4375" stroke-linejoin="round" stroke-miterlimit="10" fill="#ED7D31"/><path d="M2049.87 1464.16C2049.87 1470.23 2044.95 1475.15 2038.87 1475.15 2032.8 1475.15 2027.87 1470.23 2027.87 1464.16 2027.87 1458.08 2032.8 1453.16 2038.87 1453.16 2044.95 1453.16 2049.87 1458.08 2049.87 1464.16Z" stroke="#ED7D31" stroke-width="3.4375" stroke-linejoin="round" stroke-miterlimit="10" fill="#ED7D31"/><path d="M2205.87 1391.16C2205.87 1397.23 2200.95 1402.16 2194.87 1402.16 2188.8 1402.16 2183.87 1397.23 2183.87 1391.16 2183.87 1385.08 2188.8 1380.16 2194.87 1380.16 2200.95 1380.16 2205.87 1385.08 2205.87 1391.16Z" stroke="#ED7D31" stroke-width="3.4375" stroke-linejoin="round" stroke-miterlimit="10" fill="#ED7D31"/><path d="M2362.87 1304.16C2362.87 1310.23 2357.95 1315.16 2351.87 1315.16 2345.8 1315.16 2340.87 1310.23 2340.87 1304.16 2340.87 1298.08 2345.8 1293.16 2351.87 1293.16 2357.95 1293.16 2362.87 1298.08 2362.87 1304.16Z" stroke="#ED7D31" stroke-width="3.4375" stroke-linejoin="round" stroke-miterlimit="10" fill="#ED7D31"/><path d="M2519.87 1209.16C2519.87 1215.23 2514.95 1220.16 2508.87 1220.16 2502.8 1220.16 2497.87 1215.23 2497.87 1209.16 2497.87 1203.08 2502.8 1198.16 2508.87 1198.16 2514.95 1198.16 2519.87 1203.08 2519.87 1209.16Z" stroke="#ED7D31" stroke-width="3.4375" stroke-linejoin="round" stroke-miterlimit="10" fill="#ED7D31"/><path d="M2676.87 1108.16C2676.87 1114.23 2671.95 1119.16 2665.87 1119.16 2659.8 1119.16 2654.87 1114.23 2654.87 1108.16 2654.87 1102.08 2659.8 1097.16 2665.87 1097.16 2671.95 1097.16 2676.87 1102.08 2676.87 1108.16Z" stroke="#ED7D31" stroke-width="3.4375" stroke-linejoin="round" stroke-miterlimit="10" fill="#ED7D31"/></g><g clip-path="url(#clip8)"><path d="M1254.5 1665.5C1306.76 1662.48 1359.02 1660.39 1411.28 1656.44 1463.54 1652.49 1515.8 1647.72 1568.06 1641.8 1620.31 1635.87 1672.57 1628.66 1724.83 1620.88 1777.09 1613.09 1829.35 1604.49 1881.61 1595.08 1933.87 1585.67 1986.13 1575.68 2038.39 1564.41 2090.65 1553.13 2142.91 1540.35 2195.17 1527.45 2247.43 1514.56 2299.69 1501.31 2351.94 1487.02 2404.2 1472.72 2456.46 1457.62 2508.72 1441.7 2560.98 1425.78 2613.24 1408.23 2665.5 1391.5" stroke="#A5A5A5" stroke-width="6.875" stroke-linecap="round" stroke-linejoin="round" stroke-miterlimit="10" fill="none"/></g><g clip-path="url(#clip9)"><path d="M1265.87 1665.16C1265.87 1671.23 1260.95 1676.16 1254.87 1676.16 1248.8 1676.16 1243.87 1671.23 1243.87 1665.16 1243.87 1659.08 1248.8 1654.16 1254.87 1654.16 1260.95 1654.16 1265.87 1659.08 1265.87 1665.16Z" stroke="#A5A5A5" stroke-width="3.4375" stroke-linejoin="round" stroke-miterlimit="10" fill="#A5A5A5"/><path d="M1422.87 1656.16C1422.87 1662.23 1417.95 1667.16 1411.87 1667.16 1405.8 1667.16 1400.87 1662.23 1400.87 1656.16 1400.87 1650.08 1405.8 1645.16 1411.87 1645.16 1417.95 1645.16 1422.87 1650.08 1422.87 1656.16Z" stroke="#A5A5A5" stroke-width="3.4375" stroke-linejoin="round" stroke-miterlimit="10" fill="#A5A5A5"/><path d="M1578.87 1641.16C1578.87 1647.23 1573.95 1652.15 1567.87 1652.15 1561.8 1652.15 1556.87 1647.23 1556.87 1641.16 1556.87 1635.08 1561.8 1630.16 1567.87 1630.16 1573.95 1630.16 1578.87 1635.08 1578.87 1641.16Z" stroke="#A5A5A5" stroke-width="3.4375" stroke-linejoin="round" stroke-miterlimit="10" fill="#A5A5A5"/><path d="M1735.87 1621.16C1735.87 1627.23 1730.95 1632.16 1724.87 1632.16 1718.8 1632.16 1713.87 1627.23 1713.87 1621.16 1713.87 1615.08 1718.8 1610.16 1724.87 1610.16 1730.95 1610.16 1735.87 1615.08 1735.87 1621.16Z" stroke="#A5A5A5" stroke-width="3.4375" stroke-linejoin="round" stroke-miterlimit="10" fill="#A5A5A5"/><path d="M1892.87 1595.16C1892.87 1601.23 1887.95 1606.16 1881.87 1606.16 1875.8 1606.16 1870.87 1601.23 1870.87 1595.16 1870.87 1589.08 1875.8 1584.16 1881.87 1584.16 1887.95 1584.16 1892.87 1589.08 1892.87 1595.16Z" stroke="#A5A5A5" stroke-width="3.4375" stroke-linejoin="round" stroke-miterlimit="10" fill="#A5A5A5"/><path d="M2049.87 1564.16C2049.87 1570.23 2044.95 1575.15 2038.87 1575.15 2032.8 1575.15 2027.87 1570.23 2027.87 1564.16 2027.87 1558.08 2032.8 1553.16 2038.87 1553.16 2044.95 1553.16 2049.87 1558.08 2049.87 1564.16Z" stroke="#A5A5A5" stroke-width="3.4375" stroke-linejoin="round" stroke-miterlimit="10" fill="#A5A5A5"/><path d="M2205.87 1527.16C2205.87 1533.23 2200.95 1538.16 2194.87 1538.16 2188.8 1538.16 2183.87 1533.23 2183.87 1527.16 2183.87 1521.08 2188.8 1516.16 2194.87 1516.16 2200.95 1516.16 2205.87 1521.08 2205.87 1527.16Z" stroke="#A5A5A5" stroke-width="3.4375" stroke-linejoin="round" stroke-miterlimit="10" fill="#A5A5A5"/><path d="M2362.87 1487.16C2362.87 1493.23 2357.95 1498.15 2351.87 1498.15 2345.8 1498.15 2340.87 1493.23 2340.87 1487.16 2340.87 1481.08 2345.8 1476.16 2351.87 1476.16 2357.95 1476.16 2362.87 1481.08 2362.87 1487.16Z" stroke="#A5A5A5" stroke-width="3.4375" stroke-linejoin="round" stroke-miterlimit="10" fill="#A5A5A5"/><path d="M2519.87 1441.16C2519.87 1447.23 2514.95 1452.16 2508.87 1452.16 2502.8 1452.16 2497.87 1447.23 2497.87 1441.16 2497.87 1435.08 2502.8 1430.16 2508.87 1430.16 2514.95 1430.16 2519.87 1435.08 2519.87 1441.16Z" stroke="#A5A5A5" stroke-width="3.4375" stroke-linejoin="round" stroke-miterlimit="10" fill="#A5A5A5"/><path d="M2676.87 1391.16C2676.87 1397.23 2671.95 1402.16 2665.87 1402.16 2659.8 1402.16 2654.87 1397.23 2654.87 1391.16 2654.87 1385.08 2659.8 1380.16 2665.87 1380.16 2671.95 1380.16 2676.87 1385.08 2676.87 1391.16Z" stroke="#A5A5A5" stroke-width="3.4375" stroke-linejoin="round" stroke-miterlimit="10" fill="#A5A5A5"/></g><g clip-path="url(#clip10)"><path d="M1254.5 1665.5C1306.76 1664.35 1359.02 1662.64 1411.28 1662.06 1463.54 1661.49 1515.8 1662.98 1568.06 1662.06 1620.31 1661.15 1672.57 1657.94 1724.83 1656.57 1777.09 1655.19 1829.35 1654.85 1881.61 1653.82 1933.87 1652.79 1986.13 1652.1 2038.39 1650.38 2090.65 1648.66 2142.91 1645.23 2195.17 1643.51 2247.43 1641.79 2299.69 1643.05 2351.94 1640.08 2404.2 1637.1 2456.46 1626.79 2508.72 1625.65 2560.98 1624.5 2613.24 1630.68 2665.5 1633.2" stroke="#FFC000" stroke-width="6.875" stroke-linecap="round" stroke-linejoin="round" stroke-miterlimit="10" fill="none"/></g><g clip-path="url(#clip11)"><path d="M1265.87 1665.16C1265.87 1671.23 1260.95 1676.16 1254.87 1676.16 1248.8 1676.16 1243.87 1671.23 1243.87 1665.16 1243.87 1659.08 1248.8 1654.16 1254.87 1654.16 1260.95 1654.16 1265.87 1659.08 1265.87 1665.16Z" stroke="#FFC000" stroke-width="3.4375" stroke-linejoin="round" stroke-miterlimit="10" fill="#FFC000"/><path d="M1422.87 1662.16C1422.87 1668.23 1417.95 1673.15 1411.87 1673.15 1405.8 1673.15 1400.87 1668.23 1400.87 1662.16 1400.87 1656.08 1405.8 1651.16 1411.87 1651.16 1417.95 1651.16 1422.87 1656.08 1422.87 1662.16Z" stroke="#FFC000" stroke-width="3.4375" stroke-linejoin="round" stroke-miterlimit="10" fill="#FFC000"/><path d="M1578.87 1662.16C1578.87 1668.23 1573.95 1673.15 1567.87 1673.15 1561.8 1673.15 1556.87 1668.23 1556.87 1662.16 1556.87 1656.08 1561.8 1651.16 1567.87 1651.16 1573.95 1651.16 1578.87 1656.08 1578.87 1662.16Z" stroke="#FFC000" stroke-width="3.4375" stroke-linejoin="round" stroke-miterlimit="10" fill="#FFC000"/><path d="M1735.87 1656.16C1735.87 1662.23 1730.95 1667.16 1724.87 1667.16 1718.8 1667.16 1713.87 1662.23 1713.87 1656.16 1713.87 1650.08 1718.8 1645.16 1724.87 1645.16 1730.95 1645.16 1735.87 1650.08 1735.87 1656.16Z" stroke="#FFC000" stroke-width="3.4375" stroke-linejoin="round" stroke-miterlimit="10" fill="#FFC000"/><path d="M1892.87 1653.16C1892.87 1659.23 1887.95 1664.15 1881.87 1664.15 1875.8 1664.15 1870.87 1659.23 1870.87 1653.16 1870.87 1647.08 1875.8 1642.16 1881.87 1642.16 1887.95 1642.16 1892.87 1647.08 1892.87 1653.16Z" stroke="#FFC000" stroke-width="3.4375" stroke-linejoin="round" stroke-miterlimit="10" fill="#FFC000"/><path d="M2049.87 1650.16C2049.87 1656.23 2044.95 1661.16 2038.87 1661.16 2032.8 1661.16 2027.87 1656.23 2027.87 1650.16 2027.87 1644.08 2032.8 1639.16 2038.87 1639.16 2044.95 1639.16 2049.87 1644.08 2049.87 1650.16Z" stroke="#FFC000" stroke-width="3.4375" stroke-linejoin="round" stroke-miterlimit="10" fill="#FFC000"/><path d="M2205.87 1643.16C2205.87 1649.23 2200.95 1654.16 2194.87 1654.16 2188.8 1654.16 2183.87 1649.23 2183.87 1643.16 2183.87 1637.08 2188.8 1632.16 2194.87 1632.16 2200.95 1632.16 2205.87 1637.08 2205.87 1643.16Z" stroke="#FFC000" stroke-width="3.4375" stroke-linejoin="round" stroke-miterlimit="10" fill="#FFC000"/><path d="M2362.87 1639.16C2362.87 1645.23 2357.95 1650.16 2351.87 1650.16 2345.8 1650.16 2340.87 1645.23 2340.87 1639.16 2340.87 1633.08 2345.8 1628.16 2351.87 1628.16 2357.95 1628.16 2362.87 1633.08 2362.87 1639.16Z" stroke="#FFC000" stroke-width="3.4375" stroke-linejoin="round" stroke-miterlimit="10" fill="#FFC000"/><path d="M2519.87 1625.16C2519.87 1631.23 2514.95 1636.16 2508.87 1636.16 2502.8 1636.16 2497.87 1631.23 2497.87 1625.16 2497.87 1619.08 2502.8 1614.16 2508.87 1614.16 2514.95 1614.16 2519.87 1619.08 2519.87 1625.16Z" stroke="#FFC000" stroke-width="3.4375" stroke-linejoin="round" stroke-miterlimit="10" fill="#FFC000"/><path d="M2676.87 1632.16C2676.87 1638.23 2671.95 1643.16 2665.87 1643.16 2659.8 1643.16 2654.87 1638.23 2654.87 1632.16 2654.87 1626.08 2659.8 1621.16 2665.87 1621.16 2671.95 1621.16 2676.87 1626.08 2676.87 1632.16Z" stroke="#FFC000" stroke-width="3.4375" stroke-linejoin="round" stroke-miterlimit="10" fill="#FFC000"/></g><g clip-path="url(#clip12)"><path d="M1254.5 1660.5C1306.76 1659.55 1359.02 1658.73 1411.28 1657.66 1463.54 1656.6 1515.8 1655.3 1568.06 1654.11 1620.31 1652.93 1672.57 1651.75 1724.83 1650.56 1777.09 1649.38 1829.35 1649.26 1881.61 1647.02 1933.87 1644.77 1986.13 1639.8 2038.39 1637.08 2090.65 1634.36 2142.91 1632.35 2195.17 1630.69 2247.43 1629.04 2299.69 1628.92 2351.94 1627.15 2404.2 1625.37 2456.46 1621.82 2508.72 1620.05 2560.98 1618.27 2613.24 1617.68 2665.5 1616.5" stroke="#5B9BD5" stroke-width="6.875" stroke-linecap="round" stroke-linejoin="round" stroke-miterlimit="10" fill="none"/></g><g clip-path="url(#clip13)"><path d="M1265.87 1660.16C1265.87 1666.23 1260.95 1671.16 1254.87 1671.16 1248.8 1671.16 1243.87 1666.23 1243.87 1660.16 1243.87 1654.08 1248.8 1649.16 1254.87 1649.16 1260.95 1649.16 1265.87 1654.08 1265.87 1660.16Z" stroke="#5B9BD5" stroke-width="3.4375" stroke-linejoin="round" stroke-miterlimit="10" fill="#5B9BD5"/><path d="M1422.87 1657.16C1422.87 1663.23 1417.95 1668.16 1411.87 1668.16 1405.8 1668.16 1400.87 1663.23 1400.87 1657.16 1400.87 1651.08 1405.8 1646.16 1411.87 1646.16 1417.95 1646.16 1422.87 1651.08 1422.87 1657.16Z" stroke="#5B9BD5" stroke-width="3.4375" stroke-linejoin="round" stroke-miterlimit="10" fill="#5B9BD5"/><path d="M1578.87 1653.16C1578.87 1659.23 1573.95 1664.15 1567.87 1664.15 1561.8 1664.15 1556.87 1659.23 1556.87 1653.16 1556.87 1647.08 1561.8 1642.16 1567.87 1642.16 1573.95 1642.16 1578.87 1647.08 1578.87 1653.16Z" stroke="#5B9BD5" stroke-width="3.4375" stroke-linejoin="round" stroke-miterlimit="10" fill="#5B9BD5"/><path d="M1735.87 1650.16C1735.87 1656.23 1730.95 1661.16 1724.87 1661.16 1718.8 1661.16 1713.87 1656.23 1713.87 1650.16 1713.87 1644.08 1718.8 1639.16 1724.87 1639.16 1730.95 1639.16 1735.87 1644.08 1735.87 1650.16Z" stroke="#5B9BD5" stroke-width="3.4375" stroke-linejoin="round" stroke-miterlimit="10" fill="#5B9BD5"/><path d="M1892.87 1646.16C1892.87 1652.23 1887.95 1657.16 1881.87 1657.16 1875.8 1657.16 1870.87 1652.23 1870.87 1646.16 1870.87 1640.08 1875.8 1635.16 1881.87 1635.16 1887.95 1635.16 1892.87 1640.08 1892.87 1646.16Z" stroke="#5B9BD5" stroke-width="3.4375" stroke-linejoin="round" stroke-miterlimit="10" fill="#5B9BD5"/><path d="M2049.87 1637.16C2049.87 1643.23 2044.95 1648.16 2038.87 1648.16 2032.8 1648.16 2027.87 1643.23 2027.87 1637.16 2027.87 1631.08 2032.8 1626.16 2038.87 1626.16 2044.95 1626.16 2049.87 1631.08 2049.87 1637.16Z" stroke="#5B9BD5" stroke-width="3.4375" stroke-linejoin="round" stroke-miterlimit="10" fill="#5B9BD5"/><path d="M2205.87 1630.16C2205.87 1636.23 2200.95 1641.15 2194.87 1641.15 2188.8 1641.15 2183.87 1636.23 2183.87 1630.16 2183.87 1624.08 2188.8 1619.16 2194.87 1619.16 2200.95 1619.16 2205.87 1624.08 2205.87 1630.16Z" stroke="#5B9BD5" stroke-width="3.4375" stroke-linejoin="round" stroke-miterlimit="10" fill="#5B9BD5"/><path d="M2362.87 1627.16C2362.87 1633.23 2357.95 1638.16 2351.87 1638.16 2345.8 1638.16 2340.87 1633.23 2340.87 1627.16 2340.87 1621.08 2345.8 1616.16 2351.87 1616.16 2357.95 1616.16 2362.87 1621.08 2362.87 1627.16Z" stroke="#5B9BD5" stroke-width="3.4375" stroke-linejoin="round" stroke-miterlimit="10" fill="#5B9BD5"/><path d="M2519.87 1620.16C2519.87 1626.23 2514.95 1631.15 2508.87 1631.15 2502.8 1631.15 2497.87 1626.23 2497.87 1620.16 2497.87 1614.08 2502.8 1609.16 2508.87 1609.16 2514.95 1609.16 2519.87 1614.08 2519.87 1620.16Z" stroke="#5B9BD5" stroke-width="3.4375" stroke-linejoin="round" stroke-miterlimit="10" fill="#5B9BD5"/><path d="M2676.87 1616.16C2676.87 1622.23 2671.95 1627.16 2665.87 1627.16 2659.8 1627.16 2654.87 1622.23 2654.87 1616.16 2654.87 1610.08 2659.8 1605.16 2665.87 1605.16 2671.95 1605.16 2676.87 1610.08 2676.87 1616.16Z" stroke="#5B9BD5" stroke-width="3.4375" stroke-linejoin="round" stroke-miterlimit="10" fill="#5B9BD5"/></g><g clip-path="url(#clip14)"><text fill="#595959" font-family="Calibri,Calibri_MSFontService,sans-serif" font-weight="400" font-size="41" transform="matrix(1 0 0 1 1038.56 1685)">0</text></g><g clip-path="url(#clip15)"><text fill="#595959" font-family="Calibri,Calibri_MSFontService,sans-serif" font-weight="400" font-size="41" transform="matrix(1 0 0 1 986.356 1546)">0.02</text></g><g clip-path="url(#clip16)"><text fill="#595959" font-family="Calibri,Calibri_MSFontService,sans-serif" font-weight="400" font-size="41" transform="matrix(1 0 0 1 986.356 1406)">0.04</text></g><g clip-path="url(#clip17)"><text fill="#595959" font-family="Calibri,Calibri_MSFontService,sans-serif" font-weight="400" font-size="41" transform="matrix(1 0 0 1 986.356 1267)">0.06</text></g><g clip-path="url(#clip18)"><text fill="#595959" font-family="Calibri,Calibri_MSFontService,sans-serif" font-weight="400" font-size="41" transform="matrix(1 0 0 1 986.356 1127)">0.08</text></g><g clip-path="url(#clip19)"><text fill="#595959" font-family="Calibri,Calibri_MSFontService,sans-serif" font-weight="400" font-size="41" transform="matrix(1 0 0 1 1007.26 988)">0.1</text></g><g clip-path="url(#clip20)"><text fill="#595959" font-family="Calibri,Calibri_MSFontService,sans-serif" font-weight="400" font-size="41" transform="matrix(1 0 0 1 986.356 849)">0.12</text></g><g clip-path="url(#clip21)"><text fill="#595959" font-family="Calibri,Calibri_MSFontService,sans-serif" font-weight="400" font-size="41" transform="matrix(1 0 0 1 986.356 709)">0.14</text></g><g clip-path="url(#clip22)"><text fill="#595959" font-family="Calibri,Calibri_MSFontService,sans-serif" font-weight="400" font-size="41" transform="matrix(1 0 0 1 1087.28 1739)">0</text></g><g clip-path="url(#clip23)"><text fill="#595959" font-family="Calibri,Calibri_MSFontService,sans-serif" font-weight="400" font-size="41" transform="matrix(1 0 0 1 1390.29 1739)">20</text></g><g clip-path="url(#clip24)"><text fill="#595959" font-family="Calibri,Calibri_MSFontService,sans-serif" font-weight="400" font-size="41" transform="matrix(1 0 0 1 1703.75 1739)">40</text></g><g clip-path="url(#clip25)"><text fill="#595959" font-family="Calibri,Calibri_MSFontService,sans-serif" font-weight="400" font-size="41" transform="matrix(1 0 0 1 2017.21 1739)">60</text></g><g clip-path="url(#clip26)"><text fill="#595959" font-family="Calibri,Calibri_MSFontService,sans-serif" font-weight="400" font-size="41" transform="matrix(1 0 0 1 2330.68 1739)">80</text></g><g clip-path="url(#clip27)"><text fill="#595959" font-family="Calibri,Calibri_MSFontService,sans-serif" font-weight="400" font-size="41" transform="matrix(1 0 0 1 2633.69 1739)">100</text></g><g clip-path="url(#clip28)"><text fill="#595959" font-family="Calibri,Calibri_MSFontService,sans-serif" font-weight="400" font-size="41" transform="matrix(1 0 0 1 2947.15 1739)">120</text></g><g clip-path="url(#clip29)"><text fill="#595959" font-family="Calibri,Calibri_MSFontService,sans-serif" font-weight="400" font-size="46" transform="matrix(6.12323e-17 -1 1 6.12323e-17 960.666 1294)">Temps [ms]</text></g><g clip-path="url(#clip30)"><text fill="#595959" font-family="Calibri,Calibri_MSFontService,sans-serif" font-weight="400" font-size="46" transform="matrix(1 0 0 1 1860.72 1808)">Nombre de valeurs</text></g><g clip-path="url(#clip31)"><text fill="#595959" font-family="Calibri,Calibri_MSFontService,sans-serif" font-weight="400" font-size="64" transform="matrix(1 0 0 1 1896.69 623)">Vecteur decroissant</text></g><g clip-path="url(#clip32)"><path d="M3081.5 1107.5 3169.5 1107.5" stroke="#4472C4" stroke-width="6.875" stroke-linecap="round" stroke-linejoin="round" stroke-miterlimit="10" fill="none" fill-rule="evenodd"/></g><g clip-path="url(#clip33)"><path d="M3136 1107C3136 1113.07 3131.07 1118 3125 1118 3118.92 1118 3114 1113.07 3114 1107 3114 1100.92 3118.92 1096 3125 1096 3131.07 1096 3136 1100.92 3136 1107Z" stroke="#4472C4" stroke-width="3.4375" stroke-linejoin="round" stroke-miterlimit="10" fill="#4472C4"/></g><g clip-path="url(#clip34)"><text fill="#595959" font-family="Calibri,Calibri_MSFontService,sans-serif" font-weight="400" font-size="41" transform="matrix(1 0 0 1 3178.86 1119)">BubbleSort</text></g><g clip-path="url(#clip35)"><path d="M3081.5 1184.5 3169.5 1184.5" stroke="#ED7D31" stroke-width="6.875" stroke-linecap="round" stroke-linejoin="round" stroke-miterlimit="10" fill="none" fill-rule="evenodd"/></g><g clip-path="url(#clip36)"><path d="M3136 1184C3136 1190.07 3131.07 1195 3125 1195 3118.92 1195 3114 1190.07 3114 1184 3114 1177.92 3118.92 1173 3125 1173 3131.07 1173 3136 1177.92 3136 1184Z" stroke="#ED7D31" stroke-width="3.4375" stroke-linejoin="round" stroke-miterlimit="10" fill="#ED7D31"/></g><g clip-path="url(#clip37)"><text fill="#595959" font-family="Calibri,Calibri_MSFontService,sans-serif" font-weight="400" font-size="41" transform="matrix(1 0 0 1 3178.86 1196)">InsertionSort</text></g><g clip-path="url(#clip38)"><path d="M3081.5 1262.5 3169.5 1262.5" stroke="#A5A5A5" stroke-width="6.875" stroke-linecap="round" stroke-linejoin="round" stroke-miterlimit="10" fill="none" fill-rule="evenodd"/></g><g clip-path="url(#clip39)"><path d="M3136 1262C3136 1268.07 3131.07 1273 3125 1273 3118.92 1273 3114 1268.07 3114 1262 3114 1255.92 3118.92 1251 3125 1251 3131.07 1251 3136 1255.92 3136 1262Z" stroke="#A5A5A5" stroke-width="3.4375" stroke-linejoin="round" stroke-miterlimit="10" fill="#A5A5A5"/></g><g clip-path="url(#clip40)"><text fill="#595959" font-family="Calibri,Calibri_MSFontService,sans-serif" font-weight="400" font-size="41" transform="matrix(1 0 0 1 3178.86 1274)">SelectionSort</text></g><g clip-path="url(#clip41)"><path d="M3081.5 1339.5 3169.5 1339.5" stroke="#FFC000" stroke-width="6.875" stroke-linecap="round" stroke-linejoin="round" stroke-miterlimit="10" fill="none" fill-rule="evenodd"/></g><g clip-path="url(#clip42)"><path d="M3136 1339C3136 1345.07 3131.07 1350 3125 1350 3118.92 1350 3114 1345.07 3114 1339 3114 1332.92 3118.92 1328 3125 1328 3131.07 1328 3136 1332.92 3136 1339Z" stroke="#FFC000" stroke-width="3.4375" stroke-linejoin="round" stroke-miterlimit="10" fill="#FFC000"/></g><g clip-path="url(#clip43)"><text fill="#595959" font-family="Calibri,Calibri_MSFontService,sans-serif" font-weight="400" font-size="41" transform="matrix(1 0 0 1 3178.86 1351)">Sort</text></g><g clip-path="url(#clip44)"><path d="M3081.5 1416.5 3169.5 1416.5" stroke="#5B9BD5" stroke-width="6.875" stroke-linecap="round" stroke-linejoin="round" stroke-miterlimit="10" fill="none" fill-rule="evenodd"/></g><g clip-path="url(#clip45)"><path d="M3136 1416C3136 1422.07 3131.07 1427 3125 1427 3118.92 1427 3114 1422.07 3114 1416 3114 1409.92 3118.92 1405 3125 1405 3131.07 1405 3136 1409.92 3136 1416Z" stroke="#5B9BD5" stroke-width="3.4375" stroke-linejoin="round" stroke-miterlimit="10" fill="#5B9BD5"/></g><g clip-path="url(#clip46)"><text fill="#595959" font-family="Calibri,Calibri_MSFontService,sans-serif" font-weight="400" font-size="41" transform="matrix(1 0 0 1 3178.86 1428)">StableSort</text></g><rect x="859.5" y="528.5" width="2589" height="1349" stroke="#D9D9D9" stroke-width="3.4375" stroke-linejoin="round" stroke-miterlimit="10" fill="none"/></g></svg>