<svg width="2497" height="1477" xmlns="http://www.w3.org/2000/svg" xmlns:xlink="http://www.w3.org/1999/xlink" xml:space="preserve" overflow="hidden"><defs><clipPath id="clip0"><rect x="887" y="376" width="2497" height="1477"/></clipPath><clipPath id="clip1"><rect x="888" y="376" width="2494" height="1474"/></clipPath><clipPath id="clip2"><rect x="888" y="376" width="2494" height="1474"/></clipPath><clipPath id="clip3"><rect x="888" y="376" width="2494" height="1474"/></clipPath><clipPath id="clip4"><rect x="1126" y="546" width="1790" height="1104"/></clipPath><clipPath id="clip5"><rect x="888" y="376" width="2494" height="1474"/></clipPath><clipPath id="clip6"><rect x="1126" y="546" width="1790" height="1104"/></clipPath><clipPath id="clip7"><rect x="888" y="376" width="2494" height="1474"/></clipPath><clipPath id="clip8"><rect x="1126" y="546" width="1790" height="1104"/></clipPath><clipPath id="clip9"><rect x="888" y="376" width="2494" height="1474"/></clipPath><clipPath id="clip10"><rect x="1126" y="546" width="1790" height="1104"/></clipPath><clipPath id="clip11"><rect x="888" y="376" width="2494" height="1474"/></clipPath><clipPath id="clip12"><rect x="1126" y="546" width="1790" height="1104"/></clipPath><clipPath id="clip13"><rect x="888" y="376" width="2494" height="1474"/></clipPath><clipPath id="clip14"><rect x="888" y="376" width="2494" height="1474"/></clipPath><clipPath id="clip15"><rect x="888" y="376" width="2494" height="1474"/></clipPath><clipPath id="clip16"><rect x="888" y="376" width="2494" height="1474"/></clipPath><clipPath id="clip17"><rect x="888" y="376" width="2494" height="1474"/></clipPath><clipPath id="clip18"><rect x="888" y="376" width="2494" height="1474"/></clipPath><clipPath id="clip19"><rect x="888" y="376" width="2494" height="1474"/></clipPath><clipPath id="clip20"><rect x="888" y="376" width="2494" height="1474"/></clipPath><clipPath id="clip21"><rect x="888" y="376" width="2494" height="1474"/></clipPath><clipPath id="clip22"><rect x="888" y="376" width="2494" height="1474"/></clipPath><clipPath id="clip23"><rect x="888" y="376" width="2494" height="1474"/></clipPath><clipPath id="clip24"><rect x="888" y="376" width="2494" height="1474"/></clipPath><clipPath id="clip25"><rect x="888" y="376" width="2494" height="1474"/></clipPath><clipPath id="clip26"><rect x="888" y="376" width="2494" height="1474"/></clipPath><clipPath id="clip27"><rect x="888" y="376" width="2494" height="1474"/></clipPath><clipPath id="clip28"><rect x="888" y="376" width="2494" height="1474"/></clipPath><clipPath id="clip29"><rect x="888" y="376" width="2494" height="1474"/></clipPath><clipPath id="clip30"><rect x="888" y="376" width="2494" height="1474"/></clipPath><clipPath id="clip31"><rect x="888" y="376" width="2494" height="1474"/></clipPath><clipPath id="clip32"><rect x="888" y="376" width="2494" height="1474"/></clipPath><clipPath id="clip33"><rect x="888" y="376" width="2494" height="1474"/></clipPath><clipPath id="clip34"><rect x="888" y="376" width="2494" height="1474"/></clipPath><clipPath id="clip35"><rect x="888" y="376" width="2494" height="1474"/></clipPath><clipPath id="clip36"><rect x="888" y="376" width="2494" height="1474"/></clipPath><clipPath id="clip37"><rect x="888" y="376" width="2494" height="1474"/></clipPath><clipPath id="clip38"><rect x="888" y="376" width="2494" height="1474"/></clipPath><clipPath id="clip39"><rect x="888" y="376" width="2494" height="1474"/></clipPath><clipPath id="clip40"><rect x="888" y="376" width="2494" height="1474"/></clipPath><clipPath id="clip41"><rect x="888" y="376" width="2494" height="1474"/></clipPath><clipPath id="clip42"><rect x="888" y="376" width="2494" height="1474"/></clipPath><clipPath id="clip43"><rect x="888" y="376" width="2494" height="1474"/></clipPath><clipPath id="clip44"><rect x="888" y="376" width="2494" height="1474"/></clipPath><clipPath id="clip45"><rect x="888" y="376" width="2494" height="1474"/></clipPath></defs><g clip-path="url(#clip0)" transform="translate(-887 -376)"><rect x="888" y="377" width="2494" height="1474" fill="#FFFFFF"/><g clip-path="url(#clip1)"><path d="M1126.5 1463.55 2913.5 1463.55M1126.5 1280.54 2913.5 1280.54M1126.5 1096.54 2913.5 1096.54M1126.5 913.53 2913.5 913.53M1126.5 730.524 2913.5 730.524M1126.5 546.5 2913.5 546.5" stroke="#D9D9D9" stroke-width="3.4375" stroke-linejoin="round" stroke-miterlimit="10" fill="none"/></g><g clip-path="url(#clip2)"><path d="M0 0 0.000360892 1101" stroke="#BFBFBF" stroke-width="3.4375" stroke-linejoin="round" stroke-miterlimit="10" fill="none" fill-rule="evenodd" transform="matrix(1 0 0 -1 1126.5 1647.5)"/></g><g clip-path="url(#clip3)"><path d="M1126.5 1647.5 2913.5 1647.5" stroke="#BFBFBF" stroke-width="3.4375" stroke-linejoin="round" stroke-miterlimit="10" fill="none" fill-rule="evenodd"/></g><g clip-path="url(#clip4)"><path d="M1275.5 1627.5C1325.13 1617.72 1374.76 1611.91 1424.39 1598.16 1474.02 1584.41 1523.65 1566.07 1573.28 1544.99 1622.91 1523.9 1672.54 1501.29 1722.17 1471.64 1771.8 1442 1821.43 1403.19 1871.06 1367.12 1920.69 1331.06 1970.31 1294.54 2019.94 1255.27 2069.57 1216 2119.2 1174.44 2168.83 1131.5 2218.46 1088.56 2268.09 1051.13 2317.72 997.648 2367.35 944.167 2416.98 876.475 2466.61 810.617 2516.24 744.759 2565.87 671.872 2615.5 602.5" stroke="#4472C4" stroke-width="6.875" stroke-linecap="round" stroke-linejoin="round" stroke-miterlimit="10" fill="none"/></g><g clip-path="url(#clip5)"><path d="M1286.75 1627.25C1286.75 1633.32 1281.82 1638.25 1275.75 1638.25 1269.68 1638.25 1264.75 1633.32 1264.75 1627.25 1264.75 1621.17 1269.68 1616.25 1275.75 1616.25 1281.82 1616.25 1286.75 1621.17 1286.75 1627.25Z" stroke="#4472C4" stroke-width="3.4375" stroke-linejoin="round" stroke-miterlimit="10" fill="#4472C4"/><path d="M1435.75 1598.25C1435.75 1604.32 1430.82 1609.25 1424.75 1609.25 1418.67 1609.25 1413.75 1604.32 1413.75 1598.25 1413.75 1592.17 1418.67 1587.25 1424.75 1587.25 1430.82 1587.25 1435.75 1592.17 1435.75 1598.25Z" stroke="#4472C4" stroke-width="3.4375" stroke-linejoin="round" stroke-miterlimit="10" fill="#4472C4"/><path d="M1584.75 1545.25C1584.75 1551.32 1579.82 1556.25 1573.75 1556.25 1567.68 1556.25 1562.75 1551.32 1562.75 1545.25 1562.75 1539.17 1567.68 1534.25 1573.75 1534.25 1579.82 1534.25 1584.75 1539.17 1584.75 1545.25Z" stroke="#4472C4" stroke-width="3.4375" stroke-linejoin="round" stroke-miterlimit="10" fill="#4472C4"/><path d="M1733.75 1472.25C1733.75 1478.32 1728.82 1483.25 1722.75 1483.25 1716.67 1483.25 1711.75 1478.32 1711.75 1472.25 1711.75 1466.17 1716.67 1461.25 1722.75 1461.25 1728.82 1461.25 1733.75 1466.17 1733.75 1472.25Z" stroke="#4472C4" stroke-width="3.4375" stroke-linejoin="round" stroke-miterlimit="10" fill="#4472C4"/><path d="M1882.75 1367.25C1882.75 1373.32 1877.82 1378.25 1871.75 1378.25 1865.67 1378.25 1860.75 1373.32 1860.75 1367.25 1860.75 1361.17 1865.67 1356.25 1871.75 1356.25 1877.82 1356.25 1882.75 1361.17 1882.75 1367.25Z" stroke="#4472C4" stroke-width="3.4375" stroke-linejoin="round" stroke-miterlimit="10" fill="#4472C4"/><path d="M2030.75 1255.25C2030.75 1261.32 2025.82 1266.25 2019.75 1266.25 2013.67 1266.25 2008.75 1261.32 2008.75 1255.25 2008.75 1249.17 2013.67 1244.25 2019.75 1244.25 2025.82 1244.25 2030.75 1249.17 2030.75 1255.25Z" stroke="#4472C4" stroke-width="3.4375" stroke-linejoin="round" stroke-miterlimit="10" fill="#4472C4"/><path d="M2179.75 1131.25C2179.75 1137.32 2174.82 1142.25 2168.75 1142.25 2162.67 1142.25 2157.75 1137.32 2157.75 1131.25 2157.75 1125.17 2162.67 1120.25 2168.75 1120.25 2174.82 1120.25 2179.75 1125.17 2179.75 1131.25Z" stroke="#4472C4" stroke-width="3.4375" stroke-linejoin="round" stroke-miterlimit="10" fill="#4472C4"/><path d="M2328.75 997.25C2328.75 1003.32 2323.82 1008.25 2317.75 1008.25 2311.67 1008.25 2306.75 1003.32 2306.75 997.25 2306.75 991.175 2311.67 986.25 2317.75 986.25 2323.82 986.25 2328.75 991.175 2328.75 997.25Z" stroke="#4472C4" stroke-width="3.4375" stroke-linejoin="round" stroke-miterlimit="10" fill="#4472C4"/><path d="M2477.75 810.25C2477.75 816.325 2472.82 821.249 2466.75 821.249 2460.67 821.249 2455.75 816.325 2455.75 810.25 2455.75 804.175 2460.67 799.25 2466.75 799.25 2472.82 799.25 2477.75 804.175 2477.75 810.25Z" stroke="#4472C4" stroke-width="3.4375" stroke-linejoin="round" stroke-miterlimit="10" fill="#4472C4"/><path d="M2626.75 602.25C2626.75 608.325 2621.82 613.249 2615.75 613.249 2609.67 613.249 2604.75 608.325 2604.75 602.25 2604.75 596.175 2609.67 591.25 2615.75 591.25 2621.82 591.25 2626.75 596.175 2626.75 602.25Z" stroke="#4472C4" stroke-width="3.4375" stroke-linejoin="round" stroke-miterlimit="10" fill="#4472C4"/></g><g clip-path="url(#clip6)"><path d="M1275.5 1638.5C1325.13 1633.61 1374.76 1629.18 1424.39 1623.83 1474.02 1618.48 1523.65 1613.74 1573.28 1606.4 1622.91 1599.07 1672.54 1591.12 1722.17 1579.81 1771.8 1568.5 1821.43 1550.92 1871.06 1538.54 1920.69 1526.16 1970.31 1519.13 2019.94 1505.53 2069.57 1491.92 2119.2 1476.33 2168.83 1456.92 2218.46 1437.51 2268.09 1415.66 2317.72 1389.06 2367.35 1362.47 2416.98 1322.12 2466.61 1297.36 2516.24 1272.6 2565.87 1259.45 2615.5 1240.5" stroke="#ED7D31" stroke-width="6.875" stroke-linecap="round" stroke-linejoin="round" stroke-miterlimit="10" fill="none"/></g><g clip-path="url(#clip7)"><path d="M1286.75 1638.25C1286.75 1644.32 1281.82 1649.25 1275.75 1649.25 1269.68 1649.25 1264.75 1644.32 1264.75 1638.25 1264.75 1632.17 1269.68 1627.25 1275.75 1627.25 1281.82 1627.25 1286.75 1632.17 1286.75 1638.25Z" stroke="#ED7D31" stroke-width="3.4375" stroke-linejoin="round" stroke-miterlimit="10" fill="#ED7D31"/><path d="M1435.75 1624.25C1435.75 1630.32 1430.82 1635.25 1424.75 1635.25 1418.67 1635.25 1413.75 1630.32 1413.75 1624.25 1413.75 1618.17 1418.67 1613.25 1424.75 1613.25 1430.82 1613.25 1435.75 1618.17 1435.75 1624.25Z" stroke="#ED7D31" stroke-width="3.4375" stroke-linejoin="round" stroke-miterlimit="10" fill="#ED7D31"/><path d="M1584.75 1606.25C1584.75 1612.32 1579.82 1617.25 1573.75 1617.25 1567.68 1617.25 1562.75 1612.32 1562.75 1606.25 1562.75 1600.17 1567.68 1595.25 1573.75 1595.25 1579.82 1595.25 1584.75 1600.17 1584.75 1606.25Z" stroke="#ED7D31" stroke-width="3.4375" stroke-linejoin="round" stroke-miterlimit="10" fill="#ED7D31"/><path d="M1733.75 1580.25C1733.75 1586.32 1728.82 1591.25 1722.75 1591.25 1716.67 1591.25 1711.75 1586.32 1711.75 1580.25 1711.75 1574.17 1716.67 1569.25 1722.75 1569.25 1728.82 1569.25 1733.75 1574.17 1733.75 1580.25Z" stroke="#ED7D31" stroke-width="3.4375" stroke-linejoin="round" stroke-miterlimit="10" fill="#ED7D31"/><path d="M1882.75 1539.25C1882.75 1545.32 1877.82 1550.25 1871.75 1550.25 1865.67 1550.25 1860.75 1545.32 1860.75 1539.25 1860.75 1533.17 1865.67 1528.25 1871.75 1528.25 1877.82 1528.25 1882.75 1533.17 1882.75 1539.25Z" stroke="#ED7D31" stroke-width="3.4375" stroke-linejoin="round" stroke-miterlimit="10" fill="#ED7D31"/><path d="M2030.75 1506.25C2030.75 1512.32 2025.82 1517.25 2019.75 1517.25 2013.67 1517.25 2008.75 1512.32 2008.75 1506.25 2008.75 1500.17 2013.67 1495.25 2019.75 1495.25 2025.82 1495.25 2030.75 1500.17 2030.75 1506.25Z" stroke="#ED7D31" stroke-width="3.4375" stroke-linejoin="round" stroke-miterlimit="10" fill="#ED7D31"/><path d="M2179.75 1457.25C2179.75 1463.32 2174.82 1468.25 2168.75 1468.25 2162.67 1468.25 2157.75 1463.32 2157.75 1457.25 2157.75 1451.17 2162.67 1446.25 2168.75 1446.25 2174.82 1446.25 2179.75 1451.17 2179.75 1457.25Z" stroke="#ED7D31" stroke-width="3.4375" stroke-linejoin="round" stroke-miterlimit="10" fill="#ED7D31"/><path d="M2328.75 1389.25C2328.75 1395.32 2323.82 1400.25 2317.75 1400.25 2311.67 1400.25 2306.75 1395.32 2306.75 1389.25 2306.75 1383.17 2311.67 1378.25 2317.75 1378.25 2323.82 1378.25 2328.75 1383.17 2328.75 1389.25Z" stroke="#ED7D31" stroke-width="3.4375" stroke-linejoin="round" stroke-miterlimit="10" fill="#ED7D31"/><path d="M2477.75 1297.25C2477.75 1303.32 2472.82 1308.25 2466.75 1308.25 2460.67 1308.25 2455.75 1303.32 2455.75 1297.25 2455.75 1291.17 2460.67 1286.25 2466.75 1286.25 2472.82 1286.25 2477.75 1291.17 2477.75 1297.25Z" stroke="#ED7D31" stroke-width="3.4375" stroke-linejoin="round" stroke-miterlimit="10" fill="#ED7D31"/><path d="M2626.75 1240.25C2626.75 1246.32 2621.82 1251.25 2615.75 1251.25 2609.67 1251.25 2604.75 1246.32 2604.75 1240.25 2604.75 1234.17 2609.67 1229.25 2615.75 1229.25 2621.82 1229.25 2626.75 1234.17 2626.75 1240.25Z" stroke="#ED7D31" stroke-width="3.4375" stroke-linejoin="round" stroke-miterlimit="10" fill="#ED7D31"/></g><g clip-path="url(#clip8)"><path d="M1275.5 1638.5C1325.13 1633 1374.76 1628.56 1424.39 1621.99 1474.02 1615.42 1523.65 1608.38 1573.28 1599.06 1622.91 1589.73 1672.54 1578.27 1722.17 1566.04 1771.8 1553.81 1821.43 1540.2 1871.06 1525.68 1920.69 1511.16 1970.31 1493.58 2019.94 1478.9 2069.57 1464.22 2119.2 1454.59 2168.83 1437.62 2218.46 1420.66 2268.09 1400.48 2317.72 1377.09 2367.35 1353.7 2416.98 1320.22 2466.61 1297.29 2516.24 1274.35 2565.87 1258.76 2615.5 1239.5" stroke="#A5A5A5" stroke-width="6.875" stroke-linecap="round" stroke-linejoin="round" stroke-miterlimit="10" fill="none"/></g><g clip-path="url(#clip9)"><path d="M1286.75 1638.25C1286.75 1644.32 1281.82 1649.25 1275.75 1649.25 1269.68 1649.25 1264.75 1644.32 1264.75 1638.25 1264.75 1632.17 1269.68 1627.25 1275.75 1627.25 1281.82 1627.25 1286.75 1632.17 1286.75 1638.25Z" stroke="#A5A5A5" stroke-width="3.4375" stroke-linejoin="round" stroke-miterlimit="10" fill="#A5A5A5"/><path d="M1435.75 1621.25C1435.75 1627.32 1430.82 1632.25 1424.75 1632.25 1418.67 1632.25 1413.75 1627.32 1413.75 1621.25 1413.75 1615.17 1418.67 1610.25 1424.75 1610.25 1430.82 1610.25 1435.75 1615.17 1435.75 1621.25Z" stroke="#A5A5A5" stroke-width="3.4375" stroke-linejoin="round" stroke-miterlimit="10" fill="#A5A5A5"/><path d="M1584.75 1598.25C1584.75 1604.32 1579.82 1609.25 1573.75 1609.25 1567.68 1609.25 1562.75 1604.32 1562.75 1598.25 1562.75 1592.17 1567.68 1587.25 1573.75 1587.25 1579.82 1587.25 1584.75 1592.17 1584.75 1598.25Z" stroke="#A5A5A5" stroke-width="3.4375" stroke-linejoin="round" stroke-miterlimit="10" fill="#A5A5A5"/><path d="M1733.75 1565.25C1733.75 1571.32 1728.82 1576.25 1722.75 1576.25 1716.67 1576.25 1711.75 1571.32 1711.75 1565.25 1711.75 1559.17 1716.67 1554.25 1722.75 1554.25 1728.82 1554.25 1733.75 1559.17 1733.75 1565.25Z" stroke="#A5A5A5" stroke-width="3.4375" stroke-linejoin="round" stroke-miterlimit="10" fill="#A5A5A5"/><path d="M1882.75 1525.25C1882.75 1531.32 1877.82 1536.25 1871.75 1536.25 1865.67 1536.25 1860.75 1531.32 1860.75 1525.25 1860.75 1519.17 1865.67 1514.25 1871.75 1514.25 1877.82 1514.25 1882.75 1519.17 1882.75 1525.25Z" stroke="#A5A5A5" stroke-width="3.4375" stroke-linejoin="round" stroke-miterlimit="10" fill="#A5A5A5"/><path d="M2030.75 1478.25C2030.75 1484.32 2025.82 1489.25 2019.75 1489.25 2013.67 1489.25 2008.75 1484.32 2008.75 1478.25 2008.75 1472.17 2013.67 1467.25 2019.75 1467.25 2025.82 1467.25 2030.75 1472.17 2030.75 1478.25Z" stroke="#A5A5A5" stroke-width="3.4375" stroke-linejoin="round" stroke-miterlimit="10" fill="#A5A5A5"/><path d="M2179.75 1437.25C2179.75 1443.32 2174.82 1448.25 2168.75 1448.25 2162.67 1448.25 2157.75 1443.32 2157.75 1437.25 2157.75 1431.17 2162.67 1426.25 2168.75 1426.25 2174.82 1426.25 2179.75 1431.17 2179.75 1437.25Z" stroke="#A5A5A5" stroke-width="3.4375" stroke-linejoin="round" stroke-miterlimit="10" fill="#A5A5A5"/><path d="M2328.75 1376.25C2328.75 1382.32 2323.82 1387.25 2317.75 1387.25 2311.67 1387.25 2306.75 1382.32 2306.75 1376.25 2306.75 1370.17 2311.67 1365.25 2317.75 1365.25 2323.82 1365.25 2328.75 1370.17 2328.75 1376.25Z" stroke="#A5A5A5" stroke-width="3.4375" stroke-linejoin="round" stroke-miterlimit="10" fill="#A5A5A5"/><path d="M2477.75 1296.25C2477.75 1302.32 2472.82 1307.25 2466.75 1307.25 2460.67 1307.25 2455.75 1302.32 2455.75 1296.25 2455.75 1290.17 2460.67 1285.25 2466.75 1285.25 2472.82 1285.25 2477.75 1290.17 2477.75 1296.25Z" stroke="#A5A5A5" stroke-width="3.4375" stroke-linejoin="round" stroke-miterlimit="10" fill="#A5A5A5"/><path d="M2626.75 1239.25C2626.75 1245.32 2621.82 1250.25 2615.75 1250.25 2609.67 1250.25 2604.75 1245.32 2604.75 1239.25 2604.75 1233.17 2609.67 1228.25 2615.75 1228.25 2621.82 1228.25 2626.75 1233.17 2626.75 1239.25Z" stroke="#A5A5A5" stroke-width="3.4375" stroke-linejoin="round" stroke-miterlimit="10" fill="#A5A5A5"/></g><g clip-path="url(#clip10)"><path d="M1275.5 1636.5C1325.13 1634.05 1374.76 1631.9 1424.39 1629.15 1474.02 1626.39 1523.65 1623.48 1573.28 1619.95 1622.91 1616.43 1672.54 1610.76 1722.17 1608.01 1771.8 1605.25 1821.43 1607.55 1871.06 1603.41 1920.69 1599.27 1970.31 1587.17 2019.94 1583.19 2069.57 1579.2 2119.2 1582.11 2168.83 1579.51 2218.46 1576.91 2268.09 1572.31 2317.72 1567.56 2367.35 1562.81 2416.98 1554.69 2466.61 1551.01 2516.24 1547.34 2565.87 1547.34 2615.5 1545.5" stroke="#FFC000" stroke-width="6.875" stroke-linecap="round" stroke-linejoin="round" stroke-miterlimit="10" fill="none"/></g><g clip-path="url(#clip11)"><path d="M1286.75 1636.25C1286.75 1642.32 1281.82 1647.25 1275.75 1647.25 1269.68 1647.25 1264.75 1642.32 1264.75 1636.25 1264.75 1630.17 1269.68 1625.25 1275.75 1625.25 1281.82 1625.25 1286.75 1630.17 1286.75 1636.25Z" stroke="#FFC000" stroke-width="3.4375" stroke-linejoin="round" stroke-miterlimit="10" fill="#FFC000"/><path d="M1435.75 1628.25C1435.75 1634.32 1430.82 1639.25 1424.75 1639.25 1418.67 1639.25 1413.75 1634.32 1413.75 1628.25 1413.75 1622.17 1418.67 1617.25 1424.75 1617.25 1430.82 1617.25 1435.75 1622.17 1435.75 1628.25Z" stroke="#FFC000" stroke-width="3.4375" stroke-linejoin="round" stroke-miterlimit="10" fill="#FFC000"/><path d="M1584.75 1619.25C1584.75 1625.32 1579.82 1630.25 1573.75 1630.25 1567.68 1630.25 1562.75 1625.32 1562.75 1619.25 1562.75 1613.17 1567.68 1608.25 1573.75 1608.25 1579.82 1608.25 1584.75 1613.17 1584.75 1619.25Z" stroke="#FFC000" stroke-width="3.4375" stroke-linejoin="round" stroke-miterlimit="10" fill="#FFC000"/><path d="M1733.75 1607.25C1733.75 1613.32 1728.82 1618.25 1722.75 1618.25 1716.67 1618.25 1711.75 1613.32 1711.75 1607.25 1711.75 1601.17 1716.67 1596.25 1722.75 1596.25 1728.82 1596.25 1733.75 1601.17 1733.75 1607.25Z" stroke="#FFC000" stroke-width="3.4375" stroke-linejoin="round" stroke-miterlimit="10" fill="#FFC000"/><path d="M1882.75 1603.25C1882.75 1609.32 1877.82 1614.25 1871.75 1614.25 1865.67 1614.25 1860.75 1609.32 1860.75 1603.25 1860.75 1597.17 1865.67 1592.25 1871.75 1592.25 1877.82 1592.25 1882.75 1597.17 1882.75 1603.25Z" stroke="#FFC000" stroke-width="3.4375" stroke-linejoin="round" stroke-miterlimit="10" fill="#FFC000"/><path d="M2030.75 1583.25C2030.75 1589.32 2025.82 1594.25 2019.75 1594.25 2013.67 1594.25 2008.75 1589.32 2008.75 1583.25 2008.75 1577.17 2013.67 1572.25 2019.75 1572.25 2025.82 1572.25 2030.75 1577.17 2030.75 1583.25Z" stroke="#FFC000" stroke-width="3.4375" stroke-linejoin="round" stroke-miterlimit="10" fill="#FFC000"/><path d="M2179.75 1579.25C2179.75 1585.32 2174.82 1590.25 2168.75 1590.25 2162.67 1590.25 2157.75 1585.32 2157.75 1579.25 2157.75 1573.17 2162.67 1568.25 2168.75 1568.25 2174.82 1568.25 2179.75 1573.17 2179.75 1579.25Z" stroke="#FFC000" stroke-width="3.4375" stroke-linejoin="round" stroke-miterlimit="10" fill="#FFC000"/><path d="M2328.75 1567.25C2328.75 1573.32 2323.82 1578.25 2317.75 1578.25 2311.67 1578.25 2306.75 1573.32 2306.75 1567.25 2306.75 1561.17 2311.67 1556.25 2317.75 1556.25 2323.82 1556.25 2328.75 1561.17 2328.75 1567.25Z" stroke="#FFC000" stroke-width="3.4375" stroke-linejoin="round" stroke-miterlimit="10" fill="#FFC000"/><path d="M2477.75 1550.25C2477.75 1556.32 2472.82 1561.25 2466.75 1561.25 2460.67 1561.25 2455.75 1556.32 2455.75 1550.25 2455.75 1544.17 2460.67 1539.25 2466.75 1539.25 2472.82 1539.25 2477.75 1544.17 2477.75 1550.25Z" stroke="#FFC000" stroke-width="3.4375" stroke-linejoin="round" stroke-miterlimit="10" fill="#FFC000"/><path d="M2626.75 1545.25C2626.75 1551.32 2621.82 1556.25 2615.75 1556.25 2609.67 1556.25 2604.75 1551.32 2604.75 1545.25 2604.75 1539.17 2609.67 1534.25 2615.75 1534.25 2621.82 1534.25 2626.75 1539.17 2626.75 1545.25Z" stroke="#FFC000" stroke-width="3.4375" stroke-linejoin="round" stroke-miterlimit="10" fill="#FFC000"/></g><g clip-path="url(#clip12)"><path d="M1275.5 1627.5C1325.13 1625.03 1374.76 1622.72 1424.39 1620.1 1474.02 1617.48 1523.65 1614.56 1573.28 1611.78 1622.91 1609.01 1672.54 1606.85 1722.17 1603.46 1771.8 1600.07 1821.43 1597.61 1871.06 1591.44 1920.69 1585.28 1970.31 1571.41 2019.94 1566.48 2069.57 1561.55 2119.2 1564.02 2168.83 1561.86 2218.46 1559.7 2268.09 1557.85 2317.72 1553.54 2367.35 1549.22 2416.98 1539.98 2466.61 1535.97 2516.24 1531.97 2565.87 1531.66 2615.5 1529.5" stroke="#5B9BD5" stroke-width="6.875" stroke-linecap="round" stroke-linejoin="round" stroke-miterlimit="10" fill="none"/></g><g clip-path="url(#clip13)"><path d="M1286.75 1627.25C1286.75 1633.32 1281.82 1638.25 1275.75 1638.25 1269.68 1638.25 1264.75 1633.32 1264.75 1627.25 1264.75 1621.17 1269.68 1616.25 1275.75 1616.25 1281.82 1616.25 1286.75 1621.17 1286.75 1627.25Z" stroke="#5B9BD5" stroke-width="3.4375" stroke-linejoin="round" stroke-miterlimit="10" fill="#5B9BD5"/><path d="M1435.75 1619.25C1435.75 1625.32 1430.82 1630.25 1424.75 1630.25 1418.67 1630.25 1413.75 1625.32 1413.75 1619.25 1413.75 1613.17 1418.67 1608.25 1424.75 1608.25 1430.82 1608.25 1435.75 1613.17 1435.75 1619.25Z" stroke="#5B9BD5" stroke-width="3.4375" stroke-linejoin="round" stroke-miterlimit="10" fill="#5B9BD5"/><path d="M1584.75 1611.25C1584.75 1617.32 1579.82 1622.25 1573.75 1622.25 1567.68 1622.25 1562.75 1617.32 1562.75 1611.25 1562.75 1605.17 1567.68 1600.25 1573.75 1600.25 1579.82 1600.25 1584.75 1605.17 1584.75 1611.25Z" stroke="#5B9BD5" stroke-width="3.4375" stroke-linejoin="round" stroke-miterlimit="10" fill="#5B9BD5"/><path d="M1733.75 1603.25C1733.75 1609.32 1728.82 1614.25 1722.75 1614.25 1716.67 1614.25 1711.75 1609.32 1711.75 1603.25 1711.75 1597.17 1716.67 1592.25 1722.75 1592.25 1728.82 1592.25 1733.75 1597.17 1733.75 1603.25Z" stroke="#5B9BD5" stroke-width="3.4375" stroke-linejoin="round" stroke-miterlimit="10" fill="#5B9BD5"/><path d="M1882.75 1591.25C1882.75 1597.32 1877.82 1602.25 1871.75 1602.25 1865.67 1602.25 1860.75 1597.32 1860.75 1591.25 1860.75 1585.17 1865.67 1580.25 1871.75 1580.25 1877.82 1580.25 1882.75 1585.17 1882.75 1591.25Z" stroke="#5B9BD5" stroke-width="3.4375" stroke-linejoin="round" stroke-miterlimit="10" fill="#5B9BD5"/><path d="M2030.75 1566.25C2030.75 1572.32 2025.82 1577.25 2019.75 1577.25 2013.67 1577.25 2008.75 1572.32 2008.75 1566.25 2008.75 1560.17 2013.67 1555.25 2019.75 1555.25 2025.82 1555.25 2030.75 1560.17 2030.75 1566.25Z" stroke="#5B9BD5" stroke-width="3.4375" stroke-linejoin="round" stroke-miterlimit="10" fill="#5B9BD5"/><path d="M2179.75 1561.25C2179.75 1567.32 2174.82 1572.25 2168.75 1572.25 2162.67 1572.25 2157.75 1567.32 2157.75 1561.25 2157.75 1555.17 2162.67 1550.25 2168.75 1550.25 2174.82 1550.25 2179.75 1555.17 2179.75 1561.25Z" stroke="#5B9BD5" stroke-width="3.4375" stroke-linejoin="round" stroke-miterlimit="10" fill="#5B9BD5"/><path d="M2328.75 1553.25C2328.75 1559.32 2323.82 1564.25 2317.75 1564.25 2311.67 1564.25 2306.75 1559.32 2306.75 1553.25 2306.75 1547.17 2311.67 1542.25 2317.75 1542.25 2323.82 1542.25 2328.75 1547.17 2328.75 1553.25Z" stroke="#5B9BD5" stroke-width="3.4375" stroke-linejoin="round" stroke-miterlimit="10" fill="#5B9BD5"/><path d="M2477.75 1536.25C2477.75 1542.32 2472.82 1547.25 2466.75 1547.25 2460.67 1547.25 2455.75 1542.32 2455.75 1536.25 2455.75 1530.17 2460.67 1525.25 2466.75 1525.25 2472.82 1525.25 2477.75 1530.17 2477.75 1536.25Z" stroke="#5B9BD5" stroke-width="3.4375" stroke-linejoin="round" stroke-miterlimit="10" fill="#5B9BD5"/><path d="M2626.75 1529.25C2626.75 1535.32 2621.82 1540.25 2615.75 1540.25 2609.67 1540.25 2604.75 1535.32 2604.75 1529.25 2604.75 1523.17 2609.67 1518.25 2615.75 1518.25 2621.82 1518.25 2626.75 1523.17 2626.75 1529.25Z" stroke="#5B9BD5" stroke-width="3.4375" stroke-linejoin="round" stroke-miterlimit="10" fill="#5B9BD5"/></g><g clip-path="url(#clip14)"><text fill="#595959" font-family="Calibri,Calibri_MSFontService,sans-serif" font-weight="400" font-size="41" transform="matrix(1 0 0 1 1067.44 1659)">0</text></g><g clip-path="url(#clip15)"><text fill="#595959" font-family="Calibri,Calibri_MSFontService,sans-serif" font-weight="400" font-size="41" transform="matrix(1 0 0 1 1015.23 1475)">0.02</text></g><g clip-path="url(#clip16)"><text fill="#595959" font-family="Calibri,Calibri_MSFontService,sans-serif" font-weight="400" font-size="41" transform="matrix(1 0 0 1 1015.23 1292)">0.04</text></g><g clip-path="url(#clip17)"><text fill="#595959" font-family="Calibri,Calibri_MSFontService,sans-serif" font-weight="400" font-size="41" transform="matrix(1 0 0 1 1015.23 1109)">0.06</text></g><g clip-path="url(#clip18)"><text fill="#595959" font-family="Calibri,Calibri_MSFontService,sans-serif" font-weight="400" font-size="41" transform="matrix(1 0 0 1 1015.23 925)">0.08</text></g><g clip-path="url(#clip19)"><text fill="#595959" font-family="Calibri,Calibri_MSFontService,sans-serif" font-weight="400" font-size="41" transform="matrix(1 0 0 1 1036.13 742)">0.1</text></g><g clip-path="url(#clip20)"><text fill="#595959" font-family="Calibri,Calibri_MSFontService,sans-serif" font-weight="400" font-size="41" transform="matrix(1 0 0 1 1015.23 558)">0.12</text></g><g clip-path="url(#clip21)"><text fill="#595959" font-family="Calibri,Calibri_MSFontService,sans-serif" font-weight="400" font-size="41" transform="matrix(1 0 0 1 1116.15 1712)">0</text></g><g clip-path="url(#clip22)"><text fill="#595959" font-family="Calibri,Calibri_MSFontService,sans-serif" font-weight="400" font-size="41" transform="matrix(1 0 0 1 1403.47 1712)">20</text></g><g clip-path="url(#clip23)"><text fill="#595959" font-family="Calibri,Calibri_MSFontService,sans-serif" font-weight="400" font-size="41" transform="matrix(1 0 0 1 1701.23 1712)">40</text></g><g clip-path="url(#clip24)"><text fill="#595959" font-family="Calibri,Calibri_MSFontService,sans-serif" font-weight="400" font-size="41" transform="matrix(1 0 0 1 1999 1712)">60</text></g><g clip-path="url(#clip25)"><text fill="#595959" font-family="Calibri,Calibri_MSFontService,sans-serif" font-weight="400" font-size="41" transform="matrix(1 0 0 1 2296.76 1712)">80</text></g><g clip-path="url(#clip26)"><text fill="#595959" font-family="Calibri,Calibri_MSFontService,sans-serif" font-weight="400" font-size="41" transform="matrix(1 0 0 1 2584.07 1712)">100</text></g><g clip-path="url(#clip27)"><text fill="#595959" font-family="Calibri,Calibri_MSFontService,sans-serif" font-weight="400" font-size="41" transform="matrix(1 0 0 1 2881.84 1712)">120</text></g><g clip-path="url(#clip28)"><text fill="#595959" font-family="Calibri,Calibri_MSFontService,sans-serif" font-weight="400" font-size="46" transform="matrix(6.12323e-17 -1 1 6.12323e-17 989.542 1205)">Temps [ms]</text></g><g clip-path="url(#clip29)"><text fill="#595959" font-family="Calibri,Calibri_MSFontService,sans-serif" font-weight="400" font-size="46" transform="matrix(1 0 0 1 1950.26 1782)">Valeurs</text></g><g clip-path="url(#clip30)"><text fill="#595959" font-family="Calibri,Calibri_MSFontService,sans-serif" font-weight="400" font-size="64" transform="matrix(1 0 0 1 1926.1 472)">Temps Aleatoire</text></g><g clip-path="url(#clip31)"><path d="M3016.5 1018.5 3104.5 1018.5" stroke="#4472C4" stroke-width="6.875" stroke-linecap="round" stroke-linejoin="round" stroke-miterlimit="10" fill="none" fill-rule="evenodd"/></g><g clip-path="url(#clip32)"><path d="M3071 1018C3071 1024.07 3066.07 1029 3060 1029 3053.92 1029 3049 1024.07 3049 1018 3049 1011.92 3053.92 1007 3060 1007 3066.07 1007 3071 1011.92 3071 1018Z" stroke="#4472C4" stroke-width="3.4375" stroke-linejoin="round" stroke-miterlimit="10" fill="#4472C4"/></g><g clip-path="url(#clip33)"><text fill="#595959" font-family="Calibri,Calibri_MSFontService,sans-serif" font-weight="400" font-size="41" transform="matrix(1 0 0 1 3113.55 1030)">BubbleSort</text></g><g clip-path="url(#clip34)"><path d="M3016.5 1096.5 3104.5 1096.5" stroke="#ED7D31" stroke-width="6.875" stroke-linecap="round" stroke-linejoin="round" stroke-miterlimit="10" fill="none" fill-rule="evenodd"/></g><g clip-path="url(#clip35)"><path d="M3071 1096C3071 1102.07 3066.07 1107 3060 1107 3053.92 1107 3049 1102.07 3049 1096 3049 1089.92 3053.92 1085 3060 1085 3066.07 1085 3071 1089.92 3071 1096Z" stroke="#ED7D31" stroke-width="3.4375" stroke-linejoin="round" stroke-miterlimit="10" fill="#ED7D31"/></g><g clip-path="url(#clip36)"><text fill="#595959" font-family="Calibri,Calibri_MSFontService,sans-serif" font-weight="400" font-size="41" transform="matrix(1 0 0 1 3113.55 1108)">InsertionSort</text></g><g clip-path="url(#clip37)"><path d="M3016.5 1173.5 3104.5 1173.5" stroke="#A5A5A5" stroke-width="6.875" stroke-linecap="round" stroke-linejoin="round" stroke-miterlimit="10" fill="none" fill-rule="evenodd"/></g><g clip-path="url(#clip38)"><path d="M3071 1173C3071 1179.07 3066.07 1184 3060 1184 3053.92 1184 3049 1179.07 3049 1173 3049 1166.92 3053.92 1162 3060 1162 3066.07 1162 3071 1166.92 3071 1173Z" stroke="#A5A5A5" stroke-width="3.4375" stroke-linejoin="round" stroke-miterlimit="10" fill="#A5A5A5"/></g><g clip-path="url(#clip39)"><text fill="#595959" font-family="Calibri,Calibri_MSFontService,sans-serif" font-weight="400" font-size="41" transform="matrix(1 0 0 1 3113.55 1185)">SelectionSort</text></g><g clip-path="url(#clip40)"><path d="M3016.5 1250.5 3104.5 1250.5" stroke="#FFC000" stroke-width="6.875" stroke-linecap="round" stroke-linejoin="round" stroke-miterlimit="10" fill="none" fill-rule="evenodd"/></g><g clip-path="url(#clip41)"><path d="M3071 1250C3071 1256.07 3066.07 1261 3060 1261 3053.92 1261 3049 1256.07 3049 1250 3049 1243.92 3053.92 1239 3060 1239 3066.07 1239 3071 1243.92 3071 1250Z" stroke="#FFC000" stroke-width="3.4375" stroke-linejoin="round" stroke-miterlimit="10" fill="#FFC000"/></g><g clip-path="url(#clip42)"><text fill="#595959" font-family="Calibri,Calibri_MSFontService,sans-serif" font-weight="400" font-size="41" transform="matrix(1 0 0 1 3113.55 1262)">Sort</text></g><g clip-path="url(#clip43)"><path d="M3016.5 1328.5 3104.5 1328.5" stroke="#5B9BD5" stroke-width="6.875" stroke-linecap="round" stroke-linejoin="round" stroke-miterlimit="10" fill="none" fill-rule="evenodd"/></g><g clip-path="url(#clip44)"><path d="M3071 1328C3071 1334.07 3066.07 1339 3060 1339 3053.92 1339 3049 1334.07 3049 1328 3049 1321.92 3053.92 1317 3060 1317 3066.07 1317 3071 1321.92 3071 1328Z" stroke="#5B9BD5" stroke-width="3.4375" stroke-linejoin="round" stroke-miterlimit="10" fill="#5B9BD5"/></g><g clip-path="url(#clip45)"><text fill="#595959" font-family="Calibri,Calibri_MSFontService,sans-serif" font-weight="400" font-size="41" transform="matrix(1 0 0 1 3113.55 1340)">StableSort</text></g><rect x="888.5" y="377.5" width="2494" height="1474" stroke="#D9D9D9" stroke-width="3.4375" stroke-linejoin="round" stroke-miterlimit="10" fill="none"/></g></svg>