<svg width="2822" height="1507" xmlns="http://www.w3.org/2000/svg" xmlns:xlink="http://www.w3.org/1999/xlink" xml:space="preserve" overflow="hidden"><defs><clipPath id="clip0"><rect x="755" y="657" width="2822" height="1507"/></clipPath><clipPath id="clip1"><rect x="756" y="658" width="2819" height="1504"/></clipPath><clipPath id="clip2"><rect x="756" y="658" width="2819" height="1504"/></clipPath><clipPath id="clip3"><rect x="756" y="658" width="2819" height="1504"/></clipPath><clipPath id="clip4"><rect x="994" y="828" width="2115" height="1134"/></clipPath><clipPath id="clip5"><rect x="756" y="658" width="2819" height="1504"/></clipPath><clipPath id="clip6"><rect x="994" y="828" width="2115" height="1134"/></clipPath><clipPath id="clip7"><rect x="756" y="658" width="2819" height="1504"/></clipPath><clipPath id="clip8"><rect x="994" y="828" width="2115" height="1134"/></clipPath><clipPath id="clip9"><rect x="756" y="658" width="2819" height="1504"/></clipPath><clipPath id="clip10"><rect x="994" y="828" width="2115" height="1134"/></clipPath><clipPath id="clip11"><rect x="756" y="658" width="2819" height="1504"/></clipPath><clipPath id="clip12"><rect x="994" y="828" width="2115" height="1134"/></clipPath><clipPath id="clip13"><rect x="756" y="658" width="2819" height="1504"/></clipPath><clipPath id="clip14"><rect x="756" y="658" width="2819" height="1504"/></clipPath><clipPath id="clip15"><rect x="756" y="658" width="2819" height="1504"/></clipPath><clipPath id="clip16"><rect x="756" y="658" width="2819" height="1504"/></clipPath><clipPath id="clip17"><rect x="756" y="658" width="2819" height="1504"/></clipPath><clipPath id="clip18"><rect x="756" y="658" width="2819" height="1504"/></clipPath><clipPath id="clip19"><rect x="756" y="658" width="2819" height="1504"/></clipPath><clipPath id="clip20"><rect x="756" y="658" width="2819" height="1504"/></clipPath><clipPath id="clip21"><rect x="756" y="658" width="2819" height="1504"/></clipPath><clipPath id="clip22"><rect x="756" y="658" width="2819" height="1504"/></clipPath><clipPath id="clip23"><rect x="756" y="658" width="2819" height="1504"/></clipPath><clipPath id="clip24"><rect x="756" y="658" width="2819" height="1504"/></clipPath><clipPath id="clip25"><rect x="756" y="658" width="2819" height="1504"/></clipPath><clipPath id="clip26"><rect x="756" y="658" width="2819" height="1504"/></clipPath><clipPath id="clip27"><rect x="756" y="658" width="2819" height="1504"/></clipPath><clipPath id="clip28"><rect x="756" y="658" width="2819" height="1504"/></clipPath><clipPath id="clip29"><rect x="756" y="658" width="2819" height="1504"/></clipPath><clipPath id="clip30"><rect x="756" y="658" width="2819" height="1504"/></clipPath><clipPath id="clip31"><rect x="756" y="658" width="2819" height="1504"/></clipPath><clipPath id="clip32"><rect x="756" y="658" width="2819" height="1504"/></clipPath><clipPath id="clip33"><rect x="756" y="658" width="2819" height="1504"/></clipPath><clipPath id="clip34"><rect x="756" y="658" width="2819" height="1504"/></clipPath><clipPath id="clip35"><rect x="756" y="658" width="2819" height="1504"/></clipPath><clipPath id="clip36"><rect x="756" y="658" width="2819" height="1504"/></clipPath><clipPath id="clip37"><rect x="756" y="658" width="2819" height="1504"/></clipPath><clipPath id="clip38"><rect x="756" y="658" width="2819" height="1504"/></clipPath><clipPath id="clip39"><rect x="756" y="658" width="2819" height="1504"/></clipPath><clipPath id="clip40"><rect x="756" y="658" width="2819" height="1504"/></clipPath><clipPath id="clip41"><rect x="756" y="658" width="2819" height="1504"/></clipPath><clipPath id="clip42"><rect x="756" y="658" width="2819" height="1504"/></clipPath><clipPath id="clip43"><rect x="756" y="658" width="2819" height="1504"/></clipPath><clipPath id="clip44"><rect x="756" y="658" width="2819" height="1504"/></clipPath><clipPath id="clip45"><rect x="756" y="658" width="2819" height="1504"/></clipPath></defs><g clip-path="url(#clip0)" transform="translate(-755 -657)"><rect x="756" y="658" width="2819" height="1504" fill="#FFFFFF"/><g clip-path="url(#clip1)"><path d="M994.5 1770.56 3105.5 1770.56M994.5 1581.55 3105.5 1581.55M994.5 1393.55 3105.5 1393.55M994.5 1205.54 3105.5 1205.54M994.5 1016.53 3105.5 1016.53M994.5 828.5 3105.5 828.5" stroke="#D9D9D9" stroke-width="3.4375" stroke-linejoin="round" stroke-miterlimit="10" fill="none"/></g><g clip-path="url(#clip2)"><path d="M0 0 0.000360892 1130" stroke="#BFBFBF" stroke-width="3.4375" stroke-linejoin="round" stroke-miterlimit="10" fill="none" fill-rule="evenodd" transform="matrix(1 0 0 -1 994.5 1958.5)"/></g><g clip-path="url(#clip3)"><path d="M994.5 1958.5 3105.5 1958.5" stroke="#BFBFBF" stroke-width="3.4375" stroke-linejoin="round" stroke-miterlimit="10" fill="none" fill-rule="evenodd"/></g><g clip-path="url(#clip4)"><path d="M1170.5 1938.5C1229.13 1928.45 1287.76 1922.49 1346.39 1908.36 1405.02 1894.23 1463.65 1875.4 1522.28 1853.73 1580.91 1832.07 1639.54 1808.84 1698.17 1778.38 1756.8 1747.93 1815.43 1708.06 1874.06 1671.01 1932.68 1633.96 1991.31 1596.45 2049.94 1556.1 2108.57 1515.76 2167.2 1473.06 2225.83 1428.95 2284.46 1384.84 2343.09 1346.38 2401.72 1291.44 2460.35 1236.5 2518.98 1166.96 2577.61 1099.3 2636.24 1031.65 2694.87 956.767 2753.5 885.5" stroke="#4472C4" stroke-width="6.875" stroke-linecap="round" stroke-linejoin="round" stroke-miterlimit="10" fill="none"/></g><g clip-path="url(#clip5)"><path d="M1181.75 1938.78C1181.75 1944.86 1176.82 1949.78 1170.75 1949.78 1164.67 1949.78 1159.75 1944.86 1159.75 1938.78 1159.75 1932.71 1164.67 1927.78 1170.75 1927.78 1176.82 1927.78 1181.75 1932.71 1181.75 1938.78Z" stroke="#4472C4" stroke-width="3.4375" stroke-linejoin="round" stroke-miterlimit="10" fill="#4472C4"/><path d="M1357.75 1908.78C1357.75 1914.86 1352.82 1919.78 1346.75 1919.78 1340.67 1919.78 1335.75 1914.86 1335.75 1908.78 1335.75 1902.71 1340.67 1897.78 1346.75 1897.78 1352.82 1897.78 1357.75 1902.71 1357.75 1908.78Z" stroke="#4472C4" stroke-width="3.4375" stroke-linejoin="round" stroke-miterlimit="10" fill="#4472C4"/><path d="M1533.75 1854.78C1533.75 1860.86 1528.82 1865.78 1522.75 1865.78 1516.67 1865.78 1511.75 1860.86 1511.75 1854.78 1511.75 1848.71 1516.67 1843.78 1522.75 1843.78 1528.82 1843.78 1533.75 1848.71 1533.75 1854.78Z" stroke="#4472C4" stroke-width="3.4375" stroke-linejoin="round" stroke-miterlimit="10" fill="#4472C4"/><path d="M1709.75 1778.78C1709.75 1784.86 1704.82 1789.78 1698.75 1789.78 1692.67 1789.78 1687.75 1784.86 1687.75 1778.78 1687.75 1772.71 1692.67 1767.78 1698.75 1767.78 1704.82 1767.78 1709.75 1772.71 1709.75 1778.78Z" stroke="#4472C4" stroke-width="3.4375" stroke-linejoin="round" stroke-miterlimit="10" fill="#4472C4"/><path d="M1885.75 1671.78C1885.75 1677.86 1880.82 1682.78 1874.75 1682.78 1868.67 1682.78 1863.75 1677.86 1863.75 1671.78 1863.75 1665.71 1868.67 1660.78 1874.75 1660.78 1880.82 1660.78 1885.75 1665.71 1885.75 1671.78Z" stroke="#4472C4" stroke-width="3.4375" stroke-linejoin="round" stroke-miterlimit="10" fill="#4472C4"/><path d="M2061.75 1556.78C2061.75 1562.86 2056.82 1567.78 2050.75 1567.78 2044.67 1567.78 2039.75 1562.86 2039.75 1556.78 2039.75 1550.71 2044.67 1545.78 2050.75 1545.78 2056.82 1545.78 2061.75 1550.71 2061.75 1556.78Z" stroke="#4472C4" stroke-width="3.4375" stroke-linejoin="round" stroke-miterlimit="10" fill="#4472C4"/><path d="M2237.75 1429.78C2237.75 1435.86 2232.82 1440.78 2226.75 1440.78 2220.67 1440.78 2215.75 1435.86 2215.75 1429.78 2215.75 1423.71 2220.67 1418.78 2226.75 1418.78 2232.82 1418.78 2237.75 1423.71 2237.75 1429.78Z" stroke="#4472C4" stroke-width="3.4375" stroke-linejoin="round" stroke-miterlimit="10" fill="#4472C4"/><path d="M2412.75 1291.78C2412.75 1297.86 2407.82 1302.78 2401.75 1302.78 2395.67 1302.78 2390.75 1297.86 2390.75 1291.78 2390.75 1285.71 2395.67 1280.78 2401.75 1280.78 2407.82 1280.78 2412.75 1285.71 2412.75 1291.78Z" stroke="#4472C4" stroke-width="3.4375" stroke-linejoin="round" stroke-miterlimit="10" fill="#4472C4"/><path d="M2588.75 1099.78C2588.75 1105.86 2583.82 1110.78 2577.75 1110.78 2571.67 1110.78 2566.75 1105.86 2566.75 1099.78 2566.75 1093.71 2571.67 1088.78 2577.75 1088.78 2583.82 1088.78 2588.75 1093.71 2588.75 1099.78Z" stroke="#4472C4" stroke-width="3.4375" stroke-linejoin="round" stroke-miterlimit="10" fill="#4472C4"/><path d="M2764.75 885.781C2764.75 891.856 2759.82 896.78 2753.75 896.78 2747.67 896.78 2742.75 891.856 2742.75 885.781 2742.75 879.706 2747.67 874.781 2753.75 874.781 2759.82 874.781 2764.75 879.706 2764.75 885.781Z" stroke="#4472C4" stroke-width="3.4375" stroke-linejoin="round" stroke-miterlimit="10" fill="#4472C4"/></g><g clip-path="url(#clip6)"><path d="M1170.5 1950.5C1229.13 1945.47 1287.76 1940.92 1346.39 1935.42 1405.02 1929.92 1463.65 1925.06 1522.28 1917.52 1580.91 1909.98 1639.54 1901.81 1698.17 1890.19 1756.8 1878.56 1815.43 1860.5 1874.06 1847.78 1932.68 1835.06 1991.31 1827.83 2049.94 1813.85 2108.57 1799.87 2167.2 1783.85 2225.83 1763.91 2284.46 1743.96 2343.09 1721.5 2401.72 1694.17 2460.35 1666.84 2518.98 1625.37 2577.61 1599.93 2636.24 1574.48 2694.87 1560.98 2753.5 1541.5" stroke="#ED7D31" stroke-width="6.875" stroke-linecap="round" stroke-linejoin="round" stroke-miterlimit="10" fill="none"/></g><g clip-path="url(#clip7)"><path d="M1181.75 1950.78C1181.75 1956.86 1176.82 1961.78 1170.75 1961.78 1164.67 1961.78 1159.75 1956.86 1159.75 1950.78 1159.75 1944.71 1164.67 1939.78 1170.75 1939.78 1176.82 1939.78 1181.75 1944.71 1181.75 1950.78Z" stroke="#ED7D31" stroke-width="3.4375" stroke-linejoin="round" stroke-miterlimit="10" fill="#ED7D31"/><path d="M1357.75 1935.78C1357.75 1941.86 1352.82 1946.78 1346.75 1946.78 1340.67 1946.78 1335.75 1941.86 1335.75 1935.78 1335.75 1929.71 1340.67 1924.78 1346.75 1924.78 1352.82 1924.78 1357.75 1929.71 1357.75 1935.78Z" stroke="#ED7D31" stroke-width="3.4375" stroke-linejoin="round" stroke-miterlimit="10" fill="#ED7D31"/><path d="M1533.75 1917.78C1533.75 1923.86 1528.82 1928.78 1522.75 1928.78 1516.67 1928.78 1511.75 1923.86 1511.75 1917.78 1511.75 1911.71 1516.67 1906.78 1522.75 1906.78 1528.82 1906.78 1533.75 1911.71 1533.75 1917.78Z" stroke="#ED7D31" stroke-width="3.4375" stroke-linejoin="round" stroke-miterlimit="10" fill="#ED7D31"/><path d="M1709.75 1889.78C1709.75 1895.86 1704.82 1900.78 1698.75 1900.78 1692.67 1900.78 1687.75 1895.86 1687.75 1889.78 1687.75 1883.71 1692.67 1878.78 1698.75 1878.78 1704.82 1878.78 1709.75 1883.71 1709.75 1889.78Z" stroke="#ED7D31" stroke-width="3.4375" stroke-linejoin="round" stroke-miterlimit="10" fill="#ED7D31"/><path d="M1885.75 1847.78C1885.75 1853.86 1880.82 1858.78 1874.75 1858.78 1868.67 1858.78 1863.75 1853.86 1863.75 1847.78 1863.75 1841.71 1868.67 1836.78 1874.75 1836.78 1880.82 1836.78 1885.75 1841.71 1885.75 1847.78Z" stroke="#ED7D31" stroke-width="3.4375" stroke-linejoin="round" stroke-miterlimit="10" fill="#ED7D31"/><path d="M2061.75 1813.78C2061.75 1819.86 2056.82 1824.78 2050.75 1824.78 2044.67 1824.78 2039.75 1819.86 2039.75 1813.78 2039.75 1807.71 2044.67 1802.78 2050.75 1802.78 2056.82 1802.78 2061.75 1807.71 2061.75 1813.78Z" stroke="#ED7D31" stroke-width="3.4375" stroke-linejoin="round" stroke-miterlimit="10" fill="#ED7D31"/><path d="M2237.75 1763.78C2237.75 1769.86 2232.82 1774.78 2226.75 1774.78 2220.67 1774.78 2215.75 1769.86 2215.75 1763.78 2215.75 1757.71 2220.67 1752.78 2226.75 1752.78 2232.82 1752.78 2237.75 1757.71 2237.75 1763.78Z" stroke="#ED7D31" stroke-width="3.4375" stroke-linejoin="round" stroke-miterlimit="10" fill="#ED7D31"/><path d="M2412.75 1693.78C2412.75 1699.86 2407.82 1704.78 2401.75 1704.78 2395.67 1704.78 2390.75 1699.86 2390.75 1693.78 2390.75 1687.71 2395.67 1682.78 2401.75 1682.78 2407.82 1682.78 2412.75 1687.71 2412.75 1693.78Z" stroke="#ED7D31" stroke-width="3.4375" stroke-linejoin="round" stroke-miterlimit="10" fill="#ED7D31"/><path d="M2588.75 1599.78C2588.75 1605.86 2583.82 1610.78 2577.75 1610.78 2571.67 1610.78 2566.75 1605.86 2566.75 1599.78 2566.75 1593.71 2571.67 1588.78 2577.75 1588.78 2583.82 1588.78 2588.75 1593.71 2588.75 1599.78Z" stroke="#ED7D31" stroke-width="3.4375" stroke-linejoin="round" stroke-miterlimit="10" fill="#ED7D31"/><path d="M2764.75 1541.78C2764.75 1547.86 2759.82 1552.78 2753.75 1552.78 2747.67 1552.78 2742.75 1547.86 2742.75 1541.78 2742.75 1535.71 2747.67 1530.78 2753.75 1530.78 2759.82 1530.78 2764.75 1535.71 2764.75 1541.78Z" stroke="#ED7D31" stroke-width="3.4375" stroke-linejoin="round" stroke-miterlimit="10" fill="#ED7D31"/></g><g clip-path="url(#clip8)"><path d="M1170.5 1949.5C1229.13 1943.84 1287.76 1939.29 1346.39 1932.53 1405.02 1925.78 1463.65 1918.55 1522.28 1908.97 1580.91 1899.39 1639.54 1887.61 1698.17 1875.04 1756.8 1862.47 1815.43 1848.49 1874.06 1833.57 1932.68 1818.65 1991.31 1800.58 2049.94 1785.5 2108.57 1770.42 2167.2 1760.52 2225.83 1743.09 2284.46 1725.65 2343.09 1704.91 2401.72 1680.88 2460.35 1656.84 2518.98 1622.44 2577.61 1598.88 2636.24 1575.32 2694.87 1559.29 2753.5 1539.5" stroke="#A5A5A5" stroke-width="6.875" stroke-linecap="round" stroke-linejoin="round" stroke-miterlimit="10" fill="none"/></g><g clip-path="url(#clip9)"><path d="M1181.75 1949.78C1181.75 1955.86 1176.82 1960.78 1170.75 1960.78 1164.67 1960.78 1159.75 1955.86 1159.75 1949.78 1159.75 1943.71 1164.67 1938.78 1170.75 1938.78 1176.82 1938.78 1181.75 1943.71 1181.75 1949.78Z" stroke="#A5A5A5" stroke-width="3.4375" stroke-linejoin="round" stroke-miterlimit="10" fill="#A5A5A5"/><path d="M1357.75 1932.78C1357.75 1938.86 1352.82 1943.78 1346.75 1943.78 1340.67 1943.78 1335.75 1938.86 1335.75 1932.78 1335.75 1926.71 1340.67 1921.78 1346.75 1921.78 1352.82 1921.78 1357.75 1926.71 1357.75 1932.78Z" stroke="#A5A5A5" stroke-width="3.4375" stroke-linejoin="round" stroke-miterlimit="10" fill="#A5A5A5"/><path d="M1533.75 1908.78C1533.75 1914.86 1528.82 1919.78 1522.75 1919.78 1516.67 1919.78 1511.75 1914.86 1511.75 1908.78 1511.75 1902.71 1516.67 1897.78 1522.75 1897.78 1528.82 1897.78 1533.75 1902.71 1533.75 1908.78Z" stroke="#A5A5A5" stroke-width="3.4375" stroke-linejoin="round" stroke-miterlimit="10" fill="#A5A5A5"/><path d="M1709.75 1874.78C1709.75 1880.86 1704.82 1885.78 1698.75 1885.78 1692.67 1885.78 1687.75 1880.86 1687.75 1874.78 1687.75 1868.71 1692.67 1863.78 1698.75 1863.78 1704.82 1863.78 1709.75 1868.71 1709.75 1874.78Z" stroke="#A5A5A5" stroke-width="3.4375" stroke-linejoin="round" stroke-miterlimit="10" fill="#A5A5A5"/><path d="M1885.75 1833.78C1885.75 1839.86 1880.82 1844.78 1874.75 1844.78 1868.67 1844.78 1863.75 1839.86 1863.75 1833.78 1863.75 1827.71 1868.67 1822.78 1874.75 1822.78 1880.82 1822.78 1885.75 1827.71 1885.75 1833.78Z" stroke="#A5A5A5" stroke-width="3.4375" stroke-linejoin="round" stroke-miterlimit="10" fill="#A5A5A5"/><path d="M2061.75 1785.78C2061.75 1791.86 2056.82 1796.78 2050.75 1796.78 2044.67 1796.78 2039.75 1791.86 2039.75 1785.78 2039.75 1779.71 2044.67 1774.78 2050.75 1774.78 2056.82 1774.78 2061.75 1779.71 2061.75 1785.78Z" stroke="#A5A5A5" stroke-width="3.4375" stroke-linejoin="round" stroke-miterlimit="10" fill="#A5A5A5"/><path d="M2237.75 1742.78C2237.75 1748.86 2232.82 1753.78 2226.75 1753.78 2220.67 1753.78 2215.75 1748.86 2215.75 1742.78 2215.75 1736.71 2220.67 1731.78 2226.75 1731.78 2232.82 1731.78 2237.75 1736.71 2237.75 1742.78Z" stroke="#A5A5A5" stroke-width="3.4375" stroke-linejoin="round" stroke-miterlimit="10" fill="#A5A5A5"/><path d="M2412.75 1680.78C2412.75 1686.86 2407.82 1691.78 2401.75 1691.78 2395.67 1691.78 2390.75 1686.86 2390.75 1680.78 2390.75 1674.71 2395.67 1669.78 2401.75 1669.78 2407.82 1669.78 2412.75 1674.71 2412.75 1680.78Z" stroke="#A5A5A5" stroke-width="3.4375" stroke-linejoin="round" stroke-miterlimit="10" fill="#A5A5A5"/><path d="M2588.75 1598.78C2588.75 1604.86 2583.82 1609.78 2577.75 1609.78 2571.67 1609.78 2566.75 1604.86 2566.75 1598.78 2566.75 1592.71 2571.67 1587.78 2577.75 1587.78 2583.82 1587.78 2588.75 1592.71 2588.75 1598.78Z" stroke="#A5A5A5" stroke-width="3.4375" stroke-linejoin="round" stroke-miterlimit="10" fill="#A5A5A5"/><path d="M2764.75 1539.78C2764.75 1545.86 2759.82 1550.78 2753.75 1550.78 2747.67 1550.78 2742.75 1545.86 2742.75 1539.78 2742.75 1533.71 2747.67 1528.78 2753.75 1528.78 2759.82 1528.78 2764.75 1533.71 2764.75 1539.78Z" stroke="#A5A5A5" stroke-width="3.4375" stroke-linejoin="round" stroke-miterlimit="10" fill="#A5A5A5"/></g><g clip-path="url(#clip10)"><path d="M1170.5 1947.5C1229.13 1944.99 1287.76 1942.8 1346.39 1939.98 1405.02 1937.17 1463.65 1934.19 1522.28 1930.59 1580.91 1926.99 1639.54 1921.2 1698.17 1918.38 1756.8 1915.56 1815.43 1917.91 1874.06 1913.68 1932.68 1909.45 1991.31 1897.09 2049.94 1893.02 2108.57 1888.94 2167.2 1891.92 2225.83 1889.26 2284.46 1886.6 2343.09 1881.9 2401.72 1877.05 2460.35 1872.19 2518.98 1863.89 2577.61 1860.14 2636.24 1856.38 2694.87 1856.38 2753.5 1854.5" stroke="#FFC000" stroke-width="6.875" stroke-linecap="round" stroke-linejoin="round" stroke-miterlimit="10" fill="none"/></g><g clip-path="url(#clip11)"><path d="M1181.75 1947.78C1181.75 1953.86 1176.82 1958.78 1170.75 1958.78 1164.67 1958.78 1159.75 1953.86 1159.75 1947.78 1159.75 1941.71 1164.67 1936.78 1170.75 1936.78 1176.82 1936.78 1181.75 1941.71 1181.75 1947.78Z" stroke="#FFC000" stroke-width="3.4375" stroke-linejoin="round" stroke-miterlimit="10" fill="#FFC000"/><path d="M1357.75 1939.78C1357.75 1945.86 1352.82 1950.78 1346.75 1950.78 1340.67 1950.78 1335.75 1945.86 1335.75 1939.78 1335.75 1933.71 1340.67 1928.78 1346.75 1928.78 1352.82 1928.78 1357.75 1933.71 1357.75 1939.78Z" stroke="#FFC000" stroke-width="3.4375" stroke-linejoin="round" stroke-miterlimit="10" fill="#FFC000"/><path d="M1533.75 1930.78C1533.75 1936.86 1528.82 1941.78 1522.75 1941.78 1516.67 1941.78 1511.75 1936.86 1511.75 1930.78 1511.75 1924.71 1516.67 1919.78 1522.75 1919.78 1528.82 1919.78 1533.75 1924.71 1533.75 1930.78Z" stroke="#FFC000" stroke-width="3.4375" stroke-linejoin="round" stroke-miterlimit="10" fill="#FFC000"/><path d="M1709.75 1918.78C1709.75 1924.86 1704.82 1929.78 1698.75 1929.78 1692.67 1929.78 1687.75 1924.86 1687.75 1918.78 1687.75 1912.71 1692.67 1907.78 1698.75 1907.78 1704.82 1907.78 1709.75 1912.71 1709.75 1918.78Z" stroke="#FFC000" stroke-width="3.4375" stroke-linejoin="round" stroke-miterlimit="10" fill="#FFC000"/><path d="M1885.75 1913.78C1885.75 1919.86 1880.82 1924.78 1874.75 1924.78 1868.67 1924.78 1863.75 1919.86 1863.75 1913.78 1863.75 1907.71 1868.67 1902.78 1874.75 1902.78 1880.82 1902.78 1885.75 1907.71 1885.75 1913.78Z" stroke="#FFC000" stroke-width="3.4375" stroke-linejoin="round" stroke-miterlimit="10" fill="#FFC000"/><path d="M2061.75 1892.78C2061.75 1898.86 2056.82 1903.78 2050.75 1903.78 2044.67 1903.78 2039.75 1898.86 2039.75 1892.78 2039.75 1886.71 2044.67 1881.78 2050.75 1881.78 2056.82 1881.78 2061.75 1886.71 2061.75 1892.78Z" stroke="#FFC000" stroke-width="3.4375" stroke-linejoin="round" stroke-miterlimit="10" fill="#FFC000"/><path d="M2237.75 1888.78C2237.75 1894.86 2232.82 1899.78 2226.75 1899.78 2220.67 1899.78 2215.75 1894.86 2215.75 1888.78 2215.75 1882.71 2220.67 1877.78 2226.75 1877.78 2232.82 1877.78 2237.75 1882.71 2237.75 1888.78Z" stroke="#FFC000" stroke-width="3.4375" stroke-linejoin="round" stroke-miterlimit="10" fill="#FFC000"/><path d="M2412.75 1876.78C2412.75 1882.86 2407.82 1887.78 2401.75 1887.78 2395.67 1887.78 2390.75 1882.86 2390.75 1876.78 2390.75 1870.71 2395.67 1865.78 2401.75 1865.78 2407.82 1865.78 2412.75 1870.71 2412.75 1876.78Z" stroke="#FFC000" stroke-width="3.4375" stroke-linejoin="round" stroke-miterlimit="10" fill="#FFC000"/><path d="M2588.75 1859.78C2588.75 1865.86 2583.82 1870.78 2577.75 1870.78 2571.67 1870.78 2566.75 1865.86 2566.75 1859.78 2566.75 1853.71 2571.67 1848.78 2577.75 1848.78 2583.82 1848.78 2588.75 1853.71 2588.75 1859.78Z" stroke="#FFC000" stroke-width="3.4375" stroke-linejoin="round" stroke-miterlimit="10" fill="#FFC000"/><path d="M2764.75 1854.78C2764.75 1860.86 2759.82 1865.78 2753.75 1865.78 2747.67 1865.78 2742.75 1860.86 2742.75 1854.78 2742.75 1848.71 2747.67 1843.78 2753.75 1843.78 2759.82 1843.78 2764.75 1848.71 2764.75 1854.78Z" stroke="#FFC000" stroke-width="3.4375" stroke-linejoin="round" stroke-miterlimit="10" fill="#FFC000"/></g><g clip-path="url(#clip12)"><path d="M1170.5 1937.5C1229.13 1935.01 1287.76 1932.67 1346.39 1930.03 1405.02 1927.38 1463.65 1924.42 1522.28 1921.62 1580.91 1918.82 1639.54 1916.64 1698.17 1913.22 1756.8 1909.79 1815.43 1907.3 1874.06 1901.08 1932.68 1894.85 1991.31 1880.84 2049.94 1875.86 2108.57 1870.88 2167.2 1873.37 2225.83 1871.19 2284.46 1869.01 2343.09 1867.14 2401.72 1862.78 2460.35 1858.42 2518.98 1849.08 2577.61 1845.04 2636.24 1840.99 2694.87 1840.68 2753.5 1838.5" stroke="#5B9BD5" stroke-width="6.875" stroke-linecap="round" stroke-linejoin="round" stroke-miterlimit="10" fill="none"/></g><g clip-path="url(#clip13)"><path d="M1181.75 1937.78C1181.75 1943.86 1176.82 1948.78 1170.75 1948.78 1164.67 1948.78 1159.75 1943.86 1159.75 1937.78 1159.75 1931.71 1164.67 1926.78 1170.75 1926.78 1176.82 1926.78 1181.75 1931.71 1181.75 1937.78Z" stroke="#5B9BD5" stroke-width="3.4375" stroke-linejoin="round" stroke-miterlimit="10" fill="#5B9BD5"/><path d="M1357.75 1930.78C1357.75 1936.86 1352.82 1941.78 1346.75 1941.78 1340.67 1941.78 1335.75 1936.86 1335.75 1930.78 1335.75 1924.71 1340.67 1919.78 1346.75 1919.78 1352.82 1919.78 1357.75 1924.71 1357.75 1930.78Z" stroke="#5B9BD5" stroke-width="3.4375" stroke-linejoin="round" stroke-miterlimit="10" fill="#5B9BD5"/><path d="M1533.75 1921.78C1533.75 1927.86 1528.82 1932.78 1522.75 1932.78 1516.67 1932.78 1511.75 1927.86 1511.75 1921.78 1511.75 1915.71 1516.67 1910.78 1522.75 1910.78 1528.82 1910.78 1533.75 1915.71 1533.75 1921.78Z" stroke="#5B9BD5" stroke-width="3.4375" stroke-linejoin="round" stroke-miterlimit="10" fill="#5B9BD5"/><path d="M1709.75 1913.78C1709.75 1919.86 1704.82 1924.78 1698.75 1924.78 1692.67 1924.78 1687.75 1919.86 1687.75 1913.78 1687.75 1907.71 1692.67 1902.78 1698.75 1902.78 1704.82 1902.78 1709.75 1907.71 1709.75 1913.78Z" stroke="#5B9BD5" stroke-width="3.4375" stroke-linejoin="round" stroke-miterlimit="10" fill="#5B9BD5"/><path d="M1885.75 1901.78C1885.75 1907.86 1880.82 1912.78 1874.75 1912.78 1868.67 1912.78 1863.75 1907.86 1863.75 1901.78 1863.75 1895.71 1868.67 1890.78 1874.75 1890.78 1880.82 1890.78 1885.75 1895.71 1885.75 1901.78Z" stroke="#5B9BD5" stroke-width="3.4375" stroke-linejoin="round" stroke-miterlimit="10" fill="#5B9BD5"/><path d="M2061.75 1875.78C2061.75 1881.86 2056.82 1886.78 2050.75 1886.78 2044.67 1886.78 2039.75 1881.86 2039.75 1875.78 2039.75 1869.71 2044.67 1864.78 2050.75 1864.78 2056.82 1864.78 2061.75 1869.71 2061.75 1875.78Z" stroke="#5B9BD5" stroke-width="3.4375" stroke-linejoin="round" stroke-miterlimit="10" fill="#5B9BD5"/><path d="M2237.75 1871.78C2237.75 1877.86 2232.82 1882.78 2226.75 1882.78 2220.67 1882.78 2215.75 1877.86 2215.75 1871.78 2215.75 1865.71 2220.67 1860.78 2226.75 1860.78 2232.82 1860.78 2237.75 1865.71 2237.75 1871.78Z" stroke="#5B9BD5" stroke-width="3.4375" stroke-linejoin="round" stroke-miterlimit="10" fill="#5B9BD5"/><path d="M2412.75 1862.78C2412.75 1868.86 2407.82 1873.78 2401.75 1873.78 2395.67 1873.78 2390.75 1868.86 2390.75 1862.78 2390.75 1856.71 2395.67 1851.78 2401.75 1851.78 2407.82 1851.78 2412.75 1856.71 2412.75 1862.78Z" stroke="#5B9BD5" stroke-width="3.4375" stroke-linejoin="round" stroke-miterlimit="10" fill="#5B9BD5"/><path d="M2588.75 1844.78C2588.75 1850.86 2583.82 1855.78 2577.75 1855.78 2571.67 1855.78 2566.75 1850.86 2566.75 1844.78 2566.75 1838.71 2571.67 1833.78 2577.75 1833.78 2583.82 1833.78 2588.75 1838.71 2588.75 1844.78Z" stroke="#5B9BD5" stroke-width="3.4375" stroke-linejoin="round" stroke-miterlimit="10" fill="#5B9BD5"/><path d="M2764.75 1838.78C2764.75 1844.86 2759.82 1849.78 2753.75 1849.78 2747.67 1849.78 2742.75 1844.86 2742.75 1838.78 2742.75 1832.71 2747.67 1827.78 2753.75 1827.78 2759.82 1827.78 2764.75 1832.71 2764.75 1838.78Z" stroke="#5B9BD5" stroke-width="3.4375" stroke-linejoin="round" stroke-miterlimit="10" fill="#5B9BD5"/></g><g clip-path="url(#clip14)"><text fill="#595959" font-family="Calibri,Calibri_MSFontService,sans-serif" font-weight="400" font-size="41" transform="matrix(1 0 0 1 935.436 1970)">0</text></g><g clip-path="url(#clip15)"><text fill="#595959" font-family="Calibri,Calibri_MSFontService,sans-serif" font-weight="400" font-size="41" transform="matrix(1 0 0 1 883.231 1782)">0.02</text></g><g clip-path="url(#clip16)"><text fill="#595959" font-family="Calibri,Calibri_MSFontService,sans-serif" font-weight="400" font-size="41" transform="matrix(1 0 0 1 883.231 1593)">0.04</text></g><g clip-path="url(#clip17)"><text fill="#595959" font-family="Calibri,Calibri_MSFontService,sans-serif" font-weight="400" font-size="41" transform="matrix(1 0 0 1 883.231 1405)">0.06</text></g><g clip-path="url(#clip18)"><text fill="#595959" font-family="Calibri,Calibri_MSFontService,sans-serif" font-weight="400" font-size="41" transform="matrix(1 0 0 1 883.231 1217)">0.08</text></g><g clip-path="url(#clip19)"><text fill="#595959" font-family="Calibri,Calibri_MSFontService,sans-serif" font-weight="400" font-size="41" transform="matrix(1 0 0 1 904.131 1028)">0.1</text></g><g clip-path="url(#clip20)"><text fill="#595959" font-family="Calibri,Calibri_MSFontService,sans-serif" font-weight="400" font-size="41" transform="matrix(1 0 0 1 883.231 840)">0.12</text></g><g clip-path="url(#clip21)"><text fill="#595959" font-family="Calibri,Calibri_MSFontService,sans-serif" font-weight="400" font-size="41" transform="matrix(1 0 0 1 984.152 2024)">0</text></g><g clip-path="url(#clip22)"><text fill="#595959" font-family="Calibri,Calibri_MSFontService,sans-serif" font-weight="400" font-size="41" transform="matrix(1 0 0 1 1325.55 2024)">20</text></g><g clip-path="url(#clip23)"><text fill="#595959" font-family="Calibri,Calibri_MSFontService,sans-serif" font-weight="400" font-size="41" transform="matrix(1 0 0 1 1677.4 2024)">40</text></g><g clip-path="url(#clip24)"><text fill="#595959" font-family="Calibri,Calibri_MSFontService,sans-serif" font-weight="400" font-size="41" transform="matrix(1 0 0 1 2029.25 2024)">60</text></g><g clip-path="url(#clip25)"><text fill="#595959" font-family="Calibri,Calibri_MSFontService,sans-serif" font-weight="400" font-size="41" transform="matrix(1 0 0 1 2381.09 2024)">80</text></g><g clip-path="url(#clip26)"><text fill="#595959" font-family="Calibri,Calibri_MSFontService,sans-serif" font-weight="400" font-size="41" transform="matrix(1 0 0 1 2722.49 2024)">100</text></g><g clip-path="url(#clip27)"><text fill="#595959" font-family="Calibri,Calibri_MSFontService,sans-serif" font-weight="400" font-size="41" transform="matrix(1 0 0 1 3074.34 2024)">120</text></g><g clip-path="url(#clip28)"><text fill="#595959" font-family="Calibri,Calibri_MSFontService,sans-serif" font-weight="400" font-size="46" transform="matrix(6.12323e-17 -1 1 6.12323e-17 857.542 1502)">Temps [ms]</text></g><g clip-path="url(#clip29)"><text fill="#595959" font-family="Calibri,Calibri_MSFontService,sans-serif" font-weight="400" font-size="46" transform="matrix(1 0 0 1 1872.75 2093)">Nombre de valeurs</text></g><g clip-path="url(#clip30)"><text fill="#595959" font-family="Calibri,Calibri_MSFontService,sans-serif" font-weight="400" font-size="64" transform="matrix(1 0 0 1 1930.61 754)">Vecteurs aléatoire</text></g><g clip-path="url(#clip31)"><path d="M3208.5 1315.5 3296.5 1315.5" stroke="#4472C4" stroke-width="6.875" stroke-linecap="round" stroke-linejoin="round" stroke-miterlimit="10" fill="none" fill-rule="evenodd"/></g><g clip-path="url(#clip32)"><path d="M3263 1315C3263 1321.07 3258.07 1326 3252 1326 3245.93 1326 3241 1321.07 3241 1315 3241 1308.92 3245.93 1304 3252 1304 3258.07 1304 3263 1308.92 3263 1315Z" stroke="#4472C4" stroke-width="3.4375" stroke-linejoin="round" stroke-miterlimit="10" fill="#4472C4"/></g><g clip-path="url(#clip33)"><text fill="#595959" font-family="Calibri,Calibri_MSFontService,sans-serif" font-weight="400" font-size="41" transform="matrix(1 0 0 1 3306.05 1327)">BubbleSort</text></g><g clip-path="url(#clip34)"><path d="M3208.5 1392.5 3296.5 1392.5" stroke="#ED7D31" stroke-width="6.875" stroke-linecap="round" stroke-linejoin="round" stroke-miterlimit="10" fill="none" fill-rule="evenodd"/></g><g clip-path="url(#clip35)"><path d="M3263 1392C3263 1398.07 3258.07 1403 3252 1403 3245.93 1403 3241 1398.07 3241 1392 3241 1385.92 3245.93 1381 3252 1381 3258.07 1381 3263 1385.92 3263 1392Z" stroke="#ED7D31" stroke-width="3.4375" stroke-linejoin="round" stroke-miterlimit="10" fill="#ED7D31"/></g><g clip-path="url(#clip36)"><text fill="#595959" font-family="Calibri,Calibri_MSFontService,sans-serif" font-weight="400" font-size="41" transform="matrix(1 0 0 1 3306.05 1404)">InsertionSort</text></g><g clip-path="url(#clip37)"><path d="M3208.5 1470.5 3296.5 1470.5" stroke="#A5A5A5" stroke-width="6.875" stroke-linecap="round" stroke-linejoin="round" stroke-miterlimit="10" fill="none" fill-rule="evenodd"/></g><g clip-path="url(#clip38)"><path d="M3263 1470C3263 1476.07 3258.07 1481 3252 1481 3245.93 1481 3241 1476.07 3241 1470 3241 1463.92 3245.93 1459 3252 1459 3258.07 1459 3263 1463.92 3263 1470Z" stroke="#A5A5A5" stroke-width="3.4375" stroke-linejoin="round" stroke-miterlimit="10" fill="#A5A5A5"/></g><g clip-path="url(#clip39)"><text fill="#595959" font-family="Calibri,Calibri_MSFontService,sans-serif" font-weight="400" font-size="41" transform="matrix(1 0 0 1 3306.05 1482)">SelectionSort</text></g><g clip-path="url(#clip40)"><path d="M3208.5 1547.5 3296.5 1547.5" stroke="#FFC000" stroke-width="6.875" stroke-linecap="round" stroke-linejoin="round" stroke-miterlimit="10" fill="none" fill-rule="evenodd"/></g><g clip-path="url(#clip41)"><path d="M3263 1547C3263 1553.07 3258.07 1558 3252 1558 3245.93 1558 3241 1553.07 3241 1547 3241 1540.92 3245.93 1536 3252 1536 3258.07 1536 3263 1540.92 3263 1547Z" stroke="#FFC000" stroke-width="3.4375" stroke-linejoin="round" stroke-miterlimit="10" fill="#FFC000"/></g><g clip-path="url(#clip42)"><text fill="#595959" font-family="Calibri,Calibri_MSFontService,sans-serif" font-weight="400" font-size="41" transform="matrix(1 0 0 1 3306.05 1559)">Sort</text></g><g clip-path="url(#clip43)"><path d="M3208.5 1624.5 3296.5 1624.5" stroke="#5B9BD5" stroke-width="6.875" stroke-linecap="round" stroke-linejoin="round" stroke-miterlimit="10" fill="none" fill-rule="evenodd"/></g><g clip-path="url(#clip44)"><path d="M3263 1624C3263 1630.07 3258.07 1635 3252 1635 3245.93 1635 3241 1630.07 3241 1624 3241 1617.92 3245.93 1613 3252 1613 3258.07 1613 3263 1617.92 3263 1624Z" stroke="#5B9BD5" stroke-width="3.4375" stroke-linejoin="round" stroke-miterlimit="10" fill="#5B9BD5"/></g><g clip-path="url(#clip45)"><text fill="#595959" font-family="Calibri,Calibri_MSFontService,sans-serif" font-weight="400" font-size="41" transform="matrix(1 0 0 1 3306.05 1636)">StableSort</text></g><rect x="756.5" y="658.5" width="2819" height="1504" stroke="#D9D9D9" stroke-width="3.4375" stroke-linejoin="round" stroke-miterlimit="10" fill="none"/></g></svg>