<svg width="2491" height="1416" xmlns="http://www.w3.org/2000/svg" xmlns:xlink="http://www.w3.org/1999/xlink" xml:space="preserve" overflow="hidden"><defs><clipPath id="clip0"><rect x="893" y="376" width="2491" height="1416"/></clipPath><clipPath id="clip1"><rect x="893" y="376" width="2489" height="1414"/></clipPath><clipPath id="clip2"><rect x="893" y="376" width="2489" height="1414"/></clipPath><clipPath id="clip3"><rect x="893" y="376" width="2489" height="1414"/></clipPath><clipPath id="clip4"><rect x="1132" y="546" width="1784" height="1044"/></clipPath><clipPath id="clip5"><rect x="893" y="376" width="2489" height="1414"/></clipPath><clipPath id="clip6"><rect x="1132" y="546" width="1784" height="1044"/></clipPath><clipPath id="clip7"><rect x="893" y="376" width="2489" height="1414"/></clipPath><clipPath id="clip8"><rect x="1132" y="546" width="1784" height="1044"/></clipPath><clipPath id="clip9"><rect x="893" y="376" width="2489" height="1414"/></clipPath><clipPath id="clip10"><rect x="1132" y="546" width="1784" height="1044"/></clipPath><clipPath id="clip11"><rect x="893" y="376" width="2489" height="1414"/></clipPath><clipPath id="clip12"><rect x="1132" y="546" width="1784" height="1044"/></clipPath><clipPath id="clip13"><rect x="893" y="376" width="2489" height="1414"/></clipPath><clipPath id="clip14"><rect x="893" y="376" width="2489" height="1414"/></clipPath><clipPath id="clip15"><rect x="893" y="376" width="2489" height="1414"/></clipPath><clipPath id="clip16"><rect x="893" y="376" width="2489" height="1414"/></clipPath><clipPath id="clip17"><rect x="893" y="376" width="2489" height="1414"/></clipPath><clipPath id="clip18"><rect x="893" y="376" width="2489" height="1414"/></clipPath><clipPath id="clip19"><rect x="893" y="376" width="2489" height="1414"/></clipPath><clipPath id="clip20"><rect x="893" y="376" width="2489" height="1414"/></clipPath><clipPath id="clip21"><rect x="893" y="376" width="2489" height="1414"/></clipPath><clipPath id="clip22"><rect x="893" y="376" width="2489" height="1414"/></clipPath><clipPath id="clip23"><rect x="893" y="376" width="2489" height="1414"/></clipPath><clipPath id="clip24"><rect x="893" y="376" width="2489" height="1414"/></clipPath><clipPath id="clip25"><rect x="893" y="376" width="2489" height="1414"/></clipPath><clipPath id="clip26"><rect x="893" y="376" width="2489" height="1414"/></clipPath><clipPath id="clip27"><rect x="893" y="376" width="2489" height="1414"/></clipPath><clipPath id="clip28"><rect x="893" y="376" width="2489" height="1414"/></clipPath><clipPath id="clip29"><rect x="893" y="376" width="2489" height="1414"/></clipPath><clipPath id="clip30"><rect x="893" y="376" width="2489" height="1414"/></clipPath><clipPath id="clip31"><rect x="893" y="376" width="2489" height="1414"/></clipPath><clipPath id="clip32"><rect x="893" y="376" width="2489" height="1414"/></clipPath><clipPath id="clip33"><rect x="893" y="376" width="2489" height="1414"/></clipPath><clipPath id="clip34"><rect x="893" y="376" width="2489" height="1414"/></clipPath><clipPath id="clip35"><rect x="893" y="376" width="2489" height="1414"/></clipPath><clipPath id="clip36"><rect x="893" y="376" width="2489" height="1414"/></clipPath><clipPath id="clip37"><rect x="893" y="376" width="2489" height="1414"/></clipPath><clipPath id="clip38"><rect x="893" y="376" width="2489" height="1414"/></clipPath><clipPath id="clip39"><rect x="893" y="376" width="2489" height="1414"/></clipPath><clipPath id="clip40"><rect x="893" y="376" width="2489" height="1414"/></clipPath><clipPath id="clip41"><rect x="893" y="376" width="2489" height="1414"/></clipPath><clipPath id="clip42"><rect x="893" y="376" width="2489" height="1414"/></clipPath><clipPath id="clip43"><rect x="893" y="376" width="2489" height="1414"/></clipPath><clipPath id="clip44"><rect x="893" y="376" width="2489" height="1414"/></clipPath><clipPath id="clip45"><rect x="893" y="376" width="2489" height="1414"/></clipPath><clipPath id="clip46"><rect x="893" y="376" width="2489" height="1414"/></clipPath></defs><g clip-path="url(#clip0)" transform="translate(-893 -376)"><rect x="894" y="377" width="2488" height="1413" fill="#FFFFFF"/><g clip-path="url(#clip1)"><path d="M1132.5 1438.55 2913.5 1438.55M1132.5 1289.54 2913.5 1289.54M1132.5 1140.54 2913.5 1140.54M1132.5 992.533 2913.5 992.533M1132.5 843.528 2913.5 843.528M1132.5 695.523 2913.5 695.523M1132.5 546.5 2913.5 546.5" stroke="#D9D9D9" stroke-width="3.4375" stroke-linejoin="round" stroke-miterlimit="10" fill="none"/></g><g clip-path="url(#clip2)"><path d="M0 0 0.000360892 1040" stroke="#BFBFBF" stroke-width="3.4375" stroke-linejoin="round" stroke-miterlimit="10" fill="none" fill-rule="evenodd" transform="matrix(1 0 0 -1 1132.5 1586.5)"/></g><g clip-path="url(#clip3)"><path d="M1132.5 1586.5 2913.5 1586.5" stroke="#BFBFBF" stroke-width="3.4375" stroke-linejoin="round" stroke-miterlimit="10" fill="none" fill-rule="evenodd"/></g><g clip-path="url(#clip4)"><path d="M1280.5 1569.5C1329.98 1562.07 1379.46 1558.36 1428.94 1547.22 1478.43 1536.08 1527.91 1520.61 1577.39 1502.67 1626.87 1484.72 1676.35 1463.31 1725.83 1439.55 1775.31 1415.79 1824.8 1390.29 1874.28 1360.1 1923.76 1329.9 1973.24 1294.01 2022.72 1258.36 2072.2 1222.72 2121.69 1187.82 2171.17 1146.24 2220.65 1104.65 2270.13 1056.14 2319.61 1008.86 2369.09 961.586 2418.57 914.804 2468.06 862.577 2517.54 810.35 2567.02 751.192 2616.5 695.5" stroke="#4472C4" stroke-width="6.875" stroke-linecap="round" stroke-linejoin="round" stroke-miterlimit="10" fill="none"/></g><g clip-path="url(#clip5)"><path d="M1291.25 1569.25C1291.25 1575.32 1286.32 1580.25 1280.25 1580.25 1274.17 1580.25 1269.25 1575.32 1269.25 1569.25 1269.25 1563.17 1274.17 1558.25 1280.25 1558.25 1286.32 1558.25 1291.25 1563.17 1291.25 1569.25Z" stroke="#4472C4" stroke-width="3.4375" stroke-linejoin="round" stroke-miterlimit="10" fill="#4472C4"/><path d="M1439.25 1547.25C1439.25 1553.32 1434.32 1558.25 1428.25 1558.25 1422.17 1558.25 1417.25 1553.32 1417.25 1547.25 1417.25 1541.17 1422.17 1536.25 1428.25 1536.25 1434.32 1536.25 1439.25 1541.17 1439.25 1547.25Z" stroke="#4472C4" stroke-width="3.4375" stroke-linejoin="round" stroke-miterlimit="10" fill="#4472C4"/><path d="M1588.25 1502.25C1588.25 1508.32 1583.32 1513.25 1577.25 1513.25 1571.17 1513.25 1566.25 1508.32 1566.25 1502.25 1566.25 1496.17 1571.17 1491.25 1577.25 1491.25 1583.32 1491.25 1588.25 1496.17 1588.25 1502.25Z" stroke="#4472C4" stroke-width="3.4375" stroke-linejoin="round" stroke-miterlimit="10" fill="#4472C4"/><path d="M1736.25 1439.25C1736.25 1445.32 1731.32 1450.25 1725.25 1450.25 1719.17 1450.25 1714.25 1445.32 1714.25 1439.25 1714.25 1433.17 1719.17 1428.25 1725.25 1428.25 1731.32 1428.25 1736.25 1433.17 1736.25 1439.25Z" stroke="#4472C4" stroke-width="3.4375" stroke-linejoin="round" stroke-miterlimit="10" fill="#4472C4"/><path d="M1885.25 1360.25C1885.25 1366.32 1880.32 1371.25 1874.25 1371.25 1868.17 1371.25 1863.25 1366.32 1863.25 1360.25 1863.25 1354.17 1868.17 1349.25 1874.25 1349.25 1880.32 1349.25 1885.25 1354.17 1885.25 1360.25Z" stroke="#4472C4" stroke-width="3.4375" stroke-linejoin="round" stroke-miterlimit="10" fill="#4472C4"/><path d="M2033.25 1258.25C2033.25 1264.32 2028.32 1269.25 2022.25 1269.25 2016.17 1269.25 2011.25 1264.32 2011.25 1258.25 2011.25 1252.17 2016.17 1247.25 2022.25 1247.25 2028.32 1247.25 2033.25 1252.17 2033.25 1258.25Z" stroke="#4472C4" stroke-width="3.4375" stroke-linejoin="round" stroke-miterlimit="10" fill="#4472C4"/><path d="M2182.25 1146.25C2182.25 1152.32 2177.32 1157.25 2171.25 1157.25 2165.17 1157.25 2160.25 1152.32 2160.25 1146.25 2160.25 1140.17 2165.17 1135.25 2171.25 1135.25 2177.32 1135.25 2182.25 1140.17 2182.25 1146.25Z" stroke="#4472C4" stroke-width="3.4375" stroke-linejoin="round" stroke-miterlimit="10" fill="#4472C4"/><path d="M2330.25 1008.25C2330.25 1014.32 2325.32 1019.25 2319.25 1019.25 2313.17 1019.25 2308.25 1014.32 2308.25 1008.25 2308.25 1002.17 2313.17 997.25 2319.25 997.25 2325.32 997.25 2330.25 1002.17 2330.25 1008.25Z" stroke="#4472C4" stroke-width="3.4375" stroke-linejoin="round" stroke-miterlimit="10" fill="#4472C4"/><path d="M2478.25 862.25C2478.25 868.324 2473.32 873.249 2467.25 873.249 2461.17 873.249 2456.25 868.324 2456.25 862.25 2456.25 856.175 2461.17 851.25 2467.25 851.25 2473.32 851.25 2478.25 856.175 2478.25 862.25Z" stroke="#4472C4" stroke-width="3.4375" stroke-linejoin="round" stroke-miterlimit="10" fill="#4472C4"/><path d="M2627.25 695.249C2627.25 701.324 2622.32 706.249 2616.25 706.249 2610.17 706.249 2605.25 701.324 2605.25 695.249 2605.25 689.175 2610.17 684.25 2616.25 684.25 2622.32 684.25 2627.25 689.175 2627.25 695.249Z" stroke="#4472C4" stroke-width="3.4375" stroke-linejoin="round" stroke-miterlimit="10" fill="#4472C4"/></g><g clip-path="url(#clip6)"><path d="M1280.5 1577.5C1329.98 1571.57 1379.46 1567.61 1428.94 1559.7 1478.43 1551.78 1527.91 1541.77 1577.39 1530.02 1626.87 1518.28 1676.35 1504.8 1725.83 1489.22 1775.31 1473.64 1824.8 1457.32 1874.28 1436.55 1923.76 1415.78 1973.24 1389.69 2022.72 1364.59 2072.2 1339.49 2121.69 1314.39 2171.17 1285.95 2220.65 1257.51 2270.13 1226.11 2319.61 1193.96 2369.09 1161.81 2418.57 1127.81 2468.06 1093.07 2517.54 1058.33 2567.02 1021.36 2616.5 985.5" stroke="#ED7D31" stroke-width="6.875" stroke-linecap="round" stroke-linejoin="round" stroke-miterlimit="10" fill="none"/></g><g clip-path="url(#clip7)"><path d="M1291.25 1577.25C1291.25 1583.32 1286.32 1588.25 1280.25 1588.25 1274.17 1588.25 1269.25 1583.32 1269.25 1577.25 1269.25 1571.17 1274.17 1566.25 1280.25 1566.25 1286.32 1566.25 1291.25 1571.17 1291.25 1577.25Z" stroke="#ED7D31" stroke-width="3.4375" stroke-linejoin="round" stroke-miterlimit="10" fill="#ED7D31"/><path d="M1439.25 1559.25C1439.25 1565.32 1434.32 1570.25 1428.25 1570.25 1422.17 1570.25 1417.25 1565.32 1417.25 1559.25 1417.25 1553.17 1422.17 1548.25 1428.25 1548.25 1434.32 1548.25 1439.25 1553.17 1439.25 1559.25Z" stroke="#ED7D31" stroke-width="3.4375" stroke-linejoin="round" stroke-miterlimit="10" fill="#ED7D31"/><path d="M1588.25 1530.25C1588.25 1536.32 1583.32 1541.25 1577.25 1541.25 1571.17 1541.25 1566.25 1536.32 1566.25 1530.25 1566.25 1524.17 1571.17 1519.25 1577.25 1519.25 1583.32 1519.25 1588.25 1524.17 1588.25 1530.25Z" stroke="#ED7D31" stroke-width="3.4375" stroke-linejoin="round" stroke-miterlimit="10" fill="#ED7D31"/><path d="M1736.25 1489.25C1736.25 1495.32 1731.32 1500.25 1725.25 1500.25 1719.17 1500.25 1714.25 1495.32 1714.25 1489.25 1714.25 1483.17 1719.17 1478.25 1725.25 1478.25 1731.32 1478.25 1736.25 1483.17 1736.25 1489.25Z" stroke="#ED7D31" stroke-width="3.4375" stroke-linejoin="round" stroke-miterlimit="10" fill="#ED7D31"/><path d="M1885.25 1436.25C1885.25 1442.32 1880.32 1447.25 1874.25 1447.25 1868.17 1447.25 1863.25 1442.32 1863.25 1436.25 1863.25 1430.17 1868.17 1425.25 1874.25 1425.25 1880.32 1425.25 1885.25 1430.17 1885.25 1436.25Z" stroke="#ED7D31" stroke-width="3.4375" stroke-linejoin="round" stroke-miterlimit="10" fill="#ED7D31"/><path d="M2033.25 1364.25C2033.25 1370.32 2028.32 1375.25 2022.25 1375.25 2016.17 1375.25 2011.25 1370.32 2011.25 1364.25 2011.25 1358.17 2016.17 1353.25 2022.25 1353.25 2028.32 1353.25 2033.25 1358.17 2033.25 1364.25Z" stroke="#ED7D31" stroke-width="3.4375" stroke-linejoin="round" stroke-miterlimit="10" fill="#ED7D31"/><path d="M2182.25 1285.25C2182.25 1291.32 2177.32 1296.25 2171.25 1296.25 2165.17 1296.25 2160.25 1291.32 2160.25 1285.25 2160.25 1279.17 2165.17 1274.25 2171.25 1274.25 2177.32 1274.25 2182.25 1279.17 2182.25 1285.25Z" stroke="#ED7D31" stroke-width="3.4375" stroke-linejoin="round" stroke-miterlimit="10" fill="#ED7D31"/><path d="M2330.25 1193.25C2330.25 1199.32 2325.32 1204.25 2319.25 1204.25 2313.17 1204.25 2308.25 1199.32 2308.25 1193.25 2308.25 1187.17 2313.17 1182.25 2319.25 1182.25 2325.32 1182.25 2330.25 1187.17 2330.25 1193.25Z" stroke="#ED7D31" stroke-width="3.4375" stroke-linejoin="round" stroke-miterlimit="10" fill="#ED7D31"/><path d="M2478.25 1092.25C2478.25 1098.32 2473.32 1103.25 2467.25 1103.25 2461.17 1103.25 2456.25 1098.32 2456.25 1092.25 2456.25 1086.17 2461.17 1081.25 2467.25 1081.25 2473.32 1081.25 2478.25 1086.17 2478.25 1092.25Z" stroke="#ED7D31" stroke-width="3.4375" stroke-linejoin="round" stroke-miterlimit="10" fill="#ED7D31"/><path d="M2627.25 985.25C2627.25 991.325 2622.32 996.249 2616.25 996.249 2610.17 996.249 2605.25 991.325 2605.25 985.25 2605.25 979.175 2610.17 974.25 2616.25 974.25 2622.32 974.25 2627.25 979.175 2627.25 985.25Z" stroke="#ED7D31" stroke-width="3.4375" stroke-linejoin="round" stroke-miterlimit="10" fill="#ED7D31"/></g><g clip-path="url(#clip8)"><path d="M1280.5 1578.5C1329.98 1575.28 1379.46 1573.05 1428.94 1568.84 1478.43 1564.63 1527.91 1559.55 1577.39 1553.24 1626.87 1546.92 1676.35 1539.24 1725.83 1530.95 1775.31 1522.65 1824.8 1513.49 1874.28 1503.46 1923.76 1493.43 1973.24 1482.78 2022.72 1470.76 2072.2 1458.75 2121.69 1445.13 2171.17 1431.39 2220.65 1417.64 2270.13 1403.52 2319.61 1388.29 2369.09 1373.06 2418.57 1356.96 2468.06 1340 2517.54 1323.03 2567.02 1304.33 2616.5 1286.5" stroke="#A5A5A5" stroke-width="6.875" stroke-linecap="round" stroke-linejoin="round" stroke-miterlimit="10" fill="none"/></g><g clip-path="url(#clip9)"><path d="M1291.25 1578.25C1291.25 1584.32 1286.32 1589.25 1280.25 1589.25 1274.17 1589.25 1269.25 1584.32 1269.25 1578.25 1269.25 1572.17 1274.17 1567.25 1280.25 1567.25 1286.32 1567.25 1291.25 1572.17 1291.25 1578.25Z" stroke="#A5A5A5" stroke-width="3.4375" stroke-linejoin="round" stroke-miterlimit="10" fill="#A5A5A5"/><path d="M1439.25 1568.25C1439.25 1574.32 1434.32 1579.25 1428.25 1579.25 1422.17 1579.25 1417.25 1574.32 1417.25 1568.25 1417.25 1562.17 1422.17 1557.25 1428.25 1557.25 1434.32 1557.25 1439.25 1562.17 1439.25 1568.25Z" stroke="#A5A5A5" stroke-width="3.4375" stroke-linejoin="round" stroke-miterlimit="10" fill="#A5A5A5"/><path d="M1588.25 1553.25C1588.25 1559.32 1583.32 1564.25 1577.25 1564.25 1571.17 1564.25 1566.25 1559.32 1566.25 1553.25 1566.25 1547.17 1571.17 1542.25 1577.25 1542.25 1583.32 1542.25 1588.25 1547.17 1588.25 1553.25Z" stroke="#A5A5A5" stroke-width="3.4375" stroke-linejoin="round" stroke-miterlimit="10" fill="#A5A5A5"/><path d="M1736.25 1531.25C1736.25 1537.32 1731.32 1542.25 1725.25 1542.25 1719.17 1542.25 1714.25 1537.32 1714.25 1531.25 1714.25 1525.17 1719.17 1520.25 1725.25 1520.25 1731.32 1520.25 1736.25 1525.17 1736.25 1531.25Z" stroke="#A5A5A5" stroke-width="3.4375" stroke-linejoin="round" stroke-miterlimit="10" fill="#A5A5A5"/><path d="M1885.25 1503.25C1885.25 1509.32 1880.32 1514.25 1874.25 1514.25 1868.17 1514.25 1863.25 1509.32 1863.25 1503.25 1863.25 1497.17 1868.17 1492.25 1874.25 1492.25 1880.32 1492.25 1885.25 1497.17 1885.25 1503.25Z" stroke="#A5A5A5" stroke-width="3.4375" stroke-linejoin="round" stroke-miterlimit="10" fill="#A5A5A5"/><path d="M2033.25 1470.25C2033.25 1476.32 2028.32 1481.25 2022.25 1481.25 2016.17 1481.25 2011.25 1476.32 2011.25 1470.25 2011.25 1464.17 2016.17 1459.25 2022.25 1459.25 2028.32 1459.25 2033.25 1464.17 2033.25 1470.25Z" stroke="#A5A5A5" stroke-width="3.4375" stroke-linejoin="round" stroke-miterlimit="10" fill="#A5A5A5"/><path d="M2182.25 1431.25C2182.25 1437.32 2177.32 1442.25 2171.25 1442.25 2165.17 1442.25 2160.25 1437.32 2160.25 1431.25 2160.25 1425.17 2165.17 1420.25 2171.25 1420.25 2177.32 1420.25 2182.25 1425.17 2182.25 1431.25Z" stroke="#A5A5A5" stroke-width="3.4375" stroke-linejoin="round" stroke-miterlimit="10" fill="#A5A5A5"/><path d="M2330.25 1388.25C2330.25 1394.32 2325.32 1399.25 2319.25 1399.25 2313.17 1399.25 2308.25 1394.32 2308.25 1388.25 2308.25 1382.17 2313.17 1377.25 2319.25 1377.25 2325.32 1377.25 2330.25 1382.17 2330.25 1388.25Z" stroke="#A5A5A5" stroke-width="3.4375" stroke-linejoin="round" stroke-miterlimit="10" fill="#A5A5A5"/><path d="M2478.25 1340.25C2478.25 1346.32 2473.32 1351.25 2467.25 1351.25 2461.17 1351.25 2456.25 1346.32 2456.25 1340.25 2456.25 1334.17 2461.17 1329.25 2467.25 1329.25 2473.32 1329.25 2478.25 1334.17 2478.25 1340.25Z" stroke="#A5A5A5" stroke-width="3.4375" stroke-linejoin="round" stroke-miterlimit="10" fill="#A5A5A5"/><path d="M2627.25 1286.25C2627.25 1292.32 2622.32 1297.25 2616.25 1297.25 2610.17 1297.25 2605.25 1292.32 2605.25 1286.25 2605.25 1280.17 2610.17 1275.25 2616.25 1275.25 2622.32 1275.25 2627.25 1280.17 2627.25 1286.25Z" stroke="#A5A5A5" stroke-width="3.4375" stroke-linejoin="round" stroke-miterlimit="10" fill="#A5A5A5"/></g><g clip-path="url(#clip10)"><path d="M1280.5 1578.5C1329.98 1577.27 1379.46 1575.43 1428.94 1574.81 1478.43 1574.2 1527.91 1575.8 1577.39 1574.81 1626.87 1573.83 1676.35 1570.39 1725.83 1568.91 1775.31 1567.44 1824.8 1567.07 1874.28 1565.96 1923.76 1564.86 1973.24 1564.12 2022.72 1562.28 2072.2 1560.43 2121.69 1556.75 2171.17 1554.9 2220.65 1553.06 2270.13 1554.41 2319.61 1551.21 2369.09 1548.02 2418.57 1536.96 2468.06 1535.73 2517.54 1534.5 2567.02 1541.14 2616.5 1543.84" stroke="#FFC000" stroke-width="6.875" stroke-linecap="round" stroke-linejoin="round" stroke-miterlimit="10" fill="none"/></g><g clip-path="url(#clip11)"><path d="M1291.25 1578.25C1291.25 1584.32 1286.32 1589.25 1280.25 1589.25 1274.17 1589.25 1269.25 1584.32 1269.25 1578.25 1269.25 1572.17 1274.17 1567.25 1280.25 1567.25 1286.32 1567.25 1291.25 1572.17 1291.25 1578.25Z" stroke="#FFC000" stroke-width="3.4375" stroke-linejoin="round" stroke-miterlimit="10" fill="#FFC000"/><path d="M1439.25 1574.25C1439.25 1580.32 1434.32 1585.25 1428.25 1585.25 1422.17 1585.25 1417.25 1580.32 1417.25 1574.25 1417.25 1568.17 1422.17 1563.25 1428.25 1563.25 1434.32 1563.25 1439.25 1568.17 1439.25 1574.25Z" stroke="#FFC000" stroke-width="3.4375" stroke-linejoin="round" stroke-miterlimit="10" fill="#FFC000"/><path d="M1588.25 1574.25C1588.25 1580.32 1583.32 1585.25 1577.25 1585.25 1571.17 1585.25 1566.25 1580.32 1566.25 1574.25 1566.25 1568.17 1571.17 1563.25 1577.25 1563.25 1583.32 1563.25 1588.25 1568.17 1588.25 1574.25Z" stroke="#FFC000" stroke-width="3.4375" stroke-linejoin="round" stroke-miterlimit="10" fill="#FFC000"/><path d="M1736.25 1568.25C1736.25 1574.32 1731.32 1579.25 1725.25 1579.25 1719.17 1579.25 1714.25 1574.32 1714.25 1568.25 1714.25 1562.17 1719.17 1557.25 1725.25 1557.25 1731.32 1557.25 1736.25 1562.17 1736.25 1568.25Z" stroke="#FFC000" stroke-width="3.4375" stroke-linejoin="round" stroke-miterlimit="10" fill="#FFC000"/><path d="M1885.25 1565.25C1885.25 1571.32 1880.32 1576.25 1874.25 1576.25 1868.17 1576.25 1863.25 1571.32 1863.25 1565.25 1863.25 1559.17 1868.17 1554.25 1874.25 1554.25 1880.32 1554.25 1885.25 1559.17 1885.25 1565.25Z" stroke="#FFC000" stroke-width="3.4375" stroke-linejoin="round" stroke-miterlimit="10" fill="#FFC000"/><path d="M2033.25 1562.25C2033.25 1568.32 2028.32 1573.25 2022.25 1573.25 2016.17 1573.25 2011.25 1568.32 2011.25 1562.25 2011.25 1556.17 2016.17 1551.25 2022.25 1551.25 2028.32 1551.25 2033.25 1556.17 2033.25 1562.25Z" stroke="#FFC000" stroke-width="3.4375" stroke-linejoin="round" stroke-miterlimit="10" fill="#FFC000"/><path d="M2182.25 1554.25C2182.25 1560.32 2177.32 1565.25 2171.25 1565.25 2165.17 1565.25 2160.25 1560.32 2160.25 1554.25 2160.25 1548.17 2165.17 1543.25 2171.25 1543.25 2177.32 1543.25 2182.25 1548.17 2182.25 1554.25Z" stroke="#FFC000" stroke-width="3.4375" stroke-linejoin="round" stroke-miterlimit="10" fill="#FFC000"/><path d="M2330.25 1551.25C2330.25 1557.32 2325.32 1562.25 2319.25 1562.25 2313.17 1562.25 2308.25 1557.32 2308.25 1551.25 2308.25 1545.17 2313.17 1540.25 2319.25 1540.25 2325.32 1540.25 2330.25 1545.17 2330.25 1551.25Z" stroke="#FFC000" stroke-width="3.4375" stroke-linejoin="round" stroke-miterlimit="10" fill="#FFC000"/><path d="M2478.25 1535.25C2478.25 1541.32 2473.32 1546.25 2467.25 1546.25 2461.17 1546.25 2456.25 1541.32 2456.25 1535.25 2456.25 1529.17 2461.17 1524.25 2467.25 1524.25 2473.32 1524.25 2478.25 1529.17 2478.25 1535.25Z" stroke="#FFC000" stroke-width="3.4375" stroke-linejoin="round" stroke-miterlimit="10" fill="#FFC000"/><path d="M2627.25 1543.25C2627.25 1549.32 2622.32 1554.25 2616.25 1554.25 2610.17 1554.25 2605.25 1549.32 2605.25 1543.25 2605.25 1537.17 2610.17 1532.25 2616.25 1532.25 2622.32 1532.25 2627.25 1537.17 2627.25 1543.25Z" stroke="#FFC000" stroke-width="3.4375" stroke-linejoin="round" stroke-miterlimit="10" fill="#FFC000"/></g><g clip-path="url(#clip12)"><path d="M1280.5 1572.5C1329.98 1571.51 1379.46 1570.65 1428.94 1569.53 1478.43 1568.42 1527.91 1567.06 1577.39 1565.82 1626.87 1564.59 1676.35 1563.35 1725.83 1562.11 1775.31 1560.88 1824.8 1560.75 1874.28 1558.4 1923.76 1556.05 1973.24 1550.86 2022.72 1548.02 2072.2 1545.17 2121.69 1543.07 2171.17 1541.34 2220.65 1539.61 2270.13 1539.48 2319.61 1537.63 2369.09 1535.77 2418.57 1532.06 2468.06 1530.21 2517.54 1528.35 2567.02 1527.74 2616.5 1526.5" stroke="#5B9BD5" stroke-width="6.875" stroke-linecap="round" stroke-linejoin="round" stroke-miterlimit="10" fill="none"/></g><g clip-path="url(#clip13)"><path d="M1291.25 1572.25C1291.25 1578.32 1286.32 1583.25 1280.25 1583.25 1274.17 1583.25 1269.25 1578.32 1269.25 1572.25 1269.25 1566.17 1274.17 1561.25 1280.25 1561.25 1286.32 1561.25 1291.25 1566.17 1291.25 1572.25Z" stroke="#5B9BD5" stroke-width="3.4375" stroke-linejoin="round" stroke-miterlimit="10" fill="#5B9BD5"/><path d="M1439.25 1569.25C1439.25 1575.32 1434.32 1580.25 1428.25 1580.25 1422.17 1580.25 1417.25 1575.32 1417.25 1569.25 1417.25 1563.17 1422.17 1558.25 1428.25 1558.25 1434.32 1558.25 1439.25 1563.17 1439.25 1569.25Z" stroke="#5B9BD5" stroke-width="3.4375" stroke-linejoin="round" stroke-miterlimit="10" fill="#5B9BD5"/><path d="M1588.25 1565.25C1588.25 1571.32 1583.32 1576.25 1577.25 1576.25 1571.17 1576.25 1566.25 1571.32 1566.25 1565.25 1566.25 1559.17 1571.17 1554.25 1577.25 1554.25 1583.32 1554.25 1588.25 1559.17 1588.25 1565.25Z" stroke="#5B9BD5" stroke-width="3.4375" stroke-linejoin="round" stroke-miterlimit="10" fill="#5B9BD5"/><path d="M1736.25 1562.25C1736.25 1568.32 1731.32 1573.25 1725.25 1573.25 1719.17 1573.25 1714.25 1568.32 1714.25 1562.25 1714.25 1556.17 1719.17 1551.25 1725.25 1551.25 1731.32 1551.25 1736.25 1556.17 1736.25 1562.25Z" stroke="#5B9BD5" stroke-width="3.4375" stroke-linejoin="round" stroke-miterlimit="10" fill="#5B9BD5"/><path d="M1885.25 1558.25C1885.25 1564.32 1880.32 1569.25 1874.25 1569.25 1868.17 1569.25 1863.25 1564.32 1863.25 1558.25 1863.25 1552.17 1868.17 1547.25 1874.25 1547.25 1880.32 1547.25 1885.25 1552.17 1885.25 1558.25Z" stroke="#5B9BD5" stroke-width="3.4375" stroke-linejoin="round" stroke-miterlimit="10" fill="#5B9BD5"/><path d="M2033.25 1548.25C2033.25 1554.32 2028.32 1559.25 2022.25 1559.25 2016.17 1559.25 2011.25 1554.32 2011.25 1548.25 2011.25 1542.17 2016.17 1537.25 2022.25 1537.25 2028.32 1537.25 2033.25 1542.17 2033.25 1548.25Z" stroke="#5B9BD5" stroke-width="3.4375" stroke-linejoin="round" stroke-miterlimit="10" fill="#5B9BD5"/><path d="M2182.25 1541.25C2182.25 1547.32 2177.32 1552.25 2171.25 1552.25 2165.17 1552.25 2160.25 1547.32 2160.25 1541.25 2160.25 1535.17 2165.17 1530.25 2171.25 1530.25 2177.32 1530.25 2182.25 1535.17 2182.25 1541.25Z" stroke="#5B9BD5" stroke-width="3.4375" stroke-linejoin="round" stroke-miterlimit="10" fill="#5B9BD5"/><path d="M2330.25 1537.25C2330.25 1543.32 2325.32 1548.25 2319.25 1548.25 2313.17 1548.25 2308.25 1543.32 2308.25 1537.25 2308.25 1531.17 2313.17 1526.25 2319.25 1526.25 2325.32 1526.25 2330.25 1531.17 2330.25 1537.25Z" stroke="#5B9BD5" stroke-width="3.4375" stroke-linejoin="round" stroke-miterlimit="10" fill="#5B9BD5"/><path d="M2478.25 1530.25C2478.25 1536.32 2473.32 1541.25 2467.25 1541.25 2461.17 1541.25 2456.25 1536.32 2456.25 1530.25 2456.25 1524.17 2461.17 1519.25 2467.25 1519.25 2473.32 1519.25 2478.25 1524.17 2478.25 1530.25Z" stroke="#5B9BD5" stroke-width="3.4375" stroke-linejoin="round" stroke-miterlimit="10" fill="#5B9BD5"/><path d="M2627.25 1526.25C2627.25 1532.32 2622.32 1537.25 2616.25 1537.25 2610.17 1537.25 2605.25 1532.32 2605.25 1526.25 2605.25 1520.17 2610.17 1515.25 2616.25 1515.25 2622.32 1515.25 2627.25 1520.17 2627.25 1526.25Z" stroke="#5B9BD5" stroke-width="3.4375" stroke-linejoin="round" stroke-miterlimit="10" fill="#5B9BD5"/></g><g clip-path="url(#clip14)"><text fill="#595959" font-family="Calibri,Calibri_MSFontService,sans-serif" font-weight="400" font-size="41" transform="matrix(1 0 0 1 1072.94 1598)">0</text></g><g clip-path="url(#clip15)"><text fill="#595959" font-family="Calibri,Calibri_MSFontService,sans-serif" font-weight="400" font-size="41" transform="matrix(1 0 0 1 1020.73 1450)">0.02</text></g><g clip-path="url(#clip16)"><text fill="#595959" font-family="Calibri,Calibri_MSFontService,sans-serif" font-weight="400" font-size="41" transform="matrix(1 0 0 1 1020.73 1301)">0.04</text></g><g clip-path="url(#clip17)"><text fill="#595959" font-family="Calibri,Calibri_MSFontService,sans-serif" font-weight="400" font-size="41" transform="matrix(1 0 0 1 1020.73 1153)">0.06</text></g><g clip-path="url(#clip18)"><text fill="#595959" font-family="Calibri,Calibri_MSFontService,sans-serif" font-weight="400" font-size="41" transform="matrix(1 0 0 1 1020.73 1004)">0.08</text></g><g clip-path="url(#clip19)"><text fill="#595959" font-family="Calibri,Calibri_MSFontService,sans-serif" font-weight="400" font-size="41" transform="matrix(1 0 0 1 1041.63 855)">0.1</text></g><g clip-path="url(#clip20)"><text fill="#595959" font-family="Calibri,Calibri_MSFontService,sans-serif" font-weight="400" font-size="41" transform="matrix(1 0 0 1 1020.73 707)">0.12</text></g><g clip-path="url(#clip21)"><text fill="#595959" font-family="Calibri,Calibri_MSFontService,sans-serif" font-weight="400" font-size="41" transform="matrix(1 0 0 1 1020.73 558)">0.14</text></g><g clip-path="url(#clip22)"><text fill="#595959" font-family="Calibri,Calibri_MSFontService,sans-serif" font-weight="400" font-size="41" transform="matrix(1 0 0 1 1121.65 1652)">0</text></g><g clip-path="url(#clip23)"><text fill="#595959" font-family="Calibri,Calibri_MSFontService,sans-serif" font-weight="400" font-size="41" transform="matrix(1 0 0 1 1408.05 1652)">20</text></g><g clip-path="url(#clip24)"><text fill="#595959" font-family="Calibri,Calibri_MSFontService,sans-serif" font-weight="400" font-size="41" transform="matrix(1 0 0 1 1704.9 1652)">40</text></g><g clip-path="url(#clip25)"><text fill="#595959" font-family="Calibri,Calibri_MSFontService,sans-serif" font-weight="400" font-size="41" transform="matrix(1 0 0 1 2001.75 1652)">60</text></g><g clip-path="url(#clip26)"><text fill="#595959" font-family="Calibri,Calibri_MSFontService,sans-serif" font-weight="400" font-size="41" transform="matrix(1 0 0 1 2298.59 1652)">80</text></g><g clip-path="url(#clip27)"><text fill="#595959" font-family="Calibri,Calibri_MSFontService,sans-serif" font-weight="400" font-size="41" transform="matrix(1 0 0 1 2584.99 1652)">100</text></g><g clip-path="url(#clip28)"><text fill="#595959" font-family="Calibri,Calibri_MSFontService,sans-serif" font-weight="400" font-size="41" transform="matrix(1 0 0 1 2881.84 1652)">120</text></g><g clip-path="url(#clip29)"><text fill="#595959" font-family="Calibri,Calibri_MSFontService,sans-serif" font-weight="400" font-size="46" transform="matrix(6.12323e-17 -1 1 6.12323e-17 995.042 1175)">Temps [ms]</text></g><g clip-path="url(#clip30)"><text fill="#595959" font-family="Calibri,Calibri_MSFontService,sans-serif" font-weight="400" font-size="46" transform="matrix(1 0 0 1 1953.01 1721)">Valeurs</text></g><g clip-path="url(#clip31)"><text fill="#595959" font-family="Calibri,Calibri_MSFontService,sans-serif" font-weight="400" font-size="64" transform="matrix(1 0 0 1 1895.27 472)">Temps Decroissant</text></g><g clip-path="url(#clip32)"><path d="M3016.5 988.5 3104.5 988.5" stroke="#4472C4" stroke-width="6.875" stroke-linecap="round" stroke-linejoin="round" stroke-miterlimit="10" fill="none" fill-rule="evenodd"/></g><g clip-path="url(#clip33)"><path d="M3071 988C3071 994.075 3066.07 999 3060 999 3053.92 999 3049 994.075 3049 988 3049 981.925 3053.92 977 3060 977 3066.07 977 3071 981.925 3071 988Z" stroke="#4472C4" stroke-width="3.4375" stroke-linejoin="round" stroke-miterlimit="10" fill="#4472C4"/></g><g clip-path="url(#clip34)"><text fill="#595959" font-family="Calibri,Calibri_MSFontService,sans-serif" font-weight="400" font-size="41" transform="matrix(1 0 0 1 3113.55 1000)">BubbleSort</text></g><g clip-path="url(#clip35)"><path d="M3016.5 1065.5 3104.5 1065.5" stroke="#ED7D31" stroke-width="6.875" stroke-linecap="round" stroke-linejoin="round" stroke-miterlimit="10" fill="none" fill-rule="evenodd"/></g><g clip-path="url(#clip36)"><path d="M3071 1065C3071 1071.07 3066.07 1076 3060 1076 3053.92 1076 3049 1071.07 3049 1065 3049 1058.92 3053.92 1054 3060 1054 3066.07 1054 3071 1058.92 3071 1065Z" stroke="#ED7D31" stroke-width="3.4375" stroke-linejoin="round" stroke-miterlimit="10" fill="#ED7D31"/></g><g clip-path="url(#clip37)"><text fill="#595959" font-family="Calibri,Calibri_MSFontService,sans-serif" font-weight="400" font-size="41" transform="matrix(1 0 0 1 3113.55 1077)">InsertionSort</text></g><g clip-path="url(#clip38)"><path d="M3016.5 1143.5 3104.5 1143.5" stroke="#A5A5A5" stroke-width="6.875" stroke-linecap="round" stroke-linejoin="round" stroke-miterlimit="10" fill="none" fill-rule="evenodd"/></g><g clip-path="url(#clip39)"><path d="M3071 1143C3071 1149.07 3066.07 1154 3060 1154 3053.92 1154 3049 1149.07 3049 1143 3049 1136.92 3053.92 1132 3060 1132 3066.07 1132 3071 1136.92 3071 1143Z" stroke="#A5A5A5" stroke-width="3.4375" stroke-linejoin="round" stroke-miterlimit="10" fill="#A5A5A5"/></g><g clip-path="url(#clip40)"><text fill="#595959" font-family="Calibri,Calibri_MSFontService,sans-serif" font-weight="400" font-size="41" transform="matrix(1 0 0 1 3113.55 1155)">SelectionSort</text></g><g clip-path="url(#clip41)"><path d="M3016.5 1220.5 3104.5 1220.5" stroke="#FFC000" stroke-width="6.875" stroke-linecap="round" stroke-linejoin="round" stroke-miterlimit="10" fill="none" fill-rule="evenodd"/></g><g clip-path="url(#clip42)"><path d="M3071 1220C3071 1226.07 3066.07 1231 3060 1231 3053.92 1231 3049 1226.07 3049 1220 3049 1213.92 3053.92 1209 3060 1209 3066.07 1209 3071 1213.92 3071 1220Z" stroke="#FFC000" stroke-width="3.4375" stroke-linejoin="round" stroke-miterlimit="10" fill="#FFC000"/></g><g clip-path="url(#clip43)"><text fill="#595959" font-family="Calibri,Calibri_MSFontService,sans-serif" font-weight="400" font-size="41" transform="matrix(1 0 0 1 3113.55 1232)">Sort</text></g><g clip-path="url(#clip44)"><path d="M3016.5 1297.5 3104.5 1297.5" stroke="#5B9BD5" stroke-width="6.875" stroke-linecap="round" stroke-linejoin="round" stroke-miterlimit="10" fill="none" fill-rule="evenodd"/></g><g clip-path="url(#clip45)"><path d="M3071 1297C3071 1303.07 3066.07 1308 3060 1308 3053.92 1308 3049 1303.07 3049 1297 3049 1290.92 3053.92 1286 3060 1286 3066.07 1286 3071 1290.92 3071 1297Z" stroke="#5B9BD5" stroke-width="3.4375" stroke-linejoin="round" stroke-miterlimit="10" fill="#5B9BD5"/></g><g clip-path="url(#clip46)"><text fill="#595959" font-family="Calibri,Calibri_MSFontService,sans-serif" font-weight="400" font-size="41" transform="matrix(1 0 0 1 3113.55 1310)">StableSort</text></g><rect x="894.5" y="377.5" width="2488" height="1413" stroke="#D9D9D9" stroke-width="3.4375" stroke-linejoin="round" stroke-miterlimit="10" fill="none"/></g></svg>