<svg width="2829" height="1410" xmlns="http://www.w3.org/2000/svg" xmlns:xlink="http://www.w3.org/1999/xlink" xml:space="preserve" overflow="hidden"><defs><clipPath id="clip0"><rect x="322" y="613" width="2829" height="1410"/></clipPath><clipPath id="clip1"><rect x="323" y="613" width="2825" height="1408"/></clipPath><clipPath id="clip2"><rect x="323" y="613" width="2825" height="1408"/></clipPath><clipPath id="clip3"><rect x="323" y="613" width="2825" height="1408"/></clipPath><clipPath id="clip4"><rect x="561" y="783" width="2121" height="1038"/></clipPath><clipPath id="clip5"><rect x="323" y="613" width="2825" height="1408"/></clipPath><clipPath id="clip6"><rect x="561" y="783" width="2121" height="1038"/></clipPath><clipPath id="clip7"><rect x="323" y="613" width="2825" height="1408"/></clipPath><clipPath id="clip8"><rect x="561" y="783" width="2121" height="1038"/></clipPath><clipPath id="clip9"><rect x="323" y="613" width="2825" height="1408"/></clipPath><clipPath id="clip10"><rect x="561" y="783" width="2121" height="1038"/></clipPath><clipPath id="clip11"><rect x="323" y="613" width="2825" height="1408"/></clipPath><clipPath id="clip12"><rect x="561" y="783" width="2121" height="1038"/></clipPath><clipPath id="clip13"><rect x="323" y="613" width="2825" height="1408"/></clipPath><clipPath id="clip14"><rect x="323" y="613" width="2825" height="1408"/></clipPath><clipPath id="clip15"><rect x="323" y="613" width="2825" height="1408"/></clipPath><clipPath id="clip16"><rect x="323" y="613" width="2825" height="1408"/></clipPath><clipPath id="clip17"><rect x="323" y="613" width="2825" height="1408"/></clipPath><clipPath id="clip18"><rect x="323" y="613" width="2825" height="1408"/></clipPath><clipPath id="clip19"><rect x="323" y="613" width="2825" height="1408"/></clipPath><clipPath id="clip20"><rect x="323" y="613" width="2825" height="1408"/></clipPath><clipPath id="clip21"><rect x="323" y="613" width="2825" height="1408"/></clipPath><clipPath id="clip22"><rect x="323" y="613" width="2825" height="1408"/></clipPath><clipPath id="clip23"><rect x="323" y="613" width="2825" height="1408"/></clipPath><clipPath id="clip24"><rect x="323" y="613" width="2825" height="1408"/></clipPath><clipPath id="clip25"><rect x="323" y="613" width="2825" height="1408"/></clipPath><clipPath id="clip26"><rect x="323" y="613" width="2825" height="1408"/></clipPath><clipPath id="clip27"><rect x="323" y="613" width="2825" height="1408"/></clipPath><clipPath id="clip28"><rect x="323" y="613" width="2825" height="1408"/></clipPath><clipPath id="clip29"><rect x="323" y="613" width="2825" height="1408"/></clipPath><clipPath id="clip30"><rect x="323" y="613" width="2825" height="1408"/></clipPath><clipPath id="clip31"><rect x="323" y="613" width="2825" height="1408"/></clipPath><clipPath id="clip32"><rect x="323" y="613" width="2825" height="1408"/></clipPath><clipPath id="clip33"><rect x="323" y="613" width="2825" height="1408"/></clipPath><clipPath id="clip34"><rect x="323" y="613" width="2825" height="1408"/></clipPath><clipPath id="clip35"><rect x="323" y="613" width="2825" height="1408"/></clipPath><clipPath id="clip36"><rect x="323" y="613" width="2825" height="1408"/></clipPath><clipPath id="clip37"><rect x="323" y="613" width="2825" height="1408"/></clipPath><clipPath id="clip38"><rect x="323" y="613" width="2825" height="1408"/></clipPath><clipPath id="clip39"><rect x="323" y="613" width="2825" height="1408"/></clipPath><clipPath id="clip40"><rect x="323" y="613" width="2825" height="1408"/></clipPath><clipPath id="clip41"><rect x="323" y="613" width="2825" height="1408"/></clipPath><clipPath id="clip42"><rect x="323" y="613" width="2825" height="1408"/></clipPath><clipPath id="clip43"><rect x="323" y="613" width="2825" height="1408"/></clipPath><clipPath id="clip44"><rect x="323" y="613" width="2825" height="1408"/></clipPath><clipPath id="clip45"><rect x="323" y="613" width="2825" height="1408"/></clipPath><clipPath id="clip46"><rect x="323" y="613" width="2825" height="1408"/></clipPath><clipPath id="clip47"><rect x="323" y="613" width="2825" height="1408"/></clipPath></defs><g clip-path="url(#clip0)" transform="translate(-322 -613)"><rect x="323" y="614" width="2826" height="1407" fill="#FFFFFF"/><g clip-path="url(#clip1)"><path d="M561.5 1688.56 2679.5 1688.56M561.5 1559.55 2679.5 1559.55M561.5 1429.55 2679.5 1429.55M561.5 1300.54 2679.5 1300.54M561.5 1171.54 2679.5 1171.54M561.5 1042.53 2679.5 1042.53M561.5 912.53 2679.5 912.53M561.5 783.5 2679.5 783.5" stroke="#D9D9D9" stroke-width="3.4375" stroke-linejoin="round" stroke-miterlimit="10" fill="none"/></g><g clip-path="url(#clip2)"><path d="M0 0 0.000360892 1034" stroke="#BFBFBF" stroke-width="3.4375" stroke-linejoin="round" stroke-miterlimit="10" fill="none" fill-rule="evenodd" transform="matrix(1 0 0 -1 561.5 1817.5)"/></g><g clip-path="url(#clip3)"><path d="M561.5 1817.5 2679.5 1817.5" stroke="#BFBFBF" stroke-width="3.4375" stroke-linejoin="round" stroke-miterlimit="10" fill="none" fill-rule="evenodd"/></g><g clip-path="url(#clip4)"><path d="M737.5 1795.5C796.352 1789.04 855.204 1787.1 914.056 1776.12 972.907 1765.14 1031.76 1747.71 1090.61 1729.62 1149.46 1711.54 1208.31 1691.3 1267.17 1667.62 1326.02 1643.94 1384.87 1617.24 1443.72 1587.53 1502.57 1557.82 1561.43 1525.1 1620.28 1489.36 1679.13 1453.62 1737.98 1413.58 1796.83 1373.1 1855.68 1332.63 1914.54 1292.59 1973.39 1246.51 2032.24 1200.44 2091.09 1148.34 2149.94 1096.67 2208.8 1045 2267.65 989.891 2326.5 936.5" stroke="#4472C4" stroke-width="6.875" stroke-linecap="round" stroke-linejoin="round" stroke-miterlimit="10" fill="none"/></g><g clip-path="url(#clip5)"><path d="M748.625 1795.09C748.625 1801.17 743.7 1806.09 737.625 1806.09 731.55 1806.09 726.625 1801.17 726.625 1795.09 726.625 1789.02 731.55 1784.09 737.625 1784.09 743.7 1784.09 748.625 1789.02 748.625 1795.09Z" stroke="#4472C4" stroke-width="3.4375" stroke-linejoin="round" stroke-miterlimit="10" fill="#4472C4"/><path d="M925.624 1776.09C925.624 1782.17 920.7 1787.09 914.625 1787.09 908.55 1787.09 903.625 1782.17 903.625 1776.09 903.625 1770.02 908.55 1765.09 914.625 1765.09 920.7 1765.09 925.624 1770.02 925.624 1776.09Z" stroke="#4472C4" stroke-width="3.4375" stroke-linejoin="round" stroke-miterlimit="10" fill="#4472C4"/><path d="M1101.62 1729.09C1101.62 1735.17 1096.7 1740.09 1090.62 1740.09 1084.55 1740.09 1079.63 1735.17 1079.63 1729.09 1079.63 1723.02 1084.55 1718.09 1090.62 1718.09 1096.7 1718.09 1101.62 1723.02 1101.62 1729.09Z" stroke="#4472C4" stroke-width="3.4375" stroke-linejoin="round" stroke-miterlimit="10" fill="#4472C4"/><path d="M1278.62 1667.09C1278.62 1673.17 1273.7 1678.09 1267.62 1678.09 1261.55 1678.09 1256.63 1673.17 1256.63 1667.09 1256.63 1661.02 1261.55 1656.09 1267.62 1656.09 1273.7 1656.09 1278.62 1661.02 1278.62 1667.09Z" stroke="#4472C4" stroke-width="3.4375" stroke-linejoin="round" stroke-miterlimit="10" fill="#4472C4"/><path d="M1454.62 1587.09C1454.62 1593.17 1449.7 1598.09 1443.62 1598.09 1437.55 1598.09 1432.63 1593.17 1432.63 1587.09 1432.63 1581.02 1437.55 1576.09 1443.62 1576.09 1449.7 1576.09 1454.62 1581.02 1454.62 1587.09Z" stroke="#4472C4" stroke-width="3.4375" stroke-linejoin="round" stroke-miterlimit="10" fill="#4472C4"/><path d="M1631.62 1489.09C1631.62 1495.17 1626.7 1500.09 1620.62 1500.09 1614.55 1500.09 1609.63 1495.17 1609.63 1489.09 1609.63 1483.02 1614.55 1478.09 1620.62 1478.09 1626.7 1478.09 1631.62 1483.02 1631.62 1489.09Z" stroke="#4472C4" stroke-width="3.4375" stroke-linejoin="round" stroke-miterlimit="10" fill="#4472C4"/><path d="M1807.62 1373.09C1807.62 1379.17 1802.7 1384.09 1796.62 1384.09 1790.55 1384.09 1785.63 1379.17 1785.63 1373.09 1785.63 1367.02 1790.55 1362.09 1796.62 1362.09 1802.7 1362.09 1807.62 1367.02 1807.62 1373.09Z" stroke="#4472C4" stroke-width="3.4375" stroke-linejoin="round" stroke-miterlimit="10" fill="#4472C4"/><path d="M1984.62 1246.09C1984.62 1252.17 1979.7 1257.09 1973.62 1257.09 1967.55 1257.09 1962.63 1252.17 1962.63 1246.09 1962.63 1240.02 1967.55 1235.09 1973.62 1235.09 1979.7 1235.09 1984.62 1240.02 1984.62 1246.09Z" stroke="#4472C4" stroke-width="3.4375" stroke-linejoin="round" stroke-miterlimit="10" fill="#4472C4"/><path d="M2160.62 1096.09C2160.62 1102.17 2155.7 1107.09 2149.62 1107.09 2143.55 1107.09 2138.63 1102.17 2138.63 1096.09 2138.63 1090.02 2143.55 1085.09 2149.62 1085.09 2155.7 1085.09 2160.62 1090.02 2160.62 1096.09Z" stroke="#4472C4" stroke-width="3.4375" stroke-linejoin="round" stroke-miterlimit="10" fill="#4472C4"/><path d="M2337.62 936.093C2337.62 942.168 2332.7 947.092 2326.62 947.092 2320.55 947.092 2315.63 942.168 2315.63 936.093 2315.63 930.018 2320.55 925.093 2326.62 925.093 2332.7 925.093 2337.62 930.018 2337.62 936.093Z" stroke="#4472C4" stroke-width="3.4375" stroke-linejoin="round" stroke-miterlimit="10" fill="#4472C4"/></g><g clip-path="url(#clip6)"><path d="M737.5 1812.5C796.352 1812.07 855.204 1811.85 914.056 1811.2 972.907 1810.55 1031.76 1809.68 1090.61 1808.6 1149.46 1807.52 1208.31 1805.78 1267.17 1804.7 1326.02 1803.62 1384.87 1802.97 1443.72 1802.1 1502.57 1801.23 1561.43 1800.58 1620.28 1799.5 1679.13 1798.42 1737.98 1796.9 1796.83 1795.6 1855.68 1794.3 1914.54 1792.78 1973.39 1791.7 2032.24 1790.62 2091.09 1789.97 2149.94 1789.1 2208.8 1788.23 2267.65 1787.37 2326.5 1786.5" stroke="#ED7D31" stroke-width="6.875" stroke-linecap="round" stroke-linejoin="round" stroke-miterlimit="10" fill="none"/></g><g clip-path="url(#clip7)"><path d="M748.625 1812.09C748.625 1818.17 743.7 1823.09 737.625 1823.09 731.55 1823.09 726.625 1818.17 726.625 1812.09 726.625 1806.02 731.55 1801.09 737.625 1801.09 743.7 1801.09 748.625 1806.02 748.625 1812.09Z" stroke="#ED7D31" stroke-width="3.4375" stroke-linejoin="round" stroke-miterlimit="10" fill="#ED7D31"/><path d="M925.624 1811.09C925.624 1817.17 920.7 1822.09 914.625 1822.09 908.55 1822.09 903.625 1817.17 903.625 1811.09 903.625 1805.02 908.55 1800.09 914.625 1800.09 920.7 1800.09 925.624 1805.02 925.624 1811.09Z" stroke="#ED7D31" stroke-width="3.4375" stroke-linejoin="round" stroke-miterlimit="10" fill="#ED7D31"/><path d="M1101.62 1808.09C1101.62 1814.17 1096.7 1819.09 1090.62 1819.09 1084.55 1819.09 1079.63 1814.17 1079.63 1808.09 1079.63 1802.02 1084.55 1797.09 1090.62 1797.09 1096.7 1797.09 1101.62 1802.02 1101.62 1808.09Z" stroke="#ED7D31" stroke-width="3.4375" stroke-linejoin="round" stroke-miterlimit="10" fill="#ED7D31"/><path d="M1278.62 1804.09C1278.62 1810.17 1273.7 1815.09 1267.62 1815.09 1261.55 1815.09 1256.63 1810.17 1256.63 1804.09 1256.63 1798.02 1261.55 1793.09 1267.62 1793.09 1273.7 1793.09 1278.62 1798.02 1278.62 1804.09Z" stroke="#ED7D31" stroke-width="3.4375" stroke-linejoin="round" stroke-miterlimit="10" fill="#ED7D31"/><path d="M1454.62 1802.09C1454.62 1808.17 1449.7 1813.09 1443.62 1813.09 1437.55 1813.09 1432.63 1808.17 1432.63 1802.09 1432.63 1796.02 1437.55 1791.09 1443.62 1791.09 1449.7 1791.09 1454.62 1796.02 1454.62 1802.09Z" stroke="#ED7D31" stroke-width="3.4375" stroke-linejoin="round" stroke-miterlimit="10" fill="#ED7D31"/><path d="M1631.62 1799.09C1631.62 1805.17 1626.7 1810.09 1620.62 1810.09 1614.55 1810.09 1609.63 1805.17 1609.63 1799.09 1609.63 1793.02 1614.55 1788.09 1620.62 1788.09 1626.7 1788.09 1631.62 1793.02 1631.62 1799.09Z" stroke="#ED7D31" stroke-width="3.4375" stroke-linejoin="round" stroke-miterlimit="10" fill="#ED7D31"/><path d="M1807.62 1795.09C1807.62 1801.17 1802.7 1806.09 1796.62 1806.09 1790.55 1806.09 1785.63 1801.17 1785.63 1795.09 1785.63 1789.02 1790.55 1784.09 1796.62 1784.09 1802.7 1784.09 1807.62 1789.02 1807.62 1795.09Z" stroke="#ED7D31" stroke-width="3.4375" stroke-linejoin="round" stroke-miterlimit="10" fill="#ED7D31"/><path d="M1984.62 1791.09C1984.62 1797.17 1979.7 1802.09 1973.62 1802.09 1967.55 1802.09 1962.63 1797.17 1962.63 1791.09 1962.63 1785.02 1967.55 1780.09 1973.62 1780.09 1979.7 1780.09 1984.62 1785.02 1984.62 1791.09Z" stroke="#ED7D31" stroke-width="3.4375" stroke-linejoin="round" stroke-miterlimit="10" fill="#ED7D31"/><path d="M2160.62 1789.09C2160.62 1795.17 2155.7 1800.09 2149.62 1800.09 2143.55 1800.09 2138.63 1795.17 2138.63 1789.09 2138.63 1783.02 2143.55 1778.09 2149.62 1778.09 2155.7 1778.09 2160.62 1783.02 2160.62 1789.09Z" stroke="#ED7D31" stroke-width="3.4375" stroke-linejoin="round" stroke-miterlimit="10" fill="#ED7D31"/><path d="M2337.62 1786.09C2337.62 1792.17 2332.7 1797.09 2326.62 1797.09 2320.55 1797.09 2315.63 1792.17 2315.63 1786.09 2315.63 1780.02 2320.55 1775.09 2326.62 1775.09 2332.7 1775.09 2337.62 1780.02 2337.62 1786.09Z" stroke="#ED7D31" stroke-width="3.4375" stroke-linejoin="round" stroke-miterlimit="10" fill="#ED7D31"/></g><g clip-path="url(#clip8)"><path d="M737.5 1806.5C796.352 1800.46 855.204 1795.5 914.056 1788.38 972.907 1781.26 1031.76 1774.15 1090.61 1763.79 1149.46 1753.44 1208.31 1740.07 1267.17 1726.26 1326.02 1712.46 1384.87 1697.36 1443.72 1680.97 1502.57 1664.58 1561.43 1647.32 1620.28 1627.91 1679.13 1608.5 1737.98 1586.93 1796.83 1564.5 1855.68 1542.07 1914.54 1518.56 1973.39 1493.32 2032.24 1468.09 2091.09 1441.56 2149.94 1413.09 2208.8 1384.62 2267.65 1352.7 2326.5 1322.5" stroke="#A5A5A5" stroke-width="6.875" stroke-linecap="round" stroke-linejoin="round" stroke-miterlimit="10" fill="none"/></g><g clip-path="url(#clip9)"><path d="M748.625 1806.09C748.625 1812.17 743.7 1817.09 737.625 1817.09 731.55 1817.09 726.625 1812.17 726.625 1806.09 726.625 1800.02 731.55 1795.09 737.625 1795.09 743.7 1795.09 748.625 1800.02 748.625 1806.09Z" stroke="#A5A5A5" stroke-width="3.4375" stroke-linejoin="round" stroke-miterlimit="10" fill="#A5A5A5"/><path d="M925.624 1788.09C925.624 1794.17 920.7 1799.09 914.625 1799.09 908.55 1799.09 903.625 1794.17 903.625 1788.09 903.625 1782.02 908.55 1777.09 914.625 1777.09 920.7 1777.09 925.624 1782.02 925.624 1788.09Z" stroke="#A5A5A5" stroke-width="3.4375" stroke-linejoin="round" stroke-miterlimit="10" fill="#A5A5A5"/><path d="M1101.62 1763.09C1101.62 1769.17 1096.7 1774.09 1090.62 1774.09 1084.55 1774.09 1079.63 1769.17 1079.63 1763.09 1079.63 1757.02 1084.55 1752.09 1090.62 1752.09 1096.7 1752.09 1101.62 1757.02 1101.62 1763.09Z" stroke="#A5A5A5" stroke-width="3.4375" stroke-linejoin="round" stroke-miterlimit="10" fill="#A5A5A5"/><path d="M1278.62 1725.09C1278.62 1731.17 1273.7 1736.09 1267.62 1736.09 1261.55 1736.09 1256.63 1731.17 1256.63 1725.09 1256.63 1719.02 1261.55 1714.09 1267.62 1714.09 1273.7 1714.09 1278.62 1719.02 1278.62 1725.09Z" stroke="#A5A5A5" stroke-width="3.4375" stroke-linejoin="round" stroke-miterlimit="10" fill="#A5A5A5"/><path d="M1454.62 1680.09C1454.62 1686.17 1449.7 1691.09 1443.62 1691.09 1437.55 1691.09 1432.63 1686.17 1432.63 1680.09 1432.63 1674.02 1437.55 1669.09 1443.62 1669.09 1449.7 1669.09 1454.62 1674.02 1454.62 1680.09Z" stroke="#A5A5A5" stroke-width="3.4375" stroke-linejoin="round" stroke-miterlimit="10" fill="#A5A5A5"/><path d="M1631.62 1627.09C1631.62 1633.17 1626.7 1638.09 1620.62 1638.09 1614.55 1638.09 1609.63 1633.17 1609.63 1627.09 1609.63 1621.02 1614.55 1616.09 1620.62 1616.09 1626.7 1616.09 1631.62 1621.02 1631.62 1627.09Z" stroke="#A5A5A5" stroke-width="3.4375" stroke-linejoin="round" stroke-miterlimit="10" fill="#A5A5A5"/><path d="M1807.62 1564.09C1807.62 1570.17 1802.7 1575.09 1796.62 1575.09 1790.55 1575.09 1785.63 1570.17 1785.63 1564.09 1785.63 1558.02 1790.55 1553.09 1796.62 1553.09 1802.7 1553.09 1807.62 1558.02 1807.62 1564.09Z" stroke="#A5A5A5" stroke-width="3.4375" stroke-linejoin="round" stroke-miterlimit="10" fill="#A5A5A5"/><path d="M1984.62 1493.09C1984.62 1499.17 1979.7 1504.09 1973.62 1504.09 1967.55 1504.09 1962.63 1499.17 1962.63 1493.09 1962.63 1487.02 1967.55 1482.09 1973.62 1482.09 1979.7 1482.09 1984.62 1487.02 1984.62 1493.09Z" stroke="#A5A5A5" stroke-width="3.4375" stroke-linejoin="round" stroke-miterlimit="10" fill="#A5A5A5"/><path d="M2160.62 1413.09C2160.62 1419.17 2155.7 1424.09 2149.62 1424.09 2143.55 1424.09 2138.63 1419.17 2138.63 1413.09 2138.63 1407.02 2143.55 1402.09 2149.62 1402.09 2155.7 1402.09 2160.62 1407.02 2160.62 1413.09Z" stroke="#A5A5A5" stroke-width="3.4375" stroke-linejoin="round" stroke-miterlimit="10" fill="#A5A5A5"/><path d="M2337.62 1322.09C2337.62 1328.17 2332.7 1333.09 2326.62 1333.09 2320.55 1333.09 2315.63 1328.17 2315.63 1322.09 2315.63 1316.02 2320.55 1311.09 2326.62 1311.09 2332.7 1311.09 2337.62 1316.02 2337.62 1322.09Z" stroke="#A5A5A5" stroke-width="3.4375" stroke-linejoin="round" stroke-miterlimit="10" fill="#A5A5A5"/></g><g clip-path="url(#clip10)"><path d="M737.5 1811.5C796.352 1806.71 855.204 1798.66 914.056 1797.13 972.907 1795.61 1031.76 1803.88 1090.61 1802.36 1149.46 1800.83 1208.31 1791.04 1267.17 1787.99 1326.02 1784.94 1384.87 1785.16 1443.72 1784.07 1502.57 1782.98 1561.43 1782.33 1620.28 1781.46 1679.13 1780.59 1737.98 1782.77 1796.83 1778.85 1855.68 1774.93 1914.54 1762.3 1973.39 1757.95 2032.24 1753.6 2091.09 1754.47 2149.94 1752.72 2208.8 1750.98 2267.65 1749.24 2326.5 1747.5" stroke="#FFC000" stroke-width="6.875" stroke-linecap="round" stroke-linejoin="round" stroke-miterlimit="10" fill="none"/></g><g clip-path="url(#clip11)"><path d="M748.625 1811.09C748.625 1817.17 743.7 1822.09 737.625 1822.09 731.55 1822.09 726.625 1817.17 726.625 1811.09 726.625 1805.02 731.55 1800.09 737.625 1800.09 743.7 1800.09 748.625 1805.02 748.625 1811.09Z" stroke="#FFC000" stroke-width="3.4375" stroke-linejoin="round" stroke-miterlimit="10" fill="#FFC000"/><path d="M925.624 1797.09C925.624 1803.17 920.7 1808.09 914.625 1808.09 908.55 1808.09 903.625 1803.17 903.625 1797.09 903.625 1791.02 908.55 1786.09 914.625 1786.09 920.7 1786.09 925.624 1791.02 925.624 1797.09Z" stroke="#FFC000" stroke-width="3.4375" stroke-linejoin="round" stroke-miterlimit="10" fill="#FFC000"/><path d="M1101.62 1802.09C1101.62 1808.17 1096.7 1813.09 1090.62 1813.09 1084.55 1813.09 1079.63 1808.17 1079.63 1802.09 1079.63 1796.02 1084.55 1791.09 1090.62 1791.09 1096.7 1791.09 1101.62 1796.02 1101.62 1802.09Z" stroke="#FFC000" stroke-width="3.4375" stroke-linejoin="round" stroke-miterlimit="10" fill="#FFC000"/><path d="M1278.62 1788.09C1278.62 1794.17 1273.7 1799.09 1267.62 1799.09 1261.55 1799.09 1256.63 1794.17 1256.63 1788.09 1256.63 1782.02 1261.55 1777.09 1267.62 1777.09 1273.7 1777.09 1278.62 1782.02 1278.62 1788.09Z" stroke="#FFC000" stroke-width="3.4375" stroke-linejoin="round" stroke-miterlimit="10" fill="#FFC000"/><path d="M1454.62 1784.09C1454.62 1790.17 1449.7 1795.09 1443.62 1795.09 1437.55 1795.09 1432.63 1790.17 1432.63 1784.09 1432.63 1778.02 1437.55 1773.09 1443.62 1773.09 1449.7 1773.09 1454.62 1778.02 1454.62 1784.09Z" stroke="#FFC000" stroke-width="3.4375" stroke-linejoin="round" stroke-miterlimit="10" fill="#FFC000"/><path d="M1631.62 1781.09C1631.62 1787.17 1626.7 1792.09 1620.62 1792.09 1614.55 1792.09 1609.63 1787.17 1609.63 1781.09 1609.63 1775.02 1614.55 1770.09 1620.62 1770.09 1626.7 1770.09 1631.62 1775.02 1631.62 1781.09Z" stroke="#FFC000" stroke-width="3.4375" stroke-linejoin="round" stroke-miterlimit="10" fill="#FFC000"/><path d="M1807.62 1778.09C1807.62 1784.17 1802.7 1789.09 1796.62 1789.09 1790.55 1789.09 1785.63 1784.17 1785.63 1778.09 1785.63 1772.02 1790.55 1767.09 1796.62 1767.09 1802.7 1767.09 1807.62 1772.02 1807.62 1778.09Z" stroke="#FFC000" stroke-width="3.4375" stroke-linejoin="round" stroke-miterlimit="10" fill="#FFC000"/><path d="M1984.62 1758.09C1984.62 1764.17 1979.7 1769.09 1973.62 1769.09 1967.55 1769.09 1962.63 1764.17 1962.63 1758.09 1962.63 1752.02 1967.55 1747.09 1973.62 1747.09 1979.7 1747.09 1984.62 1752.02 1984.62 1758.09Z" stroke="#FFC000" stroke-width="3.4375" stroke-linejoin="round" stroke-miterlimit="10" fill="#FFC000"/><path d="M2160.62 1753.09C2160.62 1759.17 2155.7 1764.09 2149.62 1764.09 2143.55 1764.09 2138.63 1759.17 2138.63 1753.09 2138.63 1747.02 2143.55 1742.09 2149.62 1742.09 2155.7 1742.09 2160.62 1747.02 2160.62 1753.09Z" stroke="#FFC000" stroke-width="3.4375" stroke-linejoin="round" stroke-miterlimit="10" fill="#FFC000"/><path d="M2337.62 1747.09C2337.62 1753.17 2332.7 1758.09 2326.62 1758.09 2320.55 1758.09 2315.63 1753.17 2315.63 1747.09 2315.63 1741.02 2320.55 1736.09 2326.62 1736.09 2332.7 1736.09 2337.62 1741.02 2337.62 1747.09Z" stroke="#FFC000" stroke-width="3.4375" stroke-linejoin="round" stroke-miterlimit="10" fill="#FFC000"/></g><g clip-path="url(#clip12)"><path d="M737.5 1793.5C796.352 1792.2 855.204 1790.91 914.056 1789.61 972.907 1788.32 1031.76 1786.59 1090.61 1785.73 1149.46 1784.86 1208.31 1785.29 1267.17 1784.43 1326.02 1783.57 1384.87 1785.51 1443.72 1780.55 1502.57 1775.58 1561.43 1758.95 1620.28 1754.64 1679.13 1750.32 1737.98 1755.72 1796.83 1754.64 1855.68 1753.56 1914.54 1750.32 1973.39 1748.16 2032.24 1746 2091.09 1743.62 2149.94 1741.68 2208.8 1739.74 2267.65 1738.23 2326.5 1736.5" stroke="#5B9BD5" stroke-width="6.875" stroke-linecap="round" stroke-linejoin="round" stroke-miterlimit="10" fill="none"/></g><g clip-path="url(#clip13)"><path d="M748.625 1793.09C748.625 1799.17 743.7 1804.09 737.625 1804.09 731.55 1804.09 726.625 1799.17 726.625 1793.09 726.625 1787.02 731.55 1782.09 737.625 1782.09 743.7 1782.09 748.625 1787.02 748.625 1793.09Z" stroke="#5B9BD5" stroke-width="3.4375" stroke-linejoin="round" stroke-miterlimit="10" fill="#5B9BD5"/><path d="M925.624 1789.09C925.624 1795.17 920.7 1800.09 914.625 1800.09 908.55 1800.09 903.625 1795.17 903.625 1789.09 903.625 1783.02 908.55 1778.09 914.625 1778.09 920.7 1778.09 925.624 1783.02 925.624 1789.09Z" stroke="#5B9BD5" stroke-width="3.4375" stroke-linejoin="round" stroke-miterlimit="10" fill="#5B9BD5"/><path d="M1101.62 1785.09C1101.62 1791.17 1096.7 1796.09 1090.62 1796.09 1084.55 1796.09 1079.63 1791.17 1079.63 1785.09 1079.63 1779.02 1084.55 1774.09 1090.62 1774.09 1096.7 1774.09 1101.62 1779.02 1101.62 1785.09Z" stroke="#5B9BD5" stroke-width="3.4375" stroke-linejoin="round" stroke-miterlimit="10" fill="#5B9BD5"/><path d="M1278.62 1784.09C1278.62 1790.17 1273.7 1795.09 1267.62 1795.09 1261.55 1795.09 1256.63 1790.17 1256.63 1784.09 1256.63 1778.02 1261.55 1773.09 1267.62 1773.09 1273.7 1773.09 1278.62 1778.02 1278.62 1784.09Z" stroke="#5B9BD5" stroke-width="3.4375" stroke-linejoin="round" stroke-miterlimit="10" fill="#5B9BD5"/><path d="M1454.62 1780.09C1454.62 1786.17 1449.7 1791.09 1443.62 1791.09 1437.55 1791.09 1432.63 1786.17 1432.63 1780.09 1432.63 1774.02 1437.55 1769.09 1443.62 1769.09 1449.7 1769.09 1454.62 1774.02 1454.62 1780.09Z" stroke="#5B9BD5" stroke-width="3.4375" stroke-linejoin="round" stroke-miterlimit="10" fill="#5B9BD5"/><path d="M1631.62 1754.09C1631.62 1760.17 1626.7 1765.09 1620.62 1765.09 1614.55 1765.09 1609.63 1760.17 1609.63 1754.09 1609.63 1748.02 1614.55 1743.09 1620.62 1743.09 1626.7 1743.09 1631.62 1748.02 1631.62 1754.09Z" stroke="#5B9BD5" stroke-width="3.4375" stroke-linejoin="round" stroke-miterlimit="10" fill="#5B9BD5"/><path d="M1807.62 1754.09C1807.62 1760.17 1802.7 1765.09 1796.62 1765.09 1790.55 1765.09 1785.63 1760.17 1785.63 1754.09 1785.63 1748.02 1790.55 1743.09 1796.62 1743.09 1802.7 1743.09 1807.62 1748.02 1807.62 1754.09Z" stroke="#5B9BD5" stroke-width="3.4375" stroke-linejoin="round" stroke-miterlimit="10" fill="#5B9BD5"/><path d="M1984.62 1747.09C1984.62 1753.17 1979.7 1758.09 1973.62 1758.09 1967.55 1758.09 1962.63 1753.17 1962.63 1747.09 1962.63 1741.02 1967.55 1736.09 1973.62 1736.09 1979.7 1736.09 1984.62 1741.02 1984.62 1747.09Z" stroke="#5B9BD5" stroke-width="3.4375" stroke-linejoin="round" stroke-miterlimit="10" fill="#5B9BD5"/><path d="M2160.62 1741.09C2160.62 1747.17 2155.7 1752.09 2149.62 1752.09 2143.55 1752.09 2138.63 1747.17 2138.63 1741.09 2138.63 1735.02 2143.55 1730.09 2149.62 1730.09 2155.7 1730.09 2160.62 1735.02 2160.62 1741.09Z" stroke="#5B9BD5" stroke-width="3.4375" stroke-linejoin="round" stroke-miterlimit="10" fill="#5B9BD5"/><path d="M2337.62 1736.09C2337.62 1742.17 2332.7 1747.09 2326.62 1747.09 2320.55 1747.09 2315.63 1742.17 2315.63 1736.09 2315.63 1730.02 2320.55 1725.09 2326.62 1725.09 2332.7 1725.09 2337.62 1730.02 2337.62 1736.09Z" stroke="#5B9BD5" stroke-width="3.4375" stroke-linejoin="round" stroke-miterlimit="10" fill="#5B9BD5"/></g><g clip-path="url(#clip14)"><text fill="#595959" font-family="Calibri,Calibri_MSFontService,sans-serif" font-weight="400" font-size="41" transform="matrix(1 0 0 1 502.311 1829)">0</text></g><g clip-path="url(#clip15)"><text fill="#595959" font-family="Calibri,Calibri_MSFontService,sans-serif" font-weight="400" font-size="41" transform="matrix(1 0 0 1 450.107 1700)">0.01</text></g><g clip-path="url(#clip16)"><text fill="#595959" font-family="Calibri,Calibri_MSFontService,sans-serif" font-weight="400" font-size="41" transform="matrix(1 0 0 1 450.107 1571)">0.02</text></g><g clip-path="url(#clip17)"><text fill="#595959" font-family="Calibri,Calibri_MSFontService,sans-serif" font-weight="400" font-size="41" transform="matrix(1 0 0 1 450.107 1441)">0.03</text></g><g clip-path="url(#clip18)"><text fill="#595959" font-family="Calibri,Calibri_MSFontService,sans-serif" font-weight="400" font-size="41" transform="matrix(1 0 0 1 450.107 1312)">0.04</text></g><g clip-path="url(#clip19)"><text fill="#595959" font-family="Calibri,Calibri_MSFontService,sans-serif" font-weight="400" font-size="41" transform="matrix(1 0 0 1 450.107 1183)">0.05</text></g><g clip-path="url(#clip20)"><text fill="#595959" font-family="Calibri,Calibri_MSFontService,sans-serif" font-weight="400" font-size="41" transform="matrix(1 0 0 1 450.107 1054)">0.06</text></g><g clip-path="url(#clip21)"><text fill="#595959" font-family="Calibri,Calibri_MSFontService,sans-serif" font-weight="400" font-size="41" transform="matrix(1 0 0 1 450.107 924)">0.07</text></g><g clip-path="url(#clip22)"><text fill="#595959" font-family="Calibri,Calibri_MSFontService,sans-serif" font-weight="400" font-size="41" transform="matrix(1 0 0 1 450.107 795)">0.08</text></g><g clip-path="url(#clip23)"><text fill="#595959" font-family="Calibri,Calibri_MSFontService,sans-serif" font-weight="400" font-size="41" transform="matrix(1 0 0 1 551.028 1883)">0</text></g><g clip-path="url(#clip24)"><text fill="#595959" font-family="Calibri,Calibri_MSFontService,sans-serif" font-weight="400" font-size="41" transform="matrix(1 0 0 1 893.571 1883)">20</text></g><g clip-path="url(#clip25)"><text fill="#595959" font-family="Calibri,Calibri_MSFontService,sans-serif" font-weight="400" font-size="41" transform="matrix(1 0 0 1 1246.56 1883)">40</text></g><g clip-path="url(#clip26)"><text fill="#595959" font-family="Calibri,Calibri_MSFontService,sans-serif" font-weight="400" font-size="41" transform="matrix(1 0 0 1 1599.56 1883)">60</text></g><g clip-path="url(#clip27)"><text fill="#595959" font-family="Calibri,Calibri_MSFontService,sans-serif" font-weight="400" font-size="41" transform="matrix(1 0 0 1 1952.55 1883)">80</text></g><g clip-path="url(#clip28)"><text fill="#595959" font-family="Calibri,Calibri_MSFontService,sans-serif" font-weight="400" font-size="41" transform="matrix(1 0 0 1 2295.09 1883)">100</text></g><g clip-path="url(#clip29)"><text fill="#595959" font-family="Calibri,Calibri_MSFontService,sans-serif" font-weight="400" font-size="41" transform="matrix(1 0 0 1 2648.09 1883)">120</text></g><g clip-path="url(#clip30)"><text fill="#595959" font-family="Calibri,Calibri_MSFontService,sans-serif" font-weight="400" font-size="46" transform="matrix(6.12323e-17 -1 1 6.12323e-17 424.417 1409)">Temps [ms]</text></g><g clip-path="url(#clip31)"><text fill="#595959" font-family="Calibri,Calibri_MSFontService,sans-serif" font-weight="400" font-size="46" transform="matrix(1 0 0 1 1443.06 1952)">Nombre de valeurs</text></g><g clip-path="url(#clip32)"><text fill="#595959" font-family="Calibri,Calibri_MSFontService,sans-serif" font-weight="400" font-size="64" transform="matrix(1 0 0 1 1499.85 709)">Vecteurs croissant</text></g><g clip-path="url(#clip33)"><path d="M2782.5 1222.5 2870.5 1222.5" stroke="#4472C4" stroke-width="6.875" stroke-linecap="round" stroke-linejoin="round" stroke-miterlimit="10" fill="none" fill-rule="evenodd"/></g><g clip-path="url(#clip34)"><path d="M2837 1222C2837 1228.07 2832.08 1233 2826 1233 2819.93 1233 2815 1228.07 2815 1222 2815 1215.92 2819.93 1211 2826 1211 2832.08 1211 2837 1215.92 2837 1222Z" stroke="#4472C4" stroke-width="3.4375" stroke-linejoin="round" stroke-miterlimit="10" fill="#4472C4"/></g><g clip-path="url(#clip35)"><text fill="#595959" font-family="Calibri,Calibri_MSFontService,sans-serif" font-weight="400" font-size="41" transform="matrix(1 0 0 1 2879.8 1234)">BubbleSort</text></g><g clip-path="url(#clip36)"><path d="M2782.5 1299.5 2870.5 1299.5" stroke="#ED7D31" stroke-width="6.875" stroke-linecap="round" stroke-linejoin="round" stroke-miterlimit="10" fill="none" fill-rule="evenodd"/></g><g clip-path="url(#clip37)"><path d="M2837 1299C2837 1305.07 2832.08 1310 2826 1310 2819.93 1310 2815 1305.07 2815 1299 2815 1292.92 2819.93 1288 2826 1288 2832.08 1288 2837 1292.92 2837 1299Z" stroke="#ED7D31" stroke-width="3.4375" stroke-linejoin="round" stroke-miterlimit="10" fill="#ED7D31"/></g><g clip-path="url(#clip38)"><text fill="#595959" font-family="Calibri,Calibri_MSFontService,sans-serif" font-weight="400" font-size="41" transform="matrix(1 0 0 1 2879.8 1311)">InsertionSort</text></g><g clip-path="url(#clip39)"><path d="M2782.5 1377.5 2870.5 1377.5" stroke="#A5A5A5" stroke-width="6.875" stroke-linecap="round" stroke-linejoin="round" stroke-miterlimit="10" fill="none" fill-rule="evenodd"/></g><g clip-path="url(#clip40)"><path d="M2837 1377C2837 1383.07 2832.08 1388 2826 1388 2819.93 1388 2815 1383.07 2815 1377 2815 1370.92 2819.93 1366 2826 1366 2832.08 1366 2837 1370.92 2837 1377Z" stroke="#A5A5A5" stroke-width="3.4375" stroke-linejoin="round" stroke-miterlimit="10" fill="#A5A5A5"/></g><g clip-path="url(#clip41)"><text fill="#595959" font-family="Calibri,Calibri_MSFontService,sans-serif" font-weight="400" font-size="41" transform="matrix(1 0 0 1 2879.8 1389)">SelectionSort</text></g><g clip-path="url(#clip42)"><path d="M2782.5 1454.5 2870.5 1454.5" stroke="#FFC000" stroke-width="6.875" stroke-linecap="round" stroke-linejoin="round" stroke-miterlimit="10" fill="none" fill-rule="evenodd"/></g><g clip-path="url(#clip43)"><path d="M2837 1454C2837 1460.07 2832.08 1465 2826 1465 2819.93 1465 2815 1460.07 2815 1454 2815 1447.92 2819.93 1443 2826 1443 2832.08 1443 2837 1447.92 2837 1454Z" stroke="#FFC000" stroke-width="3.4375" stroke-linejoin="round" stroke-miterlimit="10" fill="#FFC000"/></g><g clip-path="url(#clip44)"><text fill="#595959" font-family="Calibri,Calibri_MSFontService,sans-serif" font-weight="400" font-size="41" transform="matrix(1 0 0 1 2879.8 1466)">Sort</text></g><g clip-path="url(#clip45)"><path d="M2782.5 1531.5 2870.5 1531.5" stroke="#5B9BD5" stroke-width="6.875" stroke-linecap="round" stroke-linejoin="round" stroke-miterlimit="10" fill="none" fill-rule="evenodd"/></g><g clip-path="url(#clip46)"><path d="M2837 1531C2837 1537.07 2832.08 1542 2826 1542 2819.93 1542 2815 1537.07 2815 1531 2815 1524.92 2819.93 1520 2826 1520 2832.08 1520 2837 1524.92 2837 1531Z" stroke="#5B9BD5" stroke-width="3.4375" stroke-linejoin="round" stroke-miterlimit="10" fill="#5B9BD5"/></g><g clip-path="url(#clip47)"><text fill="#595959" font-family="Calibri,Calibri_MSFontService,sans-serif" font-weight="400" font-size="41" transform="matrix(1 0 0 1 2879.8 1543)">StableSort</text></g><rect x="323.5" y="614.5" width="2826" height="1407" stroke="#D9D9D9" stroke-width="3.4375" stroke-linejoin="round" stroke-miterlimit="10" fill="none"/></g></svg>