<svg width="2576" height="1359" xmlns="http://www.w3.org/2000/svg" xmlns:xlink="http://www.w3.org/1999/xlink" xml:space="preserve" overflow="hidden"><defs><clipPath id="clip0"><rect x="602" y="595" width="2576" height="1359"/></clipPath><clipPath id="clip1"><rect x="603" y="596" width="2573" height="1356"/></clipPath><clipPath id="clip2"><rect x="603" y="596" width="2573" height="1356"/></clipPath><clipPath id="clip3"><rect x="603" y="596" width="2573" height="1356"/></clipPath><clipPath id="clip4"><rect x="841" y="766" width="1869" height="986"/></clipPath><clipPath id="clip5"><rect x="603" y="596" width="2573" height="1356"/></clipPath><clipPath id="clip6"><rect x="841" y="766" width="1869" height="986"/></clipPath><clipPath id="clip7"><rect x="603" y="596" width="2573" height="1356"/></clipPath><clipPath id="clip8"><rect x="841" y="766" width="1869" height="986"/></clipPath><clipPath id="clip9"><rect x="603" y="596" width="2573" height="1356"/></clipPath><clipPath id="clip10"><rect x="841" y="766" width="1869" height="986"/></clipPath><clipPath id="clip11"><rect x="603" y="596" width="2573" height="1356"/></clipPath><clipPath id="clip12"><rect x="841" y="766" width="1869" height="986"/></clipPath><clipPath id="clip13"><rect x="603" y="596" width="2573" height="1356"/></clipPath><clipPath id="clip14"><rect x="603" y="596" width="2573" height="1356"/></clipPath><clipPath id="clip15"><rect x="603" y="596" width="2573" height="1356"/></clipPath><clipPath id="clip16"><rect x="603" y="596" width="2573" height="1356"/></clipPath><clipPath id="clip17"><rect x="603" y="596" width="2573" height="1356"/></clipPath><clipPath id="clip18"><rect x="603" y="596" width="2573" height="1356"/></clipPath><clipPath id="clip19"><rect x="603" y="596" width="2573" height="1356"/></clipPath><clipPath id="clip20"><rect x="603" y="596" width="2573" height="1356"/></clipPath><clipPath id="clip21"><rect x="603" y="596" width="2573" height="1356"/></clipPath><clipPath id="clip22"><rect x="603" y="596" width="2573" height="1356"/></clipPath><clipPath id="clip23"><rect x="603" y="596" width="2573" height="1356"/></clipPath><clipPath id="clip24"><rect x="603" y="596" width="2573" height="1356"/></clipPath><clipPath id="clip25"><rect x="603" y="596" width="2573" height="1356"/></clipPath><clipPath id="clip26"><rect x="603" y="596" width="2573" height="1356"/></clipPath><clipPath id="clip27"><rect x="603" y="596" width="2573" height="1356"/></clipPath><clipPath id="clip28"><rect x="603" y="596" width="2573" height="1356"/></clipPath><clipPath id="clip29"><rect x="603" y="596" width="2573" height="1356"/></clipPath><clipPath id="clip30"><rect x="603" y="596" width="2573" height="1356"/></clipPath><clipPath id="clip31"><rect x="603" y="596" width="2573" height="1356"/></clipPath><clipPath id="clip32"><rect x="603" y="596" width="2573" height="1356"/></clipPath><clipPath id="clip33"><rect x="603" y="596" width="2573" height="1356"/></clipPath><clipPath id="clip34"><rect x="603" y="596" width="2573" height="1356"/></clipPath><clipPath id="clip35"><rect x="603" y="596" width="2573" height="1356"/></clipPath><clipPath id="clip36"><rect x="603" y="596" width="2573" height="1356"/></clipPath><clipPath id="clip37"><rect x="603" y="596" width="2573" height="1356"/></clipPath><clipPath id="clip38"><rect x="603" y="596" width="2573" height="1356"/></clipPath><clipPath id="clip39"><rect x="603" y="596" width="2573" height="1356"/></clipPath><clipPath id="clip40"><rect x="603" y="596" width="2573" height="1356"/></clipPath><clipPath id="clip41"><rect x="603" y="596" width="2573" height="1356"/></clipPath><clipPath id="clip42"><rect x="603" y="596" width="2573" height="1356"/></clipPath><clipPath id="clip43"><rect x="603" y="596" width="2573" height="1356"/></clipPath><clipPath id="clip44"><rect x="603" y="596" width="2573" height="1356"/></clipPath><clipPath id="clip45"><rect x="603" y="596" width="2573" height="1356"/></clipPath><clipPath id="clip46"><rect x="603" y="596" width="2573" height="1356"/></clipPath><clipPath id="clip47"><rect x="603" y="596" width="2573" height="1356"/></clipPath></defs><g clip-path="url(#clip0)" transform="translate(-602 -595)"><rect x="603" y="596" width="2573" height="1356" fill="#FFFFFF"/><g clip-path="url(#clip1)"><path d="M841.5 1626.55 2706.5 1626.55M841.5 1503.55 2706.5 1503.55M841.5 1380.55 2706.5 1380.55M841.5 1257.54 2706.5 1257.54M841.5 1134.54 2706.5 1134.54M841.5 1012.53 2706.5 1012.53M841.5 889.529 2706.5 889.529M841.5 766.5 2706.5 766.5" stroke="#D9D9D9" stroke-width="3.4375" stroke-linejoin="round" stroke-miterlimit="10" fill="none"/></g><g clip-path="url(#clip2)"><path d="M0 0 0.000360892 982" stroke="#BFBFBF" stroke-width="3.4375" stroke-linejoin="round" stroke-miterlimit="10" fill="none" fill-rule="evenodd" transform="matrix(1 0 0 -1 841.5 1748.5)"/></g><g clip-path="url(#clip3)"><path d="M841.5 1748.5 2706.5 1748.5" stroke="#BFBFBF" stroke-width="3.4375" stroke-linejoin="round" stroke-miterlimit="10" fill="none" fill-rule="evenodd"/></g><g clip-path="url(#clip4)"><path d="M997.5 1728.5C1049.31 1722.36 1101.13 1720.51 1152.94 1710.07 1204.76 1699.63 1256.57 1683.04 1308.39 1665.84 1360.2 1648.64 1412.02 1629.4 1463.83 1606.87 1515.65 1584.35 1567.46 1558.96 1619.28 1530.7 1671.09 1502.44 1722.91 1471.32 1774.72 1437.33 1826.54 1403.34 1878.35 1365.25 1930.17 1326.76 1981.98 1288.26 2033.8 1250.18 2085.61 1206.36 2137.43 1162.54 2189.24 1112.99 2241.06 1063.84 2292.87 1014.7 2344.69 962.281 2396.5 911.5" stroke="#4472C4" stroke-width="6.875" stroke-linecap="round" stroke-linejoin="round" stroke-miterlimit="10" fill="none"/></g><g clip-path="url(#clip5)"><path d="M1008.78 1728.91C1008.78 1734.98 1003.86 1739.9 997.78 1739.9 991.706 1739.9 986.781 1734.98 986.781 1728.91 986.781 1722.83 991.706 1717.91 997.78 1717.91 1003.86 1717.91 1008.78 1722.83 1008.78 1728.91Z" stroke="#4472C4" stroke-width="3.4375" stroke-linejoin="round" stroke-miterlimit="10" fill="#4472C4"/><path d="M1163.78 1709.91C1163.78 1715.98 1158.86 1720.9 1152.78 1720.9 1146.71 1720.9 1141.78 1715.98 1141.78 1709.91 1141.78 1703.83 1146.71 1698.91 1152.78 1698.91 1158.86 1698.91 1163.78 1703.83 1163.78 1709.91Z" stroke="#4472C4" stroke-width="3.4375" stroke-linejoin="round" stroke-miterlimit="10" fill="#4472C4"/><path d="M1318.78 1665.91C1318.78 1671.98 1313.86 1676.9 1307.78 1676.9 1301.71 1676.9 1296.78 1671.98 1296.78 1665.91 1296.78 1659.83 1301.71 1654.91 1307.78 1654.91 1313.86 1654.91 1318.78 1659.83 1318.78 1665.91Z" stroke="#4472C4" stroke-width="3.4375" stroke-linejoin="round" stroke-miterlimit="10" fill="#4472C4"/><path d="M1474.78 1606.91C1474.78 1612.98 1469.86 1617.91 1463.78 1617.91 1457.71 1617.91 1452.78 1612.98 1452.78 1606.91 1452.78 1600.83 1457.71 1595.91 1463.78 1595.91 1469.86 1595.91 1474.78 1600.83 1474.78 1606.91Z" stroke="#4472C4" stroke-width="3.4375" stroke-linejoin="round" stroke-miterlimit="10" fill="#4472C4"/><path d="M1629.78 1530.91C1629.78 1536.98 1624.86 1541.9 1618.78 1541.9 1612.71 1541.9 1607.78 1536.98 1607.78 1530.91 1607.78 1524.83 1612.71 1519.91 1618.78 1519.91 1624.86 1519.91 1629.78 1524.83 1629.78 1530.91Z" stroke="#4472C4" stroke-width="3.4375" stroke-linejoin="round" stroke-miterlimit="10" fill="#4472C4"/><path d="M1785.78 1437.91C1785.78 1443.98 1780.86 1448.91 1774.78 1448.91 1768.71 1448.91 1763.78 1443.98 1763.78 1437.91 1763.78 1431.83 1768.71 1426.91 1774.78 1426.91 1780.86 1426.91 1785.78 1431.83 1785.78 1437.91Z" stroke="#4472C4" stroke-width="3.4375" stroke-linejoin="round" stroke-miterlimit="10" fill="#4472C4"/><path d="M1940.78 1326.91C1940.78 1332.98 1935.86 1337.91 1929.78 1337.91 1923.71 1337.91 1918.78 1332.98 1918.78 1326.91 1918.78 1320.83 1923.71 1315.91 1929.78 1315.91 1935.86 1315.91 1940.78 1320.83 1940.78 1326.91Z" stroke="#4472C4" stroke-width="3.4375" stroke-linejoin="round" stroke-miterlimit="10" fill="#4472C4"/><path d="M2096.78 1206.91C2096.78 1212.98 2091.86 1217.91 2085.78 1217.91 2079.71 1217.91 2074.78 1212.98 2074.78 1206.91 2074.78 1200.83 2079.71 1195.91 2085.78 1195.91 2091.86 1195.91 2096.78 1200.83 2096.78 1206.91Z" stroke="#4472C4" stroke-width="3.4375" stroke-linejoin="round" stroke-miterlimit="10" fill="#4472C4"/><path d="M2251.78 1063.91C2251.78 1069.98 2246.86 1074.91 2240.78 1074.91 2234.71 1074.91 2229.78 1069.98 2229.78 1063.91 2229.78 1057.83 2234.71 1052.91 2240.78 1052.91 2246.86 1052.91 2251.78 1057.83 2251.78 1063.91Z" stroke="#4472C4" stroke-width="3.4375" stroke-linejoin="round" stroke-miterlimit="10" fill="#4472C4"/><path d="M2407.78 911.905C2407.78 917.98 2402.86 922.905 2396.78 922.905 2390.71 922.905 2385.78 917.98 2385.78 911.905 2385.78 905.831 2390.71 900.906 2396.78 900.906 2402.86 900.906 2407.78 905.831 2407.78 911.905Z" stroke="#4472C4" stroke-width="3.4375" stroke-linejoin="round" stroke-miterlimit="10" fill="#4472C4"/></g><g clip-path="url(#clip6)"><path d="M997.5 1744.5C1049.31 1744.08 1101.13 1743.87 1152.94 1743.25 1204.76 1742.62 1256.57 1741.79 1308.39 1740.75 1360.2 1739.71 1412.02 1738.04 1463.83 1737 1515.65 1735.96 1567.46 1735.33 1619.28 1734.5 1671.09 1733.67 1722.91 1733.04 1774.72 1732 1826.54 1730.96 1878.35 1729.5 1930.17 1728.25 1981.98 1727 2033.8 1725.54 2085.61 1724.5 2137.43 1723.46 2189.24 1722.83 2241.06 1722 2292.87 1721.17 2344.69 1720.33 2396.5 1719.5" stroke="#ED7D31" stroke-width="6.875" stroke-linecap="round" stroke-linejoin="round" stroke-miterlimit="10" fill="none"/></g><g clip-path="url(#clip7)"><path d="M1008.78 1744.91C1008.78 1750.98 1003.86 1755.91 997.78 1755.91 991.706 1755.91 986.781 1750.98 986.781 1744.91 986.781 1738.83 991.706 1733.91 997.78 1733.91 1003.86 1733.91 1008.78 1738.83 1008.78 1744.91Z" stroke="#ED7D31" stroke-width="3.4375" stroke-linejoin="round" stroke-miterlimit="10" fill="#ED7D31"/><path d="M1163.78 1742.91C1163.78 1748.98 1158.86 1753.9 1152.78 1753.9 1146.71 1753.9 1141.78 1748.98 1141.78 1742.91 1141.78 1736.83 1146.71 1731.91 1152.78 1731.91 1158.86 1731.91 1163.78 1736.83 1163.78 1742.91Z" stroke="#ED7D31" stroke-width="3.4375" stroke-linejoin="round" stroke-miterlimit="10" fill="#ED7D31"/><path d="M1318.78 1740.91C1318.78 1746.98 1313.86 1751.9 1307.78 1751.9 1301.71 1751.9 1296.78 1746.98 1296.78 1740.91 1296.78 1734.83 1301.71 1729.91 1307.78 1729.91 1313.86 1729.91 1318.78 1734.83 1318.78 1740.91Z" stroke="#ED7D31" stroke-width="3.4375" stroke-linejoin="round" stroke-miterlimit="10" fill="#ED7D31"/><path d="M1474.78 1736.91C1474.78 1742.98 1469.86 1747.91 1463.78 1747.91 1457.71 1747.91 1452.78 1742.98 1452.78 1736.91 1452.78 1730.83 1457.71 1725.91 1463.78 1725.91 1469.86 1725.91 1474.78 1730.83 1474.78 1736.91Z" stroke="#ED7D31" stroke-width="3.4375" stroke-linejoin="round" stroke-miterlimit="10" fill="#ED7D31"/><path d="M1629.78 1734.91C1629.78 1740.98 1624.86 1745.91 1618.78 1745.91 1612.71 1745.91 1607.78 1740.98 1607.78 1734.91 1607.78 1728.83 1612.71 1723.91 1618.78 1723.91 1624.86 1723.91 1629.78 1728.83 1629.78 1734.91Z" stroke="#ED7D31" stroke-width="3.4375" stroke-linejoin="round" stroke-miterlimit="10" fill="#ED7D31"/><path d="M1785.78 1731.91C1785.78 1737.98 1780.86 1742.9 1774.78 1742.9 1768.71 1742.9 1763.78 1737.98 1763.78 1731.91 1763.78 1725.83 1768.71 1720.91 1774.78 1720.91 1780.86 1720.91 1785.78 1725.83 1785.78 1731.91Z" stroke="#ED7D31" stroke-width="3.4375" stroke-linejoin="round" stroke-miterlimit="10" fill="#ED7D31"/><path d="M1940.78 1728.91C1940.78 1734.98 1935.86 1739.9 1929.78 1739.9 1923.71 1739.9 1918.78 1734.98 1918.78 1728.91 1918.78 1722.83 1923.71 1717.91 1929.78 1717.91 1935.86 1717.91 1940.78 1722.83 1940.78 1728.91Z" stroke="#ED7D31" stroke-width="3.4375" stroke-linejoin="round" stroke-miterlimit="10" fill="#ED7D31"/><path d="M2096.78 1724.91C2096.78 1730.98 2091.86 1735.91 2085.78 1735.91 2079.71 1735.91 2074.78 1730.98 2074.78 1724.91 2074.78 1718.83 2079.71 1713.91 2085.78 1713.91 2091.86 1713.91 2096.78 1718.83 2096.78 1724.91Z" stroke="#ED7D31" stroke-width="3.4375" stroke-linejoin="round" stroke-miterlimit="10" fill="#ED7D31"/><path d="M2251.78 1721.91C2251.78 1727.98 2246.86 1732.9 2240.78 1732.9 2234.71 1732.9 2229.78 1727.98 2229.78 1721.91 2229.78 1715.83 2234.71 1710.91 2240.78 1710.91 2246.86 1710.91 2251.78 1715.83 2251.78 1721.91Z" stroke="#ED7D31" stroke-width="3.4375" stroke-linejoin="round" stroke-miterlimit="10" fill="#ED7D31"/><path d="M2407.78 1719.91C2407.78 1725.98 2402.86 1730.9 2396.78 1730.9 2390.71 1730.9 2385.78 1725.98 2385.78 1719.91 2385.78 1713.83 2390.71 1708.91 2396.78 1708.91 2402.86 1708.91 2407.78 1713.83 2407.78 1719.91Z" stroke="#ED7D31" stroke-width="3.4375" stroke-linejoin="round" stroke-miterlimit="10" fill="#ED7D31"/></g><g clip-path="url(#clip8)"><path d="M997.5 1737.5C1049.31 1731.77 1101.13 1727.07 1152.94 1720.32 1204.76 1713.57 1256.57 1706.82 1308.39 1697 1360.2 1687.18 1412.02 1674.5 1463.83 1661.41 1515.65 1648.32 1567.46 1634 1619.28 1618.45 1671.09 1602.91 1722.91 1586.55 1774.72 1568.14 1826.54 1549.73 1878.35 1529.27 1930.17 1508 1981.98 1486.73 2033.8 1464.43 2085.61 1440.5 2137.43 1416.57 2189.24 1391.41 2241.06 1364.41 2292.87 1337.41 2344.69 1307.14 2396.5 1278.5" stroke="#A5A5A5" stroke-width="6.875" stroke-linecap="round" stroke-linejoin="round" stroke-miterlimit="10" fill="none"/></g><g clip-path="url(#clip9)"><path d="M1008.78 1737.91C1008.78 1743.98 1003.86 1748.91 997.78 1748.91 991.706 1748.91 986.781 1743.98 986.781 1737.91 986.781 1731.83 991.706 1726.91 997.78 1726.91 1003.86 1726.91 1008.78 1731.83 1008.78 1737.91Z" stroke="#A5A5A5" stroke-width="3.4375" stroke-linejoin="round" stroke-miterlimit="10" fill="#A5A5A5"/><path d="M1163.78 1720.91C1163.78 1726.98 1158.86 1731.9 1152.78 1731.9 1146.71 1731.9 1141.78 1726.98 1141.78 1720.91 1141.78 1714.83 1146.71 1709.91 1152.78 1709.91 1158.86 1709.91 1163.78 1714.83 1163.78 1720.91Z" stroke="#A5A5A5" stroke-width="3.4375" stroke-linejoin="round" stroke-miterlimit="10" fill="#A5A5A5"/><path d="M1318.78 1697.91C1318.78 1703.98 1313.86 1708.9 1307.78 1708.9 1301.71 1708.9 1296.78 1703.98 1296.78 1697.91 1296.78 1691.83 1301.71 1686.91 1307.78 1686.91 1313.86 1686.91 1318.78 1691.83 1318.78 1697.91Z" stroke="#A5A5A5" stroke-width="3.4375" stroke-linejoin="round" stroke-miterlimit="10" fill="#A5A5A5"/><path d="M1474.78 1661.91C1474.78 1667.98 1469.86 1672.91 1463.78 1672.91 1457.71 1672.91 1452.78 1667.98 1452.78 1661.91 1452.78 1655.83 1457.71 1650.91 1463.78 1650.91 1469.86 1650.91 1474.78 1655.83 1474.78 1661.91Z" stroke="#A5A5A5" stroke-width="3.4375" stroke-linejoin="round" stroke-miterlimit="10" fill="#A5A5A5"/><path d="M1629.78 1618.91C1629.78 1624.98 1624.86 1629.9 1618.78 1629.9 1612.71 1629.9 1607.78 1624.98 1607.78 1618.91 1607.78 1612.83 1612.71 1607.91 1618.78 1607.91 1624.86 1607.91 1629.78 1612.83 1629.78 1618.91Z" stroke="#A5A5A5" stroke-width="3.4375" stroke-linejoin="round" stroke-miterlimit="10" fill="#A5A5A5"/><path d="M1785.78 1568.91C1785.78 1574.98 1780.86 1579.91 1774.78 1579.91 1768.71 1579.91 1763.78 1574.98 1763.78 1568.91 1763.78 1562.83 1768.71 1557.91 1774.78 1557.91 1780.86 1557.91 1785.78 1562.83 1785.78 1568.91Z" stroke="#A5A5A5" stroke-width="3.4375" stroke-linejoin="round" stroke-miterlimit="10" fill="#A5A5A5"/><path d="M1940.78 1508.91C1940.78 1514.98 1935.86 1519.9 1929.78 1519.9 1923.71 1519.9 1918.78 1514.98 1918.78 1508.91 1918.78 1502.83 1923.71 1497.91 1929.78 1497.91 1935.86 1497.91 1940.78 1502.83 1940.78 1508.91Z" stroke="#A5A5A5" stroke-width="3.4375" stroke-linejoin="round" stroke-miterlimit="10" fill="#A5A5A5"/><path d="M2096.78 1440.91C2096.78 1446.98 2091.86 1451.91 2085.78 1451.91 2079.71 1451.91 2074.78 1446.98 2074.78 1440.91 2074.78 1434.83 2079.71 1429.91 2085.78 1429.91 2091.86 1429.91 2096.78 1434.83 2096.78 1440.91Z" stroke="#A5A5A5" stroke-width="3.4375" stroke-linejoin="round" stroke-miterlimit="10" fill="#A5A5A5"/><path d="M2251.78 1364.91C2251.78 1370.98 2246.86 1375.91 2240.78 1375.91 2234.71 1375.91 2229.78 1370.98 2229.78 1364.91 2229.78 1358.83 2234.71 1353.91 2240.78 1353.91 2246.86 1353.91 2251.78 1358.83 2251.78 1364.91Z" stroke="#A5A5A5" stroke-width="3.4375" stroke-linejoin="round" stroke-miterlimit="10" fill="#A5A5A5"/><path d="M2407.78 1278.91C2407.78 1284.98 2402.86 1289.9 2396.78 1289.9 2390.71 1289.9 2385.78 1284.98 2385.78 1278.91 2385.78 1272.83 2390.71 1267.91 2396.78 1267.91 2402.86 1267.91 2407.78 1272.83 2407.78 1278.91Z" stroke="#A5A5A5" stroke-width="3.4375" stroke-linejoin="round" stroke-miterlimit="10" fill="#A5A5A5"/></g><g clip-path="url(#clip10)"><path d="M997.5 1742.5C1049.31 1738.01 1101.13 1730.46 1152.94 1729.03 1204.76 1727.6 1256.57 1735.36 1308.39 1733.93 1360.2 1732.5 1412.02 1723.32 1463.83 1720.46 1515.65 1717.6 1567.46 1717.81 1619.28 1716.79 1671.09 1715.77 1722.91 1715.15 1774.72 1714.34 1826.54 1713.52 1878.35 1715.56 1930.17 1711.89 1981.98 1708.21 2033.8 1696.38 2085.61 1692.3 2137.43 1688.21 2189.24 1689.03 2241.06 1687.4 2292.87 1685.77 2344.69 1684.13 2396.5 1682.5" stroke="#FFC000" stroke-width="6.875" stroke-linecap="round" stroke-linejoin="round" stroke-miterlimit="10" fill="none"/></g><g clip-path="url(#clip11)"><path d="M1008.78 1742.91C1008.78 1748.98 1003.86 1753.9 997.78 1753.9 991.706 1753.9 986.781 1748.98 986.781 1742.91 986.781 1736.83 991.706 1731.91 997.78 1731.91 1003.86 1731.91 1008.78 1736.83 1008.78 1742.91Z" stroke="#FFC000" stroke-width="3.4375" stroke-linejoin="round" stroke-miterlimit="10" fill="#FFC000"/><path d="M1163.78 1729.91C1163.78 1735.98 1158.86 1740.9 1152.78 1740.9 1146.71 1740.9 1141.78 1735.98 1141.78 1729.91 1141.78 1723.83 1146.71 1718.91 1152.78 1718.91 1158.86 1718.91 1163.78 1723.83 1163.78 1729.91Z" stroke="#FFC000" stroke-width="3.4375" stroke-linejoin="round" stroke-miterlimit="10" fill="#FFC000"/><path d="M1318.78 1734.91C1318.78 1740.98 1313.86 1745.91 1307.78 1745.91 1301.71 1745.91 1296.78 1740.98 1296.78 1734.91 1296.78 1728.83 1301.71 1723.91 1307.78 1723.91 1313.86 1723.91 1318.78 1728.83 1318.78 1734.91Z" stroke="#FFC000" stroke-width="3.4375" stroke-linejoin="round" stroke-miterlimit="10" fill="#FFC000"/><path d="M1474.78 1720.91C1474.78 1726.98 1469.86 1731.9 1463.78 1731.9 1457.71 1731.9 1452.78 1726.98 1452.78 1720.91 1452.78 1714.83 1457.71 1709.91 1463.78 1709.91 1469.86 1709.91 1474.78 1714.83 1474.78 1720.91Z" stroke="#FFC000" stroke-width="3.4375" stroke-linejoin="round" stroke-miterlimit="10" fill="#FFC000"/><path d="M1629.78 1717.91C1629.78 1723.98 1624.86 1728.9 1618.78 1728.9 1612.71 1728.9 1607.78 1723.98 1607.78 1717.91 1607.78 1711.83 1612.71 1706.91 1618.78 1706.91 1624.86 1706.91 1629.78 1711.83 1629.78 1717.91Z" stroke="#FFC000" stroke-width="3.4375" stroke-linejoin="round" stroke-miterlimit="10" fill="#FFC000"/><path d="M1785.78 1714.91C1785.78 1720.98 1780.86 1725.91 1774.78 1725.91 1768.71 1725.91 1763.78 1720.98 1763.78 1714.91 1763.78 1708.83 1768.71 1703.91 1774.78 1703.91 1780.86 1703.91 1785.78 1708.83 1785.78 1714.91Z" stroke="#FFC000" stroke-width="3.4375" stroke-linejoin="round" stroke-miterlimit="10" fill="#FFC000"/><path d="M1940.78 1712.91C1940.78 1718.98 1935.86 1723.91 1929.78 1723.91 1923.71 1723.91 1918.78 1718.98 1918.78 1712.91 1918.78 1706.83 1923.71 1701.91 1929.78 1701.91 1935.86 1701.91 1940.78 1706.83 1940.78 1712.91Z" stroke="#FFC000" stroke-width="3.4375" stroke-linejoin="round" stroke-miterlimit="10" fill="#FFC000"/><path d="M2096.78 1692.91C2096.78 1698.98 2091.86 1703.91 2085.78 1703.91 2079.71 1703.91 2074.78 1698.98 2074.78 1692.91 2074.78 1686.83 2079.71 1681.91 2085.78 1681.91 2091.86 1681.91 2096.78 1686.83 2096.78 1692.91Z" stroke="#FFC000" stroke-width="3.4375" stroke-linejoin="round" stroke-miterlimit="10" fill="#FFC000"/><path d="M2251.78 1687.91C2251.78 1693.98 2246.86 1698.9 2240.78 1698.9 2234.71 1698.9 2229.78 1693.98 2229.78 1687.91 2229.78 1681.83 2234.71 1676.91 2240.78 1676.91 2246.86 1676.91 2251.78 1681.83 2251.78 1687.91Z" stroke="#FFC000" stroke-width="3.4375" stroke-linejoin="round" stroke-miterlimit="10" fill="#FFC000"/><path d="M2407.78 1682.91C2407.78 1688.98 2402.86 1693.91 2396.78 1693.91 2390.71 1693.91 2385.78 1688.98 2385.78 1682.91 2385.78 1676.83 2390.71 1671.91 2396.78 1671.91 2402.86 1671.91 2407.78 1676.83 2407.78 1682.91Z" stroke="#FFC000" stroke-width="3.4375" stroke-linejoin="round" stroke-miterlimit="10" fill="#FFC000"/></g><g clip-path="url(#clip12)"><path d="M997.5 1725.5C1049.31 1724.27 1101.13 1723.05 1152.94 1721.82 1204.76 1720.59 1256.57 1718.95 1308.39 1718.14 1360.2 1717.32 1412.02 1717.73 1463.83 1716.91 1515.65 1716.09 1567.46 1717.93 1619.28 1713.23 1671.09 1708.52 1722.91 1692.77 1774.72 1688.68 1826.54 1684.59 1878.35 1689.7 1930.17 1688.68 1981.98 1687.66 2033.8 1684.59 2085.61 1682.55 2137.43 1680.5 2189.24 1678.25 2241.06 1676.41 2292.87 1674.57 2344.69 1673.14 2396.5 1671.5" stroke="#5B9BD5" stroke-width="6.875" stroke-linecap="round" stroke-linejoin="round" stroke-miterlimit="10" fill="none"/></g><g clip-path="url(#clip13)"><path d="M1008.78 1725.91C1008.78 1731.98 1003.86 1736.91 997.78 1736.91 991.706 1736.91 986.781 1731.98 986.781 1725.91 986.781 1719.83 991.706 1714.91 997.78 1714.91 1003.86 1714.91 1008.78 1719.83 1008.78 1725.91Z" stroke="#5B9BD5" stroke-width="3.4375" stroke-linejoin="round" stroke-miterlimit="10" fill="#5B9BD5"/><path d="M1163.78 1721.91C1163.78 1727.98 1158.86 1732.9 1152.78 1732.9 1146.71 1732.9 1141.78 1727.98 1141.78 1721.91 1141.78 1715.83 1146.71 1710.91 1152.78 1710.91 1158.86 1710.91 1163.78 1715.83 1163.78 1721.91Z" stroke="#5B9BD5" stroke-width="3.4375" stroke-linejoin="round" stroke-miterlimit="10" fill="#5B9BD5"/><path d="M1318.78 1718.91C1318.78 1724.98 1313.86 1729.9 1307.78 1729.9 1301.71 1729.9 1296.78 1724.98 1296.78 1718.91 1296.78 1712.83 1301.71 1707.91 1307.78 1707.91 1313.86 1707.91 1318.78 1712.83 1318.78 1718.91Z" stroke="#5B9BD5" stroke-width="3.4375" stroke-linejoin="round" stroke-miterlimit="10" fill="#5B9BD5"/><path d="M1474.78 1717.91C1474.78 1723.98 1469.86 1728.9 1463.78 1728.9 1457.71 1728.9 1452.78 1723.98 1452.78 1717.91 1452.78 1711.83 1457.71 1706.91 1463.78 1706.91 1469.86 1706.91 1474.78 1711.83 1474.78 1717.91Z" stroke="#5B9BD5" stroke-width="3.4375" stroke-linejoin="round" stroke-miterlimit="10" fill="#5B9BD5"/><path d="M1629.78 1713.91C1629.78 1719.98 1624.86 1724.91 1618.78 1724.91 1612.71 1724.91 1607.78 1719.98 1607.78 1713.91 1607.78 1707.83 1612.71 1702.91 1618.78 1702.91 1624.86 1702.91 1629.78 1707.83 1629.78 1713.91Z" stroke="#5B9BD5" stroke-width="3.4375" stroke-linejoin="round" stroke-miterlimit="10" fill="#5B9BD5"/><path d="M1785.78 1688.91C1785.78 1694.98 1780.86 1699.9 1774.78 1699.9 1768.71 1699.9 1763.78 1694.98 1763.78 1688.91 1763.78 1682.83 1768.71 1677.91 1774.78 1677.91 1780.86 1677.91 1785.78 1682.83 1785.78 1688.91Z" stroke="#5B9BD5" stroke-width="3.4375" stroke-linejoin="round" stroke-miterlimit="10" fill="#5B9BD5"/><path d="M1940.78 1688.91C1940.78 1694.98 1935.86 1699.9 1929.78 1699.9 1923.71 1699.9 1918.78 1694.98 1918.78 1688.91 1918.78 1682.83 1923.71 1677.91 1929.78 1677.91 1935.86 1677.91 1940.78 1682.83 1940.78 1688.91Z" stroke="#5B9BD5" stroke-width="3.4375" stroke-linejoin="round" stroke-miterlimit="10" fill="#5B9BD5"/><path d="M2096.78 1682.91C2096.78 1688.98 2091.86 1693.91 2085.78 1693.91 2079.71 1693.91 2074.78 1688.98 2074.78 1682.91 2074.78 1676.83 2079.71 1671.91 2085.78 1671.91 2091.86 1671.91 2096.78 1676.83 2096.78 1682.91Z" stroke="#5B9BD5" stroke-width="3.4375" stroke-linejoin="round" stroke-miterlimit="10" fill="#5B9BD5"/><path d="M2251.78 1676.91C2251.78 1682.98 2246.86 1687.9 2240.78 1687.9 2234.71 1687.9 2229.78 1682.98 2229.78 1676.91 2229.78 1670.83 2234.71 1665.91 2240.78 1665.91 2246.86 1665.91 2251.78 1670.83 2251.78 1676.91Z" stroke="#5B9BD5" stroke-width="3.4375" stroke-linejoin="round" stroke-miterlimit="10" fill="#5B9BD5"/><path d="M2407.78 1671.91C2407.78 1677.98 2402.86 1682.91 2396.78 1682.91 2390.71 1682.91 2385.78 1677.98 2385.78 1671.91 2385.78 1665.83 2390.71 1660.91 2396.78 1660.91 2402.86 1660.91 2407.78 1665.83 2407.78 1671.91Z" stroke="#5B9BD5" stroke-width="3.4375" stroke-linejoin="round" stroke-miterlimit="10" fill="#5B9BD5"/></g><g clip-path="url(#clip14)"><text fill="#595959" font-family="Calibri,Calibri_MSFontService,sans-serif" font-weight="400" font-size="41" transform="matrix(1 0 0 1 782.466 1761)">0</text></g><g clip-path="url(#clip15)"><text fill="#595959" font-family="Calibri,Calibri_MSFontService,sans-serif" font-weight="400" font-size="41" transform="matrix(1 0 0 1 730.262 1638)">0.01</text></g><g clip-path="url(#clip16)"><text fill="#595959" font-family="Calibri,Calibri_MSFontService,sans-serif" font-weight="400" font-size="41" transform="matrix(1 0 0 1 730.262 1515)">0.02</text></g><g clip-path="url(#clip17)"><text fill="#595959" font-family="Calibri,Calibri_MSFontService,sans-serif" font-weight="400" font-size="41" transform="matrix(1 0 0 1 730.262 1392)">0.03</text></g><g clip-path="url(#clip18)"><text fill="#595959" font-family="Calibri,Calibri_MSFontService,sans-serif" font-weight="400" font-size="41" transform="matrix(1 0 0 1 730.262 1269)">0.04</text></g><g clip-path="url(#clip19)"><text fill="#595959" font-family="Calibri,Calibri_MSFontService,sans-serif" font-weight="400" font-size="41" transform="matrix(1 0 0 1 730.262 1146)">0.05</text></g><g clip-path="url(#clip20)"><text fill="#595959" font-family="Calibri,Calibri_MSFontService,sans-serif" font-weight="400" font-size="41" transform="matrix(1 0 0 1 730.262 1024)">0.06</text></g><g clip-path="url(#clip21)"><text fill="#595959" font-family="Calibri,Calibri_MSFontService,sans-serif" font-weight="400" font-size="41" transform="matrix(1 0 0 1 730.262 901)">0.07</text></g><g clip-path="url(#clip22)"><text fill="#595959" font-family="Calibri,Calibri_MSFontService,sans-serif" font-weight="400" font-size="41" transform="matrix(1 0 0 1 730.262 778)">0.08</text></g><g clip-path="url(#clip23)"><text fill="#595959" font-family="Calibri,Calibri_MSFontService,sans-serif" font-weight="400" font-size="41" transform="matrix(1 0 0 1 831.183 1814)">0</text></g><g clip-path="url(#clip24)"><text fill="#595959" font-family="Calibri,Calibri_MSFontService,sans-serif" font-weight="400" font-size="41" transform="matrix(1 0 0 1 1131.62 1814)">20</text></g><g clip-path="url(#clip25)"><text fill="#595959" font-family="Calibri,Calibri_MSFontService,sans-serif" font-weight="400" font-size="41" transform="matrix(1 0 0 1 1442.5 1814)">40</text></g><g clip-path="url(#clip26)"><text fill="#595959" font-family="Calibri,Calibri_MSFontService,sans-serif" font-weight="400" font-size="41" transform="matrix(1 0 0 1 1753.39 1814)">60</text></g><g clip-path="url(#clip27)"><text fill="#595959" font-family="Calibri,Calibri_MSFontService,sans-serif" font-weight="400" font-size="41" transform="matrix(1 0 0 1 2064.27 1814)">80</text></g><g clip-path="url(#clip28)"><text fill="#595959" font-family="Calibri,Calibri_MSFontService,sans-serif" font-weight="400" font-size="41" transform="matrix(1 0 0 1 2364.7 1814)">100</text></g><g clip-path="url(#clip29)"><text fill="#595959" font-family="Calibri,Calibri_MSFontService,sans-serif" font-weight="400" font-size="41" transform="matrix(1 0 0 1 2675.59 1814)">120</text></g><g clip-path="url(#clip30)"><text fill="#595959" font-family="Calibri,Calibri_MSFontService,sans-serif" font-weight="400" font-size="46" transform="matrix(6.12323e-17 -1 1 6.12323e-17 704.572 1366)">Temps [ms]</text></g><g clip-path="url(#clip31)"><text fill="#595959" font-family="Calibri,Calibri_MSFontService,sans-serif" font-weight="400" font-size="46" transform="matrix(1 0 0 1 1616.55 1883)">Nombres valeurs</text></g><g clip-path="url(#clip32)"><text fill="#595959" font-family="Calibri,Calibri_MSFontService,sans-serif" font-weight="400" font-size="64" transform="matrix(1 0 0 1 1550.16 692)">Tri vecteur ordre croissant</text></g><g clip-path="url(#clip33)"><path d="M2810.5 1179.5 2898.5 1179.5" stroke="#4472C4" stroke-width="6.875" stroke-linecap="round" stroke-linejoin="round" stroke-miterlimit="10" fill="none" fill-rule="evenodd"/></g><g clip-path="url(#clip34)"><path d="M2865 1179C2865 1185.07 2860.07 1190 2854 1190 2847.93 1190 2843 1185.07 2843 1179 2843 1172.92 2847.93 1168 2854 1168 2860.07 1168 2865 1172.92 2865 1179Z" stroke="#4472C4" stroke-width="3.4375" stroke-linejoin="round" stroke-miterlimit="10" fill="#4472C4"/></g><g clip-path="url(#clip35)"><text fill="#595959" font-family="Calibri,Calibri_MSFontService,sans-serif" font-weight="400" font-size="41" transform="matrix(1 0 0 1 2907.3 1191)">BubbleSort</text></g><g clip-path="url(#clip36)"><path d="M2810.5 1256.5 2898.5 1256.5" stroke="#ED7D31" stroke-width="6.875" stroke-linecap="round" stroke-linejoin="round" stroke-miterlimit="10" fill="none" fill-rule="evenodd"/></g><g clip-path="url(#clip37)"><path d="M2865 1256C2865 1262.07 2860.07 1267 2854 1267 2847.93 1267 2843 1262.07 2843 1256 2843 1249.92 2847.93 1245 2854 1245 2860.07 1245 2865 1249.92 2865 1256Z" stroke="#ED7D31" stroke-width="3.4375" stroke-linejoin="round" stroke-miterlimit="10" fill="#ED7D31"/></g><g clip-path="url(#clip38)"><text fill="#595959" font-family="Calibri,Calibri_MSFontService,sans-serif" font-weight="400" font-size="41" transform="matrix(1 0 0 1 2907.3 1268)">InsertionSort</text></g><g clip-path="url(#clip39)"><path d="M2810.5 1334.5 2898.5 1334.5" stroke="#A5A5A5" stroke-width="6.875" stroke-linecap="round" stroke-linejoin="round" stroke-miterlimit="10" fill="none" fill-rule="evenodd"/></g><g clip-path="url(#clip40)"><path d="M2865 1334C2865 1340.07 2860.07 1345 2854 1345 2847.93 1345 2843 1340.07 2843 1334 2843 1327.92 2847.93 1323 2854 1323 2860.07 1323 2865 1327.92 2865 1334Z" stroke="#A5A5A5" stroke-width="3.4375" stroke-linejoin="round" stroke-miterlimit="10" fill="#A5A5A5"/></g><g clip-path="url(#clip41)"><text fill="#595959" font-family="Calibri,Calibri_MSFontService,sans-serif" font-weight="400" font-size="41" transform="matrix(1 0 0 1 2907.3 1346)">SelectionSort</text></g><g clip-path="url(#clip42)"><path d="M2810.5 1411.5 2898.5 1411.5" stroke="#FFC000" stroke-width="6.875" stroke-linecap="round" stroke-linejoin="round" stroke-miterlimit="10" fill="none" fill-rule="evenodd"/></g><g clip-path="url(#clip43)"><path d="M2865 1411C2865 1417.07 2860.07 1422 2854 1422 2847.93 1422 2843 1417.07 2843 1411 2843 1404.92 2847.93 1400 2854 1400 2860.07 1400 2865 1404.92 2865 1411Z" stroke="#FFC000" stroke-width="3.4375" stroke-linejoin="round" stroke-miterlimit="10" fill="#FFC000"/></g><g clip-path="url(#clip44)"><text fill="#595959" font-family="Calibri,Calibri_MSFontService,sans-serif" font-weight="400" font-size="41" transform="matrix(1 0 0 1 2907.3 1423)">Sort</text></g><g clip-path="url(#clip45)"><path d="M2810.5 1488.5 2898.5 1488.5" stroke="#5B9BD5" stroke-width="6.875" stroke-linecap="round" stroke-linejoin="round" stroke-miterlimit="10" fill="none" fill-rule="evenodd"/></g><g clip-path="url(#clip46)"><path d="M2865 1488C2865 1494.07 2860.07 1499 2854 1499 2847.93 1499 2843 1494.07 2843 1488 2843 1481.92 2847.93 1477 2854 1477 2860.07 1477 2865 1481.92 2865 1488Z" stroke="#5B9BD5" stroke-width="3.4375" stroke-linejoin="round" stroke-miterlimit="10" fill="#5B9BD5"/></g><g clip-path="url(#clip47)"><text fill="#595959" font-family="Calibri,Calibri_MSFontService,sans-serif" font-weight="400" font-size="41" transform="matrix(1 0 0 1 2907.3 1500)">StableSort</text></g><rect x="603.5" y="596.5" width="2573" height="1356" stroke="#D9D9D9" stroke-width="3.4375" stroke-linejoin="round" stroke-miterlimit="10" fill="none"/></g></svg>