<svg width="2538" height="1615" xmlns="http://www.w3.org/2000/svg" xmlns:xlink="http://www.w3.org/1999/xlink" xml:space="preserve" overflow="hidden"><defs><clipPath id="clip0"><rect x="409" y="337" width="2538" height="1615"/></clipPath><clipPath id="clip1"><rect x="409" y="338" width="2536" height="1611"/></clipPath><clipPath id="clip2"><rect x="409" y="338" width="2536" height="1611"/></clipPath><clipPath id="clip3"><rect x="409" y="338" width="2536" height="1611"/></clipPath><clipPath id="clip4"><rect x="648" y="508" width="2218" height="1136"/></clipPath><clipPath id="clip5"><rect x="409" y="338" width="2536" height="1611"/></clipPath><clipPath id="clip6"><rect x="648" y="508" width="2218" height="1136"/></clipPath><clipPath id="clip7"><rect x="409" y="338" width="2536" height="1611"/></clipPath><clipPath id="clip8"><rect x="648" y="508" width="2218" height="1136"/></clipPath><clipPath id="clip9"><rect x="409" y="338" width="2536" height="1611"/></clipPath><clipPath id="clip10"><rect x="648" y="508" width="2218" height="1136"/></clipPath><clipPath id="clip11"><rect x="409" y="338" width="2536" height="1611"/></clipPath><clipPath id="clip12"><rect x="648" y="508" width="2218" height="1136"/></clipPath><clipPath id="clip13"><rect x="409" y="338" width="2536" height="1611"/></clipPath><clipPath id="clip14"><rect x="409" y="338" width="2536" height="1611"/></clipPath><clipPath id="clip15"><rect x="409" y="338" width="2536" height="1611"/></clipPath><clipPath id="clip16"><rect x="409" y="338" width="2536" height="1611"/></clipPath><clipPath id="clip17"><rect x="409" y="338" width="2536" height="1611"/></clipPath><clipPath id="clip18"><rect x="409" y="338" width="2536" height="1611"/></clipPath><clipPath id="clip19"><rect x="409" y="338" width="2536" height="1611"/></clipPath><clipPath id="clip20"><rect x="409" y="338" width="2536" height="1611"/></clipPath><clipPath id="clip21"><rect x="409" y="338" width="2536" height="1611"/></clipPath><clipPath id="clip22"><rect x="409" y="338" width="2536" height="1611"/></clipPath><clipPath id="clip23"><rect x="409" y="338" width="2536" height="1611"/></clipPath><clipPath id="clip24"><rect x="409" y="338" width="2536" height="1611"/></clipPath><clipPath id="clip25"><rect x="409" y="338" width="2536" height="1611"/></clipPath><clipPath id="clip26"><rect x="409" y="338" width="2536" height="1611"/></clipPath><clipPath id="clip27"><rect x="409" y="338" width="2536" height="1611"/></clipPath><clipPath id="clip28"><rect x="409" y="338" width="2536" height="1611"/></clipPath><clipPath id="clip29"><rect x="409" y="338" width="2536" height="1611"/></clipPath><clipPath id="clip30"><rect x="409" y="338" width="2536" height="1611"/></clipPath><clipPath id="clip31"><rect x="409" y="338" width="2536" height="1611"/></clipPath><clipPath id="clip32"><rect x="409" y="338" width="2536" height="1611"/></clipPath><clipPath id="clip33"><rect x="409" y="338" width="2536" height="1611"/></clipPath><clipPath id="clip34"><rect x="409" y="338" width="2536" height="1611"/></clipPath><clipPath id="clip35"><rect x="409" y="338" width="2536" height="1611"/></clipPath><clipPath id="clip36"><rect x="409" y="338" width="2536" height="1611"/></clipPath><clipPath id="clip37"><rect x="409" y="338" width="2536" height="1611"/></clipPath><clipPath id="clip38"><rect x="409" y="338" width="2536" height="1611"/></clipPath><clipPath id="clip39"><rect x="409" y="338" width="2536" height="1611"/></clipPath><clipPath id="clip40"><rect x="409" y="338" width="2536" height="1611"/></clipPath><clipPath id="clip41"><rect x="409" y="338" width="2536" height="1611"/></clipPath><clipPath id="clip42"><rect x="409" y="338" width="2536" height="1611"/></clipPath><clipPath id="clip43"><rect x="409" y="338" width="2536" height="1611"/></clipPath><clipPath id="clip44"><rect x="409" y="338" width="2536" height="1611"/></clipPath><clipPath id="clip45"><rect x="409" y="338" width="2536" height="1611"/></clipPath><clipPath id="clip46"><rect x="409" y="338" width="2536" height="1611"/></clipPath><clipPath id="clip47"><rect x="409" y="338" width="2536" height="1611"/></clipPath></defs><g clip-path="url(#clip0)" transform="translate(-409 -337)"><rect x="410" y="338" width="2535" height="1612" fill="#FFFFFF"/><g clip-path="url(#clip1)"><path d="M648.5 1499.55 2863.5 1499.55M648.5 1358.54 2863.5 1358.54M648.5 1216.54 2863.5 1216.54M648.5 1074.54 2863.5 1074.54M648.5 933.531 2863.5 933.531M648.5 791.526 2863.5 791.526M648.5 649.521 2863.5 649.521M648.5 508.5 2863.5 508.5" stroke="#D9D9D9" stroke-width="3.4375" stroke-linejoin="round" stroke-miterlimit="10" fill="none"/></g><g clip-path="url(#clip2)"><path d="M0 0 0.000360892 1133" stroke="#BFBFBF" stroke-width="3.4375" stroke-linejoin="round" stroke-miterlimit="10" fill="none" fill-rule="evenodd" transform="matrix(1 0 0 -1 648.5 1641.5)"/></g><g clip-path="url(#clip3)"><path d="M648.5 1641.5 2863.5 1641.5" stroke="#BFBFBF" stroke-width="3.4375" stroke-linejoin="round" stroke-miterlimit="10" fill="none" fill-rule="evenodd"/></g><g clip-path="url(#clip4)"><path d="M832.5 1617.5C894.056 1605.69 955.611 1601.44 1017.17 1582.08 1078.72 1562.72 1140.28 1531.31 1201.83 1501.32 1263.39 1471.34 1324.94 1437.33 1386.5 1402.15 1448.06 1366.97 1509.61 1335.8 1571.17 1290.22 1632.72 1244.65 1694.28 1171.69 1755.83 1128.71 1817.39 1085.74 1878.94 1078.18 1940.5 1032.37 2002.06 986.561 2063.61 919.028 2125.17 853.856 2186.72 788.684 2248.28 688.565 2309.83 641.339 2371.39 594.113 2432.94 594.113 2494.5 570.5" stroke="#4472C4" stroke-width="6.875" stroke-linecap="round" stroke-linejoin="round" stroke-miterlimit="10" fill="none"/></g><g clip-path="url(#clip5)"><path d="M843.249 1617.75C843.249 1623.82 838.325 1628.75 832.25 1628.75 826.175 1628.75 821.25 1623.82 821.25 1617.75 821.25 1611.68 826.175 1606.75 832.25 1606.75 838.325 1606.75 843.249 1611.68 843.249 1617.75Z" stroke="#4472C4" stroke-width="3.4375" stroke-linejoin="round" stroke-miterlimit="10" fill="#4472C4"/><path d="M1028.25 1581.75C1028.25 1587.82 1023.32 1592.75 1017.25 1592.75 1011.17 1592.75 1006.25 1587.82 1006.25 1581.75 1006.25 1575.67 1011.17 1570.75 1017.25 1570.75 1023.32 1570.75 1028.25 1575.67 1028.25 1581.75Z" stroke="#4472C4" stroke-width="3.4375" stroke-linejoin="round" stroke-miterlimit="10" fill="#4472C4"/><path d="M1212.25 1501.75C1212.25 1507.82 1207.32 1512.75 1201.25 1512.75 1195.17 1512.75 1190.25 1507.82 1190.25 1501.75 1190.25 1495.67 1195.17 1490.75 1201.25 1490.75 1207.32 1490.75 1212.25 1495.67 1212.25 1501.75Z" stroke="#4472C4" stroke-width="3.4375" stroke-linejoin="round" stroke-miterlimit="10" fill="#4472C4"/><path d="M1397.25 1402.75C1397.25 1408.82 1392.32 1413.75 1386.25 1413.75 1380.17 1413.75 1375.25 1408.82 1375.25 1402.75 1375.25 1396.67 1380.17 1391.75 1386.25 1391.75 1392.32 1391.75 1397.25 1396.67 1397.25 1402.75Z" stroke="#4472C4" stroke-width="3.4375" stroke-linejoin="round" stroke-miterlimit="10" fill="#4472C4"/><path d="M1582.25 1290.75C1582.25 1296.82 1577.32 1301.75 1571.25 1301.75 1565.17 1301.75 1560.25 1296.82 1560.25 1290.75 1560.25 1284.67 1565.17 1279.75 1571.25 1279.75 1577.32 1279.75 1582.25 1284.67 1582.25 1290.75Z" stroke="#4472C4" stroke-width="3.4375" stroke-linejoin="round" stroke-miterlimit="10" fill="#4472C4"/><path d="M1766.25 1128.75C1766.25 1134.82 1761.32 1139.75 1755.25 1139.75 1749.17 1139.75 1744.25 1134.82 1744.25 1128.75 1744.25 1122.67 1749.17 1117.75 1755.25 1117.75 1761.32 1117.75 1766.25 1122.67 1766.25 1128.75Z" stroke="#4472C4" stroke-width="3.4375" stroke-linejoin="round" stroke-miterlimit="10" fill="#4472C4"/><path d="M1951.25 1032.75C1951.25 1038.82 1946.32 1043.75 1940.25 1043.75 1934.17 1043.75 1929.25 1038.82 1929.25 1032.75 1929.25 1026.67 1934.17 1021.75 1940.25 1021.75 1946.32 1021.75 1951.25 1026.67 1951.25 1032.75Z" stroke="#4472C4" stroke-width="3.4375" stroke-linejoin="round" stroke-miterlimit="10" fill="#4472C4"/><path d="M2136.25 853.75C2136.25 859.825 2131.32 864.749 2125.25 864.749 2119.17 864.749 2114.25 859.825 2114.25 853.75 2114.25 847.675 2119.17 842.75 2125.25 842.75 2131.32 842.75 2136.25 847.675 2136.25 853.75Z" stroke="#4472C4" stroke-width="3.4375" stroke-linejoin="round" stroke-miterlimit="10" fill="#4472C4"/><path d="M2320.25 641.75C2320.25 647.825 2315.32 652.749 2309.25 652.749 2303.17 652.749 2298.25 647.825 2298.25 641.75 2298.25 635.675 2303.17 630.75 2309.25 630.75 2315.32 630.75 2320.25 635.675 2320.25 641.75Z" stroke="#4472C4" stroke-width="3.4375" stroke-linejoin="round" stroke-miterlimit="10" fill="#4472C4"/><path d="M2505.25 570.75C2505.25 576.825 2500.32 581.75 2494.25 581.75 2488.17 581.75 2483.25 576.825 2483.25 570.75 2483.25 564.675 2488.17 559.75 2494.25 559.75 2500.32 559.75 2505.25 564.675 2505.25 570.75Z" stroke="#4472C4" stroke-width="3.4375" stroke-linejoin="round" stroke-miterlimit="10" fill="#4472C4"/></g><g clip-path="url(#clip6)"><path d="M832.5 1632.5C894.056 1628.73 955.611 1626.6 1017.17 1621.18 1078.72 1615.75 1140.28 1609.62 1201.83 1599.95 1263.39 1590.28 1324.94 1572.82 1386.5 1563.15 1448.06 1553.48 1509.61 1552.07 1571.17 1541.93 1632.72 1531.78 1694.28 1522.11 1755.83 1502.3 1817.39 1482.48 1878.94 1441.68 1940.5 1423.05 2002.06 1404.41 2063.61 1416.44 2125.17 1390.5 2186.72 1364.55 2248.28 1286.24 2309.83 1267.37 2371.39 1248.5 2432.94 1273.97 2494.5 1277.28" stroke="#ED7D31" stroke-width="6.875" stroke-linecap="round" stroke-linejoin="round" stroke-miterlimit="10" fill="none"/></g><g clip-path="url(#clip7)"><path d="M843.249 1632.75C843.249 1638.82 838.325 1643.75 832.25 1643.75 826.175 1643.75 821.25 1638.82 821.25 1632.75 821.25 1626.67 826.175 1621.75 832.25 1621.75 838.325 1621.75 843.249 1626.67 843.249 1632.75Z" stroke="#ED7D31" stroke-width="3.4375" stroke-linejoin="round" stroke-miterlimit="10" fill="#ED7D31"/><path d="M1028.25 1621.75C1028.25 1627.82 1023.32 1632.75 1017.25 1632.75 1011.17 1632.75 1006.25 1627.82 1006.25 1621.75 1006.25 1615.67 1011.17 1610.75 1017.25 1610.75 1023.32 1610.75 1028.25 1615.67 1028.25 1621.75Z" stroke="#ED7D31" stroke-width="3.4375" stroke-linejoin="round" stroke-miterlimit="10" fill="#ED7D31"/><path d="M1212.25 1600.75C1212.25 1606.82 1207.32 1611.75 1201.25 1611.75 1195.17 1611.75 1190.25 1606.82 1190.25 1600.75 1190.25 1594.67 1195.17 1589.75 1201.25 1589.75 1207.32 1589.75 1212.25 1594.67 1212.25 1600.75Z" stroke="#ED7D31" stroke-width="3.4375" stroke-linejoin="round" stroke-miterlimit="10" fill="#ED7D31"/><path d="M1397.25 1563.75C1397.25 1569.82 1392.32 1574.75 1386.25 1574.75 1380.17 1574.75 1375.25 1569.82 1375.25 1563.75 1375.25 1557.67 1380.17 1552.75 1386.25 1552.75 1392.32 1552.75 1397.25 1557.67 1397.25 1563.75Z" stroke="#ED7D31" stroke-width="3.4375" stroke-linejoin="round" stroke-miterlimit="10" fill="#ED7D31"/><path d="M1582.25 1542.75C1582.25 1548.82 1577.32 1553.75 1571.25 1553.75 1565.17 1553.75 1560.25 1548.82 1560.25 1542.75 1560.25 1536.67 1565.17 1531.75 1571.25 1531.75 1577.32 1531.75 1582.25 1536.67 1582.25 1542.75Z" stroke="#ED7D31" stroke-width="3.4375" stroke-linejoin="round" stroke-miterlimit="10" fill="#ED7D31"/><path d="M1766.25 1502.75C1766.25 1508.82 1761.32 1513.75 1755.25 1513.75 1749.17 1513.75 1744.25 1508.82 1744.25 1502.75 1744.25 1496.67 1749.17 1491.75 1755.25 1491.75 1761.32 1491.75 1766.25 1496.67 1766.25 1502.75Z" stroke="#ED7D31" stroke-width="3.4375" stroke-linejoin="round" stroke-miterlimit="10" fill="#ED7D31"/><path d="M1951.25 1423.75C1951.25 1429.82 1946.32 1434.75 1940.25 1434.75 1934.17 1434.75 1929.25 1429.82 1929.25 1423.75 1929.25 1417.67 1934.17 1412.75 1940.25 1412.75 1946.32 1412.75 1951.25 1417.67 1951.25 1423.75Z" stroke="#ED7D31" stroke-width="3.4375" stroke-linejoin="round" stroke-miterlimit="10" fill="#ED7D31"/><path d="M2136.25 1390.75C2136.25 1396.82 2131.32 1401.75 2125.25 1401.75 2119.17 1401.75 2114.25 1396.82 2114.25 1390.75 2114.25 1384.67 2119.17 1379.75 2125.25 1379.75 2131.32 1379.75 2136.25 1384.67 2136.25 1390.75Z" stroke="#ED7D31" stroke-width="3.4375" stroke-linejoin="round" stroke-miterlimit="10" fill="#ED7D31"/><path d="M2320.25 1267.75C2320.25 1273.82 2315.32 1278.75 2309.25 1278.75 2303.17 1278.75 2298.25 1273.82 2298.25 1267.75 2298.25 1261.67 2303.17 1256.75 2309.25 1256.75 2315.32 1256.75 2320.25 1261.67 2320.25 1267.75Z" stroke="#ED7D31" stroke-width="3.4375" stroke-linejoin="round" stroke-miterlimit="10" fill="#ED7D31"/><path d="M2505.25 1277.75C2505.25 1283.82 2500.32 1288.75 2494.25 1288.75 2488.17 1288.75 2483.25 1283.82 2483.25 1277.75 2483.25 1271.67 2488.17 1266.75 2494.25 1266.75 2500.32 1266.75 2505.25 1271.67 2505.25 1277.75Z" stroke="#ED7D31" stroke-width="3.4375" stroke-linejoin="round" stroke-miterlimit="10" fill="#ED7D31"/></g><g clip-path="url(#clip8)"><path d="M832.5 1627.5C894.056 1619.94 955.611 1614.74 1017.17 1604.82 1078.72 1594.9 1140.28 1582.14 1201.83 1567.96 1263.39 1553.78 1324.94 1561.11 1386.5 1519.76 1448.06 1478.42 1509.61 1359.1 1571.17 1319.88 1632.72 1280.66 1694.28 1288.69 1755.83 1284.44 1817.39 1280.19 1878.94 1310.19 1940.5 1294.36 2002.06 1278.53 2063.61 1218.29 2125.17 1189.46 2186.72 1160.64 2248.28 1174.58 2309.83 1121.42 2371.39 1068.26 2432.94 954.138 2494.5 870.5" stroke="#A5A5A5" stroke-width="6.875" stroke-linecap="round" stroke-linejoin="round" stroke-miterlimit="10" fill="none"/></g><g clip-path="url(#clip9)"><path d="M843.249 1627.75C843.249 1633.82 838.325 1638.75 832.25 1638.75 826.175 1638.75 821.25 1633.82 821.25 1627.75 821.25 1621.68 826.175 1616.75 832.25 1616.75 838.325 1616.75 843.249 1621.68 843.249 1627.75Z" stroke="#A5A5A5" stroke-width="3.4375" stroke-linejoin="round" stroke-miterlimit="10" fill="#A5A5A5"/><path d="M1028.25 1604.75C1028.25 1610.82 1023.32 1615.75 1017.25 1615.75 1011.17 1615.75 1006.25 1610.82 1006.25 1604.75 1006.25 1598.67 1011.17 1593.75 1017.25 1593.75 1023.32 1593.75 1028.25 1598.67 1028.25 1604.75Z" stroke="#A5A5A5" stroke-width="3.4375" stroke-linejoin="round" stroke-miterlimit="10" fill="#A5A5A5"/><path d="M1212.25 1567.75C1212.25 1573.82 1207.32 1578.75 1201.25 1578.75 1195.17 1578.75 1190.25 1573.82 1190.25 1567.75 1190.25 1561.67 1195.17 1556.75 1201.25 1556.75 1207.32 1556.75 1212.25 1561.67 1212.25 1567.75Z" stroke="#A5A5A5" stroke-width="3.4375" stroke-linejoin="round" stroke-miterlimit="10" fill="#A5A5A5"/><path d="M1397.25 1519.75C1397.25 1525.82 1392.32 1530.75 1386.25 1530.75 1380.17 1530.75 1375.25 1525.82 1375.25 1519.75 1375.25 1513.67 1380.17 1508.75 1386.25 1508.75 1392.32 1508.75 1397.25 1513.67 1397.25 1519.75Z" stroke="#A5A5A5" stroke-width="3.4375" stroke-linejoin="round" stroke-miterlimit="10" fill="#A5A5A5"/><path d="M1582.25 1319.75C1582.25 1325.82 1577.32 1330.75 1571.25 1330.75 1565.17 1330.75 1560.25 1325.82 1560.25 1319.75 1560.25 1313.68 1565.17 1308.75 1571.25 1308.75 1577.32 1308.75 1582.25 1313.68 1582.25 1319.75Z" stroke="#A5A5A5" stroke-width="3.4375" stroke-linejoin="round" stroke-miterlimit="10" fill="#A5A5A5"/><path d="M1766.25 1284.75C1766.25 1290.82 1761.32 1295.75 1755.25 1295.75 1749.17 1295.75 1744.25 1290.82 1744.25 1284.75 1744.25 1278.67 1749.17 1273.75 1755.25 1273.75 1761.32 1273.75 1766.25 1278.67 1766.25 1284.75Z" stroke="#A5A5A5" stroke-width="3.4375" stroke-linejoin="round" stroke-miterlimit="10" fill="#A5A5A5"/><path d="M1951.25 1294.75C1951.25 1300.82 1946.32 1305.75 1940.25 1305.75 1934.17 1305.75 1929.25 1300.82 1929.25 1294.75 1929.25 1288.67 1934.17 1283.75 1940.25 1283.75 1946.32 1283.75 1951.25 1288.67 1951.25 1294.75Z" stroke="#A5A5A5" stroke-width="3.4375" stroke-linejoin="round" stroke-miterlimit="10" fill="#A5A5A5"/><path d="M2136.25 1189.75C2136.25 1195.82 2131.32 1200.75 2125.25 1200.75 2119.17 1200.75 2114.25 1195.82 2114.25 1189.75 2114.25 1183.67 2119.17 1178.75 2125.25 1178.75 2131.32 1178.75 2136.25 1183.67 2136.25 1189.75Z" stroke="#A5A5A5" stroke-width="3.4375" stroke-linejoin="round" stroke-miterlimit="10" fill="#A5A5A5"/><path d="M2320.25 1121.75C2320.25 1127.82 2315.32 1132.75 2309.25 1132.75 2303.17 1132.75 2298.25 1127.82 2298.25 1121.75 2298.25 1115.68 2303.17 1110.75 2309.25 1110.75 2315.32 1110.75 2320.25 1115.68 2320.25 1121.75Z" stroke="#A5A5A5" stroke-width="3.4375" stroke-linejoin="round" stroke-miterlimit="10" fill="#A5A5A5"/><path d="M2505.25 870.75C2505.25 876.825 2500.32 881.749 2494.25 881.749 2488.17 881.749 2483.25 876.825 2483.25 870.75 2483.25 864.675 2488.17 859.75 2494.25 859.75 2500.32 859.75 2505.25 864.675 2505.25 870.75Z" stroke="#A5A5A5" stroke-width="3.4375" stroke-linejoin="round" stroke-miterlimit="10" fill="#A5A5A5"/></g><g clip-path="url(#clip10)"><path d="M832.5 1628.5C894.056 1624.72 955.611 1620.71 1017.17 1617.17 1078.72 1613.62 1140.28 1611.5 1201.83 1607.25 1263.39 1603 1324.94 1596.15 1386.5 1591.67 1448.06 1587.18 1509.61 1585.53 1571.17 1580.33 1632.72 1575.14 1694.28 1565.93 1755.83 1560.5 1817.39 1555.07 1878.94 1552 1940.5 1547.75 2002.06 1543.5 2063.61 1541.37 2125.17 1535 2186.72 1528.62 2248.28 1522.25 2309.83 1509.5 2371.39 1496.75 2432.94 1475.5 2494.5 1458.5" stroke="#FFC000" stroke-width="6.875" stroke-linecap="round" stroke-linejoin="round" stroke-miterlimit="10" fill="none"/></g><g clip-path="url(#clip11)"><path d="M843.249 1628.75C843.249 1634.82 838.325 1639.75 832.25 1639.75 826.175 1639.75 821.25 1634.82 821.25 1628.75 821.25 1622.68 826.175 1617.75 832.25 1617.75 838.325 1617.75 843.249 1622.68 843.249 1628.75Z" stroke="#FFC000" stroke-width="3.4375" stroke-linejoin="round" stroke-miterlimit="10" fill="#FFC000"/><path d="M1028.25 1617.75C1028.25 1623.82 1023.32 1628.75 1017.25 1628.75 1011.17 1628.75 1006.25 1623.82 1006.25 1617.75 1006.25 1611.68 1011.17 1606.75 1017.25 1606.75 1023.32 1606.75 1028.25 1611.68 1028.25 1617.75Z" stroke="#FFC000" stroke-width="3.4375" stroke-linejoin="round" stroke-miterlimit="10" fill="#FFC000"/><path d="M1212.25 1607.75C1212.25 1613.82 1207.32 1618.75 1201.25 1618.75 1195.17 1618.75 1190.25 1613.82 1190.25 1607.75 1190.25 1601.67 1195.17 1596.75 1201.25 1596.75 1207.32 1596.75 1212.25 1601.67 1212.25 1607.75Z" stroke="#FFC000" stroke-width="3.4375" stroke-linejoin="round" stroke-miterlimit="10" fill="#FFC000"/><path d="M1397.25 1591.75C1397.25 1597.82 1392.32 1602.75 1386.25 1602.75 1380.17 1602.75 1375.25 1597.82 1375.25 1591.75 1375.25 1585.67 1380.17 1580.75 1386.25 1580.75 1392.32 1580.75 1397.25 1585.67 1397.25 1591.75Z" stroke="#FFC000" stroke-width="3.4375" stroke-linejoin="round" stroke-miterlimit="10" fill="#FFC000"/><path d="M1582.25 1580.75C1582.25 1586.82 1577.32 1591.75 1571.25 1591.75 1565.17 1591.75 1560.25 1586.82 1560.25 1580.75 1560.25 1574.67 1565.17 1569.75 1571.25 1569.75 1577.32 1569.75 1582.25 1574.67 1582.25 1580.75Z" stroke="#FFC000" stroke-width="3.4375" stroke-linejoin="round" stroke-miterlimit="10" fill="#FFC000"/><path d="M1766.25 1560.75C1766.25 1566.82 1761.32 1571.75 1755.25 1571.75 1749.17 1571.75 1744.25 1566.82 1744.25 1560.75 1744.25 1554.67 1749.17 1549.75 1755.25 1549.75 1761.32 1549.75 1766.25 1554.67 1766.25 1560.75Z" stroke="#FFC000" stroke-width="3.4375" stroke-linejoin="round" stroke-miterlimit="10" fill="#FFC000"/><path d="M1951.25 1547.75C1951.25 1553.82 1946.32 1558.75 1940.25 1558.75 1934.17 1558.75 1929.25 1553.82 1929.25 1547.75 1929.25 1541.67 1934.17 1536.75 1940.25 1536.75 1946.32 1536.75 1951.25 1541.67 1951.25 1547.75Z" stroke="#FFC000" stroke-width="3.4375" stroke-linejoin="round" stroke-miterlimit="10" fill="#FFC000"/><path d="M2136.25 1535.75C2136.25 1541.82 2131.32 1546.75 2125.25 1546.75 2119.17 1546.75 2114.25 1541.82 2114.25 1535.75 2114.25 1529.67 2119.17 1524.75 2125.25 1524.75 2131.32 1524.75 2136.25 1529.67 2136.25 1535.75Z" stroke="#FFC000" stroke-width="3.4375" stroke-linejoin="round" stroke-miterlimit="10" fill="#FFC000"/><path d="M2320.25 1509.75C2320.25 1515.82 2315.32 1520.75 2309.25 1520.75 2303.17 1520.75 2298.25 1515.82 2298.25 1509.75 2298.25 1503.67 2303.17 1498.75 2309.25 1498.75 2315.32 1498.75 2320.25 1503.67 2320.25 1509.75Z" stroke="#FFC000" stroke-width="3.4375" stroke-linejoin="round" stroke-miterlimit="10" fill="#FFC000"/><path d="M2505.25 1458.75C2505.25 1464.82 2500.32 1469.75 2494.25 1469.75 2488.17 1469.75 2483.25 1464.82 2483.25 1458.75 2483.25 1452.67 2488.17 1447.75 2494.25 1447.75 2500.32 1447.75 2505.25 1452.67 2505.25 1458.75Z" stroke="#FFC000" stroke-width="3.4375" stroke-linejoin="round" stroke-miterlimit="10" fill="#FFC000"/></g><g clip-path="url(#clip12)"><path d="M832.5 1621.5C894.056 1617.25 955.611 1613 1017.17 1608.75 1078.72 1604.5 1140.28 1599.54 1201.83 1596 1263.39 1592.46 1324.94 1590.57 1386.5 1587.5 1448.06 1584.43 1509.61 1585.61 1571.17 1577.58 1632.72 1569.56 1694.28 1547.12 1755.83 1539.33 1817.39 1531.54 1878.94 1534.38 1940.5 1530.83 2002.06 1527.29 2063.61 1522.33 2125.17 1518.08 2186.72 1513.83 2248.28 1519.26 2309.83 1505.33 2371.39 1491.4 2432.94 1458.11 2494.5 1434.5" stroke="#5B9BD5" stroke-width="6.875" stroke-linecap="round" stroke-linejoin="round" stroke-miterlimit="10" fill="none"/></g><g clip-path="url(#clip13)"><path d="M843.249 1621.75C843.249 1627.82 838.325 1632.75 832.25 1632.75 826.175 1632.75 821.25 1627.82 821.25 1621.75 821.25 1615.67 826.175 1610.75 832.25 1610.75 838.325 1610.75 843.249 1615.67 843.249 1621.75Z" stroke="#5B9BD5" stroke-width="3.4375" stroke-linejoin="round" stroke-miterlimit="10" fill="#5B9BD5"/><path d="M1028.25 1608.75C1028.25 1614.82 1023.32 1619.75 1017.25 1619.75 1011.17 1619.75 1006.25 1614.82 1006.25 1608.75 1006.25 1602.67 1011.17 1597.75 1017.25 1597.75 1023.32 1597.75 1028.25 1602.67 1028.25 1608.75Z" stroke="#5B9BD5" stroke-width="3.4375" stroke-linejoin="round" stroke-miterlimit="10" fill="#5B9BD5"/><path d="M1212.25 1596.75C1212.25 1602.82 1207.32 1607.75 1201.25 1607.75 1195.17 1607.75 1190.25 1602.82 1190.25 1596.75 1190.25 1590.67 1195.17 1585.75 1201.25 1585.75 1207.32 1585.75 1212.25 1590.67 1212.25 1596.75Z" stroke="#5B9BD5" stroke-width="3.4375" stroke-linejoin="round" stroke-miterlimit="10" fill="#5B9BD5"/><path d="M1397.25 1587.75C1397.25 1593.82 1392.32 1598.75 1386.25 1598.75 1380.17 1598.75 1375.25 1593.82 1375.25 1587.75 1375.25 1581.67 1380.17 1576.75 1386.25 1576.75 1392.32 1576.75 1397.25 1581.67 1397.25 1587.75Z" stroke="#5B9BD5" stroke-width="3.4375" stroke-linejoin="round" stroke-miterlimit="10" fill="#5B9BD5"/><path d="M1582.25 1577.75C1582.25 1583.82 1577.32 1588.75 1571.25 1588.75 1565.17 1588.75 1560.25 1583.82 1560.25 1577.75 1560.25 1571.67 1565.17 1566.75 1571.25 1566.75 1577.32 1566.75 1582.25 1571.67 1582.25 1577.75Z" stroke="#5B9BD5" stroke-width="3.4375" stroke-linejoin="round" stroke-miterlimit="10" fill="#5B9BD5"/><path d="M1766.25 1539.75C1766.25 1545.82 1761.32 1550.75 1755.25 1550.75 1749.17 1550.75 1744.25 1545.82 1744.25 1539.75 1744.25 1533.68 1749.17 1528.75 1755.25 1528.75 1761.32 1528.75 1766.25 1533.68 1766.25 1539.75Z" stroke="#5B9BD5" stroke-width="3.4375" stroke-linejoin="round" stroke-miterlimit="10" fill="#5B9BD5"/><path d="M1951.25 1530.75C1951.25 1536.82 1946.32 1541.75 1940.25 1541.75 1934.17 1541.75 1929.25 1536.82 1929.25 1530.75 1929.25 1524.67 1934.17 1519.75 1940.25 1519.75 1946.32 1519.75 1951.25 1524.67 1951.25 1530.75Z" stroke="#5B9BD5" stroke-width="3.4375" stroke-linejoin="round" stroke-miterlimit="10" fill="#5B9BD5"/><path d="M2136.25 1518.75C2136.25 1524.82 2131.32 1529.75 2125.25 1529.75 2119.17 1529.75 2114.25 1524.82 2114.25 1518.75 2114.25 1512.68 2119.17 1507.75 2125.25 1507.75 2131.32 1507.75 2136.25 1512.68 2136.25 1518.75Z" stroke="#5B9BD5" stroke-width="3.4375" stroke-linejoin="round" stroke-miterlimit="10" fill="#5B9BD5"/><path d="M2320.25 1505.75C2320.25 1511.82 2315.32 1516.75 2309.25 1516.75 2303.17 1516.75 2298.25 1511.82 2298.25 1505.75 2298.25 1499.67 2303.17 1494.75 2309.25 1494.75 2315.32 1494.75 2320.25 1499.67 2320.25 1505.75Z" stroke="#5B9BD5" stroke-width="3.4375" stroke-linejoin="round" stroke-miterlimit="10" fill="#5B9BD5"/><path d="M2505.25 1434.75C2505.25 1440.82 2500.32 1445.75 2494.25 1445.75 2488.17 1445.75 2483.25 1440.82 2483.25 1434.75 2483.25 1428.67 2488.17 1423.75 2494.25 1423.75 2500.32 1423.75 2505.25 1428.67 2505.25 1434.75Z" stroke="#5B9BD5" stroke-width="3.4375" stroke-linejoin="round" stroke-miterlimit="10" fill="#5B9BD5"/></g><g clip-path="url(#clip14)"><text fill="#595959" font-family="Calibri,Calibri_MSFontService,sans-serif" font-weight="400" font-size="41" transform="matrix(1 0 0 1 588.936 1653)">0</text></g><g clip-path="url(#clip15)"><text fill="#595959" font-family="Calibri,Calibri_MSFontService,sans-serif" font-weight="400" font-size="41" transform="matrix(1 0 0 1 536.731 1511)">0.01</text></g><g clip-path="url(#clip16)"><text fill="#595959" font-family="Calibri,Calibri_MSFontService,sans-serif" font-weight="400" font-size="41" transform="matrix(1 0 0 1 536.731 1370)">0.02</text></g><g clip-path="url(#clip17)"><text fill="#595959" font-family="Calibri,Calibri_MSFontService,sans-serif" font-weight="400" font-size="41" transform="matrix(1 0 0 1 536.731 1228)">0.03</text></g><g clip-path="url(#clip18)"><text fill="#595959" font-family="Calibri,Calibri_MSFontService,sans-serif" font-weight="400" font-size="41" transform="matrix(1 0 0 1 536.731 1086)">0.04</text></g><g clip-path="url(#clip19)"><text fill="#595959" font-family="Calibri,Calibri_MSFontService,sans-serif" font-weight="400" font-size="41" transform="matrix(1 0 0 1 536.731 945)">0.05</text></g><g clip-path="url(#clip20)"><text fill="#595959" font-family="Calibri,Calibri_MSFontService,sans-serif" font-weight="400" font-size="41" transform="matrix(1 0 0 1 536.731 803)">0.06</text></g><g clip-path="url(#clip21)"><text fill="#595959" font-family="Calibri,Calibri_MSFontService,sans-serif" font-weight="400" font-size="41" transform="matrix(1 0 0 1 536.731 661)">0.07</text></g><g clip-path="url(#clip22)"><text fill="#595959" font-family="Calibri,Calibri_MSFontService,sans-serif" font-weight="400" font-size="41" transform="matrix(1 0 0 1 536.731 520)">0.08</text></g><g clip-path="url(#clip23)"><text fill="#595959" font-family="Calibri,Calibri_MSFontService,sans-serif" font-weight="400" font-size="41" transform="matrix(1 0 0 1 637.652 1707)">0</text></g><g clip-path="url(#clip24)"><text fill="#595959" font-family="Calibri,Calibri_MSFontService,sans-serif" font-weight="400" font-size="41" transform="matrix(1 0 0 1 996.432 1707)">20</text></g><g clip-path="url(#clip25)"><text fill="#595959" font-family="Calibri,Calibri_MSFontService,sans-serif" font-weight="400" font-size="41" transform="matrix(1 0 0 1 1365.66 1707)">40</text></g><g clip-path="url(#clip26)"><text fill="#595959" font-family="Calibri,Calibri_MSFontService,sans-serif" font-weight="400" font-size="41" transform="matrix(1 0 0 1 1734.89 1707)">60</text></g><g clip-path="url(#clip27)"><text fill="#595959" font-family="Calibri,Calibri_MSFontService,sans-serif" font-weight="400" font-size="41" transform="matrix(1 0 0 1 2104.12 1707)">80</text></g><g clip-path="url(#clip28)"><text fill="#595959" font-family="Calibri,Calibri_MSFontService,sans-serif" font-weight="400" font-size="41" transform="matrix(1 0 0 1 2462.9 1707)">100</text></g><g clip-path="url(#clip29)"><text fill="#595959" font-family="Calibri,Calibri_MSFontService,sans-serif" font-weight="400" font-size="41" transform="matrix(1 0 0 1 2832.13 1707)">120</text></g><g clip-path="url(#clip30)"><text fill="#595959" font-family="Calibri,Calibri_MSFontService,sans-serif" font-weight="400" font-size="46" transform="matrix(6.12323e-17 -1 1 6.12323e-17 511.042 1183)">Temps [ms]</text></g><g clip-path="url(#clip31)"><text fill="#595959" font-family="Calibri,Calibri_MSFontService,sans-serif" font-weight="400" font-size="46" transform="matrix(1 0 0 1 1578.39 1776)">Nombre de valeurs</text></g><g clip-path="url(#clip32)"><text fill="#595959" font-family="Calibri,Calibri_MSFontService,sans-serif" font-weight="400" font-size="64" transform="matrix(1 0 0 1 1386.85 434)">Vecteurs presque triés</text></g><g clip-path="url(#clip33)"><path d="M887.5 1883.5 975.5 1883.5" stroke="#4472C4" stroke-width="6.875" stroke-linecap="round" stroke-linejoin="round" stroke-miterlimit="10" fill="none" fill-rule="evenodd"/></g><g clip-path="url(#clip34)"><path d="M942 1883C942 1889.07 937.075 1894 931 1894 924.925 1894 920 1889.07 920 1883 920 1876.92 924.925 1872 931 1872 937.075 1872 942 1876.92 942 1883Z" stroke="#4472C4" stroke-width="3.4375" stroke-linejoin="round" stroke-miterlimit="10" fill="#4472C4"/></g><g clip-path="url(#clip35)"><text fill="#595959" font-family="Calibri,Calibri_MSFontService,sans-serif" font-weight="400" font-size="41" transform="matrix(1 0 0 1 984.713 1895)">BubbleSort</text></g><g clip-path="url(#clip36)"><path d="M1231.5 1883.5 1319.5 1883.5" stroke="#ED7D31" stroke-width="6.875" stroke-linecap="round" stroke-linejoin="round" stroke-miterlimit="10" fill="none" fill-rule="evenodd"/></g><g clip-path="url(#clip37)"><path d="M1286 1883C1286 1889.07 1281.08 1894 1275 1894 1268.93 1894 1264 1889.07 1264 1883 1264 1876.92 1268.93 1872 1275 1872 1281.08 1872 1286 1876.92 1286 1883Z" stroke="#ED7D31" stroke-width="3.4375" stroke-linejoin="round" stroke-miterlimit="10" fill="#ED7D31"/></g><g clip-path="url(#clip38)"><text fill="#595959" font-family="Calibri,Calibri_MSFontService,sans-serif" font-weight="400" font-size="41" transform="matrix(1 0 0 1 1328.42 1895)">InsertionSort</text></g><g clip-path="url(#clip39)"><path d="M1607.5 1883.5 1695.5 1883.5" stroke="#A5A5A5" stroke-width="6.875" stroke-linecap="round" stroke-linejoin="round" stroke-miterlimit="10" fill="none" fill-rule="evenodd"/></g><g clip-path="url(#clip40)"><path d="M1662 1883C1662 1889.07 1657.07 1894 1651 1894 1644.92 1894 1640 1889.07 1640 1883 1640 1876.92 1644.92 1872 1651 1872 1657.07 1872 1662 1876.92 1662 1883Z" stroke="#A5A5A5" stroke-width="3.4375" stroke-linejoin="round" stroke-miterlimit="10" fill="#A5A5A5"/></g><g clip-path="url(#clip41)"><text fill="#595959" font-family="Calibri,Calibri_MSFontService,sans-serif" font-weight="400" font-size="41" transform="matrix(1 0 0 1 1704.51 1895)">SelectionSort</text></g><g clip-path="url(#clip42)"><path d="M1987.5 1883.5 2075.5 1883.5" stroke="#FFC000" stroke-width="6.875" stroke-linecap="round" stroke-linejoin="round" stroke-miterlimit="10" fill="none" fill-rule="evenodd"/></g><g clip-path="url(#clip43)"><path d="M2042 1883C2042 1889.07 2037.08 1894 2031 1894 2024.93 1894 2020 1889.07 2020 1883 2020 1876.92 2024.93 1872 2031 1872 2037.08 1872 2042 1876.92 2042 1883Z" stroke="#FFC000" stroke-width="3.4375" stroke-linejoin="round" stroke-miterlimit="10" fill="#FFC000"/></g><g clip-path="url(#clip44)"><text fill="#595959" font-family="Calibri,Calibri_MSFontService,sans-serif" font-weight="400" font-size="41" transform="matrix(1 0 0 1 2084.38 1895)">Sort</text></g><g clip-path="url(#clip45)"><path d="M2213.5 1883.5 2301.5 1883.5" stroke="#5B9BD5" stroke-width="6.875" stroke-linecap="round" stroke-linejoin="round" stroke-miterlimit="10" fill="none" fill-rule="evenodd"/></g><g clip-path="url(#clip46)"><path d="M2268 1883C2268 1889.07 2263.07 1894 2257 1894 2250.92 1894 2246 1889.07 2246 1883 2246 1876.92 2250.92 1872 2257 1872 2263.07 1872 2268 1876.92 2268 1883Z" stroke="#5B9BD5" stroke-width="3.4375" stroke-linejoin="round" stroke-miterlimit="10" fill="#5B9BD5"/></g><g clip-path="url(#clip47)"><text fill="#595959" font-family="Calibri,Calibri_MSFontService,sans-serif" font-weight="400" font-size="41" transform="matrix(1 0 0 1 2310.61 1895)">StableSort</text></g><rect x="410.5" y="338.5" width="2535" height="1612" stroke="#D9D9D9" stroke-width="3.4375" stroke-linejoin="round" stroke-miterlimit="10" fill="none"/></g></svg>