<svg width="2497" height="1482" xmlns="http://www.w3.org/2000/svg" xmlns:xlink="http://www.w3.org/1999/xlink" xml:space="preserve" overflow="hidden"><defs><clipPath id="clip0"><rect x="887" y="376" width="2497" height="1482"/></clipPath><clipPath id="clip1"><rect x="888" y="376" width="2494" height="1480"/></clipPath><clipPath id="clip2"><rect x="888" y="376" width="2494" height="1480"/></clipPath><clipPath id="clip3"><rect x="888" y="376" width="2494" height="1480"/></clipPath><clipPath id="clip4"><rect x="1126" y="546" width="1790" height="1110"/></clipPath><clipPath id="clip5"><rect x="888" y="376" width="2494" height="1480"/></clipPath><clipPath id="clip6"><rect x="1126" y="546" width="1790" height="1110"/></clipPath><clipPath id="clip7"><rect x="888" y="376" width="2494" height="1480"/></clipPath><clipPath id="clip8"><rect x="1126" y="546" width="1790" height="1110"/></clipPath><clipPath id="clip9"><rect x="888" y="376" width="2494" height="1480"/></clipPath><clipPath id="clip10"><rect x="1126" y="546" width="1790" height="1110"/></clipPath><clipPath id="clip11"><rect x="888" y="376" width="2494" height="1480"/></clipPath><clipPath id="clip12"><rect x="1126" y="546" width="1790" height="1110"/></clipPath><clipPath id="clip13"><rect x="888" y="376" width="2494" height="1480"/></clipPath><clipPath id="clip14"><rect x="888" y="376" width="2494" height="1480"/></clipPath><clipPath id="clip15"><rect x="888" y="376" width="2494" height="1480"/></clipPath><clipPath id="clip16"><rect x="888" y="376" width="2494" height="1480"/></clipPath><clipPath id="clip17"><rect x="888" y="376" width="2494" height="1480"/></clipPath><clipPath id="clip18"><rect x="888" y="376" width="2494" height="1480"/></clipPath><clipPath id="clip19"><rect x="888" y="376" width="2494" height="1480"/></clipPath><clipPath id="clip20"><rect x="888" y="376" width="2494" height="1480"/></clipPath><clipPath id="clip21"><rect x="888" y="376" width="2494" height="1480"/></clipPath><clipPath id="clip22"><rect x="888" y="376" width="2494" height="1480"/></clipPath><clipPath id="clip23"><rect x="888" y="376" width="2494" height="1480"/></clipPath><clipPath id="clip24"><rect x="888" y="376" width="2494" height="1480"/></clipPath><clipPath id="clip25"><rect x="888" y="376" width="2494" height="1480"/></clipPath><clipPath id="clip26"><rect x="888" y="376" width="2494" height="1480"/></clipPath><clipPath id="clip27"><rect x="888" y="376" width="2494" height="1480"/></clipPath><clipPath id="clip28"><rect x="888" y="376" width="2494" height="1480"/></clipPath><clipPath id="clip29"><rect x="888" y="376" width="2494" height="1480"/></clipPath><clipPath id="clip30"><rect x="888" y="376" width="2494" height="1480"/></clipPath><clipPath id="clip31"><rect x="888" y="376" width="2494" height="1480"/></clipPath><clipPath id="clip32"><rect x="888" y="376" width="2494" height="1480"/></clipPath><clipPath id="clip33"><rect x="888" y="376" width="2494" height="1480"/></clipPath><clipPath id="clip34"><rect x="888" y="376" width="2494" height="1480"/></clipPath><clipPath id="clip35"><rect x="888" y="376" width="2494" height="1480"/></clipPath><clipPath id="clip36"><rect x="888" y="376" width="2494" height="1480"/></clipPath><clipPath id="clip37"><rect x="888" y="376" width="2494" height="1480"/></clipPath><clipPath id="clip38"><rect x="888" y="376" width="2494" height="1480"/></clipPath><clipPath id="clip39"><rect x="888" y="376" width="2494" height="1480"/></clipPath><clipPath id="clip40"><rect x="888" y="376" width="2494" height="1480"/></clipPath><clipPath id="clip41"><rect x="888" y="376" width="2494" height="1480"/></clipPath><clipPath id="clip42"><rect x="888" y="376" width="2494" height="1480"/></clipPath><clipPath id="clip43"><rect x="888" y="376" width="2494" height="1480"/></clipPath><clipPath id="clip44"><rect x="888" y="376" width="2494" height="1480"/></clipPath><clipPath id="clip45"><rect x="888" y="376" width="2494" height="1480"/></clipPath><clipPath id="clip46"><rect x="888" y="376" width="2494" height="1480"/></clipPath><clipPath id="clip47"><rect x="888" y="376" width="2494" height="1480"/></clipPath></defs><g clip-path="url(#clip0)" transform="translate(-887 -376)"><rect x="888" y="377" width="2494" height="1479" fill="#FFFFFF"/><g clip-path="url(#clip1)"><path d="M1126.5 1514.55 2913.5 1514.55M1126.5 1376.55 2913.5 1376.55M1126.5 1237.54 2913.5 1237.54M1126.5 1099.54 2913.5 1099.54M1126.5 961.532 2913.5 961.532M1126.5 823.527 2913.5 823.527M1126.5 684.523 2913.5 684.523M1126.5 546.5 2913.5 546.5" stroke="#D9D9D9" stroke-width="3.4375" stroke-linejoin="round" stroke-miterlimit="10" fill="none"/></g><g clip-path="url(#clip2)"><path d="M0 0 0.000360892 1106" stroke="#BFBFBF" stroke-width="3.4375" stroke-linejoin="round" stroke-miterlimit="10" fill="none" fill-rule="evenodd" transform="matrix(1 0 0 -1 1126.5 1652.5)"/></g><g clip-path="url(#clip3)"><path d="M1126.5 1652.5 2913.5 1652.5" stroke="#BFBFBF" stroke-width="3.4375" stroke-linejoin="round" stroke-miterlimit="10" fill="none" fill-rule="evenodd"/></g><g clip-path="url(#clip4)"><path d="M1275.5 1629.5C1325.13 1617.98 1374.76 1613.83 1424.39 1594.93 1474.02 1576.03 1523.65 1545.37 1573.28 1516.1 1622.91 1486.83 1672.54 1453.63 1722.17 1419.29 1771.8 1384.95 1821.43 1354.52 1871.06 1310.04 1920.69 1265.55 1970.31 1194.33 2019.94 1152.38 2069.57 1110.43 2119.2 1103.06 2168.83 1058.34 2218.46 1013.63 2268.09 947.705 2317.72 884.09 2367.35 820.474 2416.98 722.745 2466.61 676.647 2516.24 630.549 2565.87 630.549 2615.5 607.5" stroke="#4472C4" stroke-width="6.875" stroke-linecap="round" stroke-linejoin="round" stroke-miterlimit="10" fill="none"/></g><g clip-path="url(#clip5)"><path d="M1286.75 1629.25C1286.75 1635.32 1281.82 1640.25 1275.75 1640.25 1269.68 1640.25 1264.75 1635.32 1264.75 1629.25 1264.75 1623.17 1269.68 1618.25 1275.75 1618.25 1281.82 1618.25 1286.75 1623.17 1286.75 1629.25Z" stroke="#4472C4" stroke-width="3.4375" stroke-linejoin="round" stroke-miterlimit="10" fill="#4472C4"/><path d="M1435.75 1594.25C1435.75 1600.32 1430.82 1605.25 1424.75 1605.25 1418.67 1605.25 1413.75 1600.32 1413.75 1594.25 1413.75 1588.17 1418.67 1583.25 1424.75 1583.25 1430.82 1583.25 1435.75 1588.17 1435.75 1594.25Z" stroke="#4472C4" stroke-width="3.4375" stroke-linejoin="round" stroke-miterlimit="10" fill="#4472C4"/><path d="M1584.75 1515.25C1584.75 1521.32 1579.82 1526.25 1573.75 1526.25 1567.68 1526.25 1562.75 1521.32 1562.75 1515.25 1562.75 1509.17 1567.68 1504.25 1573.75 1504.25 1579.82 1504.25 1584.75 1509.17 1584.75 1515.25Z" stroke="#4472C4" stroke-width="3.4375" stroke-linejoin="round" stroke-miterlimit="10" fill="#4472C4"/><path d="M1733.75 1419.25C1733.75 1425.32 1728.82 1430.25 1722.75 1430.25 1716.67 1430.25 1711.75 1425.32 1711.75 1419.25 1711.75 1413.17 1716.67 1408.25 1722.75 1408.25 1728.82 1408.25 1733.75 1413.17 1733.75 1419.25Z" stroke="#4472C4" stroke-width="3.4375" stroke-linejoin="round" stroke-miterlimit="10" fill="#4472C4"/><path d="M1882.75 1309.25C1882.75 1315.32 1877.82 1320.25 1871.75 1320.25 1865.67 1320.25 1860.75 1315.32 1860.75 1309.25 1860.75 1303.17 1865.67 1298.25 1871.75 1298.25 1877.82 1298.25 1882.75 1303.17 1882.75 1309.25Z" stroke="#4472C4" stroke-width="3.4375" stroke-linejoin="round" stroke-miterlimit="10" fill="#4472C4"/><path d="M2030.75 1152.25C2030.75 1158.32 2025.82 1163.25 2019.75 1163.25 2013.67 1163.25 2008.75 1158.32 2008.75 1152.25 2008.75 1146.17 2013.67 1141.25 2019.75 1141.25 2025.82 1141.25 2030.75 1146.17 2030.75 1152.25Z" stroke="#4472C4" stroke-width="3.4375" stroke-linejoin="round" stroke-miterlimit="10" fill="#4472C4"/><path d="M2179.75 1058.25C2179.75 1064.32 2174.82 1069.25 2168.75 1069.25 2162.67 1069.25 2157.75 1064.32 2157.75 1058.25 2157.75 1052.17 2162.67 1047.25 2168.75 1047.25 2174.82 1047.25 2179.75 1052.17 2179.75 1058.25Z" stroke="#4472C4" stroke-width="3.4375" stroke-linejoin="round" stroke-miterlimit="10" fill="#4472C4"/><path d="M2328.75 884.25C2328.75 890.324 2323.82 895.249 2317.75 895.249 2311.67 895.249 2306.75 890.324 2306.75 884.25 2306.75 878.175 2311.67 873.25 2317.75 873.25 2323.82 873.25 2328.75 878.175 2328.75 884.25Z" stroke="#4472C4" stroke-width="3.4375" stroke-linejoin="round" stroke-miterlimit="10" fill="#4472C4"/><path d="M2477.75 676.25C2477.75 682.324 2472.82 687.249 2466.75 687.249 2460.67 687.249 2455.75 682.324 2455.75 676.25 2455.75 670.175 2460.67 665.25 2466.75 665.25 2472.82 665.25 2477.75 670.175 2477.75 676.25Z" stroke="#4472C4" stroke-width="3.4375" stroke-linejoin="round" stroke-miterlimit="10" fill="#4472C4"/><path d="M2626.75 607.249C2626.75 613.324 2621.82 618.249 2615.75 618.249 2609.67 618.249 2604.75 613.324 2604.75 607.249 2604.75 601.175 2609.67 596.25 2615.75 596.25 2621.82 596.25 2626.75 601.175 2626.75 607.249Z" stroke="#4472C4" stroke-width="3.4375" stroke-linejoin="round" stroke-miterlimit="10" fill="#4472C4"/></g><g clip-path="url(#clip6)"><path d="M1275.5 1644.5C1325.13 1640.81 1374.76 1638.74 1424.39 1633.44 1474.02 1628.15 1523.65 1622.16 1573.28 1612.71 1622.91 1603.27 1672.54 1586.22 1722.17 1576.78 1771.8 1567.33 1821.43 1565.95 1871.06 1556.05 1920.69 1546.14 1970.31 1536.7 2019.94 1517.35 2069.57 1498 2119.2 1458.15 2168.83 1439.95 2218.46 1421.76 2268.09 1433.5 2317.72 1408.17 2367.35 1382.83 2416.98 1306.35 2466.61 1287.93 2516.24 1269.5 2565.87 1294.38 2615.5 1297.6" stroke="#ED7D31" stroke-width="6.875" stroke-linecap="round" stroke-linejoin="round" stroke-miterlimit="10" fill="none"/></g><g clip-path="url(#clip7)"><path d="M1286.75 1644.25C1286.75 1650.32 1281.82 1655.25 1275.75 1655.25 1269.68 1655.25 1264.75 1650.32 1264.75 1644.25 1264.75 1638.17 1269.68 1633.25 1275.75 1633.25 1281.82 1633.25 1286.75 1638.17 1286.75 1644.25Z" stroke="#ED7D31" stroke-width="3.4375" stroke-linejoin="round" stroke-miterlimit="10" fill="#ED7D31"/><path d="M1435.75 1633.25C1435.75 1639.32 1430.82 1644.25 1424.75 1644.25 1418.67 1644.25 1413.75 1639.32 1413.75 1633.25 1413.75 1627.17 1418.67 1622.25 1424.75 1622.25 1430.82 1622.25 1435.75 1627.17 1435.75 1633.25Z" stroke="#ED7D31" stroke-width="3.4375" stroke-linejoin="round" stroke-miterlimit="10" fill="#ED7D31"/><path d="M1584.75 1612.25C1584.75 1618.32 1579.82 1623.25 1573.75 1623.25 1567.68 1623.25 1562.75 1618.32 1562.75 1612.25 1562.75 1606.17 1567.68 1601.25 1573.75 1601.25 1579.82 1601.25 1584.75 1606.17 1584.75 1612.25Z" stroke="#ED7D31" stroke-width="3.4375" stroke-linejoin="round" stroke-miterlimit="10" fill="#ED7D31"/><path d="M1733.75 1576.25C1733.75 1582.32 1728.82 1587.25 1722.75 1587.25 1716.67 1587.25 1711.75 1582.32 1711.75 1576.25 1711.75 1570.17 1716.67 1565.25 1722.75 1565.25 1728.82 1565.25 1733.75 1570.17 1733.75 1576.25Z" stroke="#ED7D31" stroke-width="3.4375" stroke-linejoin="round" stroke-miterlimit="10" fill="#ED7D31"/><path d="M1882.75 1555.25C1882.75 1561.32 1877.82 1566.25 1871.75 1566.25 1865.67 1566.25 1860.75 1561.32 1860.75 1555.25 1860.75 1549.17 1865.67 1544.25 1871.75 1544.25 1877.82 1544.25 1882.75 1549.17 1882.75 1555.25Z" stroke="#ED7D31" stroke-width="3.4375" stroke-linejoin="round" stroke-miterlimit="10" fill="#ED7D31"/><path d="M2030.75 1517.25C2030.75 1523.32 2025.82 1528.25 2019.75 1528.25 2013.67 1528.25 2008.75 1523.32 2008.75 1517.25 2008.75 1511.17 2013.67 1506.25 2019.75 1506.25 2025.82 1506.25 2030.75 1511.17 2030.75 1517.25Z" stroke="#ED7D31" stroke-width="3.4375" stroke-linejoin="round" stroke-miterlimit="10" fill="#ED7D31"/><path d="M2179.75 1439.25C2179.75 1445.32 2174.82 1450.25 2168.75 1450.25 2162.67 1450.25 2157.75 1445.32 2157.75 1439.25 2157.75 1433.17 2162.67 1428.25 2168.75 1428.25 2174.82 1428.25 2179.75 1433.17 2179.75 1439.25Z" stroke="#ED7D31" stroke-width="3.4375" stroke-linejoin="round" stroke-miterlimit="10" fill="#ED7D31"/><path d="M2328.75 1408.25C2328.75 1414.32 2323.82 1419.25 2317.75 1419.25 2311.67 1419.25 2306.75 1414.32 2306.75 1408.25 2306.75 1402.17 2311.67 1397.25 2317.75 1397.25 2323.82 1397.25 2328.75 1402.17 2328.75 1408.25Z" stroke="#ED7D31" stroke-width="3.4375" stroke-linejoin="round" stroke-miterlimit="10" fill="#ED7D31"/><path d="M2477.75 1287.25C2477.75 1293.32 2472.82 1298.25 2466.75 1298.25 2460.67 1298.25 2455.75 1293.32 2455.75 1287.25 2455.75 1281.17 2460.67 1276.25 2466.75 1276.25 2472.82 1276.25 2477.75 1281.17 2477.75 1287.25Z" stroke="#ED7D31" stroke-width="3.4375" stroke-linejoin="round" stroke-miterlimit="10" fill="#ED7D31"/><path d="M2626.75 1297.25C2626.75 1303.32 2621.82 1308.25 2615.75 1308.25 2609.67 1308.25 2604.75 1303.32 2604.75 1297.25 2604.75 1291.17 2609.67 1286.25 2615.75 1286.25 2621.82 1286.25 2626.75 1291.17 2626.75 1297.25Z" stroke="#ED7D31" stroke-width="3.4375" stroke-linejoin="round" stroke-miterlimit="10" fill="#ED7D31"/></g><g clip-path="url(#clip8)"><path d="M1275.5 1638.5C1325.13 1631.13 1374.76 1626.06 1424.39 1616.39 1474.02 1606.71 1523.65 1594.28 1573.28 1580.45 1622.91 1566.63 1672.54 1573.78 1722.17 1533.47 1771.8 1493.16 1821.43 1376.84 1871.06 1338.6 1920.69 1300.37 1970.31 1308.2 2019.94 1304.05 2069.57 1299.9 2119.2 1329.16 2168.83 1313.72 2218.46 1298.29 2268.09 1239.56 2317.72 1211.46 2367.35 1183.35 2416.98 1196.94 2466.61 1145.12 2516.24 1093.29 2565.87 982.039 2615.5 900.5" stroke="#A5A5A5" stroke-width="6.875" stroke-linecap="round" stroke-linejoin="round" stroke-miterlimit="10" fill="none"/></g><g clip-path="url(#clip9)"><path d="M1286.75 1638.25C1286.75 1644.32 1281.82 1649.25 1275.75 1649.25 1269.68 1649.25 1264.75 1644.32 1264.75 1638.25 1264.75 1632.17 1269.68 1627.25 1275.75 1627.25 1281.82 1627.25 1286.75 1632.17 1286.75 1638.25Z" stroke="#A5A5A5" stroke-width="3.4375" stroke-linejoin="round" stroke-miterlimit="10" fill="#A5A5A5"/><path d="M1435.75 1616.25C1435.75 1622.32 1430.82 1627.25 1424.75 1627.25 1418.67 1627.25 1413.75 1622.32 1413.75 1616.25 1413.75 1610.17 1418.67 1605.25 1424.75 1605.25 1430.82 1605.25 1435.75 1610.17 1435.75 1616.25Z" stroke="#A5A5A5" stroke-width="3.4375" stroke-linejoin="round" stroke-miterlimit="10" fill="#A5A5A5"/><path d="M1584.75 1580.25C1584.75 1586.32 1579.82 1591.25 1573.75 1591.25 1567.68 1591.25 1562.75 1586.32 1562.75 1580.25 1562.75 1574.17 1567.68 1569.25 1573.75 1569.25 1579.82 1569.25 1584.75 1574.17 1584.75 1580.25Z" stroke="#A5A5A5" stroke-width="3.4375" stroke-linejoin="round" stroke-miterlimit="10" fill="#A5A5A5"/><path d="M1733.75 1533.25C1733.75 1539.32 1728.82 1544.25 1722.75 1544.25 1716.67 1544.25 1711.75 1539.32 1711.75 1533.25 1711.75 1527.17 1716.67 1522.25 1722.75 1522.25 1728.82 1522.25 1733.75 1527.17 1733.75 1533.25Z" stroke="#A5A5A5" stroke-width="3.4375" stroke-linejoin="round" stroke-miterlimit="10" fill="#A5A5A5"/><path d="M1882.75 1338.25C1882.75 1344.32 1877.82 1349.25 1871.75 1349.25 1865.67 1349.25 1860.75 1344.32 1860.75 1338.25 1860.75 1332.17 1865.67 1327.25 1871.75 1327.25 1877.82 1327.25 1882.75 1332.17 1882.75 1338.25Z" stroke="#A5A5A5" stroke-width="3.4375" stroke-linejoin="round" stroke-miterlimit="10" fill="#A5A5A5"/><path d="M2030.75 1304.25C2030.75 1310.32 2025.82 1315.25 2019.75 1315.25 2013.67 1315.25 2008.75 1310.32 2008.75 1304.25 2008.75 1298.17 2013.67 1293.25 2019.75 1293.25 2025.82 1293.25 2030.75 1298.17 2030.75 1304.25Z" stroke="#A5A5A5" stroke-width="3.4375" stroke-linejoin="round" stroke-miterlimit="10" fill="#A5A5A5"/><path d="M2179.75 1314.25C2179.75 1320.32 2174.82 1325.25 2168.75 1325.25 2162.67 1325.25 2157.75 1320.32 2157.75 1314.25 2157.75 1308.17 2162.67 1303.25 2168.75 1303.25 2174.82 1303.25 2179.75 1308.17 2179.75 1314.25Z" stroke="#A5A5A5" stroke-width="3.4375" stroke-linejoin="round" stroke-miterlimit="10" fill="#A5A5A5"/><path d="M2328.75 1211.25C2328.75 1217.32 2323.82 1222.25 2317.75 1222.25 2311.67 1222.25 2306.75 1217.32 2306.75 1211.25 2306.75 1205.17 2311.67 1200.25 2317.75 1200.25 2323.82 1200.25 2328.75 1205.17 2328.75 1211.25Z" stroke="#A5A5A5" stroke-width="3.4375" stroke-linejoin="round" stroke-miterlimit="10" fill="#A5A5A5"/><path d="M2477.75 1145.25C2477.75 1151.32 2472.82 1156.25 2466.75 1156.25 2460.67 1156.25 2455.75 1151.32 2455.75 1145.25 2455.75 1139.17 2460.67 1134.25 2466.75 1134.25 2472.82 1134.25 2477.75 1139.17 2477.75 1145.25Z" stroke="#A5A5A5" stroke-width="3.4375" stroke-linejoin="round" stroke-miterlimit="10" fill="#A5A5A5"/><path d="M2626.75 900.25C2626.75 906.325 2621.82 911.249 2615.75 911.249 2609.67 911.249 2604.75 906.325 2604.75 900.25 2604.75 894.175 2609.67 889.25 2615.75 889.25 2621.82 889.25 2626.75 894.175 2626.75 900.25Z" stroke="#A5A5A5" stroke-width="3.4375" stroke-linejoin="round" stroke-miterlimit="10" fill="#A5A5A5"/></g><g clip-path="url(#clip10)"><path d="M1275.5 1640.5C1325.13 1636.81 1374.76 1632.89 1424.39 1629.43 1474.02 1625.97 1523.65 1623.9 1573.28 1619.75 1622.91 1615.6 1672.54 1608.91 1722.17 1604.53 1771.8 1600.15 1821.43 1598.54 1871.06 1593.47 1920.69 1588.39 1970.31 1579.4 2019.94 1574.1 2069.57 1568.8 2119.2 1565.8 2168.83 1561.65 2218.46 1557.5 2268.09 1555.42 2317.72 1549.2 2367.35 1542.97 2416.98 1536.75 2466.61 1524.3 2516.24 1511.85 2565.87 1491.1 2615.5 1474.5" stroke="#FFC000" stroke-width="6.875" stroke-linecap="round" stroke-linejoin="round" stroke-miterlimit="10" fill="none"/></g><g clip-path="url(#clip11)"><path d="M1286.75 1640.25C1286.75 1646.32 1281.82 1651.25 1275.75 1651.25 1269.68 1651.25 1264.75 1646.32 1264.75 1640.25 1264.75 1634.17 1269.68 1629.25 1275.75 1629.25 1281.82 1629.25 1286.75 1634.17 1286.75 1640.25Z" stroke="#FFC000" stroke-width="3.4375" stroke-linejoin="round" stroke-miterlimit="10" fill="#FFC000"/><path d="M1435.75 1629.25C1435.75 1635.32 1430.82 1640.25 1424.75 1640.25 1418.67 1640.25 1413.75 1635.32 1413.75 1629.25 1413.75 1623.17 1418.67 1618.25 1424.75 1618.25 1430.82 1618.25 1435.75 1623.17 1435.75 1629.25Z" stroke="#FFC000" stroke-width="3.4375" stroke-linejoin="round" stroke-miterlimit="10" fill="#FFC000"/><path d="M1584.75 1619.25C1584.75 1625.32 1579.82 1630.25 1573.75 1630.25 1567.68 1630.25 1562.75 1625.32 1562.75 1619.25 1562.75 1613.17 1567.68 1608.25 1573.75 1608.25 1579.82 1608.25 1584.75 1613.17 1584.75 1619.25Z" stroke="#FFC000" stroke-width="3.4375" stroke-linejoin="round" stroke-miterlimit="10" fill="#FFC000"/><path d="M1733.75 1604.25C1733.75 1610.32 1728.82 1615.25 1722.75 1615.25 1716.67 1615.25 1711.75 1610.32 1711.75 1604.25 1711.75 1598.17 1716.67 1593.25 1722.75 1593.25 1728.82 1593.25 1733.75 1598.17 1733.75 1604.25Z" stroke="#FFC000" stroke-width="3.4375" stroke-linejoin="round" stroke-miterlimit="10" fill="#FFC000"/><path d="M1882.75 1593.25C1882.75 1599.32 1877.82 1604.25 1871.75 1604.25 1865.67 1604.25 1860.75 1599.32 1860.75 1593.25 1860.75 1587.17 1865.67 1582.25 1871.75 1582.25 1877.82 1582.25 1882.75 1587.17 1882.75 1593.25Z" stroke="#FFC000" stroke-width="3.4375" stroke-linejoin="round" stroke-miterlimit="10" fill="#FFC000"/><path d="M2030.75 1573.25C2030.75 1579.32 2025.82 1584.25 2019.75 1584.25 2013.67 1584.25 2008.75 1579.32 2008.75 1573.25 2008.75 1567.17 2013.67 1562.25 2019.75 1562.25 2025.82 1562.25 2030.75 1567.17 2030.75 1573.25Z" stroke="#FFC000" stroke-width="3.4375" stroke-linejoin="round" stroke-miterlimit="10" fill="#FFC000"/><path d="M2179.75 1561.25C2179.75 1567.32 2174.82 1572.25 2168.75 1572.25 2162.67 1572.25 2157.75 1567.32 2157.75 1561.25 2157.75 1555.17 2162.67 1550.25 2168.75 1550.25 2174.82 1550.25 2179.75 1555.17 2179.75 1561.25Z" stroke="#FFC000" stroke-width="3.4375" stroke-linejoin="round" stroke-miterlimit="10" fill="#FFC000"/><path d="M2328.75 1549.25C2328.75 1555.32 2323.82 1560.25 2317.75 1560.25 2311.67 1560.25 2306.75 1555.32 2306.75 1549.25 2306.75 1543.17 2311.67 1538.25 2317.75 1538.25 2323.82 1538.25 2328.75 1543.17 2328.75 1549.25Z" stroke="#FFC000" stroke-width="3.4375" stroke-linejoin="round" stroke-miterlimit="10" fill="#FFC000"/><path d="M2477.75 1524.25C2477.75 1530.32 2472.82 1535.25 2466.75 1535.25 2460.67 1535.25 2455.75 1530.32 2455.75 1524.25 2455.75 1518.17 2460.67 1513.25 2466.75 1513.25 2472.82 1513.25 2477.75 1518.17 2477.75 1524.25Z" stroke="#FFC000" stroke-width="3.4375" stroke-linejoin="round" stroke-miterlimit="10" fill="#FFC000"/><path d="M2626.75 1474.25C2626.75 1480.32 2621.82 1485.25 2615.75 1485.25 2609.67 1485.25 2604.75 1480.32 2604.75 1474.25 2604.75 1468.17 2609.67 1463.25 2615.75 1463.25 2621.82 1463.25 2626.75 1468.17 2626.75 1474.25Z" stroke="#FFC000" stroke-width="3.4375" stroke-linejoin="round" stroke-miterlimit="10" fill="#FFC000"/></g><g clip-path="url(#clip12)"><path d="M1275.5 1633.5C1325.13 1629.34 1374.76 1625.18 1424.39 1621.02 1474.02 1616.86 1523.65 1612.01 1573.28 1608.55 1622.91 1605.08 1672.54 1603.23 1722.17 1600.23 1771.8 1597.22 1821.43 1598.38 1871.06 1590.52 1920.69 1582.67 1970.31 1560.72 2019.94 1553.09 2069.57 1545.47 2119.2 1548.24 2168.83 1544.77 2218.46 1541.31 2268.09 1536.45 2317.72 1532.3 2367.35 1528.14 2416.98 1533.45 2466.61 1519.82 2516.24 1506.19 2565.87 1473.61 2615.5 1450.5" stroke="#5B9BD5" stroke-width="6.875" stroke-linecap="round" stroke-linejoin="round" stroke-miterlimit="10" fill="none"/></g><g clip-path="url(#clip13)"><path d="M1286.75 1633.25C1286.75 1639.32 1281.82 1644.25 1275.75 1644.25 1269.68 1644.25 1264.75 1639.32 1264.75 1633.25 1264.75 1627.17 1269.68 1622.25 1275.75 1622.25 1281.82 1622.25 1286.75 1627.17 1286.75 1633.25Z" stroke="#5B9BD5" stroke-width="3.4375" stroke-linejoin="round" stroke-miterlimit="10" fill="#5B9BD5"/><path d="M1435.75 1620.25C1435.75 1626.32 1430.82 1631.25 1424.75 1631.25 1418.67 1631.25 1413.75 1626.32 1413.75 1620.25 1413.75 1614.17 1418.67 1609.25 1424.75 1609.25 1430.82 1609.25 1435.75 1614.17 1435.75 1620.25Z" stroke="#5B9BD5" stroke-width="3.4375" stroke-linejoin="round" stroke-miterlimit="10" fill="#5B9BD5"/><path d="M1584.75 1608.25C1584.75 1614.32 1579.82 1619.25 1573.75 1619.25 1567.68 1619.25 1562.75 1614.32 1562.75 1608.25 1562.75 1602.17 1567.68 1597.25 1573.75 1597.25 1579.82 1597.25 1584.75 1602.17 1584.75 1608.25Z" stroke="#5B9BD5" stroke-width="3.4375" stroke-linejoin="round" stroke-miterlimit="10" fill="#5B9BD5"/><path d="M1733.75 1600.25C1733.75 1606.32 1728.82 1611.25 1722.75 1611.25 1716.67 1611.25 1711.75 1606.32 1711.75 1600.25 1711.75 1594.17 1716.67 1589.25 1722.75 1589.25 1728.82 1589.25 1733.75 1594.17 1733.75 1600.25Z" stroke="#5B9BD5" stroke-width="3.4375" stroke-linejoin="round" stroke-miterlimit="10" fill="#5B9BD5"/><path d="M1882.75 1590.25C1882.75 1596.32 1877.82 1601.25 1871.75 1601.25 1865.67 1601.25 1860.75 1596.32 1860.75 1590.25 1860.75 1584.17 1865.67 1579.25 1871.75 1579.25 1877.82 1579.25 1882.75 1584.17 1882.75 1590.25Z" stroke="#5B9BD5" stroke-width="3.4375" stroke-linejoin="round" stroke-miterlimit="10" fill="#5B9BD5"/><path d="M2030.75 1553.25C2030.75 1559.32 2025.82 1564.25 2019.75 1564.25 2013.67 1564.25 2008.75 1559.32 2008.75 1553.25 2008.75 1547.17 2013.67 1542.25 2019.75 1542.25 2025.82 1542.25 2030.75 1547.17 2030.75 1553.25Z" stroke="#5B9BD5" stroke-width="3.4375" stroke-linejoin="round" stroke-miterlimit="10" fill="#5B9BD5"/><path d="M2179.75 1544.25C2179.75 1550.32 2174.82 1555.25 2168.75 1555.25 2162.67 1555.25 2157.75 1550.32 2157.75 1544.25 2157.75 1538.17 2162.67 1533.25 2168.75 1533.25 2174.82 1533.25 2179.75 1538.17 2179.75 1544.25Z" stroke="#5B9BD5" stroke-width="3.4375" stroke-linejoin="round" stroke-miterlimit="10" fill="#5B9BD5"/><path d="M2328.75 1532.25C2328.75 1538.32 2323.82 1543.25 2317.75 1543.25 2311.67 1543.25 2306.75 1538.32 2306.75 1532.25 2306.75 1526.17 2311.67 1521.25 2317.75 1521.25 2323.82 1521.25 2328.75 1526.17 2328.75 1532.25Z" stroke="#5B9BD5" stroke-width="3.4375" stroke-linejoin="round" stroke-miterlimit="10" fill="#5B9BD5"/><path d="M2477.75 1520.25C2477.75 1526.32 2472.82 1531.25 2466.75 1531.25 2460.67 1531.25 2455.75 1526.32 2455.75 1520.25 2455.75 1514.17 2460.67 1509.25 2466.75 1509.25 2472.82 1509.25 2477.75 1514.17 2477.75 1520.25Z" stroke="#5B9BD5" stroke-width="3.4375" stroke-linejoin="round" stroke-miterlimit="10" fill="#5B9BD5"/><path d="M2626.75 1450.25C2626.75 1456.32 2621.82 1461.25 2615.75 1461.25 2609.67 1461.25 2604.75 1456.32 2604.75 1450.25 2604.75 1444.17 2609.67 1439.25 2615.75 1439.25 2621.82 1439.25 2626.75 1444.17 2626.75 1450.25Z" stroke="#5B9BD5" stroke-width="3.4375" stroke-linejoin="round" stroke-miterlimit="10" fill="#5B9BD5"/></g><g clip-path="url(#clip14)"><text fill="#595959" font-family="Calibri,Calibri_MSFontService,sans-serif" font-weight="400" font-size="41" transform="matrix(1 0 0 1 1067.44 1664)">0</text></g><g clip-path="url(#clip15)"><text fill="#595959" font-family="Calibri,Calibri_MSFontService,sans-serif" font-weight="400" font-size="41" transform="matrix(1 0 0 1 1015.23 1526)">0.01</text></g><g clip-path="url(#clip16)"><text fill="#595959" font-family="Calibri,Calibri_MSFontService,sans-serif" font-weight="400" font-size="41" transform="matrix(1 0 0 1 1015.23 1388)">0.02</text></g><g clip-path="url(#clip17)"><text fill="#595959" font-family="Calibri,Calibri_MSFontService,sans-serif" font-weight="400" font-size="41" transform="matrix(1 0 0 1 1015.23 1250)">0.03</text></g><g clip-path="url(#clip18)"><text fill="#595959" font-family="Calibri,Calibri_MSFontService,sans-serif" font-weight="400" font-size="41" transform="matrix(1 0 0 1 1015.23 1111)">0.04</text></g><g clip-path="url(#clip19)"><text fill="#595959" font-family="Calibri,Calibri_MSFontService,sans-serif" font-weight="400" font-size="41" transform="matrix(1 0 0 1 1015.23 973)">0.05</text></g><g clip-path="url(#clip20)"><text fill="#595959" font-family="Calibri,Calibri_MSFontService,sans-serif" font-weight="400" font-size="41" transform="matrix(1 0 0 1 1015.23 835)">0.06</text></g><g clip-path="url(#clip21)"><text fill="#595959" font-family="Calibri,Calibri_MSFontService,sans-serif" font-weight="400" font-size="41" transform="matrix(1 0 0 1 1015.23 697)">0.07</text></g><g clip-path="url(#clip22)"><text fill="#595959" font-family="Calibri,Calibri_MSFontService,sans-serif" font-weight="400" font-size="41" transform="matrix(1 0 0 1 1015.23 558)">0.08</text></g><g clip-path="url(#clip23)"><text fill="#595959" font-family="Calibri,Calibri_MSFontService,sans-serif" font-weight="400" font-size="41" transform="matrix(1 0 0 1 1116.15 1718)">0</text></g><g clip-path="url(#clip24)"><text fill="#595959" font-family="Calibri,Calibri_MSFontService,sans-serif" font-weight="400" font-size="41" transform="matrix(1 0 0 1 1403.47 1718)">20</text></g><g clip-path="url(#clip25)"><text fill="#595959" font-family="Calibri,Calibri_MSFontService,sans-serif" font-weight="400" font-size="41" transform="matrix(1 0 0 1 1701.23 1718)">40</text></g><g clip-path="url(#clip26)"><text fill="#595959" font-family="Calibri,Calibri_MSFontService,sans-serif" font-weight="400" font-size="41" transform="matrix(1 0 0 1 1999 1718)">60</text></g><g clip-path="url(#clip27)"><text fill="#595959" font-family="Calibri,Calibri_MSFontService,sans-serif" font-weight="400" font-size="41" transform="matrix(1 0 0 1 2296.76 1718)">80</text></g><g clip-path="url(#clip28)"><text fill="#595959" font-family="Calibri,Calibri_MSFontService,sans-serif" font-weight="400" font-size="41" transform="matrix(1 0 0 1 2584.07 1718)">100</text></g><g clip-path="url(#clip29)"><text fill="#595959" font-family="Calibri,Calibri_MSFontService,sans-serif" font-weight="400" font-size="41" transform="matrix(1 0 0 1 2881.84 1718)">120</text></g><g clip-path="url(#clip30)"><text fill="#595959" font-family="Calibri,Calibri_MSFontService,sans-serif" font-weight="400" font-size="46" transform="matrix(6.12323e-17 -1 1 6.12323e-17 989.542 1208)">Temps [ms]</text></g><g clip-path="url(#clip31)"><text fill="#595959" font-family="Calibri,Calibri_MSFontService,sans-serif" font-weight="400" font-size="46" transform="matrix(1 0 0 1 1950.26 1787)">Valeurs</text></g><g clip-path="url(#clip32)"><text fill="#595959" font-family="Calibri,Calibri_MSFontService,sans-serif" font-weight="400" font-size="64" transform="matrix(1 0 0 1 1883.6 472)">Temps Presque Trié</text></g><g clip-path="url(#clip33)"><path d="M3016.5 1021.5 3104.5 1021.5" stroke="#4472C4" stroke-width="6.875" stroke-linecap="round" stroke-linejoin="round" stroke-miterlimit="10" fill="none" fill-rule="evenodd"/></g><g clip-path="url(#clip34)"><path d="M3071 1021C3071 1027.07 3066.07 1032 3060 1032 3053.92 1032 3049 1027.07 3049 1021 3049 1014.92 3053.92 1010 3060 1010 3066.07 1010 3071 1014.92 3071 1021Z" stroke="#4472C4" stroke-width="3.4375" stroke-linejoin="round" stroke-miterlimit="10" fill="#4472C4"/></g><g clip-path="url(#clip35)"><text fill="#595959" font-family="Calibri,Calibri_MSFontService,sans-serif" font-weight="400" font-size="41" transform="matrix(1 0 0 1 3113.55 1033)">BubbleSort</text></g><g clip-path="url(#clip36)"><path d="M3016.5 1098.5 3104.5 1098.5" stroke="#ED7D31" stroke-width="6.875" stroke-linecap="round" stroke-linejoin="round" stroke-miterlimit="10" fill="none" fill-rule="evenodd"/></g><g clip-path="url(#clip37)"><path d="M3071 1098C3071 1104.07 3066.07 1109 3060 1109 3053.92 1109 3049 1104.07 3049 1098 3049 1091.92 3053.92 1087 3060 1087 3066.07 1087 3071 1091.92 3071 1098Z" stroke="#ED7D31" stroke-width="3.4375" stroke-linejoin="round" stroke-miterlimit="10" fill="#ED7D31"/></g><g clip-path="url(#clip38)"><text fill="#595959" font-family="Calibri,Calibri_MSFontService,sans-serif" font-weight="400" font-size="41" transform="matrix(1 0 0 1 3113.55 1110)">InsertionSort</text></g><g clip-path="url(#clip39)"><path d="M3016.5 1176.5 3104.5 1176.5" stroke="#A5A5A5" stroke-width="6.875" stroke-linecap="round" stroke-linejoin="round" stroke-miterlimit="10" fill="none" fill-rule="evenodd"/></g><g clip-path="url(#clip40)"><path d="M3071 1176C3071 1182.07 3066.07 1187 3060 1187 3053.92 1187 3049 1182.07 3049 1176 3049 1169.92 3053.92 1165 3060 1165 3066.07 1165 3071 1169.92 3071 1176Z" stroke="#A5A5A5" stroke-width="3.4375" stroke-linejoin="round" stroke-miterlimit="10" fill="#A5A5A5"/></g><g clip-path="url(#clip41)"><text fill="#595959" font-family="Calibri,Calibri_MSFontService,sans-serif" font-weight="400" font-size="41" transform="matrix(1 0 0 1 3113.55 1188)">SelectionSort</text></g><g clip-path="url(#clip42)"><path d="M3016.5 1253.5 3104.5 1253.5" stroke="#FFC000" stroke-width="6.875" stroke-linecap="round" stroke-linejoin="round" stroke-miterlimit="10" fill="none" fill-rule="evenodd"/></g><g clip-path="url(#clip43)"><path d="M3071 1253C3071 1259.07 3066.07 1264 3060 1264 3053.92 1264 3049 1259.07 3049 1253 3049 1246.92 3053.92 1242 3060 1242 3066.07 1242 3071 1246.92 3071 1253Z" stroke="#FFC000" stroke-width="3.4375" stroke-linejoin="round" stroke-miterlimit="10" fill="#FFC000"/></g><g clip-path="url(#clip44)"><text fill="#595959" font-family="Calibri,Calibri_MSFontService,sans-serif" font-weight="400" font-size="41" transform="matrix(1 0 0 1 3113.55 1265)">Sort</text></g><g clip-path="url(#clip45)"><path d="M3016.5 1330.5 3104.5 1330.5" stroke="#5B9BD5" stroke-width="6.875" stroke-linecap="round" stroke-linejoin="round" stroke-miterlimit="10" fill="none" fill-rule="evenodd"/></g><g clip-path="url(#clip46)"><path d="M3071 1330C3071 1336.07 3066.07 1341 3060 1341 3053.92 1341 3049 1336.07 3049 1330 3049 1323.92 3053.92 1319 3060 1319 3066.07 1319 3071 1323.92 3071 1330Z" stroke="#5B9BD5" stroke-width="3.4375" stroke-linejoin="round" stroke-miterlimit="10" fill="#5B9BD5"/></g><g clip-path="url(#clip47)"><text fill="#595959" font-family="Calibri,Calibri_MSFontService,sans-serif" font-weight="400" font-size="41" transform="matrix(1 0 0 1 3113.55 1343)">StableSort</text></g><rect x="888.5" y="377.5" width="2494" height="1479" stroke="#D9D9D9" stroke-width="3.4375" stroke-linejoin="round" stroke-miterlimit="10" fill="none"/></g></svg>